<?xml version="1.0" encoding="utf-8"?>
<!-- Generator: Adobe Illustrator 16.0.0, SVG Export Plug-In . SVG Version: 6.00 Build 0)  -->
<!DOCTYPE svg PUBLIC "-//W3C//DTD SVG 1.1//EN" "http://www.w3.org/Graphics/SVG/1.1/DTD/svg11.dtd">
<svg version="1.1" xmlns="http://www.w3.org/2000/svg" xmlns:xlink="http://www.w3.org/1999/xlink" x="0px" y="0px"
	 width="367.687px" height="533.809px" viewBox="0 0 367.687 533.809" enable-background="new 0 0 367.687 533.809"
	 xml:space="preserve">
<g id="Group_1_1_">
	<g id="FRESH_x0D_MEN__x0D_MT">
		<g>
			<path fill="#BDD642" d="M0,10.781h57.463v25.682H31.144v10.86h25.88v24.361h-25.88v36.982H0V10.781z"/>
			<path fill="#BDD642" d="M64.042,10.781h33.629c6.237,0,12.013,0.833,17.327,2.495c5.312,1.665,9.917,4.109,13.817,7.337
				c3.898,3.229,6.945,7.216,9.139,11.96c2.193,4.747,3.29,10.2,3.29,16.363c0,4.894-0.683,9.051-2.047,12.474
				c-1.366,3.426-2.876,6.262-4.533,8.512c-1.951,2.545-4.144,4.696-6.58,6.457l18.277,32.286h-36.554L95.187,83.865v24.801H64.042
				V10.781z M95.187,58.917h1.608c3.703,0,6.847-0.83,9.431-2.495c2.582-1.663,3.875-4.451,3.875-8.365
				c0-3.912-1.293-6.7-3.875-8.365c-2.584-1.663-5.728-2.495-9.431-2.495h-1.608V58.917z"/>
			<path fill="#BDD642" d="M147.823,10.781h57.462v25.682h-26.318v10.86h25.88v24.361h-25.88v11.3h27.343v25.682h-58.487V10.781z"/>
			<path fill="#BDD642" d="M209.526,78.289c2.144,0.686,4.387,1.224,6.727,1.614c1.948,0.491,4.167,0.88,6.652,1.174
				c2.486,0.293,4.994,0.44,7.53,0.44c4.482,0,6.726-1.663,6.726-4.99c0-1.271-0.683-2.568-2.047-3.889
				c-1.366-1.321-3.096-2.788-5.19-4.402c-2.098-1.614-4.339-3.398-6.726-5.357c-2.39-1.956-4.631-4.205-6.727-6.75
				c-2.097-2.543-3.826-5.405-5.19-8.585c-1.366-3.178-2.047-6.824-2.047-10.934c0-4.597,0.827-8.658,2.485-12.18
				c1.656-3.522,3.948-6.458,6.872-8.806c2.925-2.348,6.36-4.132,10.309-5.356c3.948-1.222,8.163-1.834,12.647-1.834
				c2.34,0,4.679,0.124,7.019,0.367c2.34,0.245,4.435,0.465,6.287,0.66c2.144,0.293,4.24,0.587,6.287,0.881v27.443
				c-0.781-0.096-1.658-0.195-2.632-0.293c-0.781-0.096-1.658-0.195-2.632-0.293c-0.976-0.097-1.999-0.147-3.07-0.147
				c-0.585,0-1.316,0.025-2.193,0.073c-0.877,0.051-1.706,0.172-2.485,0.367c-0.781,0.197-1.462,0.539-2.047,1.027
				c-0.585,0.491-0.878,1.174-0.878,2.054c0,0.785,0.658,1.761,1.975,2.935c1.315,1.174,2.924,2.545,4.825,4.109
				c1.9,1.566,3.995,3.375,6.287,5.43c2.289,2.055,4.386,4.403,6.287,7.044c1.9,2.642,3.509,5.627,4.825,8.952
				c1.315,3.327,1.974,7.044,1.974,11.153c0,4.306-0.683,8.342-2.047,12.107c-1.366,3.768-3.486,7.044-6.36,9.833
				c-2.876,2.789-6.557,4.99-11.039,6.604c-4.485,1.614-9.797,2.421-15.938,2.421c-3.706,0-7.143-0.172-10.309-0.514
				c-3.169-0.344-5.972-0.759-8.407-1.247c-2.828-0.491-5.41-1.076-7.75-1.761V78.289z"/>
			<path fill="#BDD642" d="M276.492,10.781h31.145v33.313h17.399V10.781h31.29v97.885h-31.29V72.418h-17.399v36.249h-31.145V10.781z
				"/>
			<path fill="#BDD642" d="M2.012,117.585h35.854l35.446,52.342l35.242-52.342h35.854v136.376h-43.391v-49.071l-27.705,40.892
				l-27.909-40.892v49.071H2.012V117.585z"/>
			<path fill="#BDD642" d="M156.629,117.585h80.059v35.781H200.02v15.13h36.058v33.941H200.02v15.744h38.095v35.781h-81.485V117.585
				z"/>
			<path fill="#BDD642" d="M248.298,117.585h35.649l37.483,52.547v-52.547h42.576v136.376h-35.854l-37.279-52.342v52.342h-42.576
				V117.585z"/>
			<path fill="#ED7F4E" d="M5.534,274.068h53.562l52.954,78.195l52.649-78.195h53.562v203.736h-64.823v-73.309l-41.389,61.09
				l-41.693-61.09v73.309H5.534V274.068z"/>
			<path fill="#ED7F4E" d="M263.301,327.521h-37.433v-53.453h141.818v53.453h-37.433v150.283h-66.953V327.521z"/>
		</g>
	</g>
	<g id="september_10_to_11">
		<g>
			<path fill="#EFA420" d="M1.089,524.451c0.662,0.211,1.355,0.377,2.079,0.497c0.603,0.151,1.288,0.271,2.057,0.362
				c0.768,0.09,1.543,0.135,2.328,0.135c1.385,0,2.079-0.512,2.079-1.536c0-0.392-0.211-0.791-0.633-1.198
				c-0.422-0.407-0.957-0.859-1.604-1.356c-0.648-0.497-1.341-1.047-2.079-1.649c-0.739-0.603-1.432-1.296-2.079-2.08
				c-0.648-0.783-1.183-1.664-1.604-2.645c-0.422-0.979-0.633-2.102-0.633-3.367c0-1.416,0.256-2.667,0.769-3.752
				c0.512-1.085,1.22-1.989,2.124-2.712c0.904-0.724,1.966-1.273,3.187-1.65s2.523-0.565,3.91-0.565
				c0.723,0,1.446,0.038,2.169,0.113s1.371,0.144,1.944,0.203c0.662,0.091,1.311,0.182,1.943,0.271v8.453
				c-0.242-0.029-0.513-0.06-0.813-0.09c-0.242-0.03-0.513-0.061-0.813-0.091c-0.302-0.029-0.618-0.045-0.949-0.045
				c-0.181,0-0.407,0.008-0.678,0.022c-0.271,0.016-0.527,0.053-0.768,0.113c-0.242,0.061-0.452,0.166-0.633,0.316
				s-0.271,0.361-0.271,0.633c0,0.241,0.203,0.542,0.61,0.903c0.407,0.362,0.904,0.784,1.492,1.267
				c0.587,0.482,1.235,1.039,1.943,1.672c0.708,0.633,1.356,1.356,1.943,2.17s1.084,1.733,1.491,2.758
				c0.407,1.024,0.61,2.17,0.61,3.436c0,1.326-0.211,2.569-0.633,3.729c-0.422,1.16-1.078,2.17-1.966,3.028
				c-0.889,0.859-2.027,1.537-3.413,2.034c-1.386,0.497-3.028,0.746-4.926,0.746c-1.146,0-2.208-0.053-3.186-0.158
				c-0.979-0.106-1.846-0.233-2.599-0.385c-0.874-0.15-1.672-0.331-2.395-0.542V524.451z"/>
			<path fill="#EFA420" d="M21.789,503.657H39.55v7.911h-8.135v3.345h8v7.504h-8v3.48h8.452v7.911H21.789V503.657z"/>
			<path fill="#EFA420" d="M65.583,515.139c0,2.08-0.361,3.851-1.084,5.312c-0.723,1.463-1.71,2.645-2.96,3.549
				c-1.251,0.904-2.712,1.567-4.384,1.989c-1.672,0.422-3.473,0.633-5.401,0.633v7.188h-9.626v-30.151h9.626
				c1.928,0,3.729,0.211,5.401,0.633c1.672,0.423,3.133,1.085,4.384,1.989c1.25,0.904,2.237,2.087,2.96,3.548
				C65.222,511.29,65.583,513.06,65.583,515.139z M51.753,518.484h0.407c1.266,0,2.177-0.294,2.734-0.882
				c0.557-0.588,0.836-1.408,0.836-2.464c0-1.054-0.279-1.876-0.836-2.463c-0.558-0.588-1.469-0.882-2.734-0.882h-0.407V518.484z"/>
			<path fill="#EFA420" d="M71.367,511.568h-5.559v-7.911H86.87v7.911h-5.559v22.24h-9.943V511.568z"/>
			<path fill="#EFA420" d="M87.999,503.657h17.762v7.911h-8.135v3.345h8v7.504h-8v3.48h8.452v7.911H87.999V503.657z"/>
			<path fill="#EFA420" d="M108.337,503.657h7.954l7.864,11.572l7.819-11.572h7.955v30.151h-9.626V522.96l-6.147,9.04l-6.192-9.04
				v10.849h-9.626V503.657z"/>
			<path fill="#EFA420" d="M142.641,503.657h11.796c1.506,0,2.885,0.174,4.136,0.52c1.25,0.347,2.32,0.859,3.208,1.537
				s1.582,1.522,2.079,2.531c0.497,1.011,0.746,2.192,0.746,3.549c0,0.965-0.121,1.785-0.362,2.464
				c-0.242,0.678-0.497,1.243-0.769,1.695c-0.332,0.542-0.708,0.994-1.13,1.355c0.663,0.423,1.266,0.965,1.808,1.628
				c0.452,0.572,0.866,1.296,1.243,2.17c0.376,0.874,0.565,1.943,0.565,3.209c0,1.446-0.256,2.758-0.768,3.933
				c-0.513,1.176-1.243,2.178-2.192,3.007c-0.949,0.829-2.109,1.462-3.48,1.898c-1.371,0.438-2.9,0.655-4.587,0.655h-12.293V503.657
				z M155.295,512.834c0-1.386-0.753-2.08-2.26-2.08h-1.085v4.159h1.085C154.542,514.913,155.295,514.22,155.295,512.834z
				 M153.036,526.712c2.29,0,3.435-0.874,3.435-2.622s-1.145-2.622-3.435-2.622h-1.085v5.244H153.036z"/>
			<path fill="#EFA420" d="M167.543,503.657h17.762v7.911h-8.135v3.345h8v7.504h-8v3.48h8.452v7.911h-18.078V503.657z"/>
			<path fill="#EFA420" d="M187.881,503.657h10.394c1.93,0,3.715,0.257,5.357,0.769c1.641,0.513,3.064,1.266,4.27,2.26
				c1.205,0.995,2.148,2.223,2.826,3.685s1.016,3.142,1.016,5.04c0,1.508-0.211,2.788-0.633,3.843s-0.889,1.929-1.4,2.622
				c-0.604,0.783-1.281,1.446-2.033,1.988l5.648,9.945h-11.299l-4.52-7.64v7.64h-9.626V503.657z M197.507,518.484h0.498
				c1.145,0,2.115-0.256,2.914-0.769c0.799-0.512,1.197-1.371,1.197-2.577c0-1.204-0.398-2.063-1.197-2.576
				c-0.799-0.512-1.77-0.769-2.914-0.769h-0.498V518.484z"/>
			<path fill="#EFA420" d="M223.72,515.41l-4.067-4.746l6.599-7.007h7.231v30.151h-9.763V515.41z"/>
			<path fill="#EFA420" d="M259.833,518.756c0,5.123-1.07,9.041-3.209,11.753c-2.14,2.712-5.123,4.068-8.949,4.068
				c-3.827,0-6.81-1.356-8.948-4.068c-2.141-2.712-3.209-6.63-3.209-11.753s1.068-9.041,3.209-11.754
				c2.139-2.712,5.121-4.068,8.948-4.068c3.826,0,6.81,1.356,8.949,4.068C258.762,509.715,259.833,513.633,259.833,518.756z
				 M250.567,518.756c0-4.731-0.965-7.098-2.893-7.098c-1.929,0-2.893,2.366-2.893,7.098s0.964,7.097,2.893,7.097
				C249.602,525.853,250.567,523.487,250.567,518.756z"/>
			<path fill="#EFA420" d="M274.43,511.568h-5.56v-7.911h21.062v7.911h-5.56v22.24h-9.942V511.568z"/>
			<path fill="#EFA420" d="M290.383,518.756c0-2.17,0.413-4.219,1.242-6.148c0.829-1.928,1.959-3.608,3.39-5.04
				c1.431-1.431,3.111-2.562,5.04-3.391c1.928-0.828,3.977-1.243,6.146-1.243c2.169,0,4.218,0.415,6.146,1.243
				c1.928,0.829,3.608,1.96,5.039,3.391c1.431,1.432,2.561,3.112,3.39,5.04c0.829,1.93,1.243,3.979,1.243,6.148
				s-0.414,4.219-1.243,6.147s-1.959,3.609-3.39,5.04c-1.431,1.432-3.111,2.562-5.039,3.391c-1.929,0.828-3.978,1.243-6.146,1.243
				c-2.17,0-4.219-0.415-6.146-1.243c-1.929-0.828-3.609-1.959-5.04-3.391c-1.431-1.431-2.561-3.111-3.39-5.04
				S290.383,520.926,290.383,518.756z M299.875,518.756c0,0.874,0.165,1.694,0.497,2.463c0.331,0.769,0.783,1.439,1.355,2.012
				c0.572,0.573,1.243,1.025,2.012,1.356c0.768,0.332,1.589,0.497,2.463,0.497c0.873,0,1.694-0.165,2.463-0.497
				c0.769-0.331,1.438-0.783,2.012-1.356c0.571-0.572,1.023-1.243,1.355-2.012c0.331-0.769,0.497-1.589,0.497-2.463
				s-0.166-1.695-0.497-2.464c-0.332-0.769-0.784-1.438-1.355-2.012c-0.573-0.572-1.243-1.024-2.012-1.356
				c-0.769-0.331-1.59-0.497-2.463-0.497c-0.874,0-1.695,0.166-2.463,0.497c-0.769,0.332-1.439,0.784-2.012,1.356
				c-0.572,0.573-1.024,1.243-1.355,2.012C300.04,517.061,299.875,517.882,299.875,518.756z"/>
			<path fill="#EFA420" d="M333.997,515.41l-4.067-4.746l6.599-7.007h7.231v30.151h-9.763V515.41z"/>
			<path fill="#EFA420" d="M347.827,515.41l-4.067-4.746l6.599-7.007h7.231v30.151h-9.763V515.41z"/>
		</g>
	</g>
	<g id="MECA_PRESENTS" display="none">
		<g display="inline">
			<path fill="#F1754E" d="M37.096-18.934h-7.654v-27.411c0-0.536-0.103-1.035-0.308-1.499c-0.205-0.464-0.481-0.87-0.83-1.218
				c-0.348-0.348-0.754-0.62-1.218-0.816c-0.464-0.196-0.963-0.294-1.499-0.294c-0.536,0-1.035,0.098-1.499,0.294
				c-0.464,0.197-0.87,0.469-1.218,0.816c-0.348,0.348-0.62,0.754-0.816,1.218c-0.196,0.464-0.294,0.963-0.294,1.499v27.411h-7.681
				v-27.411c0-0.536-0.098-1.035-0.294-1.499c-0.196-0.464-0.468-0.87-0.816-1.218c-0.348-0.348-0.754-0.62-1.218-0.816
				c-0.464-0.196-0.964-0.294-1.499-0.294s-1.035,0.098-1.499,0.294c-0.464,0.197-0.87,0.469-1.218,0.816
				c-0.348,0.348-0.62,0.754-0.816,1.218c-0.197,0.464-0.294,0.963-0.294,1.499v27.411h-7.681v-27.411
				c0-1.588,0.298-3.083,0.896-4.484c0.598-1.401,1.418-2.624,2.462-3.667s2.266-1.864,3.667-2.462
				c1.4-0.598,2.895-0.897,4.483-0.897c1.427,0,2.801,0.254,4.122,0.763c1.32,0.508,2.507,1.245,3.56,2.208
				c1.053-0.963,2.235-1.7,3.546-2.208c1.312-0.509,2.681-0.763,4.108-0.763c1.587,0,3.082,0.299,4.483,0.897
				c1.4,0.598,2.623,1.418,3.667,2.462s1.864,2.267,2.462,3.667c0.597,1.401,0.896,2.896,0.896,4.484V-18.934z"/>
			<path fill="#F1754E" d="M69.708-18.934H43.399V-57.32h26.309v7.683H51.08v7.683h12.606v7.683H51.08v7.656h18.627V-18.934z"/>
			<path fill="#F1754E" d="M104.247-22.869c-1.784,1.535-3.783,2.713-5.995,3.534c-2.212,0.82-4.505,1.231-6.878,1.231
				c-1.82,0-3.573-0.236-5.259-0.709s-3.265-1.142-4.737-2.008c-1.472-0.865-2.815-1.905-4.028-3.119
				c-1.214-1.213-2.253-2.556-3.118-4.029c-0.866-1.472-1.535-3.051-2.007-4.738s-0.709-3.44-0.709-5.26s0.236-3.578,0.709-5.273
				c0.473-1.695,1.142-3.279,2.007-4.751c0.865-1.472,1.904-2.815,3.118-4.029c1.213-1.213,2.556-2.252,4.028-3.118
				s3.051-1.535,4.737-2.008c1.686-0.473,3.439-0.709,5.259-0.709c2.373,0,4.666,0.406,6.878,1.218s4.211,1.994,5.995,3.546
				l-4.068,6.692c-1.125-1.213-2.454-2.146-3.988-2.797c-1.535-0.651-3.141-0.977-4.818-0.977c-1.695,0-3.283,0.321-4.764,0.964
				c-1.481,0.643-2.775,1.512-3.881,2.61c-1.106,1.098-1.98,2.392-2.623,3.881c-0.642,1.49-0.963,3.074-0.963,4.751
				c0,1.678,0.321,3.252,0.963,4.725c0.643,1.473,1.517,2.762,2.623,3.868c1.106,1.107,2.399,1.981,3.881,2.624
				c1.48,0.643,3.068,0.963,4.764,0.963c1.677,0,3.283-0.325,4.818-0.977c1.534-0.651,2.863-1.583,3.988-2.797L104.247-22.869z"/>
			<path fill="#F1754E" d="M138.412-18.934h-7.681v-7.683h-15.363v7.683h-7.654v-23.021c0-2.124,0.401-4.118,1.205-5.983
				c0.803-1.865,1.896-3.494,3.278-4.885c1.382-1.392,3.006-2.49,4.871-3.292c1.864-0.803,3.858-1.205,5.981-1.205
				s4.117,0.401,5.982,1.205c1.864,0.803,3.493,1.9,4.884,3.292c1.392,1.392,2.489,3.021,3.292,4.885s1.205,3.859,1.205,5.983
				V-18.934z M130.73-34.272v-7.683c0-1.053-0.201-2.048-0.603-2.985s-0.95-1.753-1.646-2.449c-0.696-0.696-1.512-1.245-2.449-1.646
				s-1.932-0.602-2.984-0.602s-2.047,0.201-2.984,0.602c-0.937,0.401-1.753,0.95-2.449,1.646c-0.696,0.696-1.245,1.512-1.646,2.449
				c-0.402,0.937-0.603,1.932-0.603,2.985v7.683H130.73z"/>
			<path fill="#EFA620" d="M181.749-41.575c0,2.522-0.439,4.669-1.316,6.441c-0.877,1.773-2.074,3.207-3.59,4.304
				c-1.517,1.097-3.289,1.901-5.317,2.412c-2.028,0.512-4.212,0.768-6.55,0.768v8.717h-11.675V-55.5h11.675
				c2.338,0,4.522,0.256,6.55,0.767c2.028,0.513,3.8,1.316,5.317,2.413c1.516,1.096,2.713,2.531,3.59,4.303
				C181.31-46.244,181.749-44.097,181.749-41.575z M164.976-37.519h0.494c1.535,0,2.639-0.356,3.316-1.069
				c0.676-0.713,1.014-1.708,1.014-2.988c0-1.279-0.338-2.275-1.014-2.988c-0.677-0.713-1.781-1.069-3.316-1.069h-0.494V-37.519z"/>
			<path fill="#EFA620" d="M183.94-55.5h12.606c2.338,0,4.504,0.311,6.496,0.932c1.99,0.622,3.717,1.535,5.18,2.741
				c1.461,1.206,2.604,2.696,3.426,4.468c0.822,1.773,1.232,3.81,1.232,6.112c0,1.828-0.256,3.381-0.768,4.66
				c-0.512,1.28-1.078,2.339-1.699,3.18c-0.73,0.951-1.553,1.754-2.467,2.412l6.852,12.061h-13.703l-5.48-9.265v9.265H183.94V-55.5z
				 M195.615-37.519h0.604c1.389,0,2.566-0.31,3.535-0.932c0.967-0.621,1.453-1.663,1.453-3.125c0-1.461-0.486-2.503-1.453-3.125
				c-0.969-0.621-2.146-0.932-3.535-0.932h-0.604V-37.519z"/>
			<path fill="#EFA620" d="M215.346-55.5h21.542v9.594h-9.866v4.057h9.701v9.101h-9.701v4.222h10.25v9.594h-21.926V-55.5z"/>
			<path fill="#EFA620" d="M238.477-30.282c0.804,0.256,1.645,0.458,2.521,0.603c0.73,0.183,1.562,0.329,2.494,0.438
				s1.872,0.165,2.822,0.165c1.681,0,2.521-0.621,2.521-1.864c0-0.474-0.256-0.959-0.767-1.453
				c-0.513-0.493-1.161-1.042-1.946-1.645c-0.786-0.603-1.626-1.27-2.521-2.001c-0.896-0.731-1.736-1.571-2.521-2.522
				c-0.786-0.95-1.435-2.019-1.945-3.207c-0.513-1.188-0.768-2.549-0.768-4.084c0-1.717,0.31-3.234,0.932-4.55
				c0.621-1.315,1.48-2.412,2.576-3.289c1.097-0.877,2.385-1.544,3.864-2.001c1.48-0.457,3.061-0.686,4.741-0.686
				c0.877,0,1.754,0.046,2.631,0.137c0.877,0.092,1.663,0.174,2.357,0.247c0.803,0.11,1.589,0.219,2.356,0.329v10.251
				c-0.293-0.036-0.621-0.073-0.986-0.109c-0.293-0.036-0.622-0.073-0.986-0.11c-0.366-0.036-0.75-0.055-1.151-0.055
				c-0.22,0-0.493,0.009-0.822,0.027c-0.329,0.019-0.64,0.064-0.932,0.137c-0.293,0.074-0.548,0.201-0.768,0.384
				c-0.219,0.183-0.329,0.438-0.329,0.768c0,0.293,0.247,0.658,0.74,1.096s1.097,0.951,1.809,1.535
				c0.713,0.585,1.498,1.261,2.357,2.028c0.858,0.768,1.645,1.645,2.356,2.631c0.713,0.987,1.315,2.103,1.809,3.344
				c0.494,1.243,0.74,2.632,0.74,4.167c0,1.609-0.256,3.117-0.768,4.523c-0.512,1.408-1.307,2.631-2.384,3.673
				c-1.078,1.042-2.458,1.864-4.139,2.467s-3.672,0.905-5.975,0.905c-1.389,0-2.677-0.064-3.864-0.192
				c-1.188-0.128-2.238-0.284-3.151-0.466c-1.061-0.183-2.028-0.401-2.905-0.658V-30.282z"/>
			<path fill="#EFA620" d="M263.581-55.5h21.542v9.594h-9.866v4.057h9.701v9.101h-9.701v4.222h10.25v9.594h-21.926V-55.5z"/>
			<path fill="#EFA620" d="M288.246-55.5h9.593l10.085,14.089V-55.5h11.456v36.566h-9.646l-10.031-14.035v14.035h-11.456V-55.5z"/>
			<path fill="#EFA620" d="M327.492-45.906h-6.742V-55.5h25.543v9.594h-6.742v26.973h-12.059V-45.906z"/>
			<path fill="#EFA620" d="M347.222-30.282c0.804,0.256,1.645,0.458,2.521,0.603c0.73,0.183,1.562,0.329,2.494,0.438
				s1.872,0.165,2.822,0.165c1.681,0,2.521-0.621,2.521-1.864c0-0.474-0.256-0.959-0.767-1.453
				c-0.513-0.493-1.161-1.042-1.946-1.645c-0.786-0.603-1.626-1.27-2.521-2.001c-0.896-0.731-1.736-1.571-2.521-2.522
				c-0.786-0.95-1.435-2.019-1.945-3.207c-0.513-1.188-0.768-2.549-0.768-4.084c0-1.717,0.31-3.234,0.932-4.55
				c0.621-1.315,1.48-2.412,2.576-3.289c1.097-0.877,2.385-1.544,3.864-2.001c1.48-0.457,3.061-0.686,4.741-0.686
				c0.877,0,1.754,0.046,2.631,0.137c0.877,0.092,1.663,0.174,2.357,0.247c0.803,0.11,1.589,0.219,2.356,0.329v10.251
				c-0.293-0.036-0.621-0.073-0.986-0.109c-0.293-0.036-0.622-0.073-0.986-0.11c-0.366-0.036-0.75-0.055-1.151-0.055
				c-0.22,0-0.493,0.009-0.822,0.027c-0.329,0.019-0.64,0.064-0.932,0.137c-0.293,0.074-0.548,0.201-0.768,0.384
				c-0.219,0.183-0.329,0.438-0.329,0.768c0,0.293,0.247,0.658,0.74,1.096s1.097,0.951,1.809,1.535
				c0.713,0.585,1.498,1.261,2.357,2.028c0.858,0.768,1.645,1.645,2.356,2.631c0.713,0.987,1.315,2.103,1.809,3.344
				c0.494,1.243,0.74,2.632,0.74,4.167c0,1.609-0.256,3.117-0.768,4.523c-0.512,1.408-1.307,2.631-2.384,3.673
				c-1.078,1.042-2.458,1.864-4.139,2.467s-3.672,0.905-5.975,0.905c-1.389,0-2.677-0.064-3.864-0.192
				c-1.188-0.128-2.238-0.284-3.151-0.466c-1.061-0.183-2.028-0.401-2.905-0.658V-30.282z"/>
		</g>
	</g>
</g>
<g id="Layer_9_xA0_Image_1_" display="none" opacity="0.349">
	
		<image display="inline" overflow="visible" width="1633" height="1956" id="Layer_9_xA0_Image" xlink:href="C9F279C92DEE38BF.png"  transform="matrix(0.36 0 0 0.36 -100.5576 -157.6235)">
	</image>
</g>
</svg>
