<?xml version="1.0" encoding="utf-8"?>
<!-- Generator: Adobe Illustrator 16.0.0, SVG Export Plug-In . SVG Version: 6.00 Build 0)  -->
<!DOCTYPE svg PUBLIC "-//W3C//DTD SVG 1.1//EN" "http://www.w3.org/Graphics/SVG/1.1/DTD/svg11.dtd">
<svg version="1.1" id="Layer_1" xmlns="http://www.w3.org/2000/svg" xmlns:xlink="http://www.w3.org/1999/xlink" x="0px" y="0px"
	 width="40px" height="40px" viewBox="0 0 40 40" enable-background="new 0 0 40 40" xml:space="preserve">
<g id="XMLID_1_">
	<g>
		<path fill="#BA8888" d="M36.98,14.57c2.079,1.16,3.13,2.95,3.239,5.3c-0.12,2.38-1.16,4.17-3.239,5.33
			c-0.16,0.09-0.24,0.069-0.341-0.08c-0.96-1.311-2.18-2.26-3.71-2.83c-0.16-0.07-0.229-0.13-0.199-0.34
			c0.229-1.38,0.229-2.76,0-4.13c-0.03-0.21,0.039-0.28,0.199-0.34c1.53-0.57,2.75-1.53,3.71-2.84
			C36.75,14.49,36.82,14.48,36.98,14.57z"/>
		<path fill="#B27676" d="M36.08,29.84c0.03,3.41-2.9,6.21-6.311,5.99c-2.449-0.16-4.17-1.4-5.21-3.61
			c-0.109-0.239-0.05-0.319,0.181-0.41c3.45-1.42,5.88-3.85,7.29-7.3c0.1-0.24,0.189-0.26,0.42-0.16
			C34.61,25.25,36.05,27.43,36.08,29.84z"/>
		<path fill="#B27676" d="M35.95,8.67c0.56,2.81-0.891,5.62-3.45,6.73c-0.29,0.12-0.38,0.08-0.5-0.21c-1.4-3.4-3.81-5.81-7.21-7.21
			c-0.29-0.12-0.32-0.22-0.21-0.5c0.93-2.14,3.13-3.57,5.5-3.57C32.9,3.91,35.41,5.94,35.95,8.67z"/>
		<path fill="#CAACAC" d="M20.12,9.19c5.93,0.04,10.68,4.8,10.68,10.69c-0.01,5.92-4.84,10.74-10.72,10.7
			C14.15,30.53,9.4,25.77,9.41,19.88C9.41,13.97,14.25,9.14,20.12,9.19z M20.11,27.98c4.47-0.011,8.09-3.641,8.09-8.11
			c-0.01-4.46-3.65-8.09-8.11-8.08c-4.46,0-8.09,3.64-8.08,8.1C12.01,24.36,15.65,27.98,20.11,27.98z"/>
		<path fill="#C62232" d="M26.6,19.6c0.011,0.19,0.011,0.39,0,0.58c0,0.05,0,0.1,0,0.15c-0.02,0.05,0,0.1-0.02,0.14
			c0,0.03,0,0.05,0,0.08c-0.021,0.03,0,0.07-0.021,0.1c-0.069,0.48-0.159,0.95-0.329,1.4c-0.12,0.32-0.25,0.641-0.431,0.94
			c0.05-0.12,0.11-0.24,0.15-0.36c0.13-0.45,0.17-0.899,0.109-1.36C26.04,21.16,26.03,21.05,26,20.95c0.07-0.35,0.1-0.71,0.1-1.07
			c0-3.31-2.71-6.01-6.01-6c-2.89,0.02-5.27,2.03-5.85,4.74c-0.08-0.45-0.06-0.92,0.06-1.39c0.05-0.16,0.12-0.3,0.16-0.47
			c0,0,0-0.01-0.01-0.01v-0.01c0.01-0.06,0.05-0.11,0.07-0.17c0.14-0.26,0.31-0.49,0.49-0.72c0.2-0.27,0.43-0.51,0.67-0.73
			c0.37-0.34,0.77-0.64,1.21-0.88c0.64-0.37,1.33-0.61,2.06-0.75c1.34-0.24,2.74-0.05,3.97,0.54c0.3,0.15,0.59,0.31,0.86,0.5
			c0.09,0.06,0.18,0.12,0.27,0.19c0.37,0.28,0.71,0.6,1.01,0.96c0.28,0.32,0.521,0.68,0.73,1.05c0.28,0.5,0.479,1.03,0.62,1.59
			c0.07,0.26,0.109,0.53,0.149,0.79c0.021,0.03,0,0.07,0.021,0.1c0,0.03,0,0.07,0,0.1c0.02,0.04,0,0.09,0.02,0.14
			C26.6,19.5,26.6,19.55,26.6,19.6z"/>
		<path fill="#C62232" d="M26.06,21.27c0.061,0.461,0.021,0.91-0.109,1.36c-0.04,0.12-0.101,0.24-0.15,0.36
			c0.05-0.15,0.101-0.3,0.141-0.44c0.14-0.52,0.149-1.04,0.05-1.53C26,20.99,26,20.97,26,20.95C26.03,21.05,26.04,21.16,26.06,21.27
			z"/>
		<path fill="#C62232" d="M26.1,19.88c0,0.36-0.029,0.72-0.1,1.07c-0.16-0.74-0.55-1.35-1.15-1.83c-0.71-0.56-1.51-0.79-2.399-0.69
			c-0.98,0.11-1.76,0.58-2.32,1.38c-0.33,0.48-0.73,0.87-1.25,1.13c-0.5,0.26-1.04,0.37-1.61,0.35c-0.29-0.01-0.57-0.06-0.85-0.15
			c-0.93-0.31-1.6-0.919-1.98-1.83c-0.1-0.23-0.16-0.45-0.2-0.69c0.58-2.71,2.96-4.72,5.85-4.74C23.39,13.87,26.1,16.57,26.1,19.88z
			"/>
		<path fill="#233A74" d="M25.99,21.02c0.1,0.49,0.09,1.011-0.05,1.53c-0.04,0.141-0.091,0.29-0.141,0.44
			c-0.17,0.33-0.38,0.649-0.609,0.939c-0.25,0.301-0.521,0.58-0.811,0.84c-0.99,0.87-2.26,1.431-3.58,1.57
			c-1.37,0.15-2.79-0.149-3.97-0.85c-0.12-0.07-0.23-0.141-0.34-0.21c-0.24-0.17-0.47-0.351-0.69-0.54
			c-0.18-0.15-0.35-0.32-0.5-0.49c-0.48-0.53-0.87-1.12-1.15-1.77c-0.53-1.25-0.69-2.67-0.39-4c0.03-0.11,0.05-0.22,0.08-0.33
			c0.14-0.49,0.33-0.97,0.59-1.42c0.01,0,0.01,0.01,0.02,0.01v0.01c-0.27,0.62-0.36,1.27-0.22,1.93c-0.08,0.38-0.13,0.78-0.13,1.18
			c-0.03,3.291,2.68,6.01,5.99,6.02C23,25.89,25.46,23.79,25.99,21.02z"/>
		<path fill="#C62232" d="M26,20.95c0,0.02,0,0.04-0.01,0.069c-0.25-1.2-1.17-2.209-2.45-2.51c-1.271-0.29-2.62,0.22-3.37,1.29
			c-0.29,0.41-0.62,0.77-1.05,1.03c-0.4,0.25-0.83,0.41-1.3,0.46c-0.72,0.09-1.39-0.03-2.01-0.39c-0.85-0.5-1.38-1.23-1.58-2.2
			c0-0.01,0-0.01,0-0.02c0-0.02,0-0.04,0.01-0.06c0.04,0.24,0.1,0.46,0.2,0.69c0.38,0.91,1.05,1.52,1.98,1.83
			c0.28,0.091,0.56,0.141,0.85,0.15c0.57,0.02,1.11-0.09,1.61-0.35c0.52-0.26,0.92-0.65,1.25-1.13c0.56-0.8,1.34-1.27,2.32-1.38
			c0.89-0.1,1.689,0.13,2.399,0.69C25.45,19.6,25.84,20.21,26,20.95z"/>
		<path fill="#BA8888" d="M25.42,3.01c0.09,0.16,0.061,0.24-0.08,0.34c-1.31,0.96-2.27,2.18-2.83,3.7
			c-0.069,0.18-0.14,0.24-0.34,0.2c-1.38-0.22-2.76-0.22-4.14,0.01c-0.21,0.03-0.27-0.05-0.34-0.21c-0.56-1.53-1.52-2.75-2.83-3.71
			C14.71,3.23,14.7,3.16,14.79,3c1.16-2.08,2.95-3.12,5.31-3.24C22.47-0.12,24.25,0.93,25.42,3.01z"/>
		<path fill="#BA8888" d="M25.34,36.41c0.13,0.1,0.18,0.17,0.08,0.34c-1.16,2.08-2.939,3.14-5.32,3.25
			c-2.36-0.11-4.15-1.16-5.31-3.24c-0.09-0.149-0.09-0.229,0.06-0.34c1.32-0.95,2.27-2.18,2.84-3.71c0.06-0.16,0.12-0.24,0.34-0.2
			c1.37,0.23,2.76,0.23,4.13,0c0.24-0.04,0.3,0.061,0.359,0.23C23.09,34.25,24.04,35.47,25.34,36.41z"/>
		<path fill="#233A74" d="M23.54,18.51c1.28,0.3,2.2,1.31,2.45,2.51c-0.53,2.771-2.99,4.87-5.9,4.86
			c-3.31-0.01-6.02-2.729-5.99-6.02c0-0.4,0.05-0.8,0.13-1.18c0,0.01,0,0.01,0,0.02c0.2,0.97,0.73,1.7,1.58,2.2
			c0.62,0.36,1.29,0.48,2.01,0.39c0.47-0.05,0.9-0.21,1.3-0.46c0.43-0.26,0.76-0.62,1.05-1.03C20.92,18.73,22.27,18.22,23.54,18.51z
			"/>
		<path fill="#B27676" d="M15.48,31.81c0.22,0.091,0.26,0.171,0.17,0.391c-1.49,3.67-6.37,4.84-9.37,2.26
			c-1.41-1.21-2.12-2.75-2.16-4.71c0.01-2.3,1.48-4.52,3.66-5.41c0.22-0.09,0.3-0.07,0.39,0.16C9.58,27.96,12.02,30.4,15.48,31.81z"
			/>
		<path fill="#B27676" d="M15.62,7.49c0.13,0.29,0.07,0.38-0.21,0.49C12.01,9.39,9.6,11.8,8.2,15.2c-0.12,0.3-0.23,0.31-0.5,0.2
			c-2.14-0.93-3.58-3.13-3.58-5.49c0.01-2.84,2.04-5.34,4.77-5.88C11.7,3.47,14.51,4.92,15.62,7.49z"/>
		<path fill="#C62232" d="M14.45,16.75c0.01,0,0.01,0.01,0.01,0.01c-0.04,0.17-0.11,0.31-0.16,0.47c-0.12,0.47-0.14,0.94-0.06,1.39
			c-0.01,0.02-0.01,0.04-0.01,0.06C14.09,18.02,14.18,17.37,14.45,16.75z"/>
		<path fill="#BA8888" d="M7.24,17.46c0.17,0.08,0.37,0.13,0.26,0.3c-0.27,1.45-0.24,2.8-0.03,4.15c0.04,0.24-0.04,0.32-0.24,0.399
			c-1.5,0.561-2.7,1.5-3.64,2.79c-0.13,0.17-0.21,0.181-0.4,0.08c-3.7-2.02-4.3-6.93-1.18-9.77c0.35-0.32,0.76-0.58,1.18-0.83
			c0.19-0.1,0.28-0.08,0.4,0.09c0.76,1.06,1.73,1.88,2.89,2.47C6.73,17.26,6.99,17.35,7.24,17.46z"/>
	</g>
	<g>
	</g>
</g>
</svg>
