<?xml version="1.0" encoding="utf-8"?>
<!-- Generator: Adobe Illustrator 16.0.0, SVG Export Plug-In . SVG Version: 6.00 Build 0)  -->
<!DOCTYPE svg PUBLIC "-//W3C//DTD SVG 1.1//EN" "http://www.w3.org/Graphics/SVG/1.1/DTD/svg11.dtd">
<svg version="1.1" id="Layer_1" xmlns="http://www.w3.org/2000/svg" xmlns:xlink="http://www.w3.org/1999/xlink" x="0px" y="0px"
	 width="40px" height="40px" viewBox="0 0 40 40" enable-background="new 0 0 40 40" xml:space="preserve">
<path fill="#868187" d="M7.7,15.4c0.3,0.1,0.4,0.1,0.5-0.2C9.6,11.8,12,9.4,15.4,8c0.3-0.1,0.3-0.2,0.2-0.5c-1.1-2.6-3.9-4-6.7-3.5
	C6.2,4.6,4.1,7.1,4.1,9.9C4.1,12.3,5.6,14.5,7.7,15.4"/>
<path fill="#868187" d="M24.8,8c3.4,1.4,5.8,3.8,7.2,7.2c0.1,0.3,0.2,0.3,0.5,0.2c2.6-1.1,4-3.9,3.5-6.7c-0.5-2.7-3.1-4.8-5.9-4.8
	c-2.399,0-4.6,1.4-5.5,3.6C24.5,7.8,24.5,7.9,24.8,8"/>
<path fill="#868187" d="M15.5,31.8C12,30.4,9.6,27.9,8.2,24.5c-0.1-0.2-0.2-0.2-0.4-0.2c-2.2,0.9-3.7,3.101-3.7,5.4
	c0,2,0.7,3.5,2.2,4.7c3,2.6,7.9,1.399,9.4-2.301C15.7,32,15.7,31.9,15.5,31.8"/>
<path fill="#868187" d="M32.4,24.3c-0.2-0.1-0.301-0.1-0.4,0.2c-1.4,3.4-3.8,5.9-7.3,7.3c-0.2,0.101-0.3,0.2-0.2,0.4
	c1,2.2,2.8,3.5,5.2,3.6c3.399,0.2,6.3-2.6,6.3-6C36.1,27.4,34.6,25.3,32.4,24.3"/>
<path fill="#868187" d="M25.3,36.4c-1.3-0.9-2.2-2.2-2.8-3.7c-0.1-0.2-0.1-0.3-0.4-0.2c-1.399,0.2-2.8,0.2-4.1,0
	c-0.2,0-0.3,0-0.3,0.2c-0.6,1.5-1.5,2.8-2.8,3.7c-0.2,0.1-0.2,0.199-0.1,0.3c1.2,2.1,3,3.1,5.3,3.2c2.4-0.101,4.2-1.2,5.3-3.2
	C25.5,36.6,25.5,36.5,25.3,36.4"/>
<path fill="#868187" d="M7.2,22.3c0.2-0.1,0.3-0.2,0.2-0.399c-0.2-1.4-0.2-2.7,0-4.2c0.1-0.2-0.1-0.2-0.3-0.3
	c-0.2-0.1-0.5-0.2-0.8-0.3c-1.2-0.6-2.1-1.4-2.9-2.5c-0.1-0.2-0.2-0.2-0.4-0.1c-0.4,0.2-0.8,0.5-1.2,0.8C-1.3,18.1-0.7,23,3,25.1
	C3.2,25.2,3.3,25.2,3.4,25C4.5,23.8,5.7,22.9,7.2,22.3"/>
<path fill="#868187" d="M37,14.6c-0.2-0.1-0.2-0.1-0.3,0.1c-1,1.3-2.2,2.3-3.7,2.8c-0.2,0.1-0.2,0.1-0.2,0.3
	c0.2,1.4,0.2,2.8,0,4.101c0,0.199,0,0.3,0.2,0.3c1.5,0.6,2.7,1.5,3.7,2.8c0.1,0.1,0.2,0.2,0.3,0.1c2.1-1.199,3.1-2.899,3.2-5.3
	C40.1,17.5,39.1,15.7,37,14.6"/>
<path fill="#868187" d="M14.9,3.3c1.3,1,2.3,2.2,2.8,3.7c0.1,0.2,0.1,0.2,0.3,0.2c1.4-0.2,2.8-0.2,4.1,0c0.2,0,0.301,0,0.301-0.2
	c0.6-1.5,1.5-2.7,2.8-3.7c0.1-0.1,0.2-0.2,0.1-0.3C24.1,0.9,22.4-0.1,20-0.2c-2.3,0.1-4,1.1-5.2,3.2C14.7,3.2,14.7,3.2,14.9,3.3"/>
<path fill="#868187" d="M20.1,9.2C14.2,9.1,9.4,14,9.4,19.9s4.7,10.7,10.7,10.7c5.9,0,10.7-4.8,10.7-10.7S26.1,9.2,20.1,9.2
	 M20.1,28c-4.5,0-8.1-3.6-8.1-8.1c0-4.5,3.6-8.1,8.1-8.1c4.5,0,8.1,3.6,8.1,8.1C28.2,24.3,24.6,28,20.1,28"/>
<path d="M20.1,13.9c-3.3,0-6,2.7-6,6c0,3.3,2.7,6,6,6s6-2.7,6-6C26.1,16.6,23.4,13.9,20.1,13.9"/>
<path opacity="0.8" fill="#233A74" d="M25.8,23c-0.2,0.3-0.399,0.7-0.6,0.9c-0.2,0.3-0.5,0.6-0.8,0.8C23.4,25.6,22.1,26.1,20.8,26.3
	c-1.4,0.101-2.8-0.1-4-0.899c-0.1-0.101-0.2-0.101-0.3-0.2c-0.2-0.2-0.5-0.3-0.7-0.5c-0.2-0.2-0.3-0.3-0.5-0.5
	c-0.5-0.5-0.9-1.101-1.1-1.8c-0.5-1.2-0.7-2.7-0.4-4c0-0.1,0.1-0.2,0.1-0.3c0.1-0.5,0.3-1,0.6-1.4l0,0c0,0.2-0.1,0.3-0.2,0.5
	c-0.2,0.7-0.1,1.4,0.1,2.1c0.4,0.9,1.1,1.5,2,1.8C16.7,21.2,17,21.2,17.3,21.2c0.6,0,1.1-0.101,1.6-0.3c0.5-0.301,0.9-0.7,1.3-1.101
	c0.6-0.8,1.3-1.3,2.3-1.4c0.9-0.1,1.7,0.1,2.4,0.7c0.699,0.6,1.1,1.3,1.199,2.1c0.101,0.5,0,0.899-0.1,1.399
	C25.9,22.8,25.9,22.9,25.8,23"/>
<path opacity="0.8" fill="#C62232" d="M25.8,23c0-0.1,0.101-0.3,0.101-0.4c0.5-1.8-0.601-3.6-2.4-4c-1.3-0.3-2.6,0.2-3.4,1.3
	c-0.3,0.4-0.6,0.8-1,1c-0.4,0.199-0.8,0.399-1.3,0.5c-0.7,0.1-1.4,0-2-0.4c-0.9-0.5-1.4-1.2-1.6-2.2c-0.1-0.7-0.1-1.3,0.2-1.9
	c0-0.1,0.1-0.1,0.1-0.2c0.1-0.3,0.3-0.5,0.5-0.7c0.2-0.3,0.4-0.5,0.7-0.7c0.4-0.3,0.8-0.6,1.2-0.9c0.6-0.4,1.3-0.6,2.1-0.7
	c1.3-0.2,2.7-0.1,4,0.5c0.3,0.1,0.6,0.3,0.9,0.5c0.1,0.1,0.199,0.1,0.3,0.2c0.399,0.3,0.7,0.6,1,1c0.3,0.3,0.5,0.7,0.7,1.1
	c0.3,0.5,0.5,1,0.6,1.6c0.1,0.3,0.1,0.5,0.2,0.8v0.1v0.1v0.1c0,0.1,0,0.1,0,0.2c0,0.2,0,0.4,0,0.6c0,0.1,0,0.1,0,0.2v0.1V20.9V21
	c-0.101,0.5-0.2,0.9-0.3,1.4C26.1,22.4,26,22.7,25.8,23"/>
</svg>
