<?xml version="1.0" encoding="utf-8"?>
<!-- Generator: Adobe Illustrator 16.0.0, SVG Export Plug-In . SVG Version: 6.00 Build 0)  -->
<!DOCTYPE svg PUBLIC "-//W3C//DTD SVG 1.1//EN" "http://www.w3.org/Graphics/SVG/1.1/DTD/svg11.dtd">
<svg version="1.1" id="Layer_1" xmlns="http://www.w3.org/2000/svg" xmlns:xlink="http://www.w3.org/1999/xlink" x="0px" y="0px"
	 width="183.818px" height="16.337px" viewBox="3.801 10.262 183.818 16.337" enable-background="new 3.801 10.262 183.818 16.337"
	 xml:space="preserve">
<g id="_x0D_Freshman_MT_x0D_" display="none">
	<g display="inline">
		<path fill="#C7FFCE" d="M4.467,5.616h5.817V29.35H4.467V5.616z"/>
		<path fill="#C7FFCE" d="M16.367,5.616h3.717l13.533,15.1v-15.1h3.65v24.1H34.75L20.05,13.05V29.35h-3.684L16.367,5.616
			L16.367,5.616z"/>
		<path fill="#C7FFCE" d="M60.133,5.616v2.017H48.917v7.833H58.8V17.5h-9.883V29.35H43.1V5.616H60.133z"/>
		<path fill="#C7FFCE" d="M77.283,29.883c-1.278,0-2.5-0.142-3.667-0.425s-2.25-0.687-3.25-1.208s-1.912-1.156-2.733-1.899
			c-0.823-0.744-1.522-1.584-2.1-2.518c-0.578-0.934-1.025-1.947-1.342-3.042c-0.316-1.095-0.475-2.253-0.475-3.475
			c0-1.2,0.159-2.336,0.475-3.409c0.317-1.072,0.764-2.058,1.342-2.958c0.578-0.9,1.277-1.714,2.1-2.442
			c0.822-0.728,1.733-1.341,2.733-1.841s2.083-0.886,3.25-1.159C74.783,5.236,76.005,5.1,77.283,5.1c1.277,0,2.5,0.136,3.667,0.407
			c1.167,0.272,2.25,0.661,3.25,1.167s1.911,1.119,2.733,1.842c0.822,0.723,1.522,1.533,2.1,2.434c0.578,0.9,1.025,1.883,1.342,2.95
			c0.316,1.066,0.475,2.195,0.475,3.383c0,1.256-0.158,2.439-0.475,3.55c-0.317,1.111-0.764,2.134-1.342,3.066
			c-0.578,0.934-1.278,1.77-2.1,2.509c-0.822,0.738-1.733,1.366-2.733,1.883c-1,0.519-2.083,0.912-3.25,1.185
			C79.783,29.747,78.561,29.883,77.283,29.883z M77.283,27.866c1.155,0,2.175-0.264,3.058-0.792
			c0.883-0.527,1.625-1.261,2.225-2.199s1.053-2.053,1.358-3.342c0.305-1.289,0.458-2.694,0.458-4.217
			c0-1.5-0.153-2.875-0.458-4.125c-0.305-1.25-0.758-2.325-1.358-3.226c-0.6-0.899-1.342-1.6-2.225-2.1
			c-0.883-0.5-1.903-0.75-3.058-0.75c-1.167,0-2.195,0.25-3.083,0.75c-0.889,0.5-1.631,1.2-2.225,2.1
			c-0.594,0.9-1.044,1.976-1.35,3.226s-0.458,2.625-0.458,4.125c0,1.521,0.152,2.928,0.458,4.217
			c0.305,1.289,0.755,2.402,1.35,3.342c0.594,0.938,1.336,1.672,2.225,2.199C75.088,27.603,76.117,27.866,77.283,27.866z"/>
		<path fill="#C7FFCE" d="M113.167,29.716c-1.424,0-2.668-0.166-3.733-0.499c-1.067-0.334-1.976-0.795-2.726-1.384
			s-1.345-1.289-1.783-2.101s-0.741-1.699-0.908-2.666h4.033c0.145,0.589,0.351,1.142,0.617,1.658
			c0.268,0.517,0.605,0.964,1.018,1.342c0.411,0.378,0.9,0.675,1.466,0.892c0.567,0.217,1.222,0.325,1.968,0.325
			c0.5,0,0.991-0.053,1.475-0.158c0.482-0.104,0.916-0.274,1.3-0.509c0.383-0.234,0.692-0.542,0.925-0.925s0.35-0.854,0.35-1.408
			c0-0.711-0.181-1.339-0.541-1.884c-0.361-0.544-0.84-1.042-1.434-1.492c-0.595-0.45-1.271-0.869-2.033-1.258
			c-0.762-0.39-1.537-0.78-2.326-1.175s-1.563-0.807-2.324-1.233c-0.762-0.427-1.439-0.908-2.033-1.441
			c-0.596-0.533-1.072-1.133-1.434-1.8c-0.36-0.667-0.541-1.433-0.541-2.3c0-0.944,0.205-1.819,0.617-2.625
			c0.41-0.806,1.008-1.503,1.791-2.092c0.784-0.589,1.742-1.05,2.875-1.383c1.135-0.333,2.422-0.5,3.867-0.5
			c1.2,0,2.284,0.167,3.25,0.5c0.967,0.333,1.819,0.785,2.559,1.357c0.74,0.572,1.361,1.248,1.867,2.025s0.893,1.617,1.158,2.517
			h-3.667c-0.211-0.565-0.456-1.104-0.733-1.617c-0.277-0.511-0.623-0.961-1.032-1.35c-0.412-0.389-0.906-0.697-1.483-0.925
			c-0.578-0.229-1.271-0.342-2.083-0.342c-0.756,0-1.396,0.1-1.917,0.3s-0.945,0.453-1.267,0.758
			c-0.323,0.306-0.554,0.647-0.692,1.025s-0.208,0.75-0.208,1.116c0,0.634,0.187,1.208,0.56,1.726
			c0.371,0.517,0.867,0.995,1.482,1.433c0.617,0.439,1.312,0.861,2.092,1.268c0.777,0.405,1.574,0.813,2.392,1.225
			c0.815,0.411,1.616,0.839,2.399,1.283s1.483,0.937,2.101,1.475c0.616,0.539,1.11,1.136,1.483,1.792
			c0.373,0.655,0.559,1.395,0.559,2.216c0,0.968-0.2,1.864-0.6,2.691c-0.4,0.828-0.992,1.551-1.775,2.167s-1.756,1.101-2.917,1.45
			C116.013,29.541,114.677,29.716,113.167,29.716z"/>
		<path fill="#C7FFCE" d="M145.033,5.616v2.017h-11.9v7.833h9.883V17.5h-9.883v9.417h11.9v2.435h-17.717V5.616H145.033z"/>
		<path fill="#C7FFCE" d="M158.016,29.716c-1.422,0-2.666-0.166-3.733-0.499c-1.066-0.334-1.975-0.795-2.725-1.384
			s-1.346-1.289-1.783-2.101c-0.439-0.812-0.742-1.699-0.908-2.666h4.033c0.145,0.589,0.35,1.142,0.616,1.658
			c0.267,0.516,0.604,0.964,1.017,1.342s0.9,0.675,1.467,0.892c0.567,0.217,1.224,0.325,1.967,0.325c0.5,0,0.992-0.053,1.476-0.158
			c0.483-0.104,0.917-0.274,1.302-0.509c0.383-0.233,0.69-0.542,0.924-0.925c0.234-0.383,0.351-0.854,0.351-1.408
			c0-0.711-0.181-1.339-0.541-1.884c-0.36-0.544-0.84-1.042-1.435-1.492s-1.271-0.869-2.033-1.258
			c-0.762-0.39-1.535-0.78-2.324-1.175s-1.564-0.807-2.325-1.233s-1.438-0.908-2.032-1.441c-0.596-0.533-1.072-1.133-1.435-1.8
			c-0.36-0.667-0.541-1.433-0.541-2.3c0-0.944,0.205-1.819,0.616-2.625c0.41-0.806,1.009-1.503,1.791-2.092
			c0.783-0.589,1.742-1.05,2.875-1.383c1.134-0.333,2.423-0.5,3.867-0.5c1.199,0,2.283,0.167,3.25,0.5s1.818,0.785,2.559,1.357
			c0.738,0.572,1.361,1.248,1.865,2.025c0.507,0.777,0.893,1.617,1.16,2.517h-3.668c-0.211-0.565-0.455-1.104-0.732-1.617
			c-0.278-0.511-0.622-0.961-1.033-1.35c-0.41-0.389-0.906-0.697-1.482-0.925c-0.578-0.229-1.272-0.342-2.084-0.342
			c-0.756,0-1.395,0.1-1.916,0.3c-0.522,0.2-0.944,0.453-1.268,0.758c-0.322,0.305-0.553,0.647-0.691,1.025
			c-0.14,0.378-0.209,0.75-0.209,1.116c0,0.634,0.188,1.208,0.56,1.726c0.372,0.517,0.866,0.995,1.483,1.433
			c0.615,0.439,1.312,0.861,2.092,1.268c0.777,0.405,1.574,0.813,2.392,1.225c0.815,0.411,1.616,0.839,2.399,1.283
			s1.482,0.937,2.101,1.475c0.616,0.539,1.11,1.136,1.483,1.792c0.371,0.655,0.558,1.395,0.558,2.216
			c0,0.968-0.198,1.864-0.601,2.691c-0.399,0.828-0.99,1.551-1.774,2.167c-0.782,0.616-1.755,1.101-2.916,1.45
			C160.867,29.539,159.527,29.716,158.016,29.716z"/>
		<path fill="#C7FFCE" d="M180.316,29.716c-1.422,0-2.666-0.166-3.732-0.499c-1.066-0.334-1.976-0.795-2.726-1.384
			s-1.345-1.289-1.782-2.101c-0.439-0.812-0.742-1.699-0.908-2.666h4.033c0.145,0.589,0.35,1.142,0.615,1.658
			c0.266,0.516,0.605,0.964,1.018,1.342s0.899,0.675,1.467,0.892c0.566,0.217,1.223,0.325,1.967,0.325
			c0.5,0,0.992-0.053,1.475-0.158c0.483-0.104,0.918-0.274,1.301-0.509c0.383-0.233,0.691-0.542,0.926-0.925s0.35-0.854,0.35-1.408
			c0-0.711-0.181-1.339-0.541-1.884c-0.361-0.544-0.84-1.042-1.434-1.492c-0.596-0.45-1.272-0.869-2.033-1.258
			c-0.762-0.39-1.536-0.78-2.325-1.175s-1.563-0.807-2.325-1.233c-0.761-0.427-1.438-0.908-2.033-1.441
			c-0.595-0.533-1.071-1.133-1.434-1.8c-0.361-0.667-0.541-1.433-0.541-2.3c0-0.944,0.205-1.819,0.616-2.625
			s1.009-1.503,1.792-2.092s1.74-1.05,2.875-1.383c1.133-0.333,2.422-0.5,3.865-0.5c1.201,0,2.283,0.167,3.25,0.5
			c0.968,0.333,1.82,0.785,2.56,1.357c0.738,0.572,1.361,1.248,1.866,2.025c0.506,0.777,0.893,1.617,1.158,2.517h-3.666
			c-0.211-0.565-0.457-1.104-0.733-1.617c-0.278-0.511-0.622-0.961-1.032-1.35c-0.412-0.389-0.906-0.697-1.484-0.925
			c-0.577-0.229-1.271-0.342-2.082-0.342c-0.756,0-1.396,0.1-1.918,0.3c-0.521,0.2-0.943,0.453-1.266,0.758
			c-0.324,0.305-0.554,0.647-0.691,1.025c-0.141,0.378-0.209,0.75-0.209,1.116c0,0.634,0.187,1.208,0.559,1.726
			c0.372,0.517,0.866,0.995,1.482,1.433c0.617,0.439,1.313,0.861,2.093,1.268c0.776,0.405,1.575,0.813,2.392,1.225
			s1.616,0.839,2.399,1.283c0.784,0.444,1.483,0.937,2.101,1.475c0.616,0.539,1.11,1.136,1.483,1.792
			c0.372,0.655,0.558,1.395,0.558,2.216c0,0.968-0.199,1.864-0.6,2.691c-0.4,0.828-0.991,1.551-1.775,2.167
			c-0.783,0.616-1.755,1.101-2.916,1.45C183.167,29.539,181.828,29.716,180.316,29.716z"/>
		<path fill="#C7FFCE" d="M194.716,5.616h5.816V29.35h-5.816V5.616z"/>
		<path fill="#C7FFCE" d="M218.932,29.883c-1.278,0-2.5-0.142-3.667-0.425c-1.166-0.283-2.25-0.687-3.25-1.208
			s-1.911-1.156-2.732-1.899c-0.822-0.744-1.523-1.584-2.101-2.518c-0.578-0.934-1.024-1.947-1.343-3.042
			c-0.315-1.095-0.475-2.253-0.475-3.475c0-1.2,0.158-2.336,0.475-3.409c0.316-1.072,0.765-2.058,1.343-2.958
			c0.577-0.9,1.276-1.714,2.101-2.442c0.821-0.728,1.732-1.341,2.732-1.841s2.084-0.886,3.25-1.159
			c1.167-0.271,2.389-0.407,3.667-0.407c1.276,0,2.5,0.136,3.667,0.407c1.166,0.272,2.25,0.661,3.25,1.167s1.91,1.119,2.732,1.842
			c0.821,0.723,1.521,1.533,2.101,2.434c0.577,0.9,1.024,1.883,1.342,2.95c0.315,1.066,0.476,2.194,0.476,3.383
			c0,1.256-0.158,2.439-0.476,3.55c-0.315,1.111-0.765,2.134-1.342,3.066c-0.578,0.934-1.278,1.77-2.101,2.509
			c-0.822,0.738-1.732,1.366-2.732,1.883c-1,0.519-2.084,0.912-3.25,1.185C221.432,29.747,220.208,29.883,218.932,29.883z
			 M218.932,27.866c1.155,0,2.175-0.264,3.06-0.792c0.883-0.527,1.625-1.261,2.225-2.199s1.053-2.053,1.357-3.342
			s0.459-2.694,0.459-4.217c0-1.5-0.152-2.875-0.459-4.125c-0.306-1.25-0.759-2.325-1.357-3.226c-0.6-0.899-1.342-1.6-2.225-2.1
			c-0.885-0.5-1.904-0.75-3.06-0.75c-1.167,0-2.194,0.25-3.083,0.75c-0.891,0.5-1.631,1.2-2.227,2.1
			c-0.595,0.9-1.043,1.976-1.35,3.226s-0.459,2.625-0.459,4.125c0,1.521,0.152,2.928,0.459,4.217s0.755,2.402,1.35,3.342
			c0.596,0.938,1.336,1.672,2.227,2.199C216.738,27.603,217.765,27.866,218.932,27.866z"/>
		<path fill="#C7FFCE" d="M237.083,5.616h3.717l13.533,15.1v-15.1h3.648v24.1h-2.518L240.765,13.05V29.35h-3.684V5.616H237.083z"/>
	</g>
</g>
<g id="Layer_2">
	<text transform="matrix(1 0 0 1 3.8008 26.5994)" fill="#FF5050" font-family="'AvenirNext-Bold'" font-size="20">DISCOVER MCGILL</text>
</g>
</svg>
