<?xml version="1.0" encoding="utf-8"?>
<!-- Generator: Adobe Illustrator 16.0.0, SVG Export Plug-In . SVG Version: 6.00 Build 0)  -->
<!DOCTYPE svg PUBLIC "-//W3C//DTD SVG 1.1//EN" "http://www.w3.org/Graphics/SVG/1.1/DTD/svg11.dtd">
<svg version="1.1" id="Layer_1" xmlns="http://www.w3.org/2000/svg" xmlns:xlink="http://www.w3.org/1999/xlink" x="0px" y="0px"
	 width="183.818px" height="16.336px" viewBox="0 0 183.818 16.336" enable-background="new 0 0 183.818 16.336"
	 xml:space="preserve">
<g id="_x0D_Freshman_MT_x0D_" display="none">
	<g display="inline">
		<path fill="#C7FFCE" d="M4.467,5.616h5.817V29.35H4.467V5.616z"/>
		<path fill="#C7FFCE" d="M16.367,5.616h3.717l13.533,15.099V5.616h3.65v24.099H34.75l-14.7-16.666V29.35h-3.684L16.367,5.616
			L16.367,5.616z"/>
		<path fill="#C7FFCE" d="M60.133,5.616v2.017H48.917v7.833H58.8V17.5h-9.883v11.85H43.1V5.616H60.133z"/>
		<path fill="#C7FFCE" d="M77.283,29.883c-1.278,0-2.5-0.143-3.667-0.426s-2.25-0.687-3.25-1.207c-1-0.521-1.912-1.156-2.733-1.899
			c-0.822-0.744-1.521-1.584-2.1-2.519c-0.578-0.934-1.025-1.947-1.342-3.041c-0.316-1.096-0.476-2.254-0.476-3.476
			c0-1.2,0.159-2.336,0.476-3.409c0.316-1.072,0.764-2.058,1.342-2.957c0.578-0.9,1.277-1.715,2.1-2.443s1.733-1.341,2.733-1.841
			s2.083-0.886,3.25-1.159C74.783,5.236,76.005,5.1,77.283,5.1c1.277,0,2.5,0.136,3.667,0.407c1.167,0.272,2.25,0.661,3.25,1.167
			c1,0.506,1.911,1.119,2.733,1.842c0.821,0.723,1.521,1.533,2.1,2.434s1.025,1.883,1.342,2.95c0.316,1.065,0.476,2.195,0.476,3.384
			c0,1.256-0.158,2.438-0.476,3.549c-0.316,1.111-0.764,2.135-1.342,3.066c-0.578,0.934-1.278,1.77-2.1,2.51
			c-0.822,0.737-1.733,1.365-2.733,1.883c-1,0.519-2.083,0.912-3.25,1.185C79.783,29.747,78.561,29.883,77.283,29.883z
			 M77.283,27.866c1.155,0,2.175-0.264,3.058-0.791c0.884-0.527,1.625-1.262,2.226-2.199c0.6-0.938,1.053-2.054,1.357-3.342
			c0.306-1.289,0.458-2.695,0.458-4.218c0-1.5-0.152-2.875-0.458-4.125c-0.305-1.25-0.758-2.325-1.357-3.226
			c-0.601-0.899-1.342-1.6-2.226-2.1c-0.883-0.5-1.902-0.75-3.058-0.75c-1.167,0-2.195,0.25-3.083,0.75
			c-0.889,0.5-1.631,1.2-2.225,2.1c-0.595,0.9-1.044,1.976-1.351,3.226c-0.306,1.25-0.458,2.625-0.458,4.125
			c0,1.521,0.152,2.929,0.458,4.218c0.306,1.288,0.755,2.401,1.351,3.342c0.594,0.938,1.336,1.672,2.225,2.199
			C75.088,27.603,76.117,27.866,77.283,27.866z"/>
		<path fill="#C7FFCE" d="M113.167,29.715c-1.424,0-2.668-0.166-3.732-0.498c-1.067-0.334-1.977-0.795-2.727-1.385
			c-0.75-0.588-1.345-1.289-1.783-2.101c-0.438-0.812-0.74-1.698-0.907-2.666h4.032c0.146,0.589,0.352,1.142,0.617,1.658
			c0.269,0.517,0.605,0.964,1.019,1.342c0.411,0.378,0.899,0.675,1.466,0.892s1.222,0.326,1.968,0.326
			c0.5,0,0.991-0.054,1.475-0.158c0.482-0.104,0.916-0.274,1.301-0.51c0.383-0.234,0.691-0.541,0.925-0.925
			c0.232-0.383,0.35-0.854,0.35-1.407c0-0.712-0.181-1.34-0.541-1.885c-0.36-0.544-0.84-1.042-1.434-1.492
			c-0.595-0.449-1.271-0.869-2.033-1.258c-0.762-0.391-1.537-0.779-2.326-1.175s-1.562-0.808-2.323-1.233
			c-0.763-0.427-1.439-0.908-2.033-1.441c-0.597-0.532-1.072-1.133-1.435-1.799c-0.359-0.668-0.541-1.434-0.541-2.301
			c0-0.943,0.205-1.818,0.617-2.625c0.41-0.806,1.008-1.503,1.791-2.092c0.784-0.589,1.742-1.05,2.875-1.383
			c1.135-0.333,2.422-0.5,3.867-0.5c1.2,0,2.284,0.167,3.25,0.5c0.967,0.333,1.819,0.785,2.559,1.357
			c0.74,0.572,1.361,1.248,1.867,2.025c0.506,0.776,0.894,1.617,1.158,2.517h-3.667c-0.211-0.564-0.456-1.104-0.733-1.617
			c-0.276-0.51-0.623-0.961-1.031-1.349c-0.412-0.389-0.906-0.697-1.483-0.925c-0.578-0.229-1.271-0.342-2.083-0.342
			c-0.756,0-1.396,0.1-1.917,0.3c-0.521,0.2-0.945,0.453-1.267,0.758c-0.323,0.306-0.555,0.647-0.692,1.025s-0.208,0.75-0.208,1.115
			c0,0.635,0.187,1.209,0.56,1.727c0.371,0.518,0.867,0.995,1.482,1.434c0.617,0.438,1.312,0.86,2.092,1.268
			c0.777,0.404,1.574,0.812,2.393,1.225c0.814,0.411,1.615,0.84,2.398,1.283s1.483,0.938,2.102,1.475
			c0.615,0.539,1.109,1.137,1.482,1.793c0.373,0.654,0.56,1.395,0.56,2.215c0,0.969-0.2,1.865-0.601,2.691
			c-0.399,0.828-0.992,1.551-1.774,2.168c-0.783,0.615-1.757,1.1-2.917,1.449C116.013,29.542,114.677,29.715,113.167,29.715z"/>
		<path fill="#C7FFCE" d="M145.033,5.616v2.017h-11.9v7.833h9.884V17.5h-9.884v9.416h11.9v2.436h-17.717V5.616H145.033z"/>
		<path fill="#C7FFCE" d="M158.016,29.715c-1.422,0-2.666-0.166-3.733-0.498c-1.066-0.334-1.975-0.795-2.725-1.385
			c-0.75-0.588-1.347-1.289-1.783-2.101c-0.439-0.812-0.742-1.698-0.908-2.666h4.033c0.145,0.589,0.35,1.142,0.616,1.658
			s0.604,0.964,1.017,1.342s0.9,0.675,1.467,0.892c0.567,0.217,1.225,0.326,1.967,0.326c0.5,0,0.992-0.054,1.477-0.158
			c0.482-0.104,0.917-0.274,1.302-0.51c0.383-0.232,0.69-0.541,0.924-0.925c0.234-0.383,0.352-0.854,0.352-1.407
			c0-0.712-0.182-1.34-0.541-1.885c-0.36-0.544-0.84-1.042-1.436-1.492c-0.595-0.449-1.271-0.869-2.033-1.258
			c-0.762-0.391-1.534-0.779-2.323-1.175s-1.564-0.808-2.325-1.233s-1.438-0.908-2.032-1.441c-0.596-0.532-1.072-1.133-1.435-1.799
			c-0.36-0.668-0.541-1.434-0.541-2.301c0-0.943,0.205-1.818,0.615-2.625c0.41-0.806,1.01-1.503,1.791-2.092
			c0.783-0.589,1.742-1.05,2.875-1.383c1.135-0.333,2.424-0.5,3.867-0.5c1.199,0,2.283,0.167,3.25,0.5s1.818,0.785,2.56,1.357
			c0.737,0.572,1.36,1.248,1.864,2.025c0.508,0.776,0.894,1.617,1.16,2.517h-3.668c-0.211-0.564-0.455-1.104-0.731-1.617
			c-0.278-0.51-0.622-0.961-1.033-1.349c-0.41-0.389-0.906-0.697-1.482-0.925c-0.578-0.229-1.271-0.342-2.084-0.342
			c-0.756,0-1.395,0.1-1.916,0.3c-0.521,0.2-0.943,0.453-1.268,0.758c-0.322,0.305-0.553,0.647-0.691,1.025
			c-0.14,0.378-0.209,0.75-0.209,1.115c0,0.635,0.188,1.209,0.561,1.727s0.866,0.995,1.482,1.434
			c0.615,0.438,1.312,0.86,2.093,1.268c0.776,0.404,1.573,0.812,2.392,1.225c0.815,0.411,1.616,0.84,2.399,1.283
			c0.782,0.443,1.481,0.938,2.101,1.475c0.616,0.539,1.11,1.137,1.483,1.793c0.37,0.654,0.558,1.395,0.558,2.215
			c0,0.969-0.198,1.865-0.601,2.691c-0.399,0.828-0.99,1.551-1.774,2.168c-0.782,0.615-1.755,1.1-2.916,1.449
			C160.867,29.54,159.527,29.715,158.016,29.715z"/>
		<path fill="#C7FFCE" d="M180.316,29.715c-1.422,0-2.666-0.166-3.732-0.498c-1.065-0.334-1.976-0.795-2.726-1.385
			c-0.75-0.588-1.345-1.289-1.782-2.101c-0.438-0.812-0.742-1.698-0.908-2.666h4.033c0.146,0.589,0.35,1.142,0.615,1.658
			s0.604,0.964,1.018,1.342s0.899,0.675,1.467,0.892c0.566,0.217,1.224,0.326,1.968,0.326c0.5,0,0.991-0.054,1.475-0.158
			s0.918-0.274,1.301-0.51c0.383-0.232,0.691-0.541,0.927-0.925c0.234-0.383,0.35-0.854,0.35-1.407c0-0.712-0.181-1.34-0.541-1.885
			c-0.361-0.544-0.84-1.042-1.434-1.492c-0.597-0.449-1.272-0.869-2.033-1.258c-0.763-0.391-1.536-0.779-2.325-1.175
			s-1.563-0.808-2.325-1.233c-0.761-0.427-1.438-0.908-2.033-1.441c-0.595-0.532-1.07-1.133-1.434-1.799
			c-0.361-0.668-0.541-1.434-0.541-2.301c0-0.943,0.205-1.818,0.616-2.625c0.411-0.806,1.009-1.503,1.792-2.092
			s1.739-1.05,2.875-1.383c1.133-0.333,2.422-0.5,3.864-0.5c1.201,0,2.283,0.167,3.25,0.5c0.969,0.333,1.82,0.785,2.561,1.357
			c0.738,0.572,1.361,1.248,1.866,2.025c0.506,0.776,0.893,1.617,1.158,2.517h-3.666c-0.212-0.564-0.457-1.104-0.733-1.617
			c-0.278-0.51-0.622-0.961-1.032-1.349c-0.412-0.389-0.906-0.697-1.483-0.925c-0.577-0.229-1.271-0.342-2.082-0.342
			c-0.757,0-1.396,0.1-1.918,0.3c-0.521,0.2-0.943,0.453-1.267,0.758c-0.324,0.305-0.554,0.647-0.69,1.025
			c-0.142,0.378-0.209,0.75-0.209,1.115c0,0.635,0.187,1.209,0.559,1.727s0.866,0.995,1.482,1.434s1.312,0.86,2.093,1.268
			c0.775,0.404,1.575,0.812,2.392,1.225c0.817,0.412,1.616,0.84,2.399,1.283c0.784,0.443,1.482,0.938,2.101,1.475
			c0.616,0.539,1.11,1.137,1.483,1.793c0.372,0.654,0.558,1.395,0.558,2.215c0,0.969-0.199,1.865-0.6,2.691
			c-0.4,0.828-0.991,1.551-1.775,2.168c-0.783,0.615-1.755,1.1-2.916,1.449C183.167,29.54,181.828,29.715,180.316,29.715z"/>
		<path fill="#C7FFCE" d="M194.716,5.616h5.816V29.35h-5.816V5.616z"/>
		<path fill="#C7FFCE" d="M218.932,29.883c-1.278,0-2.5-0.143-3.667-0.426c-1.166-0.283-2.25-0.687-3.25-1.207
			c-1-0.521-1.911-1.156-2.732-1.899c-0.822-0.744-1.523-1.584-2.101-2.519c-0.578-0.934-1.024-1.947-1.344-3.041
			c-0.314-1.096-0.475-2.254-0.475-3.476c0-1.2,0.158-2.336,0.475-3.409c0.316-1.072,0.766-2.058,1.344-2.957
			c0.576-0.9,1.275-1.715,2.101-2.443c0.821-0.728,1.732-1.341,2.732-1.841s2.084-0.886,3.25-1.159
			c1.167-0.271,2.389-0.407,3.667-0.407c1.275,0,2.5,0.136,3.667,0.407c1.166,0.272,2.25,0.661,3.25,1.167
			c1,0.506,1.909,1.119,2.731,1.842c0.821,0.723,1.521,1.533,2.102,2.434c0.576,0.9,1.023,1.883,1.342,2.95
			c0.314,1.065,0.476,2.194,0.476,3.384c0,1.256-0.158,2.438-0.476,3.549c-0.315,1.111-0.766,2.135-1.342,3.066
			c-0.578,0.934-1.278,1.77-2.102,2.51c-0.822,0.737-1.731,1.365-2.731,1.883c-1,0.519-2.084,0.912-3.25,1.185
			C221.432,29.747,220.208,29.883,218.932,29.883z M218.932,27.866c1.154,0,2.175-0.264,3.06-0.791
			c0.883-0.527,1.625-1.262,2.225-2.199c0.601-0.938,1.054-2.054,1.357-3.342c0.304-1.289,0.459-2.695,0.459-4.218
			c0-1.5-0.152-2.875-0.459-4.125c-0.306-1.25-0.759-2.325-1.357-3.226c-0.6-0.899-1.342-1.6-2.225-2.1
			c-0.885-0.5-1.904-0.75-3.06-0.75c-1.167,0-2.194,0.25-3.083,0.75c-0.892,0.5-1.632,1.2-2.228,2.1
			c-0.595,0.9-1.043,1.976-1.35,3.226c-0.308,1.25-0.459,2.625-0.459,4.125c0,1.521,0.151,2.929,0.459,4.218
			c0.307,1.288,0.755,2.401,1.35,3.342c0.596,0.938,1.336,1.672,2.228,2.199C216.738,27.603,217.765,27.866,218.932,27.866z"/>
		<path fill="#C7FFCE" d="M237.083,5.616h3.717l13.533,15.099V5.616h3.648v24.099h-2.519l-14.697-16.666V29.35h-3.685V5.616H237.083
			z"/>
	</g>
</g>
<g id="Layer_2">
	<g enable-background="new    ">
		<path fill="#FF5050" d="M14.68,8.216c0,1.24-0.23,2.311-0.69,3.21c-0.46,0.9-1.067,1.641-1.82,2.22
			c-0.753,0.58-1.604,1.007-2.55,1.28c-0.947,0.273-1.907,0.41-2.88,0.41H1.46V1.176h5.12c1,0,1.986,0.117,2.96,0.351
			c0.973,0.233,1.84,0.619,2.6,1.159c0.76,0.54,1.373,1.264,1.84,2.17C14.447,5.763,14.68,6.883,14.68,8.216z M11.12,8.216
			c0-0.8-0.13-1.463-0.39-1.99C10.47,5.7,10.123,5.28,9.69,4.966C9.256,4.653,8.763,4.43,8.21,4.296
			c-0.553-0.133-1.124-0.2-1.71-0.2H4.8v8.28h1.62c0.613,0,1.203-0.07,1.77-0.21c0.566-0.14,1.066-0.37,1.5-0.69
			c0.433-0.319,0.78-0.746,1.04-1.279C10.99,9.664,11.12,9.003,11.12,8.216z"/>
		<path fill="#FF5050" d="M16.939,15.336V1.176h3.44v14.16H16.939z"/>
		<path fill="#FF5050" d="M30.78,4.856c-0.293-0.373-0.677-0.67-1.15-0.89c-0.474-0.22-0.93-0.33-1.37-0.33
			c-0.227,0-0.457,0.021-0.69,0.061c-0.233,0.04-0.443,0.116-0.63,0.229c-0.187,0.113-0.344,0.26-0.47,0.44
			c-0.127,0.18-0.19,0.41-0.19,0.689c0,0.24,0.05,0.44,0.15,0.601c0.1,0.16,0.247,0.3,0.44,0.42s0.423,0.229,0.69,0.33
			c0.266,0.1,0.566,0.203,0.9,0.31c0.48,0.16,0.98,0.337,1.5,0.53s0.993,0.45,1.42,0.77c0.427,0.32,0.78,0.717,1.06,1.19
			c0.28,0.474,0.42,1.063,0.42,1.77c0,0.813-0.15,1.518-0.45,2.11c-0.3,0.594-0.703,1.083-1.21,1.47s-1.087,0.674-1.74,0.86
			c-0.653,0.187-1.327,0.28-2.02,0.28c-1.014,0-1.994-0.177-2.94-0.53c-0.947-0.354-1.733-0.856-2.36-1.51l2.24-2.28
			c0.347,0.427,0.803,0.783,1.37,1.07c0.566,0.286,1.13,0.43,1.69,0.43c0.253,0,0.5-0.026,0.74-0.08c0.24-0.053,0.45-0.14,0.63-0.26
			c0.18-0.12,0.323-0.28,0.43-0.48c0.106-0.2,0.16-0.439,0.16-0.72c0-0.267-0.067-0.493-0.2-0.68s-0.323-0.356-0.57-0.511
			c-0.247-0.152-0.554-0.293-0.92-0.42c-0.367-0.126-0.784-0.263-1.25-0.409c-0.454-0.147-0.897-0.32-1.33-0.521
			c-0.434-0.2-0.82-0.456-1.16-0.77c-0.34-0.313-0.613-0.693-0.82-1.141c-0.207-0.446-0.31-0.99-0.31-1.63
			c0-0.786,0.16-1.46,0.48-2.02c0.32-0.561,0.74-1.021,1.26-1.381c0.52-0.359,1.106-0.623,1.76-0.789
			c0.653-0.167,1.313-0.25,1.98-0.25c0.8,0,1.617,0.146,2.45,0.439c0.833,0.294,1.563,0.727,2.19,1.3L30.78,4.856z"/>
		<path fill="#FF5050" d="M45.259,15.086c-0.92,0.42-1.98,0.63-3.18,0.63c-1.093,0-2.104-0.18-3.03-0.54
			c-0.927-0.359-1.73-0.87-2.41-1.53c-0.68-0.659-1.213-1.449-1.6-2.369c-0.387-0.921-0.58-1.934-0.58-3.04
			c0-1.134,0.197-2.16,0.59-3.08c0.393-0.92,0.937-1.703,1.63-2.351c0.693-0.646,1.506-1.143,2.44-1.489
			c0.933-0.347,1.94-0.521,3.02-0.521c1,0,1.983,0.177,2.95,0.53c0.966,0.354,1.75,0.87,2.35,1.55l-2.32,2.32
			c-0.32-0.44-0.74-0.767-1.26-0.98c-0.52-0.213-1.054-0.32-1.6-0.32c-0.6,0-1.15,0.11-1.65,0.33c-0.5,0.221-0.93,0.523-1.29,0.91
			c-0.36,0.387-0.64,0.844-0.84,1.37c-0.2,0.527-0.3,1.104-0.3,1.73c0,0.64,0.1,1.227,0.3,1.76c0.2,0.533,0.477,0.99,0.83,1.37
			c0.353,0.38,0.777,0.677,1.27,0.89c0.493,0.214,1.033,0.32,1.62,0.32c0.68,0,1.273-0.134,1.78-0.4s0.913-0.613,1.22-1.04
			l2.38,2.24C46.952,14.096,46.179,14.667,45.259,15.086z"/>
		<path fill="#FF5050" d="M63.559,8.197c0,1.12-0.194,2.144-0.58,3.069c-0.387,0.927-0.923,1.721-1.61,2.38
			c-0.687,0.66-1.503,1.171-2.45,1.53c-0.947,0.36-1.974,0.54-3.08,0.54c-1.107,0-2.13-0.18-3.07-0.54
			c-0.94-0.359-1.753-0.87-2.44-1.53c-0.687-0.659-1.224-1.453-1.61-2.38c-0.387-0.926-0.58-1.949-0.58-3.069
			c0-1.134,0.193-2.157,0.58-3.07s0.923-1.69,1.61-2.33c0.687-0.64,1.5-1.133,2.44-1.479s1.963-0.521,3.07-0.521
			c1.106,0,2.133,0.174,3.08,0.521c0.946,0.347,1.763,0.84,2.45,1.479c0.687,0.64,1.223,1.417,1.61,2.33
			C63.365,6.04,63.559,7.063,63.559,8.197z M59.899,8.197c0-0.613-0.1-1.187-0.3-1.721c-0.2-0.533-0.477-0.989-0.83-1.37
			c-0.354-0.38-0.78-0.68-1.28-0.899s-1.05-0.33-1.65-0.33s-1.147,0.11-1.64,0.33s-0.92,0.52-1.28,0.899
			c-0.36,0.381-0.637,0.837-0.83,1.37c-0.193,0.534-0.29,1.107-0.29,1.721c0,0.64,0.1,1.229,0.3,1.77
			c0.2,0.54,0.477,1.004,0.83,1.39c0.354,0.388,0.777,0.69,1.27,0.91c0.493,0.221,1.04,0.33,1.64,0.33s1.146-0.109,1.64-0.33
			c0.493-0.22,0.92-0.522,1.28-0.91c0.36-0.386,0.64-0.85,0.84-1.39C59.799,9.426,59.899,8.836,59.899,8.197z"/>
		<path fill="#FF5050" d="M72.599,15.336h-3.42l-5.36-14.16h3.84l3.28,10.04h0.08l3.26-10.04h3.78L72.599,15.336z"/>
		<path fill="#FF5050" d="M79.219,15.336V1.176h9.52v2.88h-6.22v2.681h5.88v2.739h-5.88v2.94h6.58v2.92H79.219z"/>
		<path fill="#FF5050" d="M98.939,15.336l-3.074-5.62h-1.166v5.62h-3.34V1.176h5.399c0.681,0,1.344,0.07,1.99,0.21
			c0.646,0.141,1.227,0.377,1.74,0.71c0.514,0.334,0.923,0.773,1.23,1.32c0.307,0.547,0.46,1.227,0.46,2.04
			c0,0.96-0.261,1.767-0.78,2.42c-0.521,0.653-1.24,1.12-2.16,1.4l3.7,6.06H98.939z M98.8,5.516c0-0.333-0.07-0.603-0.211-0.81
			s-0.322-0.366-0.543-0.48c-0.222-0.112-0.469-0.189-0.744-0.229c-0.274-0.04-0.539-0.061-0.793-0.061h-1.83v3.301h1.629
			c0.281,0,0.568-0.023,0.863-0.07s0.562-0.13,0.805-0.25c0.241-0.12,0.438-0.293,0.593-0.521C98.721,6.169,98.8,5.876,98.8,5.516z"
			/>
		<path fill="#FF5050" d="M122.459,15.336l0.08-10.02h-0.06l-3.681,10.02h-2.399l-3.58-10.02h-0.061l0.08,10.02h-3.22V1.176h4.866
			l3.224,9.08h0.08l3.084-9.08h4.946v14.16H122.459z"/>
		<path fill="#FF5050" d="M138.858,15.086c-0.92,0.42-1.979,0.63-3.18,0.63c-1.094,0-2.104-0.18-3.03-0.54
			c-0.927-0.359-1.729-0.87-2.409-1.53c-0.681-0.659-1.214-1.449-1.601-2.369c-0.387-0.921-0.58-1.934-0.58-3.04
			c0-1.134,0.196-2.16,0.59-3.08s0.937-1.703,1.63-2.351c0.693-0.646,1.507-1.143,2.44-1.489s1.94-0.521,3.021-0.521
			c1,0,1.982,0.177,2.949,0.53s1.75,0.87,2.351,1.55l-2.32,2.32c-0.32-0.44-0.74-0.767-1.26-0.98
			c-0.521-0.213-1.054-0.32-1.601-0.32c-0.6,0-1.149,0.11-1.649,0.33c-0.5,0.221-0.931,0.523-1.29,0.91
			c-0.36,0.387-0.641,0.844-0.84,1.37c-0.2,0.527-0.301,1.104-0.301,1.73c0,0.64,0.101,1.227,0.301,1.76
			c0.199,0.533,0.477,0.99,0.83,1.37c0.353,0.38,0.776,0.677,1.27,0.89c0.493,0.214,1.033,0.32,1.62,0.32
			c0.68,0,1.273-0.134,1.78-0.4c0.506-0.267,0.913-0.613,1.22-1.04l2.38,2.24C140.552,14.096,139.778,14.667,138.858,15.086z"/>
		<path fill="#FF5050" d="M152.789,15.356c-0.927,0.227-1.938,0.341-3.03,0.341c-1.134,0-2.177-0.181-3.13-0.54
			c-0.954-0.36-1.773-0.867-2.46-1.521c-0.688-0.653-1.224-1.437-1.61-2.35s-0.58-1.931-0.58-3.05c0-1.134,0.196-2.16,0.59-3.08
			s0.937-1.703,1.63-2.351c0.693-0.646,1.507-1.143,2.44-1.489s1.94-0.521,3.021-0.521c1.119,0,2.159,0.17,3.119,0.51
			s1.74,0.797,2.341,1.37l-2.16,2.46c-0.334-0.387-0.773-0.703-1.32-0.95c-0.547-0.246-1.167-0.369-1.86-0.369
			c-0.6,0-1.153,0.109-1.659,0.329c-0.507,0.221-0.947,0.527-1.32,0.921c-0.374,0.393-0.663,0.859-0.87,1.399s-0.31,1.13-0.31,1.771
			c0,0.653,0.093,1.253,0.279,1.8s0.464,1.017,0.83,1.41c0.367,0.394,0.82,0.699,1.36,0.92c0.54,0.22,1.156,0.33,1.85,0.33
			c0.4,0,0.78-0.03,1.141-0.091c0.359-0.06,0.692-0.156,1-0.289v-2.58h-2.7V6.976h5.84v7.5
			C154.525,14.836,153.715,15.129,152.789,15.356z"/>
		<path fill="#FF5050" d="M158.018,15.336V1.176h3.44v14.16H158.018z"/>
		<path fill="#FF5050" d="M164.379,15.336V1.176h3.44v11.18h5.479v2.98H164.379z"/>
		<path fill="#FF5050" d="M174.898,15.336V1.176h3.44v11.18h5.479v2.98H174.898z"/>
	</g>
</g>
</svg>
