<?xml version="1.0" encoding="utf-8"?>
<!-- Generator: Adobe Illustrator 16.0.0, SVG Export Plug-In . SVG Version: 6.00 Build 0)  -->
<!DOCTYPE svg PUBLIC "-//W3C//DTD SVG 1.1//EN" "http://www.w3.org/Graphics/SVG/1.1/DTD/svg11.dtd">
<svg version="1.1" id="Group_1_1_" xmlns="http://www.w3.org/2000/svg" xmlns:xlink="http://www.w3.org/1999/xlink" x="0px" y="0px"
	 width="392.713px" height="395.98px" viewBox="0 0 392.713 395.98" enable-background="new 0 0 392.713 395.98"
	 xml:space="preserve">
<g id="freshman">
	<g>
		<path fill="#D7A528" d="M47.954,77.829h-0.601c-2.982,0-5.584,0.742-7.806,2.226c0.48-2.566,1.186-4.195,2.117-4.887
			c0.931-0.692,2.887-1.038,5.87-1.038h1.141l0.991-4.962c1.341-6.736,3.482-11.587,6.425-14.555
			c3.643-3.688,7.676-5.533,12.1-5.533c1.721,0,3.202,0.401,4.444,1.203c1.241,0.802,1.861,1.774,1.861,2.917
			c0,1.163-1.291,2.496-3.873,4c-0.721-3.067-2.362-4.601-4.924-4.601c-4.544,0-7.796,4.952-9.758,14.855l-1.321,6.676h10.479
			c4.784,0,8.296-0.26,10.538-0.782c-0.96,2.125-2.056,3.403-3.288,3.834c-1.231,0.431-4.398,0.646-9.502,0.646h-8.977
			l-5.104,25.801c-0.5,2.486-0.75,4.661-0.75,6.526c0,1.183,0.26,2.255,0.781,3.217c-2.002,0.662-3.543,0.993-4.624,0.993
			c-1.662,0-2.492-0.932-2.492-2.797c0-1.463,0.33-3.869,0.991-7.217L47.954,77.829z"/>
		<path fill="#D7A528" d="M72.438,101.556c-1.368,0.641-2.464,0.962-3.288,0.962c-2.052,0-3.077-0.902-3.077-2.707
			c0-0.922,0.36-3.218,1.081-6.886l1.501-7.488c0.92-4.45,1.381-7.748,1.381-9.893c0-1.163-0.331-2.135-0.991-2.917
			c2.102-0.722,3.813-1.083,5.134-1.083c1.401,0,2.102,0.892,2.102,2.676c0,1.103-0.497,4-1.489,8.69l-1.698,8.751
			c3.779-7.357,7.583-13.076,11.413-17.156c3.83-4.08,7.304-6.12,10.424-6.12c1.1,0,2.049,0.316,2.849,0.947s1.2,1.398,1.2,2.3
			c0,1.404-1.521,3.268-4.563,5.593c-0.76-1.583-1.84-2.375-3.239-2.375c-2.539,0-5.776,2.707-9.714,8.119
			c-2.439,3.368-4.558,6.841-6.356,10.42c-1.799,3.579-2.699,6.13-2.699,7.653L72.438,101.556z"/>
		<path fill="#D7A528" d="M103.829,89.246c0,5.861,2.482,8.791,7.446,8.791c4.304,0,9.047-2.05,14.231-6.15
			s9.858-9.501,14.021-16.203l2.552,1.41c-3.923,7.333-9.022,13.403-15.297,18.211c-6.275,4.809-12.225,7.212-17.849,7.212
			c-3.603,0-6.45-1.163-8.542-3.488c-2.092-2.326-3.138-5.503-3.138-9.533c0-5.814,1.896-10.786,5.689-14.916
			s8.362-6.195,13.706-6.195c2.582,0,4.648,0.651,6.2,1.954c1.551,1.303,2.327,3.046,2.327,5.229c0,3.587-2.157,6.764-6.47,9.529
			C114.393,87.864,109.434,89.246,103.829,89.246z M104.069,86.359c4.183-0.22,7.771-1.42,10.764-3.599
			c2.992-2.179,4.488-4.699,4.488-7.558c0-2.559-1.141-3.839-3.422-3.839c-2.723,0-5.234,1.46-7.536,4.379
			S104.629,82.201,104.069,86.359z"/>
		<path fill="#D7A528" d="M150.982,91.181c0.68,1.523,1.021,2.977,1.021,4.36c0,3.067-1.281,5.739-3.843,8.014
			c-2.562,2.275-5.564,3.413-9.007,3.413c-2.022,0-3.743-0.521-5.164-1.563c-1.421-1.042-2.132-2.296-2.132-3.759
			c0-1.564,0.976-3.147,2.927-4.751c1.952-1.604,5.219-3.508,9.803-5.713l-2.402-3.879c-2.922-4.711-4.383-8.39-4.383-11.036
			c0-3.809,2.211-6.876,6.635-9.202c2.722,1.042,4.083,2.356,4.083,3.939c0,2.246-1.731,4.401-5.194,6.465l3.422,6.315l2.672,4.872
			c3.823-2.285,6.705-4.245,8.647-5.879c1.941-1.634,4.393-4.154,7.355-7.563l2.402,1.474
			C163.521,82.46,157.907,87.292,150.982,91.181z M145.878,93.887c-5.885,3.168-8.827,5.624-8.827,7.368
			c0,1.644,1.19,2.466,3.573,2.466c1.761,0,3.192-0.597,4.293-1.789c1.101-1.193,1.651-2.731,1.651-4.616
			C146.568,96.193,146.338,95.05,145.878,93.887z"/>
		<path fill="#D7A528" d="M166.009,88.565c5.964-13.452,12.05-20.178,18.255-20.178c2.481,0,4.273,1.038,5.374,3.112
			c1.101,2.075,1.651,5.438,1.651,10.089l0.03,3.609c0,6.255,0.92,9.433,2.762,9.533c1.481,0.06,3.817-1.724,7.01-5.353
			c3.191-3.628,6.439-8.189,9.742-13.683l2.492,1.383c-3.242,6.436-6.9,11.878-10.973,16.329c-4.074,4.451-7.432,6.676-10.073,6.676
			c-2.462,0-4.233-1.152-5.314-3.458c-1.081-2.305-1.622-6.075-1.622-11.307v-2.676c0-6.054-1.041-9.082-3.123-9.082
			c-2.942,0-6.695,4.06-11.259,12.179c-4.604,8.18-6.905,13.032-6.905,14.555c0,0.501,0.19,0.993,0.57,1.474
			c-0.901,0.501-2.072,0.752-3.513,0.752c-1.782,0-2.672-0.792-2.672-2.376c0-1.102,0.63-4.44,1.892-10.014
			c0.04-0.181,0.3-1.474,0.781-3.879l6.155-31.034c-1.341,0.501-2.692,0.752-4.053,0.752c-3.883,0-5.825-2.295-5.825-6.887
			c1.921,1.444,4.153,2.166,6.695,2.166c3.583,0,7.025-0.722,10.328-2.166l-4.924,24.869c-0.06,0.281-0.981,4.01-2.762,11.187
			C166.59,85.738,166.35,86.881,166.009,88.565z"/>
		<path fill="#D7A528" d="M214.363,91.197c7.207-15.207,13.572-22.81,19.096-22.81c2.422,0,3.633,1.75,3.633,5.252
			c0,1.501-0.521,4.882-1.561,10.144l-1.803,9.094c3.504-7.372,7.156-13.296,10.959-17.773s7.086-6.716,9.848-6.716
			c3.043,0,4.564,1.783,4.564,5.347c0,1.282-0.451,4.215-1.352,8.801l-0.93,4.687c-0.561,2.824-0.842,4.917-0.842,6.278
			c0,2.404,0.852,3.605,2.553,3.605c3.842,0,9.746-7.137,17.713-21.412l2.523,1.409c-8.688,16.944-16.273,25.416-22.758,25.416
			c-4.145,0-6.215-2.707-6.215-8.12c0-1.804,0.398-4.701,1.199-8.69l0.842-4.15c0.561-2.807,0.84-4.551,0.84-5.232
			c0-0.862-0.439-1.293-1.32-1.293c-2.162,0-6.035,4.299-11.619,12.899c-5.064,7.838-7.596,12.319-7.596,13.441
			c0,0.12,0.039,0.331,0.119,0.631c-0.279,0.06-0.77,0.191-1.471,0.393c-0.301,0.101-0.75,0.151-1.352,0.151
			c-1.861,0-2.791-0.891-2.791-2.673c0-0.541,0.299-2.173,0.9-4.896c0.219-0.981,0.439-2.033,0.66-3.154l1.262-6.368
			c0.92-4.586,1.381-7.339,1.381-8.261c0-1.341-0.492-2.013-1.473-2.013c-2.16,0-5.344,3.875-9.547,11.623
			c-4.184,7.688-6.275,12.273-6.275,13.755c0,0.421,0.16,0.831,0.48,1.231c-1.102,0.484-2.111,0.726-3.031,0.726
			c-2.082,0-3.123-1.123-3.123-3.368c0-0.281,0.301-3.197,0.9-8.751l0.691-6.405c0.24-2.245,0.359-4.32,0.359-6.225
			c0-2.406-0.49-4.169-1.471-5.292c2.322-0.842,3.963-1.263,4.924-1.263c1.762,0,2.643,1.042,2.643,3.125
			c0,0.742-0.24,3.497-0.721,8.264L214.363,91.197z"/>
		<path fill="#D7A528" d="M295.594,83.393c-2.566,5.312-5.727,9.829-9.484,13.547c-3.758,3.719-7.029,5.579-9.814,5.579
			c-2.123,0-3.822-0.947-5.094-2.842c-1.273-1.895-1.908-4.416-1.908-7.563c0-6.275,1.896-11.798,5.695-16.569
			c3.797-4.771,8.189-7.157,13.18-7.157c3.023,0,6.301,0.942,9.826,2.827c0.521-1.864,2.643-2.796,6.365-2.796
			c0.24,0,0.631,0.01,1.172,0.03c-1.141,1.744-2.012,4.13-2.611,7.157l-0.512,2.556c-0.58,2.847-0.871,6.175-0.871,9.983
			c0,4.391,1.021,6.586,3.062,6.586c2.162,0,5.119-1.809,8.873-5.428c3.752-3.618,7.441-8.225,11.064-13.818l2.342,1.624
			c-3.705,6.616-7.938,12.134-12.701,16.554c-4.764,4.421-8.857,6.631-12.279,6.631c-4.324,0-6.486-3.608-6.486-10.826
			C295.412,87.963,295.473,85.938,295.594,83.393z M297.004,76.205c-4.209-2.746-7.707-4.12-10.492-4.12
			c-3.027,0-5.643,1.839-7.848,5.518c-2.205,3.679-3.307,8.044-3.307,13.096c0,4.05,1.322,6.075,3.969,6.075
			c2.865,0,8.348-6.295,16.445-18.885C295.871,77.729,296.283,77.167,297.004,76.205z"/>
		<path fill="#D7A528" d="M327.854,90.97c7.105-15.055,13.492-22.583,19.156-22.583c4.424,0,6.635,4.411,6.635,13.231l0.061,3.639
			c0,4.21,0.215,7.122,0.645,8.736c0.432,1.614,1.217,2.421,2.357,2.421c1.721,0,3.678-1.373,5.869-4.12
			c2.193-2.746,5.76-8.27,10.705-16.569l2.521,1.474c-4.404,8.32-8.348,14.495-11.83,18.524c-3.482,4.03-6.605,6.044-9.367,6.044
			c-2.543,0-4.328-1.233-5.359-3.699s-1.547-6.736-1.547-12.811l-0.029-2.586c0-3.288-0.211-5.598-0.631-6.932
			c-0.42-1.333-1.15-2-2.191-2c-2.643,0-6.895,5.283-12.76,15.848c-1.441,2.586-2.371,4.25-2.793,4.992
			c-1.541,2.687-2.311,4.631-2.311,5.834c0,0.481,0.129,0.942,0.389,1.383c-1.16,0.481-2.141,0.722-2.941,0.722
			c-2.021,0-3.033-1.123-3.033-3.368c0-0.642,0.26-3.528,0.781-8.661l0.66-6.525c0.301-2.767,0.451-4.912,0.451-6.436
			c0-2.125-0.48-3.799-1.441-5.022c0.42-0.14,1.121-0.38,2.102-0.722c1.24-0.44,2.232-0.662,2.973-0.662
			c1.561,0,2.342,1.143,2.342,3.428c0,1.203-0.15,3.268-0.451,6.195c-0.059,0.642-0.119,1.253-0.18,1.834L327.854,90.97z"/>
	</g>
</g>
<g id="MT">
	<g>
		<path fill="#CD9629" d="M206.157,331.435h-59.38l23.462-120.401h-0.869l-47.794,120.401H82.761l-4.055-120.401h-1.159
			L59.299,331.435H4.842l35.628-205.407h71.836l6.083,110.827h1.159l42.581-110.827h79.657L206.157,331.435z"/>
		<path fill="#CD9629" d="M377.636,177.669h-36.497l-26.649,153.765h-59.96l26.938-153.765h-36.497l8.979-51.642h132.665
			L377.636,177.669z"/>
	</g>
</g>
<g id="September_10-11">
	<g>
		<path fill="#CD9629" d="M16.502,364.048c-0.542-0.688-1.25-1.236-2.123-1.643c-0.874-0.406-1.717-0.609-2.529-0.609
			c-0.419,0-0.843,0.037-1.273,0.11c-0.431,0.074-0.819,0.216-1.163,0.425c-0.345,0.21-0.634,0.48-0.868,0.812
			s-0.351,0.757-0.351,1.273c0,0.443,0.092,0.812,0.277,1.107c0.185,0.296,0.455,0.554,0.812,0.775
			c0.356,0.222,0.781,0.425,1.274,0.609c0.492,0.185,1.046,0.376,1.661,0.572c0.886,0.295,1.809,0.622,2.769,0.979
			c0.959,0.356,1.833,0.83,2.621,1.421c0.787,0.591,1.439,1.323,1.957,2.197s0.775,1.963,0.775,3.267
			c0,1.502-0.277,2.801-0.831,3.896c-0.554,1.096-1.299,2-2.234,2.714c-0.936,0.714-2.006,1.243-3.212,1.587
			c-1.206,0.345-2.449,0.517-3.729,0.517c-1.871,0-3.68-0.326-5.427-0.978c-1.748-0.652-3.2-1.581-4.356-2.788l4.135-4.208
			c0.64,0.787,1.482,1.445,2.529,1.975c1.046,0.529,2.086,0.794,3.12,0.794c0.467,0,0.923-0.049,1.366-0.147
			c0.443-0.099,0.831-0.259,1.163-0.48c0.333-0.222,0.597-0.517,0.794-0.886c0.197-0.369,0.295-0.812,0.295-1.329
			c0-0.492-0.124-0.91-0.369-1.255c-0.247-0.345-0.597-0.658-1.052-0.941c-0.456-0.283-1.021-0.542-1.698-0.775
			c-0.677-0.234-1.446-0.486-2.308-0.757c-0.837-0.271-1.655-0.591-2.455-0.96s-1.513-0.843-2.141-1.422
			c-0.627-0.578-1.132-1.279-1.514-2.104c-0.382-0.824-0.572-1.827-0.572-3.009c0-1.452,0.295-2.695,0.886-3.729
			c0.591-1.034,1.366-1.883,2.326-2.548c0.96-0.664,2.042-1.15,3.249-1.458c1.206-0.308,2.424-0.462,3.655-0.462
			c1.477,0,2.984,0.271,4.522,0.812c1.538,0.542,2.885,1.342,4.042,2.399L16.502,364.048z"/>
		<path fill="#CD9629" d="M24.144,383.394v-26.139h17.573v5.316H30.235v4.947h10.854v5.058H30.235v5.427h12.146v5.391H24.144z"/>
		<path fill="#CD9629" d="M66.008,365.303c0,1.526-0.283,2.812-0.849,3.858c-0.566,1.047-1.329,1.89-2.289,2.529
			s-2.067,1.107-3.323,1.402c-1.255,0.296-2.56,0.443-3.913,0.443h-3.138v9.857h-6.313v-26.139h9.599
			c1.427,0,2.763,0.142,4.006,0.425c1.242,0.283,2.326,0.738,3.249,1.365c0.923,0.628,1.649,1.453,2.178,2.474
			C65.743,362.541,66.008,363.802,66.008,365.303z M59.695,365.34c0-0.614-0.124-1.119-0.369-1.514
			c-0.247-0.394-0.579-0.701-0.997-0.923s-0.892-0.369-1.421-0.443c-0.529-0.073-1.077-0.11-1.643-0.11h-2.769v6.166h2.658
			c0.591,0,1.157-0.05,1.698-0.148c0.541-0.098,1.027-0.271,1.458-0.517s0.769-0.572,1.016-0.979
			C59.572,366.466,59.695,365.956,59.695,365.34z"/>
		<path fill="#CD9629" d="M80.406,362.645v20.749h-6.312v-20.749H66.71v-5.39h21.08v5.39H80.406z"/>
		<path fill="#CD9629" d="M90.3,383.394v-26.139h17.573v5.316H96.392v4.947h10.854v5.058H96.392v5.427h12.146v5.391H90.3z"/>
		<path fill="#CD9629" d="M136.041,383.394l0.148-18.496h-0.111l-6.793,18.496h-4.43l-6.608-18.496h-0.111l0.147,18.496h-5.944
			v-26.139h8.982l5.952,16.761h0.147l5.692-16.761h9.13v26.139H136.041z"/>
		<path fill="#CD9629" d="M167.605,375.788c0,1.428-0.283,2.628-0.849,3.6c-0.566,0.973-1.317,1.754-2.252,2.345
			c-0.936,0.591-2,1.015-3.193,1.273c-1.194,0.259-2.418,0.388-3.673,0.388h-10.411v-26.139h10.411c1.009,0,2.042,0.104,3.101,0.313
			c1.058,0.21,2.018,0.566,2.879,1.071c0.861,0.504,1.562,1.188,2.104,2.049c0.541,0.861,0.812,1.956,0.812,3.285
			c0,1.453-0.394,2.653-1.181,3.6c-0.788,0.948-1.822,1.631-3.101,2.05v0.073c0.738,0.124,1.433,0.351,2.085,0.684
			c0.652,0.332,1.218,0.757,1.698,1.273s0.861,1.12,1.145,1.809C167.463,374.151,167.605,374.927,167.605,375.788z M160.443,364.823
			c0-0.886-0.339-1.532-1.015-1.938c-0.677-0.406-1.68-0.609-3.009-0.609h-3.101v5.391h3.396c1.182,0,2.098-0.24,2.75-0.72
			C160.117,366.466,160.443,365.759,160.443,364.823z M161.292,375.197c0-1.083-0.406-1.833-1.218-2.252
			c-0.812-0.418-1.896-0.628-3.249-0.628h-3.507v5.981h3.544c0.492,0,1.002-0.043,1.532-0.129c0.529-0.086,1.009-0.24,1.439-0.462
			s0.781-0.535,1.052-0.941C161.157,376.36,161.292,375.838,161.292,375.197z"/>
		<path fill="#CD9629" d="M171.407,383.394v-26.139h17.573v5.316h-11.481v4.947h10.854v5.058h-10.854v5.427h12.146v5.391H171.407z"
			/>
		<path fill="#CD9629" d="M207.438,383.394l-5.675-10.374h-2.151v10.374h-6.166v-26.139h9.968c1.255,0,2.479,0.129,3.673,0.388
			c1.193,0.259,2.265,0.695,3.212,1.311s1.704,1.428,2.271,2.437c0.565,1.01,0.85,2.265,0.85,3.766c0,1.772-0.48,3.262-1.44,4.468
			s-2.289,2.067-3.987,2.584l6.83,11.187H207.438z M207.181,365.267c0-0.615-0.131-1.113-0.391-1.495
			c-0.259-0.382-0.593-0.677-1.001-0.887c-0.408-0.209-0.866-0.351-1.373-0.425c-0.507-0.073-0.995-0.11-1.465-0.11h-3.376v6.092
			h3.005c0.52,0,1.051-0.043,1.596-0.129c0.544-0.086,1.038-0.24,1.483-0.462s0.81-0.541,1.095-0.96
			C207.038,366.473,207.181,365.931,207.181,365.267z"/>
		<path fill="#CD9629" d="M234.167,383.394v-19.198l-4.873,3.766l-3.212-4.393l8.6-6.313h5.651v26.139H234.167z"/>
		<path fill="#CD9629" d="M269.35,370.25c0,1.847-0.185,3.606-0.554,5.279c-0.369,1.675-0.96,3.145-1.771,4.412
			c-0.812,1.269-1.864,2.277-3.157,3.027c-1.292,0.751-2.86,1.126-4.707,1.126c-1.846,0-3.421-0.375-4.725-1.126
			c-1.306-0.75-2.369-1.759-3.193-3.027c-0.825-1.268-1.422-2.737-1.791-4.412c-0.369-1.673-0.554-3.433-0.554-5.279
			c0-1.846,0.185-3.6,0.554-5.261s0.966-3.113,1.791-4.356c0.824-1.242,1.888-2.233,3.193-2.972
			c1.304-0.738,2.879-1.107,4.725-1.107c1.847,0,3.415,0.369,4.707,1.107c1.293,0.738,2.345,1.729,3.157,2.972
			c0.812,1.243,1.402,2.695,1.771,4.356S269.35,368.404,269.35,370.25z M263,370.25c0-0.812-0.05-1.71-0.147-2.694
			c-0.099-0.984-0.283-1.901-0.554-2.751c-0.271-0.849-0.659-1.562-1.163-2.142c-0.505-0.577-1.163-0.867-1.976-0.867
			c-0.812,0-1.477,0.29-1.993,0.867c-0.517,0.579-0.917,1.293-1.2,2.142c-0.283,0.85-0.474,1.767-0.572,2.751
			s-0.147,1.883-0.147,2.694c0,0.837,0.049,1.754,0.147,2.751s0.289,1.92,0.572,2.769c0.283,0.85,0.684,1.563,1.2,2.142
			s1.182,0.867,1.993,0.867c0.812,0,1.471-0.289,1.976-0.867c0.504-0.578,0.892-1.292,1.163-2.142
			c0.271-0.849,0.455-1.771,0.554-2.769C262.95,372.004,263,371.087,263,370.25z"/>
		<path fill="#CD9629" d="M272.008,376.12v-4.799h9.377v4.799H272.008z"/>
		<path fill="#CD9629" d="M292.791,383.394v-19.198l-4.873,3.766l-3.212-4.393l8.6-6.313h5.651v26.139H292.791z"/>
		<path fill="#CD9629" d="M316.271,383.394v-19.198l-4.873,3.766l-3.212-4.393l8.6-6.313h5.651v26.139H316.271z"/>
	</g>
</g>
<g id="FEATURED_EVENT">
	<g>
		<path fill="#6E8A8E" d="M58.451,21.652l-0.595,3.332h5.032l-0.306,1.768H57.55l-0.901,5.1h-2.091l2.125-12.036h7.446l-0.323,1.836
			H58.451z"/>
		<path fill="#6E8A8E" d="M63.84,31.853l2.125-12.036h7.582l-0.323,1.836h-5.542l-0.544,3.111h5.287l-0.323,1.768h-5.27
			l-0.612,3.451h6.018l-0.323,1.87H63.84z"/>
		<path fill="#6E8A8E" d="M81.537,31.853l-0.493-2.771h-5.151l-1.717,2.771h-2.482l7.854-12.036h1.819l2.397,12.036H81.537z
			 M79.956,22.23l-3.043,5.049h3.842L79.956,22.23z"/>
		<path fill="#6E8A8E" d="M89.799,21.652l-1.802,10.2h-2.091l1.785-10.2h-3.57l0.323-1.836h9.214l-0.323,1.836H89.799z"/>
		<path fill="#6E8A8E" d="M102.387,29.379c-0.278,0.584-0.632,1.08-1.062,1.488c-0.431,0.408-0.946,0.725-1.547,0.952
			c-0.601,0.227-1.287,0.34-2.057,0.34c-0.691,0-1.315-0.088-1.87-0.264s-1.026-0.428-1.411-0.756s-0.68-0.723-0.884-1.182
			s-0.306-0.978-0.306-1.556c0-0.158,0.006-0.317,0.017-0.476s0.034-0.323,0.068-0.493l1.343-7.616h2.091l-1.326,7.531
			c-0.023,0.125-0.04,0.255-0.051,0.391c-0.011,0.136-0.017,0.266-0.017,0.391c0,0.295,0.042,0.573,0.127,0.833
			c0.085,0.261,0.224,0.493,0.417,0.697s0.439,0.365,0.74,0.484s0.666,0.179,1.097,0.179c0.555,0,1.02-0.088,1.394-0.264
			c0.374-0.176,0.68-0.405,0.918-0.688c0.238-0.283,0.419-0.604,0.544-0.96c0.125-0.357,0.221-0.711,0.289-1.062l1.326-7.531h2.108
			l-1.343,7.616C102.866,28.146,102.665,28.795,102.387,29.379z"/>
		<path fill="#6E8A8E" d="M113.802,31.853h-2.363l-2.278-5.134h-1.598l-0.884,5.134h-2.057l2.125-12.036h3.57
			c1.326,0,2.349,0.275,3.068,0.825s1.08,1.312,1.08,2.287c0,0.963-0.286,1.742-0.858,2.337c-0.572,0.595-1.34,1-2.303,1.215
			L113.802,31.853z M109.434,25.001c0.918,0,1.626-0.147,2.125-0.442c0.499-0.294,0.748-0.765,0.748-1.411
			c0-0.589-0.21-0.997-0.629-1.224c-0.419-0.227-0.98-0.34-1.683-0.34h-1.513l-0.612,3.417H109.434z"/>
		<path fill="#6E8A8E" d="M115.061,31.853l2.125-12.036h7.582l-0.323,1.836h-5.542l-0.544,3.111h5.287l-0.323,1.768h-5.27
			l-0.612,3.451h6.018l-0.323,1.87H115.061z"/>
		<path fill="#6E8A8E" d="M126.943,19.816h4.114c0.68,0,1.354,0.094,2.023,0.281c0.668,0.187,1.269,0.482,1.802,0.884
			c0.533,0.402,0.963,0.924,1.292,1.564c0.329,0.641,0.493,1.409,0.493,2.304c0,1.054-0.185,2.012-0.553,2.873
			s-0.881,1.598-1.539,2.21c-0.657,0.612-1.434,1.085-2.329,1.419c-0.896,0.334-1.87,0.501-2.924,0.501h-4.505L126.943,19.816z
			 M127.215,30.017h2.193c0.839,0,1.575-0.136,2.21-0.407s1.165-0.636,1.59-1.094c0.425-0.458,0.745-0.978,0.96-1.561
			c0.215-0.583,0.323-1.191,0.323-1.824c0-0.475-0.079-0.927-0.238-1.357s-0.399-0.803-0.723-1.12
			c-0.323-0.316-0.731-0.568-1.224-0.755c-0.493-0.187-1.079-0.28-1.759-0.28h-1.853L127.215,30.017z"/>
		<path fill="#6E8A8E" d="M141.597,31.853l2.125-12.036h7.582l-0.323,1.836h-5.542l-0.544,3.111h5.287l-0.323,1.768h-5.27
			l-0.612,3.451h6.018l-0.323,1.87H141.597z"/>
		<path fill="#6E8A8E" d="M155.979,31.853h-1.938l-1.955-12.036h2.21l1.207,9.316h0.068l5.355-9.316h2.363L155.979,31.853z"/>
		<path fill="#6E8A8E" d="M162.082,31.853l2.125-12.036h7.582l-0.323,1.836h-5.542l-0.544,3.111h5.287l-0.323,1.768h-5.27
			l-0.612,3.451h6.018l-0.323,1.87H162.082z"/>
		<path fill="#6E8A8E" d="M179.558,31.853l-3.944-9.35h-0.034l-1.649,9.35h-2.091l2.125-12.036h2.72l3.876,9.061h0.034l1.598-9.061
			h2.091l-2.125,12.036H179.558z"/>
		<path fill="#6E8A8E" d="M191.101,21.652l-1.802,10.2h-2.091l1.785-10.2h-3.57l0.323-1.836h9.214l-0.323,1.836H191.101z"/>
	</g>
</g>
</svg>
