<?xml version="1.0" encoding="utf-8"?>
<!-- Generator: Adobe Illustrator 16.0.0, SVG Export Plug-In . SVG Version: 6.00 Build 0)  -->
<!DOCTYPE svg PUBLIC "-//W3C//DTD SVG 1.1//EN" "http://www.w3.org/Graphics/SVG/1.1/DTD/svg11.dtd">
<svg version="1.1" xmlns="http://www.w3.org/2000/svg" xmlns:xlink="http://www.w3.org/1999/xlink" x="0px" y="0px"
	 width="945.789px" height="615.062px" viewBox="0 0 945.789 615.062" enable-background="new 0 0 945.789 615.062"
	 xml:space="preserve">
<g id="YOUR__FIRST_MONTH">
	<g>
		<path fill="#EB5565" d="M122.974,195.747H93.056v-32.62l-25.305-66.5h32.854l7.41,36.54h0.419l7.83-36.54h32.295l-25.584,66.5
			V195.747z"/>
		<path fill="#EB5565" d="M146.042,145.907c0-7.932,0.955-15.12,2.866-21.56c1.909-6.44,4.66-11.922,8.249-16.45
			c3.587-4.526,7.945-8.002,13.072-10.43c5.125-2.426,10.856-3.64,17.196-3.64c6.337,0,12.069,1.214,17.196,3.64
			c5.125,2.428,9.483,5.904,13.072,10.43c3.587,4.528,6.337,10.01,8.249,16.45c1.909,6.44,2.866,13.628,2.866,21.56
			c0,7.934-0.957,15.144-2.866,21.63c-1.911,6.488-4.662,12.018-8.249,16.59c-3.589,4.574-7.947,8.12-13.072,10.64
			c-5.127,2.52-10.859,3.78-17.196,3.78c-6.339,0-12.071-1.26-17.196-3.78c-5.127-2.52-9.485-6.066-13.072-10.64
			c-3.589-4.572-6.339-10.102-8.249-16.59C146.997,161.051,146.042,153.841,146.042,145.907z M176.8,145.907
			c0,6.44,0.86,11.784,2.586,16.03c1.724,4.248,4.404,6.37,8.039,6.37c3.635,0,6.313-2.122,8.039-6.37
			c1.724-4.246,2.586-9.59,2.586-16.03s-0.863-11.736-2.586-15.89c-1.726-4.152-4.404-6.23-8.039-6.23
			c-3.635,0-6.315,2.078-8.039,6.23C177.66,134.171,176.8,139.467,176.8,145.907z"/>
		<path fill="#EB5565" d="M272.287,198.547c-6.525,0-12.071-1.05-16.637-3.15c-4.567-2.1-8.318-5.016-11.254-8.75
			c-2.936-3.732-5.081-8.12-6.431-13.16c-1.353-5.04-2.027-10.5-2.027-16.38v-60.48h30.618v57.82c0,4.76,0.395,8.378,1.188,10.85
			c0.791,2.474,2.493,3.71,5.103,3.71c2.608,0,4.334-1.236,5.173-3.71c0.839-2.472,1.258-6.09,1.258-10.85v-57.82h30.198v60.48
			c0,5.88-0.723,11.34-2.167,16.38c-1.446,5.04-3.683,9.428-6.711,13.16c-3.03,3.734-6.875,6.65-11.534,8.75
			C284.402,197.497,278.81,198.547,272.287,198.547z"/>
		<path fill="#EB5565" d="M352.124,160.187h-2.525v35.56h-29.08v-99.12h36.843c5.695,0,10.667,0.748,14.917,2.24
			c4.249,1.494,7.727,3.64,10.436,6.44c2.708,2.8,4.74,6.184,6.095,10.15c1.354,3.968,2.031,8.424,2.031,13.37
			c0,3.36-0.375,6.394-1.123,9.1c-0.747,2.708-1.682,5.11-2.805,7.21c-1.123,2.1-2.385,3.85-3.788,5.25s-2.807,2.428-4.209,3.08
			l15.839,42.28h-32.112L352.124,160.187z M349.599,121.967v17.36h2.517c0.839,0,1.77-0.116,2.796-0.35
			c1.024-0.232,1.958-0.676,2.796-1.33c0.839-0.652,1.538-1.54,2.097-2.66c0.559-1.12,0.838-2.566,0.838-4.34
			c0-1.866-0.257-3.36-0.769-4.48c-0.514-1.12-1.167-2.006-1.958-2.66c-0.793-0.652-1.632-1.072-2.517-1.26
			c-0.887-0.186-1.702-0.28-2.446-0.28H349.599z"/>
		<path fill="#EB5565" d="M107.875,274.567h21.53v26.04h-21.39v35.14H77.817v-99.12h53.545v27.3h-23.487V274.567z"/>
		<path fill="#EB5565" d="M142.686,236.627h30.757v99.12h-30.757V236.627z"/>
		<path fill="#EB5565" d="M220.985,300.188h-2.525v35.56h-29.08v-99.12h36.843c5.695,0,10.667,0.748,14.917,2.24
			c4.249,1.494,7.727,3.64,10.436,6.44c2.708,2.8,4.74,6.184,6.095,10.15c1.354,3.968,2.031,8.424,2.031,13.37
			c0,3.36-0.375,6.394-1.123,9.1c-0.747,2.708-1.682,5.11-2.805,7.21c-1.123,2.1-2.385,3.85-3.788,5.25s-2.807,2.428-4.209,3.08
			l15.839,42.279h-32.112L220.985,300.188z M218.459,261.968v17.36h2.517c0.839,0,1.77-0.116,2.796-0.35
			c1.024-0.232,1.958-0.676,2.796-1.33c0.839-0.652,1.538-1.54,2.097-2.66c0.559-1.12,0.838-2.566,0.838-4.34
			c0-1.866-0.257-3.36-0.769-4.48c-0.514-1.12-1.167-2.006-1.958-2.66c-0.793-0.652-1.632-1.072-2.517-1.26
			c-0.887-0.186-1.702-0.28-2.446-0.28H218.459z"/>
		<path fill="#EB5565" d="M294.931,338.267c-3.355,0-6.549-0.303-9.577-0.908c-3.03-0.609-5.826-1.426-8.388-2.451
			c-2.564-1.025-4.917-2.191-7.06-3.5c-2.146-1.306-3.963-2.612-5.453-3.92l14.54-23.1c2.143,1.774,4.496,3.22,7.06,4.34
			c2.562,1.12,5.103,1.68,7.62,1.68c1.583,0,2.912-0.396,3.984-1.19c1.07-0.792,1.607-1.936,1.607-3.43
			c0-1.772-0.769-3.266-2.307-4.48c-1.538-1.212-3.938-2.612-7.2-4.2c-2.796-1.306-5.452-2.776-7.969-4.41
			c-2.517-1.632-4.753-3.616-6.71-5.95c-1.958-2.332-3.52-5.062-4.684-8.19c-1.167-3.126-1.748-6.79-1.748-10.99
			c0-6.066,1.07-11.222,3.215-15.47c2.143-4.246,4.869-7.7,8.179-10.36c3.307-2.66,6.99-4.596,11.045-5.81
			c4.054-1.212,8.039-1.82,11.953-1.82c5.964,0,11.3,0.934,16.008,2.8c4.706,1.868,8.644,4.294,11.813,7.28l-14.959,22.82
			c-1.586-1.586-3.449-2.916-5.592-3.99c-2.145-1.072-4.194-1.61-6.151-1.61c-1.492,0-2.844,0.374-4.055,1.12
			c-1.212,0.749-1.817,2.054-1.817,3.92c0,1.494,0.629,2.708,1.888,3.64c1.258,0.934,3.705,2.288,7.339,4.06
			c2.049,1.028,4.334,2.31,6.851,3.85s4.894,3.5,7.13,5.88s4.124,5.25,5.662,8.61c1.538,3.36,2.307,7.328,2.307,11.9
			c0,5.974-0.979,11.108-2.936,15.4c-1.957,4.294-4.567,7.794-7.829,10.5c-3.264,2.708-6.968,4.713-11.114,6.02
			C303.436,337.614,299.217,338.267,294.931,338.267z"/>
		<path fill="#EB5565" d="M379.654,335.747h-29.918v-73.359H332.26v-25.76h64.87v25.76h-17.476V335.747z"/>
		<path fill="#EB5565" d="M147.86,419.188h-0.56l-12.303,56.559h-19.293l-11.324-56.559h-0.559l1.258,56.559H77.817v-99.119h36.209
			l11.604,51.799h0.559l11.464-51.799h38.447v99.119h-29.639L147.86,419.188z"/>
		<path fill="#EB5565" d="M185.327,425.907c0-7.932,0.955-15.119,2.866-21.561c1.909-6.439,4.66-11.922,8.249-16.449
			c3.587-4.525,7.945-8.002,13.072-10.43c5.125-2.426,10.856-3.641,17.196-3.641c6.337,0,12.069,1.215,17.196,3.641
			c5.125,2.428,9.483,5.904,13.072,10.43c3.587,4.527,6.337,10.01,8.249,16.449c1.909,6.441,2.866,13.629,2.866,21.561
			c0,7.934-0.957,15.145-2.866,21.631c-1.911,6.488-4.662,12.018-8.249,16.59c-3.589,4.574-7.947,8.119-13.072,10.639
			c-5.127,2.521-10.859,3.781-17.196,3.781c-6.339,0-12.071-1.26-17.196-3.781c-5.127-2.52-9.485-6.064-13.072-10.639
			c-3.589-4.572-6.339-10.102-8.249-16.59C186.281,441.052,185.327,433.841,185.327,425.907z M216.084,425.907
			c0,6.439,0.86,11.785,2.586,16.031c1.724,4.248,4.404,6.369,8.039,6.369c3.635,0,6.313-2.121,8.039-6.369
			c1.724-4.246,2.586-9.592,2.586-16.031s-0.863-11.736-2.586-15.891c-1.726-4.15-4.404-6.229-8.039-6.229
			c-3.635,0-6.315,2.078-8.039,6.229C216.944,414.171,216.084,419.468,216.084,425.907z"/>
		<path fill="#EB5565" d="M303.602,428.987h-0.419l1.118,46.76h-26.982v-99.119h32.295l15.519,48.299h0.559l-0.838-48.299h26.004
			v99.119H319.4L303.602,428.987z"/>
		<path fill="#EB5565" d="M404.121,475.747h-29.918v-73.359h-17.476v-25.76h64.87v25.76h-17.476V475.747z"/>
		<path fill="#EB5565" d="M471.087,437.808h-13.421v37.939h-30.198v-99.119h30.198v33.879h13.421v-33.879h30.198v99.119h-30.198
			V437.808z"/>
	</g>
</g>
<g id="Featured">
	<g>
		<path fill="#FFFFFF" d="M79.553,50.71h-1.944V31.594h11.529v1.728h-9.585v6.615h8.91v1.728h-8.91V50.71z"/>
		<path fill="#FFFFFF" d="M94.457,48.982h10.233v1.728H92.513V31.594h11.853v1.728h-9.909v6.561h9.261v1.728h-9.261V48.982z"/>
		<path fill="#FFFFFF" d="M108.092,50.71h-2.133l8.262-19.116h1.89l8.208,19.116h-2.16l-2.106-5.022h-9.882L108.092,50.71z
			 M110.899,43.906h8.424l-4.212-10.152L110.899,43.906z"/>
		<path fill="#FFFFFF" d="M131.366,50.71h-1.944V33.322h-6.399v-1.728h14.742v1.728h-6.399V50.71z"/>
		<path fill="#FFFFFF" d="M147.403,51.196c-1.44,0-2.619-0.248-3.537-0.742c-0.918-0.495-1.647-1.121-2.187-1.876
			c-0.54-0.756-0.914-1.58-1.12-2.471c-0.208-0.891-0.311-1.732-0.311-2.524V31.594h1.944v11.772c0,0.774,0.09,1.526,0.27,2.255
			c0.18,0.729,0.473,1.377,0.877,1.944s0.94,1.026,1.606,1.377s1.485,0.526,2.457,0.526s1.791-0.175,2.457-0.526
			c0.666-0.351,1.202-0.81,1.606-1.377c0.405-0.567,0.697-1.215,0.877-1.944c0.18-0.729,0.27-1.48,0.27-2.255V31.594h1.944v11.988
			c0,0.792-0.104,1.633-0.31,2.524c-0.208,0.891-0.581,1.714-1.121,2.471c-0.54,0.756-1.274,1.381-2.201,1.876
			C150,50.948,148.825,51.196,147.403,51.196z"/>
		<path fill="#FFFFFF" d="M161.2,50.71h-1.944V31.594h5.616c0.936,0,1.804,0.09,2.605,0.27c0.801,0.18,1.494,0.473,2.079,0.878
			c0.584,0.405,1.04,0.931,1.363,1.579c0.324,0.648,0.486,1.44,0.486,2.376c0,0.702-0.126,1.341-0.378,1.917
			c-0.252,0.577-0.594,1.076-1.026,1.499c-0.432,0.423-0.945,0.761-1.539,1.013c-0.594,0.252-1.242,0.414-1.944,0.486l5.589,9.099
			h-2.376l-5.292-8.937h-3.24V50.71z M161.2,40.099h3.375c1.566,0,2.771-0.284,3.618-0.851s1.269-1.417,1.269-2.552
			c0-0.63-0.117-1.161-0.351-1.593c-0.234-0.432-0.559-0.783-0.972-1.053c-0.415-0.27-0.918-0.468-1.512-0.594
			c-0.594-0.126-1.251-0.189-1.971-0.189H161.2V40.099z"/>
		<path fill="#FFFFFF" d="M177.103,48.982h10.233v1.728h-12.177V31.594h11.853v1.728h-9.909v6.561h9.261v1.728h-9.261V48.982z"/>
		<path fill="#FFFFFF" d="M190.873,31.594h6.345c1.188,0,2.38,0.199,3.578,0.594c1.197,0.396,2.277,0.995,3.24,1.795
			c0.962,0.801,1.741,1.8,2.335,2.997c0.594,1.197,0.891,2.588,0.891,4.171c0,1.603-0.297,2.997-0.891,4.185
			c-0.594,1.188-1.373,2.183-2.335,2.983c-0.963,0.801-2.043,1.4-3.24,1.795c-1.197,0.396-2.39,0.594-3.578,0.594h-6.345V31.594z
			 M192.817,48.982h3.861c1.44,0,2.696-0.225,3.767-0.675c1.071-0.45,1.958-1.04,2.66-1.769s1.229-1.562,1.58-2.498
			c0.351-0.936,0.526-1.899,0.526-2.889c0-0.99-0.175-1.953-0.526-2.889s-0.877-1.769-1.58-2.498s-1.589-1.318-2.66-1.769
			c-1.071-0.45-2.327-0.675-3.767-0.675h-3.861V48.982z"/>
	</g>
</g>
</svg>
