<?xml version="1.0" encoding="utf-8"?>
<!-- Generator: Adobe Illustrator 16.0.0, SVG Export Plug-In . SVG Version: 6.00 Build 0)  -->
<!DOCTYPE svg PUBLIC "-//W3C//DTD SVG 1.1//EN" "http://www.w3.org/Graphics/SVG/1.1/DTD/svg11.dtd">
<svg version="1.1" xmlns="http://www.w3.org/2000/svg" xmlns:xlink="http://www.w3.org/1999/xlink" x="0px" y="0px"
	 width="385.25px" height="391.48px" viewBox="0 0 385.25 391.48" enable-background="new 0 0 385.25 391.48" xml:space="preserve">
<g id="Layer_3_xA0_Image_1_" display="none">
	
		<image display="inline" overflow="visible" width="588" height="842" id="Layer_3_xA0_Image" xlink:href="DAAEF0AA3ABB2D82.png"  transform="matrix(1 0 0 1 -101.2329 -106.6064)">
	</image>
</g>
<g id="Group_1_1_">
	<g id="freshman">
		<g>
			<path fill="#D7A528" d="M46.588,74.829h-0.601c-2.982,0-5.584,0.742-7.806,2.226c0.48-2.566,1.186-4.195,2.117-4.887
				c0.931-0.692,2.887-1.038,5.87-1.038h1.141l0.991-4.962c1.341-6.736,3.482-11.587,6.425-14.555
				c3.643-3.688,7.676-5.533,12.1-5.533c1.721,0,3.202,0.401,4.444,1.203c1.241,0.802,1.861,1.774,1.861,2.917
				c0,1.163-1.291,2.496-3.873,4c-0.721-3.067-2.362-4.601-4.924-4.601c-4.544,0-7.796,4.952-9.758,14.855l-1.321,6.676h10.479
				c4.784,0,8.296-0.26,10.538-0.782c-0.96,2.125-2.056,3.403-3.288,3.834c-1.231,0.431-4.398,0.646-9.502,0.646h-8.977
				l-5.104,25.801c-0.5,2.486-0.75,4.661-0.75,6.526c0,1.183,0.26,2.255,0.781,3.217c-2.002,0.662-3.543,0.993-4.624,0.993
				c-1.662,0-2.492-0.932-2.492-2.797c0-1.463,0.33-3.869,0.991-7.217L46.588,74.829z"/>
			<path fill="#D7A528" d="M71.073,98.556c-1.368,0.641-2.464,0.962-3.288,0.962c-2.052,0-3.077-0.902-3.077-2.707
				c0-0.922,0.36-3.218,1.081-6.886l1.501-7.488c0.92-4.45,1.381-7.748,1.381-9.893c0-1.163-0.331-2.135-0.991-2.917
				c2.102-0.722,3.813-1.083,5.134-1.083c1.401,0,2.102,0.892,2.102,2.676c0,1.103-0.497,4-1.489,8.69l-1.698,8.751
				c3.779-7.357,7.583-13.076,11.413-17.156c3.83-4.08,7.304-6.12,10.424-6.12c1.1,0,2.049,0.316,2.849,0.947s1.2,1.398,1.2,2.3
				c0,1.404-1.521,3.268-4.563,5.593c-0.76-1.583-1.84-2.375-3.239-2.375c-2.539,0-5.776,2.707-9.714,8.119
				c-2.439,3.368-4.558,6.841-6.356,10.42c-1.799,3.579-2.699,6.13-2.699,7.653L71.073,98.556z"/>
			<path fill="#D7A528" d="M102.463,86.246c0,5.861,2.482,8.791,7.446,8.791c4.304,0,9.047-2.05,14.231-6.15
				s9.858-9.501,14.021-16.203l2.552,1.41c-3.923,7.333-9.022,13.403-15.297,18.211c-6.275,4.809-12.225,7.212-17.849,7.212
				c-3.603,0-6.45-1.163-8.542-3.488c-2.092-2.326-3.138-5.503-3.138-9.533c0-5.814,1.896-10.786,5.689-14.916
				s8.362-6.195,13.706-6.195c2.582,0,4.648,0.651,6.2,1.954c1.551,1.303,2.327,3.046,2.327,5.229c0,3.587-2.157,6.764-6.47,9.529
				C113.027,84.864,108.068,86.246,102.463,86.246z M102.704,83.359c4.183-0.22,7.771-1.42,10.764-3.599
				c2.992-2.179,4.488-4.699,4.488-7.558c0-2.559-1.141-3.839-3.422-3.839c-2.723,0-5.234,1.46-7.536,4.379
				S103.264,79.201,102.704,83.359z"/>
			<path fill="#D7A528" d="M149.616,88.181c0.68,1.523,1.021,2.977,1.021,4.36c0,3.067-1.281,5.739-3.843,8.014
				c-2.562,2.275-5.564,3.413-9.007,3.413c-2.022,0-3.743-0.521-5.164-1.563c-1.421-1.042-2.132-2.296-2.132-3.759
				c0-1.564,0.976-3.147,2.927-4.751c1.952-1.604,5.219-3.508,9.803-5.713l-2.402-3.879c-2.922-4.711-4.383-8.39-4.383-11.036
				c0-3.809,2.211-6.876,6.635-9.202c2.722,1.042,4.083,2.356,4.083,3.939c0,2.246-1.731,4.401-5.194,6.465l3.422,6.315l2.672,4.872
				c3.823-2.285,6.705-4.245,8.647-5.879c1.941-1.634,4.393-4.154,7.355-7.563l2.402,1.474
				C162.156,79.46,156.542,84.292,149.616,88.181z M144.512,90.887c-5.885,3.168-8.827,5.624-8.827,7.368
				c0,1.644,1.19,2.466,3.573,2.466c1.761,0,3.192-0.597,4.293-1.789c1.101-1.193,1.651-2.731,1.651-4.616
				C145.203,93.193,144.973,92.05,144.512,90.887z"/>
			<path fill="#D7A528" d="M164.644,85.565c5.964-13.452,12.05-20.178,18.255-20.178c2.481,0,4.273,1.038,5.374,3.112
				c1.101,2.075,1.651,5.438,1.651,10.089l0.03,3.609c0,6.255,0.92,9.433,2.762,9.533c1.481,0.06,3.817-1.724,7.01-5.353
				c3.191-3.628,6.439-8.189,9.742-13.683l2.492,1.383c-3.242,6.436-6.9,11.878-10.973,16.329
				c-4.074,4.451-7.432,6.676-10.073,6.676c-2.462,0-4.233-1.152-5.314-3.458c-1.081-2.305-1.622-6.075-1.622-11.307v-2.676
				c0-6.054-1.041-9.082-3.123-9.082c-2.942,0-6.695,4.06-11.259,12.179c-4.604,8.18-6.905,13.032-6.905,14.555
				c0,0.501,0.19,0.993,0.57,1.474c-0.901,0.501-2.072,0.752-3.513,0.752c-1.782,0-2.672-0.792-2.672-2.376
				c0-1.102,0.63-4.44,1.892-10.014c0.04-0.181,0.3-1.474,0.781-3.879l6.155-31.034c-1.341,0.501-2.692,0.752-4.053,0.752
				c-3.883,0-5.825-2.295-5.825-6.887c1.921,1.444,4.153,2.166,6.695,2.166c3.583,0,7.025-0.722,10.328-2.166l-4.924,24.869
				c-0.06,0.281-0.981,4.01-2.762,11.187C165.224,82.738,164.984,83.881,164.644,85.565z"/>
			<path fill="#D7A528" d="M212.998,88.197c7.207-15.207,13.572-22.81,19.096-22.81c2.422,0,3.633,1.75,3.633,5.252
				c0,1.501-0.521,4.882-1.561,10.144l-1.803,9.094c3.504-7.372,7.156-13.296,10.959-17.773s7.086-6.716,9.848-6.716
				c3.043,0,4.564,1.783,4.564,5.347c0,1.282-0.451,4.215-1.352,8.801l-0.93,4.687c-0.561,2.824-0.842,4.917-0.842,6.278
				c0,2.404,0.852,3.605,2.553,3.605c3.842,0,9.746-7.137,17.713-21.412l2.523,1.409c-8.688,16.944-16.273,25.416-22.758,25.416
				c-4.145,0-6.215-2.707-6.215-8.12c0-1.804,0.398-4.701,1.199-8.69l0.842-4.15c0.561-2.807,0.84-4.551,0.84-5.232
				c0-0.862-0.439-1.293-1.32-1.293c-2.162,0-6.035,4.299-11.619,12.899c-5.064,7.838-7.596,12.319-7.596,13.441
				c0,0.12,0.039,0.331,0.119,0.631c-0.279,0.06-0.77,0.191-1.471,0.393c-0.301,0.101-0.75,0.151-1.352,0.151
				c-1.861,0-2.791-0.891-2.791-2.673c0-0.541,0.299-2.173,0.9-4.896c0.219-0.981,0.439-2.033,0.66-3.154l1.262-6.368
				c0.92-4.586,1.381-7.339,1.381-8.261c0-1.341-0.492-2.013-1.473-2.013c-2.16,0-5.344,3.875-9.547,11.623
				c-4.184,7.688-6.275,12.273-6.275,13.755c0,0.421,0.16,0.831,0.48,1.231c-1.102,0.484-2.111,0.726-3.031,0.726
				c-2.082,0-3.123-1.123-3.123-3.368c0-0.281,0.301-3.197,0.9-8.751l0.691-6.405c0.24-2.245,0.359-4.32,0.359-6.225
				c0-2.406-0.49-4.169-1.471-5.292c2.322-0.842,3.963-1.263,4.924-1.263c1.762,0,2.643,1.042,2.643,3.125
				c0,0.742-0.24,3.497-0.721,8.264L212.998,88.197z"/>
			<path fill="#D7A528" d="M294.228,80.393c-2.566,5.312-5.727,9.829-9.484,13.547c-3.758,3.719-7.029,5.579-9.814,5.579
				c-2.123,0-3.822-0.947-5.094-2.842c-1.273-1.895-1.908-4.416-1.908-7.563c0-6.275,1.896-11.798,5.695-16.569
				c3.797-4.771,8.189-7.157,13.18-7.157c3.023,0,6.301,0.942,9.826,2.827c0.521-1.864,2.643-2.796,6.365-2.796
				c0.24,0,0.631,0.01,1.172,0.03c-1.141,1.744-2.012,4.13-2.611,7.157l-0.512,2.556c-0.58,2.847-0.871,6.175-0.871,9.983
				c0,4.391,1.021,6.586,3.062,6.586c2.162,0,5.119-1.809,8.873-5.428c3.752-3.618,7.441-8.225,11.064-13.818l2.342,1.624
				c-3.705,6.616-7.938,12.134-12.701,16.554c-4.764,4.421-8.857,6.631-12.279,6.631c-4.324,0-6.486-3.608-6.486-10.826
				C294.046,84.963,294.107,82.938,294.228,80.393z M295.638,73.205c-4.209-2.746-7.707-4.12-10.492-4.12
				c-3.027,0-5.643,1.839-7.848,5.518c-2.205,3.679-3.307,8.044-3.307,13.096c0,4.05,1.322,6.075,3.969,6.075
				c2.865,0,8.348-6.295,16.445-18.885C294.505,74.729,294.917,74.167,295.638,73.205z"/>
			<path fill="#D7A528" d="M326.488,87.97c7.105-15.055,13.492-22.583,19.156-22.583c4.424,0,6.635,4.411,6.635,13.231l0.061,3.639
				c0,4.21,0.215,7.122,0.645,8.736c0.432,1.614,1.217,2.421,2.357,2.421c1.721,0,3.678-1.373,5.869-4.12
				c2.193-2.746,5.76-8.27,10.705-16.569l2.521,1.474c-4.404,8.32-8.348,14.495-11.83,18.524c-3.482,4.03-6.605,6.044-9.367,6.044
				c-2.543,0-4.328-1.233-5.359-3.699s-1.547-6.736-1.547-12.811l-0.029-2.586c0-3.288-0.211-5.598-0.631-6.932
				c-0.42-1.333-1.15-2-2.191-2c-2.643,0-6.895,5.283-12.76,15.848c-1.441,2.586-2.371,4.25-2.793,4.992
				c-1.541,2.687-2.311,4.631-2.311,5.834c0,0.481,0.129,0.942,0.389,1.383c-1.16,0.481-2.141,0.722-2.941,0.722
				c-2.021,0-3.033-1.123-3.033-3.368c0-0.642,0.26-3.528,0.781-8.661l0.66-6.525c0.301-2.767,0.451-4.912,0.451-6.436
				c0-2.125-0.48-3.799-1.441-5.022c0.42-0.14,1.121-0.38,2.102-0.722c1.24-0.44,2.232-0.662,2.973-0.662
				c1.561,0,2.342,1.143,2.342,3.428c0,1.203-0.15,3.268-0.451,6.195c-0.059,0.642-0.119,1.253-0.18,1.834L326.488,87.97z"/>
		</g>
	</g>
	<g id="MT">
		<g>
			<path fill="#CD9629" d="M204.792,328.435h-59.38l23.462-120.401h-0.869L120.21,328.435H81.396L77.34,208.034h-1.159
				L57.933,328.435H3.477l35.628-205.407h71.836l6.083,110.827h1.159l42.581-110.827h79.657L204.792,328.435z"/>
			<path fill="#CD9629" d="M376.27,174.669h-36.497l-26.649,153.765h-59.96l26.938-153.765h-36.497l8.979-51.642H385.25
				L376.27,174.669z"/>
		</g>
	</g>
	<g id="September_10-12">
		<g>
			<path fill="#CD9629" d="M14.804,359.091c-0.517-0.713-1.218-1.298-2.104-1.753c-0.886-0.455-1.883-0.684-2.99-0.684
				c-0.59,0-1.188,0.08-1.791,0.24s-1.151,0.419-1.643,0.775c-0.493,0.357-0.893,0.8-1.2,1.329
				c-0.308,0.529-0.462,1.163-0.462,1.901c0,0.714,0.142,1.311,0.425,1.79c0.283,0.48,0.665,0.887,1.145,1.219
				s1.046,0.615,1.698,0.85c0.652,0.233,1.347,0.474,2.086,0.72c0.886,0.271,1.784,0.578,2.695,0.923
				c0.91,0.345,1.735,0.8,2.474,1.366c0.738,0.566,1.341,1.273,1.809,2.122c0.467,0.85,0.702,1.927,0.702,3.23
				c0,1.354-0.253,2.529-0.757,3.526c-0.505,0.997-1.176,1.821-2.012,2.474c-0.837,0.652-1.803,1.139-2.898,1.458
				c-1.095,0.319-2.221,0.479-3.378,0.479c-1.649,0-3.243-0.319-4.781-0.959c-1.539-0.641-2.812-1.588-3.821-2.843l2.843-2.4
				c0.615,0.911,1.44,1.649,2.474,2.216s2.153,0.849,3.359,0.849c0.615,0,1.23-0.086,1.846-0.259
				c0.615-0.172,1.175-0.442,1.68-0.812c0.504-0.369,0.917-0.831,1.237-1.385c0.319-0.554,0.48-1.224,0.48-2.012
				s-0.167-1.446-0.499-1.976c-0.333-0.529-0.782-0.979-1.348-1.348c-0.566-0.369-1.225-0.683-1.975-0.941
				c-0.751-0.259-1.545-0.522-2.381-0.794c-0.837-0.245-1.661-0.547-2.473-0.904c-0.812-0.356-1.539-0.812-2.178-1.366
				c-0.64-0.554-1.157-1.236-1.551-2.049s-0.59-1.821-0.59-3.027c0-1.304,0.264-2.424,0.793-3.359s1.218-1.711,2.067-2.326
				s1.809-1.064,2.88-1.348c1.07-0.282,2.147-0.425,3.23-0.425c1.526,0,2.954,0.271,4.283,0.812
				c1.329,0.542,2.399,1.269,3.212,2.179L14.804,359.091z"/>
			<path fill="#CD9629" d="M26.1,377.145h13.66v3.249H22.445v-26.139h16.761v3.212H26.1v7.827h12.331v3.138H26.1V377.145z"/>
			<path fill="#CD9629" d="M44.264,354.255h7.974c1.403,0,2.683,0.142,3.84,0.425c1.156,0.283,2.141,0.72,2.953,1.311
				c0.812,0.591,1.44,1.342,1.883,2.252c0.443,0.911,0.665,2.006,0.665,3.286c0,1.305-0.24,2.424-0.72,3.359
				s-1.145,1.698-1.994,2.289s-1.858,1.027-3.027,1.311s-2.431,0.425-3.784,0.425h-4.135v11.481h-3.655V354.255z M47.918,365.811
				h3.876c0.886,0,1.704-0.08,2.455-0.24c0.75-0.159,1.396-0.406,1.938-0.738s0.96-0.769,1.255-1.311
				c0.295-0.541,0.443-1.206,0.443-1.993c0-0.788-0.154-1.446-0.461-1.976c-0.308-0.529-0.726-0.96-1.255-1.292
				c-0.53-0.332-1.163-0.566-1.901-0.702c-0.738-0.135-1.539-0.202-2.4-0.202h-3.95V365.811z"/>
			<path fill="#CD9629" d="M74.794,380.394H71.14v-22.927h-8.38v-3.212h20.416v3.212h-8.38V380.394z"/>
			<path fill="#CD9629" d="M89.93,377.145h13.66v3.249H86.275v-26.139h16.761v3.212H89.93v7.827h12.331v3.138H89.93V377.145z"/>
			<path fill="#CD9629" d="M121.606,374.339h0.074l7.716-20.084h5.685v26.139h-3.655v-21.856h-0.074l-8.676,21.856h-2.326
				l-8.639-21.856h-0.074v21.856h-3.544v-26.139h5.686L121.606,374.339z"/>
			<path fill="#CD9629" d="M141.061,354.255h9.008c0.984,0,1.969,0.11,2.954,0.332s1.864,0.591,2.64,1.107
				c0.775,0.518,1.403,1.194,1.883,2.031s0.72,1.883,0.72,3.138c0,1.452-0.418,2.671-1.255,3.655
				c-0.837,0.984-1.945,1.661-3.323,2.03v0.074c0.836,0.099,1.612,0.313,2.326,0.646c0.714,0.333,1.329,0.77,1.846,1.311
				c0.517,0.542,0.917,1.182,1.2,1.92c0.283,0.738,0.424,1.563,0.424,2.474c0,1.256-0.258,2.351-0.775,3.286
				c-0.517,0.936-1.218,1.704-2.104,2.308s-1.926,1.059-3.12,1.365c-1.194,0.309-2.468,0.462-3.821,0.462h-8.602V354.255z
				 M144.716,365.294h4.763c0.688,0,1.347-0.08,1.975-0.24c0.627-0.16,1.175-0.406,1.643-0.738c0.467-0.332,0.836-0.751,1.108-1.256
				c0.271-0.504,0.406-1.113,0.406-1.827c0-1.402-0.517-2.405-1.55-3.009c-1.034-0.603-2.425-0.904-4.172-0.904h-4.172V365.294z
				 M144.716,377.292h4.578c0.763,0,1.532-0.067,2.307-0.203c0.775-0.135,1.477-0.375,2.104-0.72
				c0.627-0.344,1.132-0.806,1.514-1.384c0.381-0.578,0.572-1.312,0.572-2.197c0-1.551-0.53-2.67-1.587-3.359
				c-1.059-0.688-2.584-1.034-4.578-1.034h-4.91V377.292z"/>
			<path fill="#CD9629" d="M168.048,377.145h13.66v3.249h-17.314v-26.139h16.761v3.212h-13.106v7.827h12.331v3.138h-12.331V377.145z
				"/>
			<path fill="#CD9629" d="M189.866,380.394h-3.655v-26.139h8.381c1.255,0,2.448,0.129,3.581,0.388
				c1.131,0.259,2.122,0.671,2.972,1.236c0.849,0.566,1.52,1.311,2.012,2.234c0.492,0.923,0.738,2.049,0.738,3.378
				c0,1.92-0.591,3.47-1.771,4.651c-1.182,1.182-2.708,1.933-4.578,2.252l7.31,11.999h-4.43l-6.646-11.63h-3.914V380.394z
				 M189.866,365.7h4.208c0.861,0,1.661-0.074,2.4-0.222c0.738-0.148,1.384-0.388,1.938-0.72c0.554-0.333,0.99-0.763,1.311-1.293
				c0.32-0.528,0.48-1.187,0.48-1.975s-0.16-1.446-0.48-1.976s-0.744-0.953-1.273-1.273c-0.529-0.319-1.15-0.548-1.864-0.684
				c-0.714-0.135-1.465-0.202-2.252-0.202h-4.467V365.7z"/>
			<path fill="#CD9629" d="M228.15,380.394h-3.544v-21.782l-4.947,4.135l-2.104-2.474l7.417-6.018h3.179V380.394z"/>
			<path fill="#CD9629" d="M246.793,353.59c1.55,0,2.885,0.357,4.005,1.071s2.043,1.692,2.77,2.935
				c0.726,1.243,1.261,2.702,1.605,4.375c0.345,1.674,0.517,3.458,0.517,5.354c0,1.92-0.172,3.71-0.517,5.372
				c-0.345,1.661-0.88,3.113-1.605,4.356c-0.727,1.243-1.649,2.221-2.77,2.935s-2.455,1.07-4.005,1.07
				c-1.551,0-2.893-0.356-4.024-1.07c-1.133-0.714-2.062-1.691-2.787-2.935c-0.727-1.243-1.262-2.695-1.606-4.356
				c-0.345-1.662-0.517-3.452-0.517-5.372c0-1.896,0.172-3.68,0.517-5.354c0.345-1.673,0.88-3.132,1.606-4.375
				c0.726-1.242,1.654-2.221,2.787-2.935C243.901,353.947,245.243,353.59,246.793,353.59z M246.793,356.581
				c-1.084,0-1.97,0.351-2.658,1.052c-0.689,0.701-1.225,1.588-1.606,2.658s-0.646,2.233-0.794,3.489
				c-0.147,1.255-0.221,2.437-0.221,3.544s0.073,2.289,0.221,3.544c0.148,1.256,0.412,2.413,0.794,3.471
				c0.382,1.059,0.917,1.938,1.606,2.64c0.688,0.701,1.574,1.052,2.658,1.052c1.058,0,1.925-0.351,2.603-1.052
				c0.677-0.701,1.212-1.581,1.605-2.64c0.394-1.058,0.665-2.215,0.812-3.471c0.147-1.255,0.222-2.437,0.222-3.544
				s-0.074-2.289-0.222-3.544c-0.147-1.256-0.419-2.419-0.812-3.489s-0.929-1.957-1.605-2.658
				C248.718,356.932,247.851,356.581,246.793,356.581z"/>
			<path fill="#CD9629" d="M267.578,372.862h-8.565v-2.917h8.565V372.862z"/>
			<path fill="#CD9629" d="M282.788,380.394h-3.544v-21.782l-4.947,4.135l-2.104-2.474l7.417-6.018h3.179V380.394z"/>
			<path fill="#CD9629" d="M309.7,380.394h-17.057v-3.434l10.411-10.337c0.787-0.812,1.464-1.662,2.03-2.548s0.85-1.883,0.85-2.99
				c0-0.688-0.124-1.311-0.369-1.864c-0.247-0.554-0.579-1.027-0.997-1.422c-0.419-0.394-0.911-0.695-1.477-0.904
				c-0.566-0.209-1.17-0.313-1.81-0.313c-1.329,0-2.424,0.424-3.285,1.273c-0.862,0.849-1.403,1.938-1.625,3.268l-3.507-0.591
				c0.147-0.984,0.462-1.901,0.941-2.751c0.479-0.849,1.089-1.587,1.827-2.215s1.594-1.113,2.566-1.458
				c0.972-0.345,2.012-0.518,3.119-0.518c1.083,0,2.123,0.161,3.12,0.48c0.996,0.32,1.876,0.788,2.64,1.403
				c0.762,0.615,1.371,1.391,1.827,2.325c0.455,0.936,0.683,2.007,0.683,3.212c0,0.837-0.11,1.612-0.332,2.326
				s-0.523,1.391-0.904,2.03c-0.382,0.641-0.831,1.25-1.348,1.828s-1.059,1.15-1.624,1.717l-8.491,8.27H309.7V380.394z"/>
		</g>
	</g>
	<g id="FEATURED_EVENT">
		<g>
			<path fill="#6E8A8E" d="M57.085,18.652l-0.595,3.332h5.032l-0.306,1.768h-5.032l-0.901,5.1h-2.091l2.125-12.036h7.446
				l-0.323,1.836H57.085z"/>
			<path fill="#6E8A8E" d="M62.474,28.853l2.125-12.036h7.582l-0.323,1.836h-5.542l-0.544,3.111h5.287l-0.323,1.768h-5.27
				l-0.612,3.451h6.018l-0.323,1.87H62.474z"/>
			<path fill="#6E8A8E" d="M80.171,28.853l-0.493-2.771h-5.151l-1.717,2.771h-2.482l7.854-12.036h1.819l2.397,12.036H80.171z
				 M78.59,19.23l-3.043,5.049h3.842L78.59,19.23z"/>
			<path fill="#6E8A8E" d="M88.433,18.652l-1.802,10.2H84.54l1.785-10.2h-3.57l0.323-1.836h9.214l-0.323,1.836H88.433z"/>
			<path fill="#6E8A8E" d="M101.021,26.379c-0.278,0.584-0.632,1.08-1.062,1.488c-0.431,0.408-0.946,0.725-1.547,0.952
				c-0.601,0.227-1.287,0.34-2.057,0.34c-0.691,0-1.315-0.088-1.87-0.264s-1.026-0.428-1.411-0.756s-0.68-0.723-0.884-1.182
				s-0.306-0.978-0.306-1.556c0-0.158,0.006-0.317,0.017-0.476s0.034-0.323,0.068-0.493l1.343-7.616h2.091l-1.326,7.531
				c-0.023,0.125-0.04,0.255-0.051,0.391c-0.011,0.136-0.017,0.266-0.017,0.391c0,0.295,0.042,0.573,0.127,0.833
				c0.085,0.261,0.224,0.493,0.417,0.697s0.439,0.365,0.74,0.484s0.666,0.179,1.097,0.179c0.555,0,1.02-0.088,1.394-0.264
				c0.374-0.176,0.68-0.405,0.918-0.688c0.238-0.283,0.419-0.604,0.544-0.96c0.125-0.357,0.221-0.711,0.289-1.062l1.326-7.531h2.108
				l-1.343,7.616C101.5,25.146,101.299,25.795,101.021,26.379z"/>
			<path fill="#6E8A8E" d="M112.437,28.853h-2.363l-2.278-5.134h-1.598l-0.884,5.134h-2.057l2.125-12.036h3.57
				c1.326,0,2.349,0.275,3.068,0.825s1.08,1.312,1.08,2.287c0,0.963-0.286,1.742-0.858,2.337c-0.572,0.595-1.34,1-2.303,1.215
				L112.437,28.853z M108.068,22.001c0.918,0,1.626-0.147,2.125-0.442c0.499-0.294,0.748-0.765,0.748-1.411
				c0-0.589-0.21-0.997-0.629-1.224c-0.419-0.227-0.98-0.34-1.683-0.34h-1.513l-0.612,3.417H108.068z"/>
			<path fill="#6E8A8E" d="M113.695,28.853l2.125-12.036h7.582l-0.323,1.836h-5.542l-0.544,3.111h5.287l-0.323,1.768h-5.27
				l-0.612,3.451h6.018l-0.323,1.87H113.695z"/>
			<path fill="#6E8A8E" d="M125.578,16.816h4.114c0.68,0,1.354,0.094,2.023,0.281c0.668,0.187,1.269,0.482,1.802,0.884
				c0.533,0.402,0.963,0.924,1.292,1.564c0.329,0.641,0.493,1.409,0.493,2.304c0,1.054-0.185,2.012-0.553,2.873
				s-0.881,1.598-1.539,2.21c-0.657,0.612-1.434,1.085-2.329,1.419c-0.896,0.334-1.87,0.501-2.924,0.501h-4.505L125.578,16.816z
				 M125.85,27.017h2.193c0.839,0,1.575-0.136,2.21-0.407s1.165-0.636,1.59-1.094c0.425-0.458,0.745-0.978,0.96-1.561
				c0.215-0.583,0.323-1.191,0.323-1.824c0-0.475-0.079-0.927-0.238-1.357s-0.399-0.803-0.723-1.12
				c-0.323-0.316-0.731-0.568-1.224-0.755c-0.493-0.187-1.079-0.28-1.759-0.28h-1.853L125.85,27.017z"/>
			<path fill="#6E8A8E" d="M140.231,28.853l2.125-12.036h7.582l-0.323,1.836h-5.542l-0.544,3.111h5.287l-0.323,1.768h-5.27
				l-0.612,3.451h6.018l-0.323,1.87H140.231z"/>
			<path fill="#6E8A8E" d="M154.613,28.853h-1.938l-1.955-12.036h2.21l1.207,9.316h0.068l5.355-9.316h2.363L154.613,28.853z"/>
			<path fill="#6E8A8E" d="M160.716,28.853l2.125-12.036h7.582l-0.323,1.836h-5.542l-0.544,3.111h5.287l-0.323,1.768h-5.27
				l-0.612,3.451h6.018l-0.323,1.87H160.716z"/>
			<path fill="#6E8A8E" d="M178.192,28.853l-3.944-9.35h-0.034l-1.649,9.35h-2.091l2.125-12.036h2.72l3.876,9.061h0.034l1.598-9.061
				h2.091l-2.125,12.036H178.192z"/>
			<path fill="#6E8A8E" d="M189.735,18.652l-1.802,10.2h-2.091l1.785-10.2h-3.57l0.323-1.836h9.214l-0.323,1.836H189.735z"/>
		</g>
	</g>
</g>
<g id="IT_x2019_s_time_for_MT_Register_now_freshmans_x2019__only_1_" display="none">
	
		<text id="IT_x2019_s_time_for_MT_Register_now_freshmans_x2019__only" transform="matrix(1 0 0 1 94.0444 485.1904)" display="inline"><tspan x="0" y="0" fill="#ABCACF" font-family="'AvenirNext-Bold'" font-size="24">IT’s time for MT</tspan><tspan x="10.463" y="24.7" fill="#ABCACF" font-family="'AvenirNext-Bold'" font-size="24">Register now</tspan><tspan x="-12.42" y="49.4" fill="#ABCACF" font-family="'AvenirNext-Bold'" font-size="24">freshmans’ only</tspan></text>
</g>
</svg>
