<?xml version="1.0" encoding="utf-8"?>
<!-- Generator: Adobe Illustrator 16.0.0, SVG Export Plug-In . SVG Version: 6.00 Build 0)  -->
<!DOCTYPE svg PUBLIC "-//W3C//DTD SVG 1.1//EN" "http://www.w3.org/Graphics/SVG/1.1/DTD/svg11.dtd">
<svg version="1.1" xmlns="http://www.w3.org/2000/svg" xmlns:xlink="http://www.w3.org/1999/xlink" x="0px" y="0px"
	 width="945.789px" height="615.062px" viewBox="0 0 945.789 615.062" enable-background="new 0 0 945.789 615.062"
	 xml:space="preserve">
<g id="YOUR__FIRST_MONTH">
	<g>
		<path fill="#EB5565" d="M122.974,195.747H93.056v-32.62l-25.305-66.5h32.854l7.41,36.54h0.419l7.83-36.54h32.295l-25.584,66.5
			V195.747z"/>
		<path fill="#EB5565" d="M146.042,145.907c0-7.932,0.955-15.12,2.866-21.56c1.909-6.44,4.66-11.922,8.249-16.45
			c3.587-4.526,7.945-8.002,13.072-10.43c5.125-2.426,10.856-3.64,17.196-3.64c6.337,0,12.069,1.214,17.196,3.64
			c5.125,2.428,9.483,5.904,13.072,10.43c3.587,4.528,6.337,10.01,8.249,16.45c1.909,6.44,2.866,13.628,2.866,21.56
			c0,7.934-0.957,15.144-2.866,21.63c-1.911,6.488-4.662,12.018-8.249,16.59c-3.589,4.574-7.947,8.12-13.072,10.64
			c-5.127,2.52-10.859,3.78-17.196,3.78c-6.339,0-12.071-1.26-17.196-3.78c-5.127-2.52-9.485-6.066-13.072-10.64
			c-3.589-4.572-6.339-10.102-8.249-16.59C146.997,161.051,146.042,153.841,146.042,145.907z M176.8,145.907
			c0,6.44,0.86,11.784,2.586,16.03c1.724,4.248,4.404,6.37,8.039,6.37c3.635,0,6.313-2.122,8.039-6.37
			c1.724-4.246,2.586-9.59,2.586-16.03s-0.863-11.736-2.586-15.89c-1.726-4.152-4.404-6.23-8.039-6.23
			c-3.635,0-6.315,2.078-8.039,6.23C177.66,134.171,176.8,139.467,176.8,145.907z"/>
		<path fill="#EB5565" d="M272.287,198.547c-6.525,0-12.071-1.05-16.637-3.15c-4.567-2.1-8.318-5.016-11.254-8.75
			c-2.936-3.732-5.081-8.12-6.431-13.16c-1.353-5.04-2.027-10.5-2.027-16.38v-60.48h30.618v57.82c0,4.76,0.395,8.378,1.188,10.85
			c0.791,2.474,2.493,3.71,5.103,3.71c2.608,0,4.334-1.236,5.173-3.71c0.839-2.472,1.258-6.09,1.258-10.85v-57.82h30.198v60.48
			c0,5.88-0.723,11.34-2.167,16.38c-1.446,5.04-3.683,9.428-6.711,13.16c-3.03,3.734-6.875,6.65-11.534,8.75
			C284.402,197.497,278.81,198.547,272.287,198.547z"/>
		<path fill="#EB5565" d="M352.124,160.187h-2.525v35.56h-29.08v-99.12h36.843c5.695,0,10.667,0.748,14.917,2.24
			c4.249,1.494,7.727,3.64,10.436,6.44c2.708,2.8,4.74,6.184,6.095,10.15c1.354,3.968,2.031,8.424,2.031,13.37
			c0,3.36-0.375,6.394-1.123,9.1c-0.747,2.708-1.682,5.11-2.805,7.21c-1.123,2.1-2.385,3.85-3.788,5.25s-2.807,2.428-4.209,3.08
			l15.839,42.28h-32.112L352.124,160.187z M349.599,121.967v17.36h2.517c0.839,0,1.77-0.116,2.796-0.35
			c1.024-0.232,1.958-0.676,2.796-1.33c0.839-0.652,1.538-1.54,2.097-2.66c0.559-1.12,0.838-2.566,0.838-4.34
			c0-1.866-0.257-3.36-0.769-4.48c-0.514-1.12-1.167-2.006-1.958-2.66c-0.793-0.652-1.632-1.072-2.517-1.26
			c-0.887-0.186-1.702-0.28-2.446-0.28H349.599z"/>
		<path fill="#EB5565" d="M107.875,274.567h21.53v26.04h-21.39v35.14H77.817v-99.12h53.545v27.3h-23.487V274.567z"/>
		<path fill="#EB5565" d="M142.686,236.627h30.757v99.12h-30.757V236.627z"/>
		<path fill="#EB5565" d="M220.985,300.188h-2.525v35.56h-29.08v-99.12h36.843c5.695,0,10.667,0.748,14.917,2.24
			c4.249,1.494,7.727,3.64,10.436,6.44c2.708,2.8,4.74,6.184,6.095,10.15c1.354,3.968,2.031,8.424,2.031,13.37
			c0,3.36-0.375,6.394-1.123,9.1c-0.747,2.708-1.682,5.11-2.805,7.21c-1.123,2.1-2.385,3.85-3.788,5.25s-2.807,2.428-4.209,3.08
			l15.839,42.279h-32.112L220.985,300.188z M218.459,261.968v17.36h2.517c0.839,0,1.77-0.116,2.796-0.35
			c1.024-0.232,1.958-0.676,2.796-1.33c0.839-0.652,1.538-1.54,2.097-2.66c0.559-1.12,0.838-2.566,0.838-4.34
			c0-1.866-0.257-3.36-0.769-4.48c-0.514-1.12-1.167-2.006-1.958-2.66c-0.793-0.652-1.632-1.072-2.517-1.26
			c-0.887-0.186-1.702-0.28-2.446-0.28H218.459z"/>
		<path fill="#EB5565" d="M294.931,338.267c-3.355,0-6.549-0.303-9.577-0.908c-3.03-0.609-5.826-1.426-8.388-2.451
			c-2.564-1.025-4.917-2.191-7.06-3.5c-2.146-1.306-3.963-2.612-5.453-3.92l14.54-23.1c2.143,1.774,4.496,3.22,7.06,4.34
			c2.562,1.12,5.103,1.68,7.62,1.68c1.583,0,2.912-0.396,3.984-1.19c1.07-0.792,1.607-1.936,1.607-3.43
			c0-1.772-0.769-3.266-2.307-4.48c-1.538-1.212-3.938-2.612-7.2-4.2c-2.796-1.306-5.452-2.776-7.969-4.41
			c-2.517-1.632-4.753-3.616-6.71-5.95c-1.958-2.332-3.52-5.062-4.684-8.19c-1.167-3.126-1.748-6.79-1.748-10.99
			c0-6.066,1.07-11.222,3.215-15.47c2.143-4.246,4.869-7.7,8.179-10.36c3.307-2.66,6.99-4.596,11.045-5.81
			c4.054-1.212,8.039-1.82,11.953-1.82c5.964,0,11.3,0.934,16.008,2.8c4.706,1.868,8.644,4.294,11.813,7.28l-14.959,22.82
			c-1.586-1.586-3.449-2.916-5.592-3.99c-2.145-1.072-4.194-1.61-6.151-1.61c-1.492,0-2.844,0.374-4.055,1.12
			c-1.212,0.749-1.817,2.054-1.817,3.92c0,1.494,0.629,2.708,1.888,3.64c1.258,0.934,3.705,2.288,7.339,4.06
			c2.049,1.028,4.334,2.31,6.851,3.85s4.894,3.5,7.13,5.88s4.124,5.25,5.662,8.61c1.538,3.36,2.307,7.328,2.307,11.9
			c0,5.974-0.979,11.108-2.936,15.4c-1.957,4.294-4.567,7.794-7.829,10.5c-3.264,2.708-6.968,4.713-11.114,6.02
			C303.436,337.614,299.217,338.267,294.931,338.267z"/>
		<path fill="#EB5565" d="M379.654,335.747h-29.918v-73.359H332.26v-25.76h64.87v25.76h-17.476V335.747z"/>
		<path fill="#EB5565" d="M147.86,419.188h-0.56l-12.303,56.559h-19.293l-11.324-56.559h-0.559l1.258,56.559H77.817v-99.119h36.209
			l11.604,51.799h0.559l11.464-51.799h38.447v99.119h-29.639L147.86,419.188z"/>
		<path fill="#EB5565" d="M185.327,425.907c0-7.932,0.955-15.119,2.866-21.561c1.909-6.439,4.66-11.922,8.249-16.449
			c3.587-4.525,7.945-8.002,13.072-10.43c5.125-2.426,10.856-3.641,17.196-3.641c6.337,0,12.069,1.215,17.196,3.641
			c5.125,2.428,9.483,5.904,13.072,10.43c3.587,4.527,6.337,10.01,8.249,16.449c1.909,6.441,2.866,13.629,2.866,21.561
			c0,7.934-0.957,15.145-2.866,21.631c-1.911,6.488-4.662,12.018-8.249,16.59c-3.589,4.574-7.947,8.119-13.072,10.639
			c-5.127,2.521-10.859,3.781-17.196,3.781c-6.339,0-12.071-1.26-17.196-3.781c-5.127-2.52-9.485-6.064-13.072-10.639
			c-3.589-4.572-6.339-10.102-8.249-16.59C186.281,441.052,185.327,433.841,185.327,425.907z M216.084,425.907
			c0,6.439,0.86,11.785,2.586,16.031c1.724,4.248,4.404,6.369,8.039,6.369c3.635,0,6.313-2.121,8.039-6.369
			c1.724-4.246,2.586-9.592,2.586-16.031s-0.863-11.736-2.586-15.891c-1.726-4.15-4.404-6.229-8.039-6.229
			c-3.635,0-6.315,2.078-8.039,6.229C216.944,414.171,216.084,419.468,216.084,425.907z"/>
		<path fill="#EB5565" d="M303.602,428.987h-0.419l1.118,46.76h-26.982v-99.119h32.295l15.519,48.299h0.559l-0.838-48.299h26.004
			v99.119H319.4L303.602,428.987z"/>
		<path fill="#EB5565" d="M404.121,475.747h-29.918v-73.359h-17.476v-25.76h64.87v25.76h-17.476V475.747z"/>
		<path fill="#EB5565" d="M471.087,437.808h-13.421v37.939h-30.198v-99.119h30.198v33.879h13.421v-33.879h30.198v99.119h-30.198
			V437.808z"/>
	</g>
</g>
<g id="Featured">
	<g>
		<path fill="#FFFFFF" d="M79.553,50.71h-1.944V31.594h11.529v1.728h-9.585v6.615h8.91v1.728h-8.91V50.71z"/>
		<path fill="#FFFFFF" d="M94.457,48.982h10.233v1.728H92.513V31.594h11.853v1.728h-9.909v6.561h9.261v1.728h-9.261V48.982z"/>
		<path fill="#FFFFFF" d="M108.092,50.71h-2.133l8.262-19.116h1.89l8.208,19.116h-2.16l-2.106-5.022h-9.882L108.092,50.71z
			 M110.899,43.906h8.424l-4.212-10.152L110.899,43.906z"/>
		<path fill="#FFFFFF" d="M131.366,50.71h-1.944V33.322h-6.399v-1.728h14.742v1.728h-6.399V50.71z"/>
		<path fill="#FFFFFF" d="M147.403,51.196c-1.44,0-2.619-0.248-3.537-0.742c-0.918-0.495-1.647-1.121-2.187-1.876
			c-0.54-0.756-0.914-1.58-1.12-2.471c-0.208-0.891-0.311-1.732-0.311-2.524V31.594h1.944v11.772c0,0.774,0.09,1.526,0.27,2.255
			c0.18,0.729,0.473,1.377,0.877,1.944s0.94,1.026,1.606,1.377s1.485,0.526,2.457,0.526s1.791-0.175,2.457-0.526
			c0.666-0.351,1.202-0.81,1.606-1.377c0.405-0.567,0.697-1.215,0.877-1.944c0.18-0.729,0.27-1.48,0.27-2.255V31.594h1.944v11.988
			c0,0.792-0.104,1.633-0.31,2.524c-0.208,0.891-0.581,1.714-1.121,2.471c-0.54,0.756-1.274,1.381-2.201,1.876
			C150,50.948,148.825,51.196,147.403,51.196z"/>
		<path fill="#FFFFFF" d="M161.2,50.71h-1.944V31.594h5.616c0.936,0,1.804,0.09,2.605,0.27c0.801,0.18,1.494,0.473,2.079,0.878
			c0.584,0.405,1.04,0.931,1.363,1.579c0.324,0.648,0.486,1.44,0.486,2.376c0,0.702-0.126,1.341-0.378,1.917
			c-0.252,0.577-0.594,1.076-1.026,1.499c-0.432,0.423-0.945,0.761-1.539,1.013c-0.594,0.252-1.242,0.414-1.944,0.486l5.589,9.099
			h-2.376l-5.292-8.937h-3.24V50.71z M161.2,40.099h3.375c1.566,0,2.771-0.284,3.618-0.851s1.269-1.417,1.269-2.552
			c0-0.63-0.117-1.161-0.351-1.593c-0.234-0.432-0.559-0.783-0.972-1.053c-0.415-0.27-0.918-0.468-1.512-0.594
			c-0.594-0.126-1.251-0.189-1.971-0.189H161.2V40.099z"/>
		<path fill="#FFFFFF" d="M177.103,48.982h10.233v1.728h-12.177V31.594h11.853v1.728h-9.909v6.561h9.261v1.728h-9.261V48.982z"/>
		<path fill="#FFFFFF" d="M190.873,31.594h6.345c1.188,0,2.38,0.199,3.578,0.594c1.197,0.396,2.277,0.995,3.24,1.795
			c0.962,0.801,1.741,1.8,2.335,2.997c0.594,1.197,0.891,2.588,0.891,4.171c0,1.603-0.297,2.997-0.891,4.185
			c-0.594,1.188-1.373,2.183-2.335,2.983c-0.963,0.801-2.043,1.4-3.24,1.795c-1.197,0.396-2.39,0.594-3.578,0.594h-6.345V31.594z
			 M192.817,48.982h3.861c1.44,0,2.696-0.225,3.767-0.675c1.071-0.45,1.958-1.04,2.66-1.769s1.229-1.562,1.58-2.498
			c0.351-0.936,0.526-1.899,0.526-2.889c0-0.99-0.175-1.953-0.526-2.889s-0.877-1.769-1.58-2.498s-1.589-1.318-2.66-1.769
			c-1.071-0.45-2.327-0.675-3.767-0.675h-3.861V48.982z"/>
	</g>
</g>
<g id="An_event_every_week_for_the_month_of_september_1_">
	<g>
		<path fill="#D5F8F5" d="M77.46,560.369h-2.52l12.24-21.24h2.1l6.24,21.24H93l-1.56-5.58H80.58L77.46,560.369z M81.66,552.81h9.21
			l-3-11.16L81.66,552.81z"/>
		<path fill="#D5F8F5" d="M113.91,557.129h0.06l2.55-18h2.16l-3,21.24h-2.16h-0.54l-10.084-18.18h-0.06l-2.576,18.18H98.1l3-21.24
			h2.16h0.57L113.91,557.129z"/>
		<path fill="#D5F8F5" d="M131.612,558.389h11.367l-0.27,1.98h-11.37h-2.16l3-21.24h2.16h11.01l-0.299,1.98h-10.984l-1.03,7.229
			h10.273l-0.27,1.98h-10.276L131.612,558.389z"/>
		<path fill="#D5F8F5" d="M153.299,557.129h0.06l9.51-18h2.34l-11.28,21.24h-2.16l-5.07-21.24h2.4L153.299,557.129z"/>
		<path fill="#D5F8F5" d="M167.132,558.389h11.367l-0.27,1.98h-11.37h-2.16l3-21.24h2.16h11.01l-0.299,1.98h-10.983l-1.031,7.229
			h10.273l-0.27,1.98h-10.276L167.132,558.389z"/>
		<path fill="#D5F8F5" d="M197.999,557.129h0.06l2.55-18h2.16l-3,21.24h-2.16h-0.54l-10.084-18.18h-0.06l-2.576,18.18h-2.16l3-21.24
			h2.16h0.57L197.999,557.129z"/>
		<path fill="#D5F8F5" d="M212.039,560.369h-2.16l2.7-19.26h-7.11l0.3-1.98h7.05h2.16h7.14l-0.3,1.98h-7.107L212.039,560.369z"/>
		<path fill="#D5F8F5" d="M232.621,558.389h11.367l-0.27,1.98h-11.37h-2.16l3-21.24h2.16h11.01l-0.299,1.98h-10.983l-1.03,7.229
			h10.273l-0.27,1.98h-10.276L232.621,558.389z"/>
		<path fill="#D5F8F5" d="M254.308,557.129h0.06l9.51-18h2.34l-11.28,21.24h-2.16l-5.07-21.24h2.4L254.308,557.129z"/>
		<path fill="#D5F8F5" d="M268.141,558.389h11.367l-0.27,1.98h-11.37h-2.16l3-21.24h2.16h11.01l-0.299,1.98h-10.984l-1.03,7.229
			h10.273l-0.27,1.98h-10.276L268.141,558.389z"/>
		<path fill="#D5F8F5" d="M285.357,560.369h-2.16l3-21.24h2.16h4.397c2.154,0,3.785,0.471,4.892,1.41
			c1.107,0.94,1.53,2.36,1.271,4.26c-0.221,1.48-0.866,2.726-1.935,3.735c-1.07,1.01-2.495,1.595-4.275,1.755l4.71,10.08h-2.64
			l-4.44-9.87h-3.586L285.357,560.369z M287.054,548.52h3.833c0.958,0,1.781-0.101,2.47-0.301c0.688-0.199,1.258-0.465,1.707-0.795
			c0.449-0.33,0.794-0.72,1.033-1.17c0.24-0.45,0.399-0.935,0.479-1.455c0.06-0.499,0.035-0.975-0.074-1.425
			c-0.11-0.45-0.344-0.845-0.703-1.185c-0.359-0.34-0.857-0.605-1.496-0.795c-0.638-0.19-1.435-0.285-2.392-0.285h-3.828
			L287.054,548.52z"/>
		<path fill="#D5F8F5" d="M307.107,560.369h-2.16l1.29-9.15l-6.24-12.09h2.7l4.92,10.021l7.74-10.021h2.7l-9.66,12.09
			L307.107,560.369z"/>
		<path fill="#D5F8F5" d="M330.297,557.31h0.06l7.92-18.181h2.58l2.76,18.181h0.06l7.62-18.181h2.4l-9.27,21.24h-2.52l-2.79-18.18
			h-0.06l-7.89,18.18h-2.52l-3.27-21.24h2.4L330.297,557.31z"/>
		<path fill="#D5F8F5" d="M355.709,558.389h11.367l-0.27,1.98h-11.37h-2.16l3-21.24h2.16h11.01l-0.299,1.98h-10.984l-1.03,7.229
			h10.273l-0.27,1.98h-10.276L355.709,558.389z"/>
		<path fill="#D5F8F5" d="M373.199,558.389h11.367l-0.27,1.98h-11.37h-2.16l3-21.24h2.16h11.01l-0.299,1.98h-10.984l-1.03,7.229
			h10.273l-0.271,1.98H374.35L373.199,558.389z"/>
		<path fill="#D5F8F5" d="M392.096,548.339h0.03h0.27l11.31-9.21h3.09l-12.09,9.63l9.69,11.61h-3.18l-8.91-10.95h-0.33h-0.03
			l-1.53,10.95h-2.16l3-21.24h2.16L392.096,548.339z"/>
		<path fill="#D5F8F5" d="M417.056,560.369h-2.16l3-21.24h2.16h10.65l-0.3,1.98h-10.65l-1.02,7.229h9.9l-0.27,1.98h-9.9
			L417.056,560.369z"/>
		<path fill="#D5F8F5" d="M453.476,549.749c-0.22,1.62-0.71,3.11-1.47,4.47c-0.76,1.36-1.705,2.535-2.835,3.525
			s-2.41,1.766-3.84,2.325c-1.43,0.56-2.936,0.84-4.515,0.84c-1.58,0-3.005-0.28-4.275-0.84c-1.271-0.56-2.33-1.335-3.18-2.325
			s-1.455-2.165-1.815-3.525c-0.36-1.359-0.43-2.85-0.21-4.47c0.22-1.62,0.705-3.109,1.455-4.47s1.69-2.535,2.82-3.525
			s2.41-1.765,3.84-2.325c1.43-0.56,2.935-0.84,4.515-0.84s3.005,0.28,4.275,0.84c1.27,0.561,2.33,1.335,3.18,2.325
			s1.46,2.165,1.83,3.525C453.62,546.64,453.695,548.129,453.476,549.749z M451.136,549.749c0.18-1.22,0.145-2.385-0.105-3.495
			c-0.25-1.109-0.69-2.085-1.32-2.925s-1.45-1.51-2.46-2.01c-1.01-0.5-2.195-0.75-3.555-0.75c-1.36,0-2.615,0.25-3.765,0.75
			c-1.15,0.5-2.16,1.17-3.03,2.01s-1.58,1.815-2.13,2.925c-0.55,1.11-0.915,2.275-1.095,3.495c-0.18,1.221-0.145,2.385,0.105,3.495
			s0.69,2.085,1.32,2.925s1.45,1.511,2.46,2.01c1.01,0.501,2.195,0.75,3.555,0.75c1.36,0,2.614-0.249,3.765-0.75
			c1.15-0.499,2.16-1.17,3.03-2.01c0.87-0.84,1.58-1.814,2.13-2.925C450.59,552.134,450.956,550.97,451.136,549.749z"/>
		<path fill="#D5F8F5" d="M458.155,560.369h-2.16l3-21.24h2.16h4.397c2.154,0,3.785,0.471,4.892,1.41
			c1.107,0.94,1.53,2.36,1.271,4.26c-0.22,1.48-0.865,2.726-1.935,3.735s-2.495,1.595-4.275,1.755l4.71,10.08h-2.64l-4.44-9.87
			h-3.586L458.155,560.369z M459.853,548.52h3.833c0.958,0,1.781-0.101,2.47-0.301c0.688-0.199,1.257-0.465,1.707-0.795
			s0.793-0.72,1.033-1.17s0.399-0.935,0.479-1.455c0.06-0.499,0.035-0.975-0.075-1.425c-0.109-0.45-0.344-0.845-0.703-1.185
			c-0.359-0.34-0.857-0.605-1.495-0.795c-0.638-0.19-1.436-0.285-2.392-0.285h-3.828L459.853,548.52z"/>
		<path fill="#D5F8F5" d="M488.335,560.369h-2.16l2.7-19.26h-7.11l0.3-1.98h7.05h2.16h7.14l-0.3,1.98h-7.107L488.335,560.369z"/>
		<path fill="#D5F8F5" d="M501.445,539.129h2.16l-1.32,9.21h11.58l1.32-9.21h2.16l-3,21.24h-2.16l1.41-10.05h-11.58l-1.41,10.05
			h-2.16L501.445,539.129z"/>
		<path fill="#D5F8F5" d="M522.237,558.389h11.367l-0.27,1.98h-11.37h-2.16l3-21.24h2.16h11.01l-0.299,1.98h-10.984l-1.03,7.229
			h10.273l-0.27,1.98h-10.276L522.237,558.389z"/>
		<path fill="#D5F8F5" d="M556.374,556.409l9.6-17.28h1.11h2.16l-2.97,21.24h-2.16l2.58-18.36h-0.06l-10.26,18.36h-1.14
			l-5.073-18.36H550.1l-2.606,18.36h-2.16l3-21.24h2.16h1.17L556.374,556.409z"/>
		<path fill="#D5F8F5" d="M593.934,549.749c-0.22,1.62-0.71,3.11-1.47,4.47c-0.76,1.36-1.705,2.535-2.835,3.525
			s-2.41,1.766-3.84,2.325c-1.43,0.56-2.936,0.84-4.515,0.84c-1.58,0-3.005-0.28-4.275-0.84c-1.271-0.56-2.33-1.335-3.18-2.325
			s-1.455-2.165-1.815-3.525c-0.36-1.359-0.43-2.85-0.21-4.47c0.22-1.62,0.705-3.109,1.455-4.47s1.69-2.535,2.82-3.525
			s2.41-1.765,3.84-2.325c1.43-0.56,2.935-0.84,4.515-0.84c1.58,0,3.005,0.28,4.275,0.84c1.27,0.561,2.33,1.335,3.18,2.325
			c0.85,0.99,1.46,2.165,1.83,3.525C594.079,546.64,594.154,548.129,593.934,549.749z M591.594,549.749
			c0.18-1.22,0.145-2.385-0.105-3.495c-0.25-1.109-0.69-2.085-1.32-2.925s-1.45-1.51-2.46-2.01c-1.01-0.5-2.195-0.75-3.555-0.75
			c-1.36,0-2.615,0.25-3.765,0.75c-1.15,0.5-2.16,1.17-3.03,2.01s-1.58,1.815-2.13,2.925c-0.55,1.11-0.915,2.275-1.095,3.495
			c-0.18,1.221-0.145,2.385,0.105,3.495s0.69,2.085,1.32,2.925c0.63,0.84,1.45,1.511,2.46,2.01c1.01,0.501,2.195,0.75,3.555,0.75
			s2.615-0.249,3.765-0.75c1.15-0.499,2.16-1.17,3.03-2.01c0.87-0.84,1.58-1.814,2.13-2.925
			C591.049,552.134,591.414,550.97,591.594,549.749z"/>
		<path fill="#D5F8F5" d="M612.264,557.129h0.06l2.55-18h2.16l-3,21.24h-2.16h-0.54l-10.084-18.18h-0.06l-2.576,18.18h-2.16l3-21.24
			h2.16h0.57L612.264,557.129z"/>
		<path fill="#D5F8F5" d="M626.304,560.369h-2.16l2.7-19.26h-7.11l0.3-1.98h7.05h2.16h7.14l-0.3,1.98h-7.107L626.304,560.369z"/>
		<path fill="#D5F8F5" d="M639.414,539.129h2.16l-1.32,9.21h11.58l1.32-9.21h2.16l-3,21.24h-2.16l1.41-10.05h-11.58l-1.41,10.05
			h-2.16L639.414,539.129z"/>
		<path fill="#D5F8F5" d="M688.013,549.749c-0.22,1.62-0.71,3.11-1.47,4.47c-0.76,1.36-1.705,2.535-2.835,3.525
			s-2.41,1.766-3.84,2.325c-1.43,0.56-2.935,0.84-4.515,0.84s-3.005-0.28-4.275-0.84s-2.33-1.335-3.18-2.325
			c-0.851-0.99-1.455-2.165-1.815-3.525c-0.36-1.359-0.43-2.85-0.21-4.47s0.705-3.109,1.455-4.47s1.69-2.535,2.82-3.525
			c1.129-0.99,2.41-1.765,3.84-2.325c1.43-0.56,2.935-0.84,4.515-0.84c1.58,0,3.004,0.28,4.275,0.84
			c1.27,0.561,2.33,1.335,3.18,2.325s1.46,2.165,1.83,3.525S688.233,548.129,688.013,549.749z M685.673,549.749
			c0.18-1.22,0.145-2.385-0.105-3.495c-0.25-1.109-0.69-2.085-1.32-2.925c-0.63-0.84-1.45-1.51-2.46-2.01s-2.195-0.75-3.555-0.75
			c-1.36,0-2.615,0.25-3.765,0.75c-1.15,0.5-2.16,1.17-3.03,2.01c-0.87,0.84-1.581,1.815-2.13,2.925
			c-0.55,1.11-0.915,2.275-1.095,3.495c-0.18,1.221-0.146,2.385,0.105,3.495c0.25,1.11,0.69,2.085,1.32,2.925s1.45,1.511,2.46,2.01
			c1.01,0.501,2.195,0.75,3.555,0.75c1.36,0,2.615-0.249,3.765-0.75c1.15-0.499,2.16-1.17,3.03-2.01s1.58-1.814,2.13-2.925
			C685.128,552.134,685.493,550.97,685.673,549.749z"/>
		<path fill="#D5F8F5" d="M692.693,560.369h-2.16l3-21.24h2.16h10.65l-0.3,1.98h-10.65l-1.02,7.229h9.9l-0.271,1.98h-9.9
			L692.693,560.369z"/>
		<path fill="#D5F8F5" d="M727.493,542.639c-0.723-1.38-1.997-2.069-3.823-2.069c-0.562,0-1.125,0.075-1.686,0.225
			c-0.562,0.15-1.079,0.38-1.55,0.69c-0.472,0.311-0.878,0.71-1.22,1.2c-0.341,0.49-0.551,1.064-0.632,1.725
			c-0.1,0.72-0.03,1.315,0.211,1.785s0.597,0.865,1.068,1.185c0.472,0.32,1.018,0.591,1.64,0.811s1.259,0.445,1.911,0.675
			c0.652,0.23,1.284,0.485,1.896,0.765c0.612,0.28,1.144,0.641,1.596,1.08c0.451,0.44,0.787,0.985,1.008,1.635
			c0.221,0.65,0.261,1.455,0.121,2.415c-0.14,0.96-0.47,1.825-0.99,2.596c-0.52,0.77-1.15,1.415-1.89,1.935
			c-0.74,0.521-1.545,0.92-2.415,1.2c-0.87,0.279-1.725,0.42-2.565,0.42c-1.3,0-2.5-0.245-3.6-0.735
			c-1.1-0.489-1.98-1.294-2.64-2.415l2.16-1.409c0.34,0.779,0.89,1.405,1.65,1.875c0.76,0.47,1.7,0.704,2.82,0.704
			c0.54,0,1.09-0.084,1.65-0.255c0.56-0.169,1.08-0.42,1.56-0.75c0.48-0.33,0.89-0.734,1.23-1.215c0.34-0.479,0.56-1.029,0.66-1.649
			c0.1-0.74,0.03-1.355-0.21-1.846c-0.24-0.489-0.595-0.899-1.065-1.229c-0.47-0.33-1.015-0.604-1.635-0.825
			c-0.621-0.22-1.255-0.439-1.905-0.66c-0.65-0.22-1.28-0.47-1.89-0.75c-0.61-0.279-1.14-0.635-1.59-1.064
			c-0.45-0.431-0.785-0.971-1.005-1.62c-0.22-0.65-0.26-1.465-0.12-2.445c0.14-1.02,0.46-1.91,0.96-2.67s1.105-1.39,1.815-1.89
			s1.495-0.87,2.355-1.11s1.72-0.36,2.58-0.36c1.2,0,2.265,0.19,3.195,0.57c0.93,0.38,1.745,1.05,2.445,2.01L727.493,542.639z"/>
		<path fill="#D5F8F5" d="M733.766,558.389h11.367l-0.27,1.98h-11.37h-2.16l3-21.24h2.16h11.01l-0.299,1.98H736.22l-1.03,7.229
			h10.273l-0.27,1.98h-10.276L733.766,558.389z"/>
		<path fill="#D5F8F5" d="M751.823,539.129h2.07h4.11c2.16,0,3.795,0.471,4.905,1.41c1.11,0.94,1.535,2.36,1.275,4.26
			c-0.28,1.92-1.105,3.351-2.475,4.29c-1.37,0.94-3.146,1.41-5.325,1.41h-4.02l-1.38,9.87h-2.16L751.823,539.129z M752.663,548.52
			h3.48c0.96,0,1.785-0.101,2.475-0.301c0.69-0.199,1.26-0.465,1.71-0.795c0.45-0.33,0.795-0.72,1.035-1.17
			c0.24-0.45,0.4-0.935,0.48-1.455c0.06-0.499,0.035-0.975-0.075-1.425c-0.11-0.45-0.345-0.845-0.705-1.185s-0.86-0.605-1.5-0.795
			c-0.641-0.19-1.44-0.285-2.4-0.285h-3.48L752.663,548.52z"/>
		<path fill="#D5F8F5" d="M772.553,560.369h-2.16l2.7-19.26h-7.11l0.3-1.98h7.05h2.16h7.14l-0.3,1.98h-7.107L772.553,560.369z"/>
		<path fill="#D5F8F5" d="M785.095,558.389h11.367l-0.27,1.98h-11.37h-2.16l3-21.24h2.16h11.01l-0.299,1.98h-10.984l-1.03,7.229
			h10.273l-0.27,1.98h-10.276L785.095,558.389z"/>
		<path fill="#D5F8F5" d="M811.192,556.409l9.6-17.28h1.11h2.16l-2.97,21.24h-2.16l2.58-18.36h-0.06l-10.26,18.36h-1.14
			l-5.073-18.36h-0.061l-2.606,18.36h-2.16l3-21.24h2.16h1.17L811.192,556.409z"/>
		<path fill="#D5F8F5" d="M829.552,539.129h2.16h4.176c0.875,0,1.704,0.09,2.49,0.271c0.786,0.18,1.467,0.479,2.043,0.899
			s1.004,0.971,1.283,1.65s0.348,1.521,0.208,2.52c-0.159,1.16-0.62,2.155-1.384,2.985s-1.75,1.385-2.961,1.665l-0.029,0.06
			c1.478,0.12,2.581,0.646,3.31,1.575c0.729,0.931,0.984,2.175,0.764,3.735c-0.04,0.22-0.12,0.521-0.24,0.899
			c-0.12,0.381-0.305,0.791-0.555,1.23c-0.25,0.44-0.585,0.88-1.005,1.32c-0.42,0.439-0.94,0.84-1.56,1.199
			c-0.62,0.36-1.36,0.656-2.22,0.886s-1.86,0.345-3,0.345h-4.32h-2.16L829.552,539.129z M828.985,558.389h4.139
			c0.779,0,1.519-0.079,2.219-0.239c0.7-0.16,1.325-0.405,1.875-0.735s1.004-0.745,1.365-1.245c0.36-0.499,0.59-1.1,0.69-1.8
			c0.2-1.399-0.1-2.439-0.898-3.12c-0.799-0.68-2.067-1.02-3.804-1.02h-4.403L828.985,558.389z M830.409,548.429h4.342
			c0.519,0,1.043-0.064,1.572-0.194c0.528-0.13,1.018-0.346,1.467-0.646c0.449-0.3,0.833-0.685,1.153-1.154s0.529-1.045,0.629-1.726
			c0.02-0.22,0.015-0.529-0.015-0.93c-0.03-0.4-0.17-0.8-0.419-1.2c-0.249-0.399-0.653-0.745-1.21-1.035
			c-0.559-0.289-1.346-0.435-2.362-0.435h-4.126L830.409,548.429z"/>
		<path fill="#D5F8F5" d="M847.584,558.389h11.367l-0.27,1.98h-11.37h-2.16l3-21.24h2.16h11.01l-0.299,1.98h-10.983l-1.031,7.229
			h10.273l-0.27,1.98h-10.276L847.584,558.389z"/>
		<path fill="#D5F8F5" d="M864.801,560.369h-2.16l3-21.24h2.16h4.397c2.154,0,3.785,0.471,4.892,1.41
			c1.107,0.94,1.53,2.36,1.271,4.26c-0.221,1.48-0.866,2.726-1.935,3.735c-1.07,1.01-2.495,1.595-4.275,1.755l4.71,10.08h-2.64
			l-4.44-9.87h-3.586L864.801,560.369z M866.498,548.52h3.833c0.958,0,1.781-0.101,2.47-0.301c0.688-0.199,1.258-0.465,1.707-0.795
			c0.449-0.33,0.794-0.72,1.033-1.17c0.24-0.45,0.399-0.935,0.479-1.455c0.06-0.499,0.035-0.975-0.074-1.425
			c-0.11-0.45-0.344-0.845-0.703-1.185c-0.359-0.34-0.857-0.605-1.496-0.795c-0.638-0.19-1.435-0.285-2.392-0.285h-3.828
			L866.498,548.52z"/>
	</g>
</g>
</svg>
