<?xml version="1.0" encoding="utf-8"?>
<!-- Generator: Adobe Illustrator 16.0.0, SVG Export Plug-In . SVG Version: 6.00 Build 0)  -->
<!DOCTYPE svg PUBLIC "-//W3C//DTD SVG 1.1//EN" "http://www.w3.org/Graphics/SVG/1.1/DTD/svg11.dtd">
<svg version="1.1" id="Layer_1" xmlns="http://www.w3.org/2000/svg" xmlns:xlink="http://www.w3.org/1999/xlink" x="0px" y="0px"
	 width="200px" height="66px" viewBox="0 0 200 66" enable-background="new 0 0 200 66" xml:space="preserve">
<path fill="#3F3F3F" d="M29.109,48.616h-5.81V27.814c0-0.405-0.078-0.785-0.233-1.138c-0.156-0.352-0.366-0.66-0.629-0.924
	c-0.264-0.264-0.572-0.469-0.924-0.619c-0.353-0.148-0.732-0.224-1.138-0.224c-0.407,0-0.786,0.075-1.138,0.224
	c-0.352,0.15-0.66,0.355-0.924,0.619c-0.264,0.265-0.471,0.573-0.62,0.924c-0.149,0.353-0.224,0.732-0.224,1.138v20.802h-5.83
	V27.814c0-0.405-0.074-0.785-0.223-1.138c-0.149-0.352-0.355-0.66-0.619-0.924c-0.264-0.264-0.573-0.469-0.925-0.619
	c-0.352-0.148-0.731-0.224-1.137-0.224s-0.786,0.075-1.138,0.224c-0.352,0.15-0.66,0.355-0.924,0.619
	c-0.264,0.265-0.471,0.573-0.62,0.924c-0.149,0.353-0.223,0.732-0.223,1.138v20.802H0V27.814c0-1.206,0.227-2.34,0.68-3.402
	c0.454-1.063,1.077-1.991,1.869-2.784c0.792-0.792,1.72-1.415,2.783-1.869c1.063-0.453,2.197-0.68,3.403-0.68
	c1.083,0,2.126,0.193,3.128,0.579c1.002,0.386,1.903,0.944,2.702,1.675c0.799-0.731,1.696-1.289,2.692-1.675
	c0.995-0.386,2.034-0.579,3.118-0.579c1.205,0,2.339,0.227,3.402,0.68c1.063,0.454,1.991,1.077,2.783,1.869
	c0.792,0.793,1.415,1.721,1.869,2.784c0.453,1.062,0.681,2.196,0.681,3.402V48.616z"/>
<polygon fill="#3F3F3F" points="54.277,48.616 34.309,48.616 34.309,19.486 54.277,19.486 54.277,25.316 40.139,25.316 
	40.139,31.146 49.707,31.146 49.707,36.976 40.139,36.976 40.139,42.785 54.277,42.785 "/>
<path fill="#3F3F3F" d="M80.908,45.628c-1.354,1.165-2.871,2.06-4.55,2.682c-1.679,0.623-3.42,0.935-5.221,0.935
	c-1.382,0-2.712-0.179-3.991-0.536c-1.28-0.36-2.478-0.869-3.596-1.525c-1.117-0.656-2.136-1.444-3.057-2.367
	c-0.921-0.919-1.71-1.939-2.367-3.056c-0.657-1.117-1.165-2.317-1.523-3.597c-0.359-1.279-0.539-2.61-0.539-3.991
	s0.18-2.715,0.539-4.001c0.358-1.287,0.866-2.488,1.523-3.605c0.657-1.118,1.445-2.136,2.367-3.057
	c0.92-0.921,1.94-1.709,3.057-2.366c1.118-0.657,2.316-1.165,3.596-1.524c1.279-0.358,2.609-0.538,3.991-0.538
	c1.801,0,3.542,0.308,5.221,0.924c1.679,0.617,3.195,1.514,4.55,2.692l-3.087,5.077c-0.853-0.92-1.862-1.627-3.027-2.122
	s-2.383-0.742-3.656-0.742c-1.287,0-2.492,0.244-3.616,0.731c-1.125,0.487-2.106,1.148-2.945,1.98
	c-0.84,0.833-1.503,1.815-1.99,2.945c-0.488,1.131-0.732,2.333-0.732,3.605c0,1.273,0.244,2.468,0.732,3.585
	c0.487,1.118,1.15,2.097,1.99,2.936c0.839,0.84,1.821,1.505,2.945,1.992c1.124,0.487,2.329,0.73,3.616,0.73
	c1.273,0,2.491-0.247,3.656-0.741s2.174-1.203,3.027-2.124L80.908,45.628z"/>
<path fill="#3F3F3F" d="M107.254,48.616h-5.829v-5.831H89.763v5.831h-5.808V31.146c0-1.612,0.305-3.124,0.914-4.541
	c0.609-1.415,1.439-2.651,2.488-3.707c1.05-1.056,2.283-1.89,3.698-2.499c1.416-0.609,2.928-0.914,4.54-0.914
	c1.612,0,3.125,0.305,4.542,0.914c1.414,0.609,2.65,1.443,3.706,2.499c1.058,1.056,1.89,2.292,2.498,3.707
	c0.61,1.417,0.915,2.928,0.915,4.541V48.616z M101.425,36.976v-5.83c0-0.799-0.152-1.554-0.458-2.264
	c-0.305-0.712-0.721-1.331-1.25-1.859s-1.148-0.945-1.858-1.249c-0.711-0.305-1.467-0.457-2.265-0.457
	c-0.798,0-1.554,0.152-2.265,0.457c-0.71,0.304-1.33,0.721-1.859,1.249c-0.528,0.528-0.944,1.147-1.249,1.859
	c-0.306,0.71-0.458,1.465-0.458,2.264v5.83H101.425z"/>
</svg>
