<?xml version="1.0" encoding="utf-8"?>
<!-- Generator: Adobe Illustrator 16.0.0, SVG Export Plug-In . SVG Version: 6.00 Build 0)  -->
<!DOCTYPE svg PUBLIC "-//W3C//DTD SVG 1.1//EN" "http://www.w3.org/Graphics/SVG/1.1/DTD/svg11.dtd">
<svg version="1.1" xmlns="http://www.w3.org/2000/svg" xmlns:xlink="http://www.w3.org/1999/xlink" x="0px" y="0px" width="219px"
	 height="31px" viewBox="0 0 219 31" enable-background="new 0 0 219 31" xml:space="preserve">
<g id="_x0D_Freshman_MT_x0D_" display="none">
	<g display="inline">
		<path fill="#C7FFCE" d="M-0.583,5.267h5.817V29h-5.817V5.267z"/>
		<path fill="#C7FFCE" d="M11.316,5.267h3.717l13.533,15.1v-15.1h3.65v24.1H29.7L15,12.7V29h-3.684V5.267z"/>
		<path fill="#C7FFCE" d="M55.083,5.267v2.017H43.866v7.833h9.883v2.033h-9.883V29h-5.817V5.267H55.083z"/>
		<path fill="#C7FFCE" d="M72.233,29.533c-1.278,0-2.5-0.142-3.667-0.425c-1.167-0.283-2.25-0.687-3.25-1.208
			c-1-0.522-1.912-1.156-2.733-1.9c-0.823-0.744-1.522-1.584-2.1-2.517c-0.578-0.934-1.025-1.947-1.342-3.042
			c-0.316-1.095-0.475-2.253-0.475-3.475c0-1.2,0.159-2.336,0.475-3.409c0.317-1.072,0.764-2.058,1.342-2.958
			c0.578-0.9,1.277-1.714,2.1-2.442c0.822-0.728,1.733-1.341,2.733-1.841s2.083-0.886,3.25-1.159
			c1.167-0.272,2.389-0.408,3.667-0.408c1.277,0,2.5,0.136,3.667,0.408c1.167,0.272,2.25,0.661,3.25,1.167
			c1,0.505,1.911,1.119,2.733,1.841c0.822,0.723,1.522,1.534,2.1,2.434c0.578,0.9,1.025,1.883,1.342,2.95
			c0.316,1.067,0.475,2.195,0.475,3.383c0,1.256-0.158,2.439-0.475,3.55c-0.317,1.111-0.764,2.134-1.342,3.066
			c-0.578,0.934-1.278,1.77-2.1,2.509c-0.822,0.738-1.733,1.366-2.733,1.883c-1,0.518-2.083,0.912-3.25,1.184
			C74.733,29.397,73.51,29.533,72.233,29.533z M72.233,27.517c1.155,0,2.175-0.264,3.058-0.792c0.883-0.527,1.625-1.261,2.225-2.199
			c0.6-0.939,1.053-2.053,1.358-3.342s0.458-2.694,0.458-4.217c0-1.5-0.153-2.875-0.458-4.125s-0.758-2.325-1.358-3.225
			s-1.342-1.6-2.225-2.1s-1.903-0.75-3.058-0.75c-1.167,0-2.195,0.25-3.083,0.75c-0.889,0.5-1.631,1.2-2.225,2.1
			s-1.044,1.975-1.35,3.225c-0.306,1.25-0.458,2.625-0.458,4.125c0,1.522,0.152,2.928,0.458,4.217
			c0.305,1.289,0.755,2.402,1.35,3.342c0.594,0.938,1.336,1.672,2.225,2.199C70.038,27.253,71.066,27.517,72.233,27.517z"/>
		<path fill="#C7FFCE" d="M108.116,29.366c-1.423,0-2.667-0.166-3.733-0.499c-1.067-0.334-1.975-0.795-2.725-1.384
			s-1.345-1.289-1.783-2.101c-0.439-0.811-0.742-1.699-0.909-2.666H103c0.144,0.589,0.35,1.142,0.617,1.658
			c0.267,0.517,0.605,0.964,1.017,1.342c0.411,0.378,0.9,0.675,1.466,0.892c0.567,0.217,1.222,0.325,1.967,0.325
			c0.5,0,0.992-0.053,1.475-0.158s0.917-0.275,1.3-0.509s0.692-0.542,0.925-0.925s0.35-0.853,0.35-1.408
			c0-0.711-0.181-1.339-0.542-1.884c-0.361-0.544-0.839-1.042-1.433-1.492c-0.595-0.45-1.272-0.869-2.034-1.258
			c-0.761-0.389-1.536-0.78-2.325-1.175c-0.789-0.394-1.564-0.806-2.325-1.233s-1.439-0.908-2.033-1.441
			c-0.595-0.534-1.072-1.133-1.433-1.8c-0.361-0.667-0.542-1.433-0.542-2.3c0-0.944,0.206-1.819,0.617-2.625
			s1.008-1.503,1.792-2.092c0.784-0.589,1.742-1.05,2.875-1.383c1.134-0.333,2.422-0.5,3.867-0.5c1.2,0,2.284,0.167,3.25,0.5
			c0.967,0.333,1.819,0.786,2.559,1.358c0.739,0.572,1.361,1.248,1.867,2.025c0.505,0.778,0.892,1.617,1.158,2.517h-3.667
			c-0.211-0.566-0.456-1.105-0.733-1.617c-0.278-0.511-0.623-0.961-1.033-1.35c-0.412-0.389-0.906-0.697-1.483-0.925
			c-0.578-0.228-1.272-0.342-2.083-0.342c-0.756,0-1.395,0.1-1.917,0.3c-0.522,0.2-0.945,0.453-1.267,0.758
			c-0.323,0.306-0.553,0.647-0.692,1.025c-0.139,0.378-0.208,0.75-0.208,1.117c0,0.633,0.186,1.208,0.559,1.725
			c0.372,0.517,0.867,0.995,1.483,1.433c0.617,0.439,1.313,0.861,2.091,1.267c0.778,0.406,1.575,0.814,2.392,1.225
			c0.816,0.411,1.617,0.839,2.4,1.283c0.783,0.445,1.483,0.937,2.1,1.475c0.617,0.539,1.111,1.136,1.483,1.792
			c0.373,0.655,0.559,1.394,0.559,2.216c0,0.967-0.2,1.864-0.6,2.691c-0.4,0.828-0.992,1.551-1.775,2.167s-1.756,1.101-2.917,1.45
			C110.963,29.191,109.627,29.366,108.116,29.366z"/>
		<path fill="#C7FFCE" d="M139.982,5.267v2.017h-11.9v7.833h9.882v2.033h-9.882v9.417h11.9V29h-17.717V5.267H139.982z"/>
		<path fill="#C7FFCE" d="M152.966,29.366c-1.422,0-2.666-0.166-3.733-0.499c-1.066-0.334-1.975-0.795-2.725-1.384
			s-1.345-1.289-1.783-2.101c-0.439-0.811-0.742-1.699-0.908-2.666h4.033c0.145,0.589,0.35,1.142,0.616,1.658
			s0.605,0.964,1.017,1.342s0.9,0.675,1.467,0.892s1.223,0.325,1.967,0.325c0.5,0,0.992-0.053,1.475-0.158
			c0.483-0.105,0.917-0.275,1.301-0.509c0.383-0.233,0.691-0.542,0.925-0.925s0.35-0.853,0.35-1.408
			c0-0.711-0.181-1.339-0.541-1.884c-0.361-0.544-0.84-1.042-1.434-1.492c-0.595-0.45-1.272-0.869-2.033-1.258
			c-0.762-0.389-1.536-0.78-2.325-1.175c-0.789-0.394-1.564-0.806-2.325-1.233s-1.438-0.908-2.033-1.441
			c-0.595-0.534-1.072-1.133-1.434-1.8c-0.361-0.667-0.541-1.433-0.541-2.3c0-0.944,0.205-1.819,0.616-2.625
			s1.009-1.503,1.792-2.092s1.741-1.05,2.875-1.383c1.133-0.333,2.422-0.5,3.866-0.5c1.2,0,2.283,0.167,3.25,0.5
			s1.819,0.786,2.559,1.358c0.738,0.572,1.361,1.248,1.866,2.025c0.506,0.778,0.892,1.617,1.159,2.517h-3.667
			c-0.211-0.566-0.456-1.105-0.733-1.617c-0.278-0.511-0.622-0.961-1.033-1.35c-0.411-0.389-0.906-0.697-1.483-0.925
			c-0.578-0.228-1.272-0.342-2.083-0.342c-0.756,0-1.395,0.1-1.917,0.3c-0.522,0.2-0.944,0.453-1.267,0.758S149.547,8.623,149.408,9
			c-0.14,0.378-0.209,0.75-0.209,1.117c0,0.633,0.187,1.208,0.559,1.725s0.866,0.995,1.483,1.433
			c0.616,0.439,1.313,0.861,2.092,1.267c0.777,0.406,1.575,0.814,2.392,1.225c0.816,0.411,1.616,0.839,2.399,1.283
			c0.784,0.445,1.483,0.937,2.101,1.475c0.616,0.539,1.11,1.136,1.483,1.792c0.372,0.655,0.558,1.394,0.558,2.216
			c0,0.967-0.199,1.864-0.6,2.691c-0.4,0.828-0.991,1.551-1.775,2.167c-0.783,0.616-1.755,1.101-2.916,1.45
			S154.477,29.366,152.966,29.366z"/>
		<path fill="#C7FFCE" d="M175.266,29.366c-1.422,0-2.666-0.166-3.733-0.499c-1.066-0.334-1.975-0.795-2.725-1.384
			s-1.345-1.289-1.783-2.101c-0.439-0.811-0.742-1.699-0.908-2.666h4.033c0.145,0.589,0.35,1.142,0.616,1.658
			s0.605,0.964,1.017,1.342s0.9,0.675,1.467,0.892s1.223,0.325,1.967,0.325c0.5,0,0.992-0.053,1.475-0.158
			c0.483-0.105,0.917-0.275,1.301-0.509c0.383-0.233,0.691-0.542,0.925-0.925s0.35-0.853,0.35-1.408
			c0-0.711-0.181-1.339-0.541-1.884c-0.361-0.544-0.84-1.042-1.434-1.492c-0.595-0.45-1.272-0.869-2.033-1.258
			c-0.762-0.389-1.536-0.78-2.325-1.175c-0.789-0.394-1.564-0.806-2.325-1.233s-1.438-0.908-2.033-1.441
			c-0.595-0.534-1.072-1.133-1.434-1.8c-0.361-0.667-0.541-1.433-0.541-2.3c0-0.944,0.205-1.819,0.616-2.625
			s1.009-1.503,1.792-2.092s1.741-1.05,2.875-1.383c1.133-0.333,2.422-0.5,3.866-0.5c1.2,0,2.283,0.167,3.25,0.5
			s1.819,0.786,2.559,1.358c0.738,0.572,1.361,1.248,1.866,2.025c0.506,0.778,0.892,1.617,1.159,2.517h-3.667
			c-0.211-0.566-0.456-1.105-0.733-1.617c-0.278-0.511-0.622-0.961-1.033-1.35c-0.411-0.389-0.906-0.697-1.483-0.925
			c-0.578-0.228-1.272-0.342-2.083-0.342c-0.756,0-1.395,0.1-1.917,0.3c-0.522,0.2-0.944,0.453-1.267,0.758S171.847,8.623,171.708,9
			c-0.14,0.378-0.209,0.75-0.209,1.117c0,0.633,0.187,1.208,0.559,1.725s0.866,0.995,1.483,1.433
			c0.616,0.439,1.313,0.861,2.092,1.267c0.777,0.406,1.575,0.814,2.392,1.225c0.816,0.411,1.616,0.839,2.399,1.283
			c0.784,0.445,1.483,0.937,2.101,1.475c0.616,0.539,1.11,1.136,1.483,1.792c0.372,0.655,0.558,1.394,0.558,2.216
			c0,0.967-0.199,1.864-0.6,2.691c-0.4,0.828-0.991,1.551-1.775,2.167c-0.783,0.616-1.755,1.101-2.916,1.45
			S176.776,29.366,175.266,29.366z"/>
		<path fill="#C7FFCE" d="M189.666,5.267h5.816V29h-5.816V5.267z"/>
		<path fill="#C7FFCE" d="M213.882,29.533c-1.278,0-2.5-0.142-3.667-0.425c-1.166-0.283-2.25-0.687-3.25-1.208
			c-1-0.522-1.911-1.156-2.733-1.9s-1.522-1.584-2.1-2.517c-0.578-0.934-1.025-1.947-1.342-3.042
			c-0.316-1.095-0.475-2.253-0.475-3.475c0-1.2,0.158-2.336,0.475-3.409c0.316-1.072,0.764-2.058,1.342-2.958
			c0.577-0.9,1.277-1.714,2.1-2.442c0.822-0.728,1.733-1.341,2.733-1.841s2.084-0.886,3.25-1.159
			c1.167-0.272,2.389-0.408,3.667-0.408c1.277,0,2.5,0.136,3.667,0.408c1.166,0.272,2.25,0.661,3.25,1.167
			c1,0.505,1.91,1.119,2.733,1.841c0.821,0.723,1.521,1.534,2.1,2.434c0.577,0.9,1.025,1.883,1.342,2.95
			c0.316,1.067,0.475,2.195,0.475,3.383c0,1.256-0.158,2.439-0.475,3.55c-0.316,1.111-0.765,2.134-1.342,3.066
			c-0.578,0.934-1.278,1.77-2.1,2.509c-0.823,0.738-1.733,1.366-2.733,1.883c-1,0.518-2.084,0.912-3.25,1.184
			C216.382,29.397,215.159,29.533,213.882,29.533z M213.882,27.517c1.155,0,2.175-0.264,3.059-0.792
			c0.883-0.527,1.625-1.261,2.225-2.199c0.6-0.939,1.053-2.053,1.358-3.342s0.458-2.694,0.458-4.217c0-1.5-0.152-2.875-0.458-4.125
			s-0.759-2.325-1.358-3.225s-1.342-1.6-2.225-2.1c-0.884-0.5-1.903-0.75-3.059-0.75c-1.167,0-2.194,0.25-3.083,0.75
			c-0.89,0.5-1.631,1.2-2.226,2.1s-1.044,1.975-1.35,3.225s-0.459,2.625-0.459,4.125c0,1.522,0.153,2.928,0.459,4.217
			s0.755,2.402,1.35,3.342c0.595,0.938,1.336,1.672,2.226,2.199C211.688,27.253,212.715,27.517,213.882,27.517z"/>
		<path fill="#C7FFCE" d="M232.032,5.267h3.717l13.533,15.1v-15.1h3.649v24.1h-2.517l-14.7-16.666V29h-3.683V5.267z"/>
	</g>
</g>
<g id="Layer_2">
	<text transform="matrix(1 0 0 1 1.75 24.75)" fill="#00DEFF" font-family="'BritannicBold'" font-size="28">ACTIVITIES NIGHT</text>
</g>
</svg>
