<?xml version="1.0" encoding="utf-8"?>
<!-- Generator: Adobe Illustrator 16.0.0, SVG Export Plug-In . SVG Version: 6.00 Build 0)  -->
<!DOCTYPE svg PUBLIC "-//W3C//DTD SVG 1.1//EN" "http://www.w3.org/Graphics/SVG/1.1/DTD/svg11.dtd">
<svg version="1.1" id="_x0D_Freshman_MT_x0D_" xmlns="http://www.w3.org/2000/svg" xmlns:xlink="http://www.w3.org/1999/xlink"
	 x="0px" y="0px" width="300px" height="41px" viewBox="0 0 300 41" enable-background="new 0 0 300 41" xml:space="preserve">
<g>
	<path fill="#FFCB06" d="M9.293,22.408L6.531,36.241c-0.254,1.268-0.38,2.089-0.38,2.462c0,0.374,0.086,0.773,0.26,1.201
		c-1.348,0.682-2.583,1.021-3.704,1.021c-0.694,0-1.041-0.28-1.041-0.841c0-0.294,0.133-1.121,0.4-2.482l3.023-15.193h-0.3
		c-1.201,0-2.496,0.287-3.884,0.859c0.654-1.414,1.231-2.325,1.731-2.731c0.5-0.407,1.298-0.611,2.393-0.611H5.57L7.972,7.954h-0.44
		c-2.91,0-5.225,0.794-6.947,2.382c0.521-2.108,1.421-3.517,2.703-4.224c0.907-0.494,3.724-0.741,8.448-0.741h5.265
		c3.924,0,7.187-0.347,9.79-1.041c-0.828,1.455-1.692,2.426-2.593,2.913c-0.901,0.487-2.286,0.73-4.154,0.73l-1.762-0.02h-6.126
		L9.774,19.925h4.324c2.683,0,4.898-0.34,6.646-1.021c-0.641,1.508-1.378,2.47-2.212,2.883c-0.834,0.414-2.472,0.621-4.915,0.621
		H9.293z"/>
	<path fill="#FFCB06" d="M29.964,34.859c-0.912,0.428-1.643,0.641-2.192,0.641c-1.368,0-2.052-0.6-2.052-1.801
		c0-0.614,0.24-2.143,0.721-4.585l1.001-4.985c0.614-2.963,0.921-5.158,0.921-6.586c0-0.774-0.22-1.421-0.661-1.942
		c1.401-0.48,2.542-0.721,3.423-0.721c0.934,0,1.401,0.594,1.401,1.782c0,0.734-0.331,2.663-0.993,5.785l-1.132,5.826
		c2.52-4.897,5.057-8.706,7.61-11.421c2.554-2.716,4.87-4.074,6.95-4.074c0.733,0,1.367,0.21,1.9,0.631
		c0.534,0.42,0.8,0.931,0.8,1.531c0,0.935-1.014,2.176-3.043,3.724c-0.507-1.054-1.227-1.582-2.159-1.582
		c-1.693,0-3.852,1.802-6.478,5.406c-1.626,2.242-3.039,4.554-4.238,6.937c-1.2,2.382-1.799,4.081-1.799,5.095L29.964,34.859z"/>
	<path fill="#FFCB06" d="M50.895,26.665c0,3.901,1.655,5.853,4.965,5.853c2.87,0,6.033-1.365,9.489-4.095s6.573-6.325,9.349-10.786
		l1.702,0.938c-2.616,4.882-6.016,8.923-10.2,12.124C62.016,33.9,58.048,35.5,54.298,35.5c-2.402,0-4.301-0.773-5.695-2.322
		c-1.395-1.548-2.092-3.662-2.092-6.346c0-3.87,1.265-7.18,3.794-9.93c2.529-2.749,5.575-4.124,9.139-4.124
		c1.722,0,3.1,0.434,4.134,1.301c1.034,0.867,1.551,2.027,1.551,3.481c0,2.388-1.438,4.502-4.314,6.344
		C57.938,25.745,54.631,26.665,50.895,26.665z M51.055,24.743c2.79-0.146,5.182-0.945,7.177-2.396
		c1.995-1.452,2.993-3.129,2.993-5.033c0-1.704-0.761-2.556-2.282-2.556c-1.815,0-3.49,0.972-5.025,2.915
		C52.383,19.617,51.428,21.975,51.055,24.743z"/>
	<path fill="#FFCB06" d="M82.336,27.953c0.454,1.015,0.681,1.982,0.681,2.902c0,2.043-0.854,3.82-2.562,5.336
		c-1.708,1.515-3.71,2.271-6.006,2.271c-1.348,0-2.496-0.347-3.443-1.041c-0.948-0.692-1.421-1.528-1.421-2.502
		c0-1.041,0.65-2.095,1.952-3.163c1.301-1.066,3.48-2.335,6.537-3.804l-1.602-2.582c-1.949-3.138-2.923-5.586-2.923-7.348
		c0-2.536,1.475-4.578,4.424-6.126c1.815,0.694,2.723,1.568,2.723,2.623c0,1.495-1.155,2.93-3.463,4.304l2.282,4.204l1.782,3.242
		c2.549-1.521,4.471-2.826,5.766-3.914c1.294-1.086,2.929-2.766,4.905-5.035l1.602,0.981C90.697,22.146,86.954,25.364,82.336,27.953
		z M78.933,29.755c-3.924,2.109-5.886,3.743-5.886,4.905c0,1.094,0.794,1.641,2.382,1.641c1.174,0,2.128-0.396,2.863-1.189
		c0.734-0.795,1.101-1.818,1.101-3.073C79.393,31.29,79.239,30.529,78.933,29.755z"/>
	<path fill="#FFCB06" d="M92.356,26.211c3.977-8.955,8.035-13.433,12.172-13.433c1.655,0,2.85,0.69,3.583,2.072
		c0.734,1.381,1.101,3.62,1.101,6.716l0.02,2.401c0,4.164,0.614,6.28,1.842,6.347c0.988,0.041,2.545-1.146,4.675-3.562
		c2.128-2.415,4.294-5.452,6.496-9.109l1.662,0.921c-2.162,4.284-4.602,7.909-7.317,10.872c-2.716,2.963-4.955,4.443-6.717,4.443
		c-1.642,0-2.823-0.768-3.543-2.303c-0.721-1.534-1.081-4.043-1.081-7.527v-1.781c0-4.03-0.694-6.045-2.082-6.045
		c-1.962,0-4.464,2.703-7.507,8.108c-3.07,5.445-4.604,8.675-4.604,9.689c0,0.332,0.127,0.66,0.38,0.979
		c-0.601,0.333-1.381,0.5-2.342,0.5c-1.188,0-1.782-0.526-1.782-1.581c0-0.732,0.42-2.956,1.261-6.667
		c0.027-0.119,0.2-0.979,0.521-2.582l4.104-20.66c-0.894,0.334-1.795,0.5-2.703,0.5c-2.589,0-3.884-1.528-3.884-4.584
		c1.281,0.961,2.77,1.441,4.464,1.441c2.389,0,4.685-0.48,6.887-1.441l-3.283,16.556c-0.04,0.187-0.654,2.669-1.842,7.449
		C92.743,24.33,92.583,25.09,92.356,26.211z"/>
	<path fill="#FFCB06" d="M124.598,27.964c4.805-10.124,9.049-15.186,12.732-15.186c1.615,0,2.422,1.166,2.422,3.497
		c0,0.999-0.347,3.25-1.041,6.752l-1.201,6.055c2.335-4.907,4.771-8.852,7.307-11.833c2.536-2.98,4.725-4.471,6.566-4.471
		c2.028,0,3.043,1.187,3.043,3.56c0,0.854-0.3,2.807-0.9,5.859l-0.621,3.119c-0.373,1.881-0.561,3.273-0.561,4.181
		c0,1.601,0.567,2.399,1.702,2.399c2.562,0,6.499-4.752,11.812-14.254l1.683,0.938c-5.793,11.279-10.851,16.92-15.175,16.92
		c-2.763,0-4.145-1.801-4.145-5.404c0-1.201,0.267-3.13,0.801-5.785l0.561-2.764c0.374-1.868,0.561-3.029,0.561-3.483
		c0-0.574-0.293-0.861-0.881-0.861c-1.441,0-4.024,2.862-7.748,8.587c-3.376,5.218-5.065,8.201-5.065,8.948
		c0,0.08,0.027,0.22,0.08,0.42c-0.187,0.04-0.514,0.127-0.981,0.262c-0.2,0.066-0.5,0.102-0.901,0.102
		c-1.241,0-1.862-0.594-1.862-1.78c0-0.359,0.2-1.446,0.601-3.259c0.147-0.653,0.293-1.354,0.44-2.101l0.841-4.239
		c0.614-3.054,0.921-4.887,0.921-5.5c0-0.893-0.327-1.34-0.981-1.34c-1.441,0-3.563,2.58-6.366,7.737
		c-2.79,5.119-4.184,8.171-4.184,9.157c0,0.279,0.107,0.554,0.32,0.82c-0.734,0.321-1.408,0.481-2.022,0.481
		c-1.388,0-2.082-0.747-2.082-2.242c0-0.187,0.2-2.128,0.601-5.825l0.46-4.265c0.16-1.494,0.24-2.875,0.24-4.144
		c0-1.602-0.327-2.776-0.981-3.523c1.548-0.561,2.643-0.841,3.283-0.841c1.174,0,1.762,0.693,1.762,2.081
		c0,0.494-0.16,2.328-0.48,5.501L124.598,27.964z"/>
	<path fill="#FFCB06" d="M178.762,22.768c-1.711,3.537-3.818,6.545-6.324,9.021c-2.504,2.476-4.687,3.713-6.543,3.713
		c-1.416,0-2.549-0.63-3.397-1.892s-1.272-2.939-1.272-5.034c0-4.179,1.267-7.854,3.799-11.031c2.531-3.176,5.461-4.765,8.787-4.765
		c2.019,0,4.201,0.627,6.553,1.882c0.349-1.241,1.763-1.862,4.244-1.862c0.16,0,0.422,0.007,0.781,0.02
		c-0.761,1.161-1.342,2.75-1.742,4.765l-0.34,1.702c-0.388,1.896-0.58,4.11-0.58,6.647c0,2.922,0.681,4.383,2.041,4.383
		c1.441,0,3.414-1.203,5.916-3.612c2.504-2.409,4.963-5.476,7.377-9.199l1.562,1.081c-2.469,4.404-5.292,8.078-8.469,11.021
		c-3.176,2.942-5.905,4.414-8.188,4.414c-2.883,0-4.324-2.401-4.324-7.207C178.641,25.811,178.682,24.463,178.762,22.768z
		 M179.702,17.983c-2.808-1.828-5.14-2.743-6.997-2.743c-2.018,0-3.762,1.225-5.23,3.673c-1.472,2.448-2.207,5.354-2.207,8.719
		c0,2.696,0.883,4.044,2.646,4.044c1.911,0,5.566-4.189,10.966-12.572C178.947,18.998,179.221,18.624,179.702,17.983z"/>
	<path fill="#FFCB06" d="M200.271,27.812c4.737-10.022,8.996-15.035,12.772-15.035c2.949,0,4.425,2.937,4.425,8.809l0.04,2.423
		c0,2.803,0.144,4.741,0.431,5.815c0.287,1.073,0.812,1.61,1.572,1.61c1.146,0,2.451-0.914,3.912-2.742
		c1.463-1.828,3.842-5.506,7.139-11.03l1.682,0.981c-2.938,5.54-5.564,9.649-7.889,12.333c-2.321,2.682-4.403,4.023-6.246,4.023
		c-1.694,0-2.887-0.82-3.573-2.463c-0.688-1.641-1.03-4.484-1.03-8.527l-0.021-1.723c0-2.188-0.139-3.726-0.42-4.614
		c-0.279-0.887-0.769-1.331-1.461-1.331c-1.763,0-4.599,3.517-8.508,10.551c-0.962,1.722-1.582,2.83-1.863,3.322
		c-1.027,1.789-1.541,3.084-1.541,3.885c0,0.32,0.086,0.627,0.261,0.92c-0.774,0.32-1.429,0.48-1.962,0.48
		c-1.35,0-2.021-0.747-2.021-2.242c0-0.427,0.174-2.349,0.521-5.766l0.439-4.344c0.2-1.842,0.301-3.271,0.301-4.285
		c0-1.415-0.32-2.529-0.961-3.343c0.279-0.093,0.746-0.253,1.4-0.48c0.827-0.293,1.488-0.44,1.982-0.44
		c1.041,0,1.562,0.761,1.562,2.282c0,0.801-0.101,2.176-0.301,4.124c-0.04,0.429-0.08,0.835-0.12,1.222L200.271,27.812z"/>
	<path fill="#FFCB06" d="M245.764,18.6l0.451,16.4h-9.104V5.972h12.767l5.254,15.621h0.205l4.558-15.621h13.176V35h-9.512
		l0.287-16.318l-0.246-0.041L258.188,35h-6.889l-5.33-16.4H245.764z"/>
	<path fill="#FFCB06" d="M292.503,35h-9.758V14.213h-7.134V5.972h24.025v8.241h-7.135L292.503,35L292.503,35z"/>
</g>
</svg>
