<?xml version="1.0" encoding="utf-8"?>
<!-- Generator: Adobe Illustrator 16.0.0, SVG Export Plug-In . SVG Version: 6.00 Build 0)  -->
<!DOCTYPE svg PUBLIC "-//W3C//DTD SVG 1.1//EN" "http://www.w3.org/Graphics/SVG/1.1/DTD/svg11.dtd">
<svg version="1.1" xmlns="http://www.w3.org/2000/svg" xmlns:xlink="http://www.w3.org/1999/xlink" x="0px" y="0px" width="168.8px"
	 height="31.523px" viewBox="0 0 168.8 31.523" enable-background="new 0 0 168.8 31.523" xml:space="preserve">
<g id="_x0D_Freshman_MT_x0D_" display="none">
	<g display="inline">
		<path fill="#C7FFCE" d="M4.467,5.267h5.817V29H4.467V5.267z"/>
		<path fill="#C7FFCE" d="M16.367,5.267h3.717l13.533,15.1v-15.1h3.65v24.1H34.75L20.05,12.7V29h-3.684V5.267z"/>
		<path fill="#C7FFCE" d="M60.133,5.267v2.017H48.917v7.833H58.8v2.033h-9.883V29H43.1V5.267H60.133z"/>
		<path fill="#C7FFCE" d="M77.283,29.533c-1.278,0-2.5-0.142-3.667-0.425c-1.167-0.283-2.25-0.687-3.25-1.208
			c-1-0.522-1.912-1.156-2.733-1.9c-0.823-0.744-1.522-1.584-2.1-2.517c-0.578-0.934-1.025-1.947-1.342-3.042
			c-0.316-1.095-0.475-2.253-0.475-3.475c0-1.2,0.159-2.336,0.475-3.409c0.317-1.072,0.764-2.058,1.342-2.958
			c0.578-0.9,1.277-1.714,2.1-2.442c0.822-0.728,1.733-1.341,2.733-1.841s2.083-0.886,3.25-1.159
			c1.167-0.272,2.389-0.408,3.667-0.408c1.277,0,2.5,0.136,3.667,0.408c1.167,0.272,2.25,0.661,3.25,1.167
			c1,0.505,1.911,1.119,2.733,1.841c0.822,0.723,1.522,1.534,2.1,2.434c0.578,0.9,1.025,1.883,1.342,2.95
			c0.316,1.067,0.475,2.195,0.475,3.383c0,1.256-0.158,2.439-0.475,3.55c-0.317,1.111-0.764,2.134-1.342,3.066
			c-0.578,0.934-1.278,1.77-2.1,2.509c-0.822,0.738-1.733,1.366-2.733,1.883c-1,0.518-2.083,0.912-3.25,1.184
			C79.783,29.397,78.561,29.533,77.283,29.533z M77.283,27.517c1.155,0,2.175-0.264,3.058-0.792
			c0.883-0.527,1.625-1.261,2.225-2.199c0.6-0.939,1.053-2.053,1.358-3.342s0.458-2.694,0.458-4.217c0-1.5-0.153-2.875-0.458-4.125
			s-0.758-2.325-1.358-3.225s-1.342-1.6-2.225-2.1s-1.903-0.75-3.058-0.75c-1.167,0-2.195,0.25-3.083,0.75
			c-0.889,0.5-1.631,1.2-2.225,2.1s-1.044,1.975-1.35,3.225c-0.306,1.25-0.458,2.625-0.458,4.125c0,1.522,0.152,2.928,0.458,4.217
			c0.305,1.289,0.755,2.402,1.35,3.342c0.594,0.938,1.336,1.672,2.225,2.199C75.088,27.253,76.117,27.517,77.283,27.517z"/>
		<path fill="#C7FFCE" d="M113.167,29.366c-1.423,0-2.667-0.166-3.733-0.499c-1.067-0.334-1.975-0.795-2.725-1.384
			s-1.345-1.289-1.783-2.101c-0.439-0.811-0.742-1.699-0.909-2.666h4.034c0.144,0.589,0.35,1.142,0.617,1.658
			c0.267,0.517,0.605,0.964,1.017,1.342c0.411,0.378,0.9,0.675,1.466,0.892c0.567,0.217,1.222,0.325,1.967,0.325
			c0.5,0,0.992-0.053,1.475-0.158s0.917-0.275,1.3-0.509s0.692-0.542,0.925-0.925s0.35-0.853,0.35-1.408
			c0-0.711-0.181-1.339-0.542-1.884c-0.361-0.544-0.839-1.042-1.433-1.492c-0.595-0.45-1.272-0.869-2.034-1.258
			c-0.761-0.389-1.536-0.78-2.325-1.175c-0.789-0.394-1.564-0.806-2.325-1.233s-1.439-0.908-2.033-1.441
			c-0.595-0.534-1.072-1.133-1.433-1.8c-0.361-0.667-0.542-1.433-0.542-2.3c0-0.944,0.206-1.819,0.617-2.625
			s1.008-1.503,1.792-2.092c0.784-0.589,1.742-1.05,2.875-1.383c1.134-0.333,2.422-0.5,3.867-0.5c1.2,0,2.284,0.167,3.25,0.5
			c0.967,0.333,1.819,0.786,2.559,1.358c0.739,0.572,1.361,1.248,1.867,2.025c0.505,0.778,0.892,1.617,1.158,2.517h-3.667
			c-0.211-0.566-0.456-1.105-0.733-1.617c-0.278-0.511-0.623-0.961-1.033-1.35c-0.412-0.389-0.906-0.697-1.483-0.925
			c-0.578-0.228-1.272-0.342-2.083-0.342c-0.756,0-1.395,0.1-1.917,0.3c-0.522,0.2-0.945,0.453-1.267,0.758
			c-0.323,0.306-0.553,0.647-0.692,1.025c-0.139,0.378-0.208,0.75-0.208,1.117c0,0.633,0.186,1.208,0.559,1.725
			c0.372,0.517,0.867,0.995,1.483,1.433c0.617,0.439,1.313,0.861,2.091,1.267c0.778,0.406,1.575,0.814,2.392,1.225
			c0.816,0.411,1.617,0.839,2.4,1.283c0.783,0.445,1.483,0.937,2.1,1.475c0.617,0.539,1.111,1.136,1.483,1.792
			c0.373,0.655,0.559,1.394,0.559,2.216c0,0.967-0.2,1.864-0.6,2.691c-0.4,0.828-0.992,1.551-1.775,2.167s-1.756,1.101-2.917,1.45
			C116.013,29.191,114.677,29.366,113.167,29.366z"/>
		<path fill="#C7FFCE" d="M145.033,5.267v2.017h-11.9v7.833h9.882v2.033h-9.882v9.417h11.9V29h-17.717V5.267H145.033z"/>
		<path fill="#C7FFCE" d="M158.016,29.366c-1.422,0-2.666-0.166-3.733-0.499c-1.066-0.334-1.975-0.795-2.725-1.384
			s-1.345-1.289-1.783-2.101c-0.439-0.811-0.742-1.699-0.908-2.666h4.033c0.145,0.589,0.35,1.142,0.616,1.658
			s0.605,0.964,1.017,1.342s0.9,0.675,1.467,0.892s1.223,0.325,1.967,0.325c0.5,0,0.992-0.053,1.475-0.158
			c0.483-0.105,0.917-0.275,1.301-0.509c0.383-0.233,0.691-0.542,0.925-0.925s0.35-0.853,0.35-1.408
			c0-0.711-0.181-1.339-0.541-1.884c-0.361-0.544-0.84-1.042-1.434-1.492c-0.595-0.45-1.272-0.869-2.033-1.258
			c-0.762-0.389-1.536-0.78-2.325-1.175c-0.789-0.394-1.564-0.806-2.325-1.233s-1.438-0.908-2.033-1.441
			c-0.595-0.534-1.072-1.133-1.434-1.8c-0.361-0.667-0.541-1.433-0.541-2.3c0-0.944,0.205-1.819,0.616-2.625
			s1.009-1.503,1.792-2.092s1.741-1.05,2.875-1.383c1.133-0.333,2.422-0.5,3.866-0.5c1.2,0,2.283,0.167,3.25,0.5
			s1.819,0.786,2.559,1.358c0.738,0.572,1.361,1.248,1.866,2.025c0.506,0.778,0.892,1.617,1.159,2.517h-3.667
			c-0.211-0.566-0.456-1.105-0.733-1.617c-0.278-0.511-0.622-0.961-1.033-1.35c-0.411-0.389-0.906-0.697-1.483-0.925
			c-0.578-0.228-1.272-0.342-2.083-0.342c-0.756,0-1.395,0.1-1.917,0.3c-0.522,0.2-0.944,0.453-1.267,0.758S154.597,8.623,154.458,9
			c-0.14,0.378-0.209,0.75-0.209,1.117c0,0.633,0.187,1.208,0.559,1.725s0.866,0.995,1.483,1.433
			c0.616,0.439,1.313,0.861,2.092,1.267c0.777,0.406,1.575,0.814,2.392,1.225c0.816,0.411,1.616,0.839,2.399,1.283
			c0.784,0.445,1.483,0.937,2.101,1.475c0.616,0.539,1.11,1.136,1.483,1.792c0.372,0.655,0.558,1.394,0.558,2.216
			c0,0.967-0.199,1.864-0.6,2.691c-0.4,0.828-0.991,1.551-1.775,2.167c-0.783,0.616-1.755,1.101-2.916,1.45
			S159.527,29.366,158.016,29.366z"/>
		<path fill="#C7FFCE" d="M180.316,29.366c-1.422,0-2.666-0.166-3.733-0.499c-1.066-0.334-1.975-0.795-2.725-1.384
			s-1.345-1.289-1.783-2.101c-0.439-0.811-0.742-1.699-0.908-2.666h4.033c0.145,0.589,0.35,1.142,0.616,1.658
			s0.605,0.964,1.017,1.342s0.9,0.675,1.467,0.892s1.223,0.325,1.967,0.325c0.5,0,0.992-0.053,1.475-0.158
			c0.483-0.105,0.917-0.275,1.301-0.509c0.383-0.233,0.691-0.542,0.925-0.925s0.35-0.853,0.35-1.408
			c0-0.711-0.181-1.339-0.541-1.884c-0.361-0.544-0.84-1.042-1.434-1.492c-0.595-0.45-1.272-0.869-2.033-1.258
			c-0.762-0.389-1.536-0.78-2.325-1.175c-0.789-0.394-1.564-0.806-2.325-1.233s-1.438-0.908-2.033-1.441
			c-0.595-0.534-1.072-1.133-1.434-1.8c-0.361-0.667-0.541-1.433-0.541-2.3c0-0.944,0.205-1.819,0.616-2.625
			s1.009-1.503,1.792-2.092s1.741-1.05,2.875-1.383c1.133-0.333,2.422-0.5,3.866-0.5c1.2,0,2.283,0.167,3.25,0.5
			s1.819,0.786,2.559,1.358c0.738,0.572,1.361,1.248,1.866,2.025c0.506,0.778,0.892,1.617,1.159,2.517h-3.667
			c-0.211-0.566-0.456-1.105-0.733-1.617c-0.278-0.511-0.622-0.961-1.033-1.35c-0.411-0.389-0.906-0.697-1.483-0.925
			c-0.578-0.228-1.272-0.342-2.083-0.342c-0.756,0-1.395,0.1-1.917,0.3c-0.522,0.2-0.944,0.453-1.267,0.758S176.897,8.623,176.758,9
			c-0.14,0.378-0.209,0.75-0.209,1.117c0,0.633,0.187,1.208,0.559,1.725s0.866,0.995,1.483,1.433
			c0.616,0.439,1.313,0.861,2.092,1.267c0.777,0.406,1.575,0.814,2.392,1.225c0.816,0.411,1.616,0.839,2.399,1.283
			c0.784,0.445,1.483,0.937,2.101,1.475c0.616,0.539,1.11,1.136,1.483,1.792c0.372,0.655,0.558,1.394,0.558,2.216
			c0,0.967-0.199,1.864-0.6,2.691c-0.4,0.828-0.991,1.551-1.775,2.167c-0.783,0.616-1.755,1.101-2.916,1.45
			S181.827,29.366,180.316,29.366z"/>
		<path fill="#C7FFCE" d="M194.716,5.267h5.816V29h-5.816V5.267z"/>
		<path fill="#C7FFCE" d="M218.932,29.533c-1.278,0-2.5-0.142-3.667-0.425c-1.166-0.283-2.25-0.687-3.25-1.208
			c-1-0.522-1.911-1.156-2.733-1.9s-1.522-1.584-2.1-2.517c-0.578-0.934-1.025-1.947-1.342-3.042
			c-0.316-1.095-0.475-2.253-0.475-3.475c0-1.2,0.158-2.336,0.475-3.409c0.316-1.072,0.764-2.058,1.342-2.958
			c0.577-0.9,1.277-1.714,2.1-2.442c0.822-0.728,1.733-1.341,2.733-1.841s2.084-0.886,3.25-1.159
			c1.167-0.272,2.389-0.408,3.667-0.408c1.277,0,2.5,0.136,3.667,0.408c1.166,0.272,2.25,0.661,3.25,1.167
			c1,0.505,1.91,1.119,2.733,1.841c0.821,0.723,1.521,1.534,2.1,2.434c0.577,0.9,1.025,1.883,1.342,2.95
			c0.316,1.067,0.475,2.195,0.475,3.383c0,1.256-0.158,2.439-0.475,3.55c-0.316,1.111-0.765,2.134-1.342,3.066
			c-0.578,0.934-1.278,1.77-2.1,2.509c-0.823,0.738-1.733,1.366-2.733,1.883c-1,0.518-2.084,0.912-3.25,1.184
			C221.432,29.397,220.209,29.533,218.932,29.533z M218.932,27.517c1.155,0,2.175-0.264,3.059-0.792
			c0.883-0.527,1.625-1.261,2.225-2.199c0.6-0.939,1.053-2.053,1.358-3.342s0.458-2.694,0.458-4.217c0-1.5-0.152-2.875-0.458-4.125
			s-0.759-2.325-1.358-3.225s-1.342-1.6-2.225-2.1c-0.884-0.5-1.903-0.75-3.059-0.75c-1.167,0-2.194,0.25-3.083,0.75
			c-0.89,0.5-1.631,1.2-2.226,2.1s-1.044,1.975-1.35,3.225s-0.459,2.625-0.459,4.125c0,1.522,0.153,2.928,0.459,4.217
			s0.755,2.402,1.35,3.342c0.595,0.938,1.336,1.672,2.226,2.199C216.738,27.253,217.765,27.517,218.932,27.517z"/>
		<path fill="#C7FFCE" d="M237.083,5.267h3.717l13.533,15.1v-15.1h3.649v24.1h-2.517l-14.7-16.666V29h-3.683V5.267z"/>
	</g>
</g>
<g id="Layer_2">
	<g>
		<path fill="#7AEDAE" d="M13.474,7.938V26.6H7.923V7.938H13.474z"/>
		<path fill="#7AEDAE" d="M16.824,26.6V14.486c0-2.124,0.636-3.823,1.907-5.1c1.271-1.276,2.964-1.914,5.079-1.914
			c2.105,0,3.716,0.62,4.833,1.859c1.116,1.24,1.675,3.021,1.675,5.346V26.6h-5.551V14.678c0-1.139-0.406-1.709-1.217-1.709
			c-0.784,0-1.176,0.57-1.176,1.709V26.6H16.824z"/>
		<path fill="#7AEDAE" d="M40.708,16.729v5.004h-1.846V26.6h-5.551V15.02c0-2.178,0.672-3.98,2.017-5.407
			c1.344-1.426,3.037-2.14,5.079-2.14c2.251,0,4.133,0.971,5.646,2.912l-4.553,3.322c-0.255-0.711-0.707-1.066-1.354-1.066
			c-0.857,0-1.285,0.593-1.285,1.777v2.311H40.708z"/>
		<path fill="#7AEDAE" d="M56.021,7.473c2.643,0,4.91,0.962,6.802,2.885c1.891,1.923,2.837,4.225,2.837,6.904
			c0,2.726-0.953,5.041-2.857,6.945c-1.905,1.905-4.22,2.857-6.945,2.857c-2.707,0-5.018-0.957-6.932-2.871
			s-2.871-4.225-2.871-6.932c0-2.734,0.964-5.049,2.892-6.945C50.874,8.421,53.232,7.473,56.021,7.473z M55.857,12.969
			c-1.14,0-2.11,0.419-2.912,1.258c-0.802,0.839-1.203,1.851-1.203,3.035c0,1.185,0.403,2.197,1.21,3.035
			c0.807,0.839,1.775,1.258,2.905,1.258c1.148,0,2.121-0.417,2.919-1.251c0.797-0.834,1.196-1.848,1.196-3.042
			c0-1.194-0.399-2.208-1.196-3.042C57.978,13.386,57.005,12.969,55.857,12.969z"/>
		<path fill="#7AEDAE" d="M84.035,7.855v5.318c-0.401-0.137-0.711-0.205-0.93-0.205c-0.419,0-0.779,0.155-1.08,0.465
			c-0.301,0.31-0.451,0.684-0.451,1.121c0,0.374,0.164,0.848,0.492,1.422l0.424,0.738c0.766,1.331,1.148,2.616,1.148,3.855
			c0,1.814-0.645,3.35-1.935,4.607c-1.29,1.258-2.864,1.887-4.724,1.887c-0.894,0-1.777-0.205-2.652-0.615v-5.4
			c0.528,0.338,0.998,0.506,1.408,0.506c0.483,0,0.886-0.139,1.21-0.417c0.323-0.278,0.485-0.626,0.485-1.046
			c0-0.273-0.26-0.87-0.779-1.791c-0.83-1.458-1.244-2.917-1.244-4.375c0-1.759,0.626-3.274,1.88-4.546
			c1.253-1.271,2.75-1.907,4.491-1.907C82.544,7.473,83.296,7.601,84.035,7.855z"/>
		<path fill="#7AEDAE" d="M96.804,15.197v4.156h-3.623c-0.492,0-0.841,0.073-1.046,0.219c-0.205,0.146-0.308,0.392-0.308,0.738
			c0,0.392,0.104,0.649,0.314,0.772c0.209,0.123,0.638,0.185,1.285,0.185h3.732V26.6h-4.361c-2.051,0-3.619-0.49-4.703-1.47
			c-1.085-0.979-1.627-2.395-1.627-4.245V13.57c0-1.786,0.513-3.172,1.538-4.156s2.468-1.477,4.327-1.477h4.826v5.359h-3.541
			c-0.957,0-1.436,0.31-1.436,0.93c0,0.365,0.114,0.618,0.342,0.759c0.228,0.142,0.633,0.212,1.217,0.212H96.804z"/>
		<path fill="#7AEDAE" d="M109.109,7.855v5.318c-0.401-0.137-0.711-0.205-0.93-0.205c-0.419,0-0.779,0.155-1.08,0.465
			c-0.301,0.31-0.451,0.684-0.451,1.121c0,0.374,0.164,0.848,0.492,1.422l0.424,0.738c0.766,1.331,1.148,2.616,1.148,3.855
			c0,1.814-0.645,3.35-1.935,4.607c-1.29,1.258-2.864,1.887-4.724,1.887c-0.894,0-1.777-0.205-2.652-0.615v-5.4
			c0.528,0.338,0.998,0.506,1.408,0.506c0.483,0,0.886-0.139,1.21-0.417c0.323-0.278,0.485-0.626,0.485-1.046
			c0-0.273-0.26-0.87-0.779-1.791c-0.83-1.458-1.244-2.917-1.244-4.375c0-1.759,0.626-3.274,1.88-4.546
			c1.253-1.271,2.75-1.907,4.491-1.907C107.619,7.473,108.371,7.601,109.109,7.855z"/>
		<path fill="#7AEDAE" d="M120.689,7.855v5.318c-0.401-0.137-0.711-0.205-0.93-0.205c-0.419,0-0.779,0.155-1.08,0.465
			c-0.301,0.31-0.451,0.684-0.451,1.121c0,0.374,0.164,0.848,0.492,1.422l0.424,0.738c0.766,1.331,1.148,2.616,1.148,3.855
			c0,1.814-0.645,3.35-1.935,4.607c-1.29,1.258-2.864,1.887-4.724,1.887c-0.894,0-1.777-0.205-2.652-0.615v-5.4
			c0.528,0.338,0.998,0.506,1.408,0.506c0.483,0,0.886-0.139,1.21-0.417c0.323-0.278,0.485-0.626,0.485-1.046
			c0-0.273-0.26-0.87-0.779-1.791c-0.83-1.458-1.244-2.917-1.244-4.375c0-1.759,0.626-3.274,1.88-4.546
			c1.253-1.271,2.75-1.907,4.491-1.907C119.199,7.473,119.951,7.601,120.689,7.855z"/>
		<path fill="#7AEDAE" d="M129.056,7.938V26.6h-5.551V7.938H129.056z"/>
		<path fill="#7AEDAE" d="M141.634,7.473c2.644,0,4.91,0.962,6.802,2.885c1.892,1.923,2.837,4.225,2.837,6.904
			c0,2.726-0.952,5.041-2.857,6.945c-1.905,1.905-4.22,2.857-6.945,2.857c-2.707,0-5.018-0.957-6.932-2.871
			s-2.871-4.225-2.871-6.932c0-2.734,0.964-5.049,2.892-6.945C136.487,8.421,138.845,7.473,141.634,7.473z M141.47,12.969
			c-1.14,0-2.11,0.419-2.912,1.258c-0.802,0.839-1.203,1.851-1.203,3.035c0,1.185,0.403,2.197,1.21,3.035
			c0.807,0.839,1.775,1.258,2.905,1.258c1.148,0,2.121-0.417,2.919-1.251s1.196-1.848,1.196-3.042c0-1.194-0.398-2.208-1.196-3.042
			S142.619,12.969,141.47,12.969z"/>
		<path fill="#7AEDAE" d="M153.501,26.6V14.486c0-2.124,0.636-3.823,1.907-5.1c1.271-1.276,2.965-1.914,5.079-1.914
			c2.105,0,3.717,0.62,4.833,1.859c1.116,1.24,1.675,3.021,1.675,5.346V26.6h-5.551V14.678c0-1.139-0.405-1.709-1.217-1.709
			c-0.784,0-1.176,0.57-1.176,1.709V26.6H153.501z"/>
	</g>
</g>
</svg>
