<?xml version="1.0" encoding="utf-8"?>
<!-- Generator: Adobe Illustrator 16.0.0, SVG Export Plug-In . SVG Version: 6.00 Build 0)  -->
<!DOCTYPE svg PUBLIC "-//W3C//DTD SVG 1.1//EN" "http://www.w3.org/Graphics/SVG/1.1/DTD/svg11.dtd">
<svg version="1.1" xmlns="http://www.w3.org/2000/svg" xmlns:xlink="http://www.w3.org/1999/xlink" x="0px" y="0px"
	 width="155.25px" height="21.5px" viewBox="0 0 155.25 21.5" enable-background="new 0 0 155.25 21.5" xml:space="preserve">
<g id="_x0D_Freshman_MT_x0D_" display="none">
	<g display="inline">
		<path fill="#C7FFCE" d="M-0.583,1.767h5.817V25.5h-5.817V1.767z"/>
		<path fill="#C7FFCE" d="M11.316,1.767h3.717l13.533,15.1v-15.1h3.65v24.1H29.7L15,9.2v16.3h-3.684V1.767z"/>
		<path fill="#C7FFCE" d="M55.083,1.767v2.017H43.866v7.833h9.883v2.033h-9.883V25.5h-5.817V1.767H55.083z"/>
		<path fill="#C7FFCE" d="M72.233,26.033c-1.278,0-2.5-0.142-3.667-0.425c-1.167-0.283-2.25-0.687-3.25-1.208
			c-1-0.522-1.912-1.156-2.733-1.9c-0.823-0.744-1.522-1.584-2.1-2.517c-0.578-0.934-1.025-1.947-1.342-3.042
			c-0.316-1.095-0.475-2.253-0.475-3.475c0-1.2,0.159-2.336,0.475-3.409C59.458,8.986,59.905,8,60.483,7.1
			c0.578-0.9,1.277-1.714,2.1-2.442c0.822-0.728,1.733-1.341,2.733-1.841s2.083-0.886,3.25-1.159
			c1.167-0.272,2.389-0.408,3.667-0.408c1.277,0,2.5,0.136,3.667,0.408c1.167,0.272,2.25,0.661,3.25,1.167
			c1,0.505,1.911,1.119,2.733,1.841c0.822,0.723,1.522,1.534,2.1,2.434c0.578,0.9,1.025,1.883,1.342,2.95
			c0.316,1.067,0.475,2.195,0.475,3.383c0,1.256-0.158,2.439-0.475,3.55c-0.317,1.111-0.764,2.134-1.342,3.066
			c-0.578,0.934-1.278,1.77-2.1,2.509c-0.822,0.738-1.733,1.366-2.733,1.883c-1,0.518-2.083,0.912-3.25,1.184
			C74.733,25.897,73.51,26.033,72.233,26.033z M72.233,24.017c1.155,0,2.175-0.264,3.058-0.792c0.883-0.527,1.625-1.261,2.225-2.199
			c0.6-0.939,1.053-2.053,1.358-3.342s0.458-2.694,0.458-4.217c0-1.5-0.153-2.875-0.458-4.125s-0.758-2.325-1.358-3.225
			s-1.342-1.6-2.225-2.1s-1.903-0.75-3.058-0.75c-1.167,0-2.195,0.25-3.083,0.75c-0.889,0.5-1.631,1.2-2.225,2.1
			s-1.044,1.975-1.35,3.225c-0.306,1.25-0.458,2.625-0.458,4.125c0,1.522,0.152,2.928,0.458,4.217
			c0.305,1.289,0.755,2.402,1.35,3.342c0.594,0.938,1.336,1.672,2.225,2.199C70.038,23.753,71.066,24.017,72.233,24.017z"/>
		<path fill="#C7FFCE" d="M108.116,25.866c-1.423,0-2.667-0.166-3.733-0.499c-1.067-0.334-1.975-0.795-2.725-1.384
			s-1.345-1.289-1.783-2.101c-0.439-0.811-0.742-1.699-0.909-2.666H103c0.144,0.589,0.35,1.142,0.617,1.658
			c0.267,0.517,0.605,0.964,1.017,1.342c0.411,0.378,0.9,0.675,1.466,0.892c0.567,0.217,1.222,0.325,1.967,0.325
			c0.5,0,0.992-0.053,1.475-0.158s0.917-0.275,1.3-0.509s0.692-0.542,0.925-0.925s0.35-0.853,0.35-1.408
			c0-0.711-0.181-1.339-0.542-1.884c-0.361-0.544-0.839-1.042-1.433-1.492c-0.595-0.45-1.272-0.869-2.034-1.258
			c-0.761-0.389-1.536-0.78-2.325-1.175c-0.789-0.394-1.564-0.806-2.325-1.233s-1.439-0.908-2.033-1.441
			c-0.595-0.534-1.072-1.133-1.433-1.8c-0.361-0.667-0.542-1.433-0.542-2.3c0-0.944,0.206-1.819,0.617-2.625
			s1.008-1.503,1.792-2.092c0.784-0.589,1.742-1.05,2.875-1.383c1.134-0.333,2.422-0.5,3.867-0.5c1.2,0,2.284,0.167,3.25,0.5
			c0.967,0.333,1.819,0.786,2.559,1.358c0.739,0.572,1.361,1.248,1.867,2.025c0.505,0.778,0.892,1.617,1.158,2.517h-3.667
			c-0.211-0.566-0.456-1.105-0.733-1.617c-0.278-0.511-0.623-0.961-1.033-1.35c-0.412-0.389-0.906-0.697-1.483-0.925
			c-0.578-0.228-1.272-0.342-2.083-0.342c-0.756,0-1.395,0.1-1.917,0.3c-0.522,0.2-0.945,0.453-1.267,0.758
			c-0.323,0.306-0.553,0.647-0.692,1.025c-0.139,0.378-0.208,0.75-0.208,1.117c0,0.633,0.186,1.208,0.559,1.725
			c0.372,0.517,0.867,0.995,1.483,1.433c0.617,0.439,1.313,0.861,2.091,1.267c0.778,0.406,1.575,0.814,2.392,1.225
			c0.816,0.411,1.617,0.839,2.4,1.283c0.783,0.445,1.483,0.937,2.1,1.475c0.617,0.539,1.111,1.136,1.483,1.792
			c0.373,0.655,0.559,1.394,0.559,2.216c0,0.967-0.2,1.864-0.6,2.691c-0.4,0.828-0.992,1.551-1.775,2.167s-1.756,1.101-2.917,1.45
			C110.963,25.691,109.627,25.866,108.116,25.866z"/>
		<path fill="#C7FFCE" d="M139.982,1.767v2.017h-11.9v7.833h9.882v2.033h-9.882v9.417h11.9V25.5h-17.717V1.767H139.982z"/>
		<path fill="#C7FFCE" d="M152.966,25.866c-1.422,0-2.666-0.166-3.733-0.499c-1.066-0.334-1.975-0.795-2.725-1.384
			s-1.345-1.289-1.783-2.101c-0.439-0.811-0.742-1.699-0.908-2.666h4.033c0.145,0.589,0.35,1.142,0.616,1.658
			s0.605,0.964,1.017,1.342s0.9,0.675,1.467,0.892s1.223,0.325,1.967,0.325c0.5,0,0.992-0.053,1.475-0.158
			c0.483-0.105,0.917-0.275,1.301-0.509c0.383-0.233,0.691-0.542,0.925-0.925s0.35-0.853,0.35-1.408
			c0-0.711-0.181-1.339-0.541-1.884c-0.361-0.544-0.84-1.042-1.434-1.492c-0.595-0.45-1.272-0.869-2.033-1.258
			c-0.762-0.389-1.536-0.78-2.325-1.175c-0.789-0.394-1.564-0.806-2.325-1.233s-1.438-0.908-2.033-1.441
			c-0.595-0.534-1.072-1.133-1.434-1.8c-0.361-0.667-0.541-1.433-0.541-2.3c0-0.944,0.205-1.819,0.616-2.625
			s1.009-1.503,1.792-2.092s1.741-1.05,2.875-1.383c1.133-0.333,2.422-0.5,3.866-0.5c1.2,0,2.283,0.167,3.25,0.5
			s1.819,0.786,2.559,1.358c0.738,0.572,1.361,1.248,1.866,2.025c0.506,0.778,0.892,1.617,1.159,2.517h-3.667
			c-0.211-0.566-0.456-1.105-0.733-1.617c-0.278-0.511-0.622-0.961-1.033-1.35c-0.411-0.389-0.906-0.697-1.483-0.925
			c-0.578-0.228-1.272-0.342-2.083-0.342c-0.756,0-1.395,0.1-1.917,0.3c-0.522,0.2-0.944,0.453-1.267,0.758
			s-0.553,0.647-0.691,1.025c-0.14,0.378-0.209,0.75-0.209,1.117c0,0.633,0.187,1.208,0.559,1.725s0.866,0.995,1.483,1.433
			c0.616,0.439,1.313,0.861,2.092,1.267c0.777,0.406,1.575,0.814,2.392,1.225c0.816,0.411,1.616,0.839,2.399,1.283
			c0.784,0.445,1.483,0.937,2.101,1.475c0.616,0.539,1.11,1.136,1.483,1.792c0.372,0.655,0.558,1.394,0.558,2.216
			c0,0.967-0.199,1.864-0.6,2.691c-0.4,0.828-0.991,1.551-1.775,2.167c-0.783,0.616-1.755,1.101-2.916,1.45
			S154.477,25.866,152.966,25.866z"/>
		<path fill="#C7FFCE" d="M175.266,25.866c-1.422,0-2.666-0.166-3.733-0.499c-1.066-0.334-1.975-0.795-2.725-1.384
			s-1.345-1.289-1.783-2.101c-0.439-0.811-0.742-1.699-0.908-2.666h4.033c0.145,0.589,0.35,1.142,0.616,1.658
			s0.605,0.964,1.017,1.342s0.9,0.675,1.467,0.892s1.223,0.325,1.967,0.325c0.5,0,0.992-0.053,1.475-0.158
			c0.483-0.105,0.917-0.275,1.301-0.509c0.383-0.233,0.691-0.542,0.925-0.925s0.35-0.853,0.35-1.408
			c0-0.711-0.181-1.339-0.541-1.884c-0.361-0.544-0.84-1.042-1.434-1.492c-0.595-0.45-1.272-0.869-2.033-1.258
			c-0.762-0.389-1.536-0.78-2.325-1.175c-0.789-0.394-1.564-0.806-2.325-1.233s-1.438-0.908-2.033-1.441
			c-0.595-0.534-1.072-1.133-1.434-1.8c-0.361-0.667-0.541-1.433-0.541-2.3c0-0.944,0.205-1.819,0.616-2.625
			s1.009-1.503,1.792-2.092s1.741-1.05,2.875-1.383c1.133-0.333,2.422-0.5,3.866-0.5c1.2,0,2.283,0.167,3.25,0.5
			s1.819,0.786,2.559,1.358c0.738,0.572,1.361,1.248,1.866,2.025c0.506,0.778,0.892,1.617,1.159,2.517h-3.667
			c-0.211-0.566-0.456-1.105-0.733-1.617c-0.278-0.511-0.622-0.961-1.033-1.35c-0.411-0.389-0.906-0.697-1.483-0.925
			c-0.578-0.228-1.272-0.342-2.083-0.342c-0.756,0-1.395,0.1-1.917,0.3c-0.522,0.2-0.944,0.453-1.267,0.758
			s-0.553,0.647-0.691,1.025c-0.14,0.378-0.209,0.75-0.209,1.117c0,0.633,0.187,1.208,0.559,1.725s0.866,0.995,1.483,1.433
			c0.616,0.439,1.313,0.861,2.092,1.267c0.777,0.406,1.575,0.814,2.392,1.225c0.816,0.411,1.616,0.839,2.399,1.283
			c0.784,0.445,1.483,0.937,2.101,1.475c0.616,0.539,1.11,1.136,1.483,1.792c0.372,0.655,0.558,1.394,0.558,2.216
			c0,0.967-0.199,1.864-0.6,2.691c-0.4,0.828-0.991,1.551-1.775,2.167c-0.783,0.616-1.755,1.101-2.916,1.45
			S176.776,25.866,175.266,25.866z"/>
		<path fill="#C7FFCE" d="M189.666,1.767h5.816V25.5h-5.816V1.767z"/>
		<path fill="#C7FFCE" d="M213.882,26.033c-1.278,0-2.5-0.142-3.667-0.425c-1.166-0.283-2.25-0.687-3.25-1.208
			c-1-0.522-1.911-1.156-2.733-1.9s-1.522-1.584-2.1-2.517c-0.578-0.934-1.025-1.947-1.342-3.042
			c-0.316-1.095-0.475-2.253-0.475-3.475c0-1.2,0.158-2.336,0.475-3.409c0.316-1.072,0.764-2.058,1.342-2.958
			c0.577-0.9,1.277-1.714,2.1-2.442c0.822-0.728,1.733-1.341,2.733-1.841s2.084-0.886,3.25-1.159
			c1.167-0.272,2.389-0.408,3.667-0.408c1.277,0,2.5,0.136,3.667,0.408c1.166,0.272,2.25,0.661,3.25,1.167
			c1,0.505,1.91,1.119,2.733,1.841c0.821,0.723,1.521,1.534,2.1,2.434c0.577,0.9,1.025,1.883,1.342,2.95
			c0.316,1.067,0.475,2.195,0.475,3.383c0,1.256-0.158,2.439-0.475,3.55c-0.316,1.111-0.765,2.134-1.342,3.066
			c-0.578,0.934-1.278,1.77-2.1,2.509c-0.823,0.738-1.733,1.366-2.733,1.883c-1,0.518-2.084,0.912-3.25,1.184
			C216.382,25.897,215.159,26.033,213.882,26.033z M213.882,24.017c1.155,0,2.175-0.264,3.059-0.792
			c0.883-0.527,1.625-1.261,2.225-2.199c0.6-0.939,1.053-2.053,1.358-3.342s0.458-2.694,0.458-4.217c0-1.5-0.152-2.875-0.458-4.125
			s-0.759-2.325-1.358-3.225s-1.342-1.6-2.225-2.1c-0.884-0.5-1.903-0.75-3.059-0.75c-1.167,0-2.194,0.25-3.083,0.75
			c-0.89,0.5-1.631,1.2-2.226,2.1s-1.044,1.975-1.35,3.225s-0.459,2.625-0.459,4.125c0,1.522,0.153,2.928,0.459,4.217
			s0.755,2.402,1.35,3.342c0.595,0.938,1.336,1.672,2.226,2.199C211.688,23.753,212.715,24.017,213.882,24.017z"/>
		<path fill="#C7FFCE" d="M232.032,1.767h3.717l13.533,15.1v-15.1h3.649v24.1h-2.517L235.715,9.2v16.3h-3.683V1.767z"/>
	</g>
</g>
<g id="Layer_3" display="none">
	<rect x="-111.25" y="-64" display="inline" fill="#5CCBDD" width="436" height="143"/>
</g>
<g id="Layer_2">
	<g>
		<path fill="#7D2991" d="M0.765,5.215l6.029,0.967l0.483-0.237h0.237c0.322,0.047,0.483,0.205,0.483,0.475v0.483
			c-3.375-0.158-5.142-0.319-5.3-0.483C2.388,6.583,2.145,6.665,1.969,6.665C1.008,6.501,0.527,6.261,0.527,5.944V5.698L0.765,5.215
			z M3.902,8.353C4.541,8.511,4.86,8.991,4.86,9.794v0.967c0,0.879-0.48,1.521-1.441,1.925H2.936l-1.204-0.237v-0.967
			C1.731,10.38,2.455,9.337,3.902,8.353z M3.902,9.311c-0.967,1.395-1.45,2.197-1.45,2.408l0.483,0.246
			c0.803-0.223,1.204-0.785,1.204-1.688V9.311H3.902z M3.902,2.807H4.14c0.967,0.762,1.45,1.564,1.45,2.408v0.246H5.106L3.419,3.29
			C3.472,2.968,3.633,2.807,3.902,2.807z M5.827,13.89h0.967v2.654c1.764,0.123,2.646,0.281,2.646,0.475
			c0.311-0.158,0.554-0.237,0.729-0.237l1.204,0.237v0.967l-0.483-0.237h-0.246c-3.211,0-4.816-0.401-4.816-1.204
			c0-1.125-0.079-1.77-0.237-1.934C5.748,14.3,5.827,14.06,5.827,13.89z M10.644,4.494h0.483c0.322,0.053,0.483,0.214,0.483,0.483
			v1.925l2.408,0.246h0.246v0.958h-0.246c-0.703,0-1.427-0.161-2.171-0.483c0,1.125-0.079,1.688-0.237,1.688l0.237,0.483v0.721
			l-0.958,0.246c0-0.164-0.082-0.246-0.246-0.246l0.246-2.408l-0.246-2.892h0.246l-0.246-0.483V4.494z"/>
		<path fill="#7D2991" d="M16.787,4.723c2.578,0.117,3.867,0.548,3.867,1.292c-0.727,3.035-1.33,4.582-1.811,4.641H18.07V9.882
			c0.516-0.627,1.031-1.916,1.547-3.867h-3.604c-0.346,0-0.519-0.173-0.519-0.519C15.495,5.25,15.926,4.992,16.787,4.723z
			 M24.267,2.921h1.028c0,2.461,0.516,3.75,1.547,3.867h2.065l0.255,1.028c-0.17,0-0.255,0.085-0.255,0.255l-1.811-0.255h-1.283
			l0.255,1.292v1.802c0,0.346-0.173,0.519-0.519,0.519h-0.773l0.264-1.811C25.04,8.522,24.782,6.29,24.267,2.921z"/>
		<path fill="#7D2991" d="M38.347,10.989c0.311,0.164,0.551,0.246,0.721,0.246v0.475c0,0.322-0.158,0.483-0.475,0.483h-3.138
			l-1.204,0.246l0.237,0.483v1.925l0.246,1.204l-0.729,0.483h-0.237c0-0.17-0.079-0.41-0.237-0.721c0-0.164,0.079-0.246,0.237-0.246
			l-0.483-3.375h-2.171c-0.229,0-0.469-0.24-0.721-0.721v-0.237h0.967c1.096,0,2.06,0.079,2.892,0.237
			C36.671,11.262,38.036,11.101,38.347,10.989z M36.905,4.96l0.237,1.213c-0.193,2.086-1.239,3.129-3.138,3.129l-0.237-0.483V8.335
			c0-1.225,0.724-2.35,2.171-3.375H36.905z M35.938,5.927l-1.204,2.171h0.237c0.732-0.311,1.134-0.633,1.204-0.967V5.927H35.938z
			 M42.688,6.173v4.096c0,0.158-0.082,0.237-0.246,0.237c0,0.164,0.082,0.246,0.246,0.246l-0.246,1.204v0.721l0.246,1.688
			l-0.483,0.246h-0.483c0-0.176-0.079-0.419-0.237-0.729l0.237-0.483l-0.237-1.204h0.237l-0.237-0.483v-0.237
			c0-0.158,0.079-0.237,0.237-0.237l-0.237-0.483c0.117-2.25,0.278-3.375,0.483-3.375l-0.246-0.483V6.41
			C41.804,6.41,42.126,6.331,42.688,6.173z"/>
		<path fill="#7D2991" d="M56.146,8.836c0.322,0.047,0.483,0.208,0.483,0.483v2.883H58.8l1.195,0.237v0.483l-0.237,0.483
			c-1.166-0.281-3.492-0.521-6.979-0.721v-0.967c0.416,0,1.38,0.161,2.892,0.483V9.319C55.718,8.997,55.876,8.836,56.146,8.836z
			 M54.467,14.848v2.408c0,0.229,0.24,0.469,0.721,0.721h0.958l1.688-0.237l0.237,0.483v0.721h-0.237
			c-0.158,0-0.237-0.082-0.237-0.246l-1.204,0.246h-0.721c-1.447-0.322-2.171-0.724-2.171-1.204v-2.646
			C53.583,15.094,53.905,15.012,54.467,14.848z M58.317,3.536l0.237,0.483v2.892c0,0.229-0.24,0.469-0.721,0.721h-2.408
			c-0.48,0-0.721-1.204-0.721-3.612C55.671,3.697,56.875,3.536,58.317,3.536z M55.671,4.986l0.237,1.679h1.441l0.246-1.204V4.503
			C56.313,4.608,55.671,4.77,55.671,4.986z"/>
		<path fill="#7D2991" d="M61.709,13.89c2.355,0.48,4.685,0.721,6.987,0.721c0.357,0,0.677-0.079,0.958-0.237
			c0.316,0.158,0.56,0.237,0.729,0.237v0.729H67.73c-2.783,0-4.951-0.161-6.504-0.483V14.61L61.709,13.89z M64.601,5.461h3.375
			c0.316,0.047,0.475,0.205,0.475,0.475v0.246h-2.408c-0.961,0-1.441,0.48-1.441,1.441c1.207,0.645,2.332,0.967,3.375,0.967v0.483
			c0,0.322-0.161,0.483-0.483,0.483c-1.57-0.486-2.534-0.729-2.892-0.729v1.45c0.873,0,2.077,0.161,3.612,0.483v0.721
			c-3.053-0.199-4.579-0.521-4.579-0.967v-0.237c0-0.363,0.082-0.686,0.246-0.967C63.716,9,63.634,8.76,63.634,8.59h0.246
			l-0.246-0.483V7.148C63.634,6.281,63.957,5.719,64.601,5.461z"/>
		<path fill="#7D2991" d="M78.848,3.272V3.51c0,0.727,0.161,2.095,0.483,4.104c-1.271,0.715-3.442,1.356-6.513,1.925l-0.237,0.483
			v1.688l4.342,0.483c0.24-0.158,0.721-0.237,1.441-0.237l0.246,0.483v0.237l-1.45,0.246c-2.309,0-3.996-0.161-5.062-0.483
			c0,0.158-0.082,0.237-0.246,0.237l-0.237-1.688V9.785c0-0.967,0.724-1.45,2.171-1.45c2.783-0.58,4.31-1.061,4.579-1.441
			c-0.316-1.002-0.475-1.808-0.475-2.417h-0.483c-0.668,0-1.553,0.082-2.654,0.246c-0.311-0.164-0.554-0.246-0.729-0.246V3.993
			c0.053-0.322,0.214-0.483,0.483-0.483h2.654L78.848,3.272z M84.64,3.51h0.237c0.322,0.053,0.483,0.214,0.483,0.483v1.204
			c0,1.482,0.082,3.574,0.246,6.275c-0.164,0.311-0.246,0.551-0.246,0.721h-0.237c-0.322,0-0.483-0.161-0.483-0.483
			c0-1.676-0.161-4.327-0.483-7.954L84.64,3.51z"/>
		<path fill="#7D2991" d="M89.72,12.439h0.246c2.402,0.047,3.604,0.208,3.604,0.483c0.322,1.289,0.483,2.092,0.483,2.408v1.441
			c-4.172,0-6.258,0.562-6.258,1.688c0.615,0.48,1.339,0.721,2.171,0.721h0.237l2.892-0.246v0.721c0,0.322-0.161,0.483-0.483,0.483
			h-0.721c-0.164,0-0.246-0.079-0.246-0.237c-0.311,0.158-0.551,0.237-0.721,0.237c-2.725,0-4.087-0.48-4.087-1.441V17.73
			c0-0.797,2.086-1.436,6.258-1.916v-0.246c0-0.24-0.161-0.961-0.483-2.162H89.72V12.439z M91.408,7.869h0.958v2.171h0.246
			c0.258,0,1.219-0.082,2.883-0.246v0.721c0,0.322-0.161,0.483-0.483,0.483c-0.158,0-0.237-0.079-0.237-0.237l-1.204,0.237h-3.366
			c-1.605,0-2.408-0.161-2.408-0.483c0.164-0.311,0.246-0.551,0.246-0.721h0.483l2.883,0.246L91.17,9.557l0.237-0.483L91.17,8.599
			C91.329,8.282,91.408,8.039,91.408,7.869z M93.095,2.341c0,0.223,0.24,0.703,0.721,1.441c-0.545,1.928-1.509,2.892-2.892,2.892
			h-0.237c-0.322,0-0.483-0.161-0.483-0.483V4.986C91.024,3.223,91.988,2.341,93.095,2.341z M91.17,5.707
			c0.592,0,1.151-0.56,1.679-1.679c-0.158-0.311-0.237-0.554-0.237-0.729C92.096,3.299,91.616,4.102,91.17,5.707z"/>
		<path fill="#7D2991" d="M107.958,12.202h1.037v2.065l0.255,1.283c-0.346,0.053-0.519,0.226-0.519,0.519l1.292-0.255h1.802v0.773
			c0,0.34-0.17,0.51-0.51,0.51c-4.6-0.17-7.438-0.255-8.517-0.255l-1.028-0.255v-1.037h1.802l-0.255-3.094h1.028
			c0.346,2.062,0.519,3.182,0.519,3.357h1.802c0.176,0,0.264,0.085,0.264,0.255l0.519-0.255h0.255l0.519,0.255l-0.264-0.519V12.202z
			 M110.023,5.496c0.346,0.346,0.688,1.635,1.028,3.867c-0.217,0.861-0.475,1.292-0.773,1.292h-0.51V8.59
			c0-1.377-0.346-2.065-1.037-2.065c-0.867,0.176-2.071,0.264-3.612,0.264V6.015C106.783,5.669,108.417,5.496,110.023,5.496z"/>
		<path fill="#7D2991" d="M113.292,4.978h2.171c0.961,0.1,1.441,0.34,1.441,0.721v0.246c-0.469,2.244-1.11,3.366-1.925,3.366
			c-0.639,0.164-1.201,0.246-1.688,0.246l-0.237-0.483V7.869L113.292,4.978z M114.259,5.698l-0.237,2.408v0.246
			c1.102,0,1.743-0.803,1.925-2.408h-1.204L114.259,5.698z M115.226,12.448h0.475c0.322,0.047,0.483,0.205,0.483,0.475v2.654
			c0.1,0.48,0.741,0.721,1.925,0.721h0.729l1.204-0.237l0.475,0.721v0.237c-0.48,0-0.721,0.082-0.721,0.246l-1.204-0.246h-3.129
			l-0.237-1.688V12.448z M121,4.257h0.721c0,0.17,0.082,0.41,0.246,0.721c-0.322,1.283-0.483,2.648-0.483,4.096v1.204h-0.967V10.04
			C120.517,7.614,120.678,5.687,121,4.257z"/>
		<path fill="#7D2991" d="M128.726,8.106c2.648,0.322,4.734,0.483,6.258,0.483h1.925c0.322,0.053,0.483,0.214,0.483,0.483v0.483
			c-0.322,0-0.483,0.079-0.483,0.237l-1.204-0.237h-1.925v2.162c0,0.322-0.161,0.483-0.483,0.483c-0.316,0-0.557-0.882-0.721-2.646
			c0.164,0,0.246-0.082,0.246-0.246c-1.605-0.158-2.81-0.237-3.612-0.237h-0.483c-0.322,0-0.483-0.161-0.483-0.483
			C128.295,8.268,128.456,8.106,128.726,8.106z M129.684,1.611c2.25,0,3.375,0.319,3.375,0.958l-0.237,1.688
			c1.764,0.785,2.646,1.348,2.646,1.688v0.237c0,0.322-0.161,0.483-0.483,0.483h-0.237c-1.523-1.125-2.326-1.688-2.408-1.688
			l-1.925,1.688h-0.729V5.698c0.592,0,1.075-0.319,1.45-0.958c0.48-0.264,0.721-0.905,0.721-1.925c-0.539,0-0.94-0.082-1.204-0.246
			l-0.483,0.246c-0.311-0.164-0.551-0.246-0.721-0.246V2.086L129.684,1.611z M130.413,12.923c1.922,0.322,2.965,0.483,3.129,0.483
			c0.311-0.158,0.551-0.237,0.721-0.237l0.237,0.483v1.925c0,2.086-0.24,3.129-0.721,3.129h-0.483
			c0.164-1.605,0.246-2.81,0.246-3.612v-0.967h-0.246c-2.408,0-3.612-0.24-3.612-0.721
			C129.684,13.084,129.927,12.923,130.413,12.923z M131.617-0.56h0.475c0.223,0.012,0.545,0.413,0.967,1.204v0.237
			c0,0.322-0.161,0.483-0.483,0.483h-0.483c0-0.252-0.158-0.571-0.475-0.958V-0.56z"/>
		<path fill="#7D2991" d="M141.03,7.852h0.967c0.322,0.053,0.483,0.214,0.483,0.483v0.246c0,0.34-0.24,1.383-0.721,3.129
			c2.092,1.254,3.138,1.978,3.138,2.171v0.246h-0.246c-0.48,0-1.605-0.483-3.375-1.45c-0.322,1.289-0.645,1.934-0.967,1.934h-0.721
			c1.125-3.047,1.688-4.896,1.688-5.546V8.818l-2.417,0.246h-0.237V8.098L141.03,7.852z M148.756,7.131h0.958v4.104l0.246,1.204
			l-0.483,0.237h-0.721v-2.654h-1.213c-0.158,0-0.237-0.079-0.237-0.237l-0.483,0.237l-1.45-0.237V9.064
			c0.322,0,0.483-0.082,0.483-0.246l1.213,0.246h1.688V7.131z M152.131,6.647c0.322,0.053,0.483,0.214,0.483,0.483v6.75
			c0,0.322-0.161,0.483-0.483,0.483s-0.483-0.161-0.483-0.483v-6.75C151.7,6.809,151.861,6.647,152.131,6.647z"/>
	</g>
</g>
</svg>
