<?xml version="1.0" encoding="utf-8"?>
<!-- Generator: Adobe Illustrator 16.0.0, SVG Export Plug-In . SVG Version: 6.00 Build 0)  -->
<!DOCTYPE svg PUBLIC "-//W3C//DTD SVG 1.1//EN" "http://www.w3.org/Graphics/SVG/1.1/DTD/svg11.dtd">
<svg version="1.1" id="Layer_1" xmlns="http://www.w3.org/2000/svg" xmlns:xlink="http://www.w3.org/1999/xlink" x="0px" y="0px"
	 width="200px" height="66px" viewBox="0 0 200 66" enable-background="new 0 0 200 66" xml:space="preserve">
<g enable-background="new    ">
	<path fill="#010101" d="M29.5,49.449h-6.551c0.336-0.602,0.574-1.221,0.714-1.858c0.14-0.637,0.21-1.249,0.21-1.837l-1.81-23.432
		l-6.799,5.627l-6.518-5.501L6.95,45.754c0,0.63,0.066,1.246,0.199,1.848c0.133,0.602,0.375,1.218,0.725,1.848H1.323
		c0.49-0.714,0.871-1.386,1.145-2.016c0.272-0.63,0.409-1.204,0.409-1.722c0.238-2.548,0.504-5.543,0.798-8.986
		s0.557-6.694,0.787-9.753c0.231-3.058,0.347-4.832,0.347-5.322c0-0.756-0.035-1.344-0.105-1.764
		c-0.126-0.742-0.371-1.386-0.735-1.932h7.013c0.084,0.378,0.217,0.725,0.399,1.039c0.182,0.315,0.399,0.599,0.651,0.851
		l3.233,3.065l3.485-3.023c0.532-0.448,0.938-1.092,1.218-1.932h7.055c-0.378,0.56-0.612,1.123-0.703,1.69
		c-0.091,0.566-0.137,1.235-0.137,2.005c0,0.672,0.098,2.464,0.294,5.375c0.126,1.945,0.364,5.151,0.714,9.616
		c0.294,3.863,0.546,6.887,0.756,9.07c0,0.49,0.14,1.057,0.42,1.7C28.646,48.057,29.024,48.735,29.5,49.449z M28.576,48.945
		c-0.336-0.574-0.595-1.092-0.777-1.554c-0.238-0.616-0.357-1.162-0.357-1.638c-0.21-2.296-0.462-5.326-0.756-9.092
		c-0.224-2.953-0.448-6.074-0.672-9.363c-0.224-3.29-0.336-5.173-0.336-5.648c0-0.798,0.021-1.421,0.063-1.869
		c0.042-0.447,0.175-0.889,0.399-1.322h-5.795c-0.168,0.422-0.339,0.77-0.515,1.043c-0.175,0.274-0.421,0.545-0.74,0.812
		l-3.795,3.264l-3.6-3.355c-0.252-0.224-0.474-0.486-0.662-0.787c-0.189-0.301-0.347-0.626-0.473-0.976H4.851
		c0.154,0.294,0.27,0.683,0.347,1.165c0.077,0.483,0.115,1.158,0.115,2.026c0,0.616-0.112,2.4-0.336,5.354
		c-0.07,0.98-0.336,4.192-0.798,9.638c-0.308,3.695-0.574,6.732-0.798,9.112c0,0.462-0.108,0.97-0.325,1.522
		c-0.217,0.553-0.487,1.109-0.809,1.669h4.787c-0.21-0.448-0.36-0.952-0.451-1.512c-0.091-0.56-0.137-1.12-0.137-1.68l1.883-24.4
		l6.939,5.938l7.263-6.065l1.846,24.527c0,0.63-0.039,1.193-0.115,1.69c-0.077,0.497-0.235,0.997-0.473,1.501H28.576z"/>
	<path fill="#010101" d="M50.538,49.449H32.188c0.378-0.56,0.623-1.197,0.735-1.91c0.07-0.42,0.105-1.016,0.105-1.785V21.65
		c0-0.756-0.035-1.344-0.105-1.764c-0.126-0.742-0.371-1.386-0.735-1.932h16.587v5.207c-0.686-0.434-1.232-0.721-1.638-0.861
		c-0.532-0.182-1.218-0.272-2.058-0.272h-7.979v1.68h10.498v4.073H37.101v17.595h9.742c0.924,0,1.714-0.14,2.373-0.42
		c0.154-0.07,0.595-0.308,1.323-0.714V49.449z M50.034,48.945v-3.863c-0.49,0.28-0.962,0.482-1.417,0.609
		c-0.455,0.125-1.047,0.188-1.774,0.188H36.597V27.277h10.498v-3.065H36.597v-2.688h8.482c0.756,0,1.361,0.063,1.816,0.188
		c0.455,0.127,0.913,0.329,1.375,0.609v-3.863H33.069c0.154,0.294,0.27,0.683,0.347,1.165c0.077,0.483,0.115,1.158,0.115,2.026
		v24.104c0,0.728-0.028,1.33-0.084,1.806c-0.056,0.476-0.196,0.938-0.42,1.386H50.034z"/>
	<path fill="#010101" d="M72.374,49.701c-3.317-0.798-6.376-2.128-9.175-3.989c-3.038-2.029-5.41-4.438-7.118-7.223
		c-1.904-3.094-2.855-6.453-2.855-10.078c0-3.094,0.92-5.651,2.761-7.674c1.841-2.022,4.154-3.034,6.939-3.034
		c0.826,0,1.603,0.021,2.331,0.062c2.184,0.127,3.422,0.189,3.716,0.189v5.501c-0.966-0.644-1.851-1.092-2.656-1.344
		c-0.805-0.252-1.725-0.378-2.761-0.378c-1.806,0-3.265,0.634-4.378,1.9c-1.112,1.267-1.669,2.942-1.669,5.028
		c0,2.953,0.924,5.76,2.771,8.419c1.596,2.296,3.625,4.192,6.089,5.69c2.253,1.372,4.255,2.058,6.005,2.058V49.701z M71.87,49.019
		v-3.685c-1.708,0-3.703-0.721-5.984-2.162c-2.478-1.568-4.507-3.521-6.089-5.858c-1.862-2.758-2.792-5.641-2.792-8.65
		c0-2.226,0.605-4.021,1.816-5.386c1.21-1.364,2.789-2.047,4.734-2.047c1.861,0,3.499,0.434,4.913,1.302v-4.073
		c-0.952-0.084-1.851-0.146-2.698-0.189c-0.847-0.041-1.795-0.062-2.845-0.062c-2.646,0-4.84,0.969-6.582,2.907
		c-1.743,1.938-2.614,4.369-2.614,7.293c0,3.471,0.91,6.71,2.729,9.718c1.638,2.715,3.891,5.052,6.761,7.011
		C65.893,46.955,68.776,48.249,71.87,49.019z"/>
	<path fill="#010101" d="M93.58,49.449h-5.711c0.378-0.56,0.623-1.197,0.735-1.91c0.07-0.42,0.105-1.016,0.105-1.785v-5.879h-9.154
		c0,0.378-0.007,0.979-0.021,1.806c-0.014,0.826-0.021,1.448-0.021,1.868c0,1.372,0.056,2.541,0.168,3.507
		c0.112,0.966,0.336,1.764,0.672,2.394h-5.879c0.406-0.602,0.703-1.218,0.893-1.848c0.188-0.63,0.283-1.246,0.283-1.848v-4.745
		c0-3.64,0.759-7.254,2.278-10.845c1.519-3.59,3.58-6.498,6.183-8.724c2.785-2.38,5.508-3.569,8.167-3.569c0.21,0,0.389,0,0.535,0
		c0.147,0,0.402,0.028,0.767,0.084c-0.322,0.56-0.535,1.131-0.641,1.711c-0.104,0.581-0.157,1.2-0.157,1.858v24.229
		c0,0.728,0.035,1.302,0.105,1.722C93.013,48.176,93.244,48.833,93.58,49.449z M92.782,48.945c-0.196-0.504-0.329-1.019-0.399-1.543
		c-0.07-0.525-0.105-1.074-0.105-1.648V21.524c0-0.714,0.028-1.273,0.084-1.68c0.056-0.406,0.196-0.882,0.42-1.428l-0.63-0.042
		c-2.506,0.028-5.088,1.211-7.748,3.549c-2.478,2.184-4.472,5.024-5.984,8.523c-1.512,3.5-2.268,7.021-2.268,10.562v4.745
		c0,1.021-0.266,2.086-0.798,3.191h4.22c-0.224-0.63-0.375-1.354-0.452-2.173c-0.077-0.819-0.115-1.81-0.115-2.972
		c0-0.713,0.011-1.627,0.031-2.739c0.021-1.113,0.032-1.677,0.032-1.69h10.141v6.383c0,0.644-0.028,1.211-0.084,1.701
		c-0.056,0.489-0.196,0.986-0.42,1.49H92.782z M89.213,36.474h-9.637c0.238-1.498,0.75-3.163,1.536-4.997
		c0.912-2.155,2.006-4.045,3.283-5.669c1.515-1.932,3.121-3.262,4.818-3.989V36.474z M88.709,35.97V22.532
		c-1.459,0.784-2.841,2.051-4.146,3.8c-1.123,1.498-2.098,3.206-2.926,5.123c-0.702,1.61-1.193,3.115-1.473,4.515H88.709z"/>
</g>
<g enable-background="new    ">
	<path fill="none" stroke="#010101" stroke-width="0.7" stroke-miterlimit="10" d="M29.5,49.449h-6.551
		c0.336-0.602,0.574-1.221,0.714-1.858c0.14-0.637,0.21-1.249,0.21-1.837l-1.81-23.432l-6.799,5.627l-6.518-5.501L6.95,45.754
		c0,0.63,0.066,1.246,0.199,1.848c0.133,0.602,0.375,1.218,0.725,1.848H1.323c0.49-0.714,0.871-1.386,1.145-2.016
		c0.272-0.63,0.409-1.204,0.409-1.722c0.238-2.548,0.504-5.543,0.798-8.986s0.557-6.694,0.787-9.753
		c0.231-3.058,0.347-4.832,0.347-5.322c0-0.756-0.035-1.344-0.105-1.764c-0.126-0.742-0.371-1.386-0.735-1.932h7.013
		c0.084,0.378,0.217,0.725,0.399,1.039c0.182,0.315,0.399,0.599,0.651,0.851l3.233,3.065l3.485-3.023
		c0.532-0.448,0.938-1.092,1.218-1.932h7.055c-0.378,0.56-0.612,1.123-0.703,1.69c-0.091,0.566-0.137,1.235-0.137,2.005
		c0,0.672,0.098,2.464,0.294,5.375c0.126,1.945,0.364,5.151,0.714,9.616c0.294,3.863,0.546,6.887,0.756,9.07
		c0,0.49,0.14,1.057,0.42,1.7C28.646,48.057,29.024,48.735,29.5,49.449z M28.576,48.945c-0.336-0.574-0.595-1.092-0.777-1.554
		c-0.238-0.616-0.357-1.162-0.357-1.638c-0.21-2.296-0.462-5.326-0.756-9.092c-0.224-2.953-0.448-6.074-0.672-9.363
		c-0.224-3.29-0.336-5.173-0.336-5.648c0-0.798,0.021-1.421,0.063-1.869c0.042-0.447,0.175-0.889,0.399-1.322h-5.795
		c-0.168,0.422-0.339,0.77-0.515,1.043c-0.175,0.274-0.421,0.545-0.74,0.812l-3.795,3.264l-3.6-3.355
		c-0.252-0.224-0.474-0.486-0.662-0.787c-0.189-0.301-0.347-0.626-0.473-0.976H4.851c0.154,0.294,0.27,0.683,0.347,1.165
		c0.077,0.483,0.115,1.158,0.115,2.026c0,0.616-0.112,2.4-0.336,5.354c-0.07,0.98-0.336,4.192-0.798,9.638
		c-0.308,3.695-0.574,6.732-0.798,9.112c0,0.462-0.108,0.97-0.325,1.522c-0.217,0.553-0.487,1.109-0.809,1.669h4.787
		c-0.21-0.448-0.36-0.952-0.451-1.512c-0.091-0.56-0.137-1.12-0.137-1.68l1.883-24.4l6.939,5.938l7.263-6.065l1.846,24.527
		c0,0.63-0.039,1.193-0.115,1.69c-0.077,0.497-0.235,0.997-0.473,1.501H28.576z"/>
	<path fill="none" stroke="#010101" stroke-width="0.7" stroke-miterlimit="10" d="M50.538,49.449H32.188
		c0.378-0.56,0.623-1.197,0.735-1.91c0.07-0.42,0.105-1.016,0.105-1.785V21.65c0-0.756-0.035-1.344-0.105-1.764
		c-0.126-0.742-0.371-1.386-0.735-1.932h16.587v5.207c-0.686-0.434-1.232-0.721-1.638-0.861c-0.532-0.182-1.218-0.272-2.058-0.272
		h-7.979v1.68h10.498v4.073H37.101v17.595h9.742c0.924,0,1.714-0.14,2.373-0.42c0.154-0.07,0.595-0.308,1.323-0.714V49.449z
		 M50.034,48.945v-3.863c-0.49,0.28-0.962,0.482-1.417,0.609c-0.455,0.125-1.047,0.188-1.774,0.188H36.597V27.277h10.498v-3.065
		H36.597v-2.688h8.482c0.756,0,1.361,0.063,1.816,0.188c0.455,0.127,0.913,0.329,1.375,0.609v-3.863H33.069
		c0.154,0.294,0.27,0.683,0.347,1.165c0.077,0.483,0.115,1.158,0.115,2.026v24.104c0,0.728-0.028,1.33-0.084,1.806
		c-0.056,0.476-0.196,0.938-0.42,1.386H50.034z"/>
	<path fill="none" stroke="#010101" stroke-width="0.7" stroke-miterlimit="10" d="M72.374,49.701
		c-3.317-0.798-6.376-2.128-9.175-3.989c-3.038-2.029-5.41-4.438-7.118-7.223c-1.904-3.094-2.855-6.453-2.855-10.078
		c0-3.094,0.92-5.651,2.761-7.674c1.841-2.022,4.154-3.034,6.939-3.034c0.826,0,1.603,0.021,2.331,0.062
		c2.184,0.127,3.422,0.189,3.716,0.189v5.501c-0.966-0.644-1.851-1.092-2.656-1.344c-0.805-0.252-1.725-0.378-2.761-0.378
		c-1.806,0-3.265,0.634-4.378,1.9c-1.112,1.267-1.669,2.942-1.669,5.028c0,2.953,0.924,5.76,2.771,8.419
		c1.596,2.296,3.625,4.192,6.089,5.69c2.253,1.372,4.255,2.058,6.005,2.058V49.701z M71.87,49.019v-3.685
		c-1.708,0-3.703-0.721-5.984-2.162c-2.478-1.568-4.507-3.521-6.089-5.858c-1.862-2.758-2.792-5.641-2.792-8.65
		c0-2.226,0.605-4.021,1.816-5.386c1.21-1.364,2.789-2.047,4.734-2.047c1.861,0,3.499,0.434,4.913,1.302v-4.073
		c-0.952-0.084-1.851-0.146-2.698-0.189c-0.847-0.041-1.795-0.062-2.845-0.062c-2.646,0-4.84,0.969-6.582,2.907
		c-1.743,1.938-2.614,4.369-2.614,7.293c0,3.471,0.91,6.71,2.729,9.718c1.638,2.715,3.891,5.052,6.761,7.011
		C65.893,46.955,68.776,48.249,71.87,49.019z"/>
	<path fill="none" stroke="#010101" stroke-width="0.7" stroke-miterlimit="10" d="M93.58,49.449h-5.711
		c0.378-0.56,0.623-1.197,0.735-1.91c0.07-0.42,0.105-1.016,0.105-1.785v-5.879h-9.154c0,0.378-0.007,0.979-0.021,1.806
		c-0.014,0.826-0.021,1.448-0.021,1.868c0,1.372,0.056,2.541,0.168,3.507c0.112,0.966,0.336,1.764,0.672,2.394h-5.879
		c0.406-0.602,0.703-1.218,0.893-1.848c0.188-0.63,0.283-1.246,0.283-1.848v-4.745c0-3.64,0.759-7.254,2.278-10.845
		c1.519-3.59,3.58-6.498,6.183-8.724c2.785-2.38,5.508-3.569,8.167-3.569c0.21,0,0.389,0,0.535,0c0.147,0,0.402,0.028,0.767,0.084
		c-0.322,0.56-0.535,1.131-0.641,1.711c-0.104,0.581-0.157,1.2-0.157,1.858v24.229c0,0.728,0.035,1.302,0.105,1.722
		C93.013,48.176,93.244,48.833,93.58,49.449z M92.782,48.945c-0.196-0.504-0.329-1.019-0.399-1.543
		c-0.07-0.525-0.105-1.074-0.105-1.648V21.524c0-0.714,0.028-1.273,0.084-1.68c0.056-0.406,0.196-0.882,0.42-1.428l-0.63-0.042
		c-2.506,0.028-5.088,1.211-7.748,3.549c-2.478,2.184-4.472,5.024-5.984,8.523c-1.512,3.5-2.268,7.021-2.268,10.562v4.745
		c0,1.021-0.266,2.086-0.798,3.191h4.22c-0.224-0.63-0.375-1.354-0.452-2.173c-0.077-0.819-0.115-1.81-0.115-2.972
		c0-0.713,0.011-1.627,0.031-2.739c0.021-1.113,0.032-1.677,0.032-1.69h10.141v6.383c0,0.644-0.028,1.211-0.084,1.701
		c-0.056,0.489-0.196,0.986-0.42,1.49H92.782z M89.213,36.474h-9.637c0.238-1.498,0.75-3.163,1.536-4.997
		c0.912-2.155,2.006-4.045,3.283-5.669c1.515-1.932,3.121-3.262,4.818-3.989V36.474z M88.709,35.97V22.532
		c-1.459,0.784-2.841,2.051-4.146,3.8c-1.123,1.498-2.098,3.206-2.926,5.123c-0.702,1.61-1.193,3.115-1.473,4.515H88.709z"/>
</g>
</svg>
