<?xml version="1.0" encoding="utf-8"?>
<!-- Generator: Adobe Illustrator 16.0.0, SVG Export Plug-In . SVG Version: 6.00 Build 0)  -->
<!DOCTYPE svg PUBLIC "-//W3C//DTD SVG 1.1//EN" "http://www.w3.org/Graphics/SVG/1.1/DTD/svg11.dtd">
<svg version="1.1" xmlns="http://www.w3.org/2000/svg" xmlns:xlink="http://www.w3.org/1999/xlink" x="0px" y="0px" width="232px"
	 height="172px" viewBox="0 0 232 172" enable-background="new 0 0 232 172" xml:space="preserve">
<g id="background" display="none">
	<rect x="-309" y="-99" display="inline" fill="#59B3AD" width="800" height="800"/>
	<g display="inline">
		<g>
			<path fill="#FFFFFF" d="M-20.508,675.287v-0.258c-0.349,0.398-0.692,0.725-1.031,0.973c-0.338,0.252-0.706,0.441-1.102,0.57
				c-0.396,0.133-0.827,0.195-1.296,0.195c-0.621,0-1.196-0.131-1.725-0.393c-0.528-0.264-0.986-0.639-1.372-1.127
				c-0.387-0.486-0.68-1.059-0.879-1.719c-0.199-0.658-0.299-1.371-0.299-2.137c0-1.621,0.396-2.885,1.188-3.791
				c0.792-0.904,1.833-1.357,3.125-1.357c0.747,0,1.377,0.129,1.89,0.385c0.513,0.256,1.013,0.652,1.501,1.182v-3.826
				c0-0.533,0.105-0.934,0.318-1.207c0.211-0.271,0.514-0.408,0.907-0.408c0.393,0,0.694,0.125,0.907,0.375
				c0.212,0.252,0.318,0.619,0.318,1.107v11.436c0,0.494-0.113,0.863-0.342,1.111c-0.228,0.246-0.522,0.369-0.883,0.369
				c-0.354,0-0.647-0.127-0.879-0.383C-20.393,676.127-20.508,675.762-20.508,675.287z M-25.608,671.479
				c0,0.703,0.109,1.301,0.328,1.795c0.219,0.494,0.518,0.865,0.897,1.115c0.38,0.25,0.795,0.377,1.244,0.377
				c0.456,0,0.872-0.119,1.25-0.357c0.376-0.236,0.677-0.602,0.902-1.092c0.225-0.49,0.337-1.105,0.337-1.838
				c0-0.691-0.112-1.285-0.337-1.783c-0.225-0.496-0.528-0.875-0.912-1.139c-0.383-0.262-0.803-0.393-1.258-0.393
				c-0.475,0-0.899,0.135-1.273,0.402c-0.374,0.27-0.663,0.654-0.869,1.158C-25.506,670.229-25.608,670.812-25.608,671.479z"/>
			<path fill="#FFFFFF" d="M-9.074,672.135h-5.071c0.006,0.588,0.125,1.107,0.356,1.557c0.23,0.449,0.538,0.789,0.921,1.016
				c0.383,0.229,0.806,0.342,1.268,0.342c0.31,0,0.593-0.035,0.85-0.107c0.257-0.074,0.505-0.188,0.746-0.344
				c0.241-0.154,0.462-0.32,0.665-0.498c0.202-0.178,0.464-0.42,0.788-0.723c0.133-0.113,0.323-0.172,0.571-0.172
				c0.266,0,0.48,0.074,0.645,0.221c0.165,0.146,0.248,0.35,0.248,0.617c0,0.234-0.093,0.506-0.275,0.82
				c-0.185,0.314-0.462,0.615-0.832,0.902c-0.372,0.289-0.835,0.527-1.397,0.717c-0.56,0.191-1.204,0.285-1.933,0.285
				c-1.665,0-2.96-0.475-3.884-1.424s-1.386-2.238-1.386-3.865c0-0.768,0.113-1.479,0.341-2.133
				c0.229-0.656,0.561-1.217,0.997-1.686c0.437-0.469,0.975-0.828,1.615-1.078c0.639-0.25,1.349-0.375,2.127-0.375
				c1.013,0,1.882,0.213,2.606,0.641c0.726,0.428,1.27,0.98,1.63,1.656c0.36,0.678,0.542,1.369,0.542,2.07
				c0,0.654-0.187,1.076-0.56,1.27S-8.396,672.135-9.074,672.135z M-14.146,670.662h4.702c-0.062-0.887-0.303-1.551-0.717-1.99
				c-0.415-0.441-0.96-0.66-1.638-0.66c-0.646,0-1.177,0.223-1.591,0.668C-13.805,669.127-14.056,669.787-14.146,670.662z"/>
			<path fill="#FFFFFF" d="M2.741,673.377c0,0.715-0.173,1.328-0.522,1.838c-0.348,0.51-0.862,0.896-1.543,1.16
				c-0.68,0.262-1.508,0.393-2.483,0.393c-0.931,0-1.729-0.143-2.394-0.428c-0.665-0.283-1.156-0.641-1.472-1.066
				c-0.317-0.43-0.475-0.857-0.475-1.289c0-0.285,0.101-0.527,0.304-0.73c0.202-0.201,0.459-0.303,0.77-0.303
				c0.271,0,0.48,0.066,0.626,0.199s0.286,0.32,0.417,0.559c0.266,0.465,0.585,0.807,0.956,1.037
				c0.37,0.227,0.875,0.342,1.515,0.342c0.519,0,0.945-0.117,1.277-0.348c0.332-0.232,0.498-0.496,0.498-0.793
				c0-0.457-0.172-0.787-0.518-0.996c-0.345-0.209-0.914-0.41-1.705-0.6c-0.893-0.221-1.619-0.455-2.18-0.699
				c-0.561-0.242-1.008-0.564-1.344-0.963s-0.503-0.891-0.503-1.473c0-0.518,0.155-1.01,0.465-1.473
				c0.311-0.461,0.768-0.83,1.374-1.105c0.604-0.275,1.333-0.414,2.188-0.414c0.671,0,1.275,0.07,1.809,0.211
				c0.536,0.137,0.983,0.326,1.34,0.561c0.358,0.232,0.63,0.492,0.816,0.777s0.28,0.562,0.28,0.836c0,0.297-0.1,0.541-0.298,0.732
				c-0.199,0.188-0.482,0.285-0.851,0.285c-0.266,0-0.492-0.076-0.679-0.23c-0.187-0.15-0.4-0.379-0.641-0.682
				c-0.196-0.254-0.426-0.457-0.693-0.609c-0.266-0.152-0.627-0.227-1.083-0.227c-0.469,0-0.857,0.098-1.168,0.299
				c-0.31,0.199-0.465,0.447-0.465,0.744c0,0.273,0.114,0.496,0.341,0.67c0.229,0.176,0.535,0.32,0.922,0.434
				c0.386,0.113,0.917,0.252,1.596,0.416c0.803,0.197,1.46,0.432,1.97,0.703c0.509,0.271,0.896,0.594,1.16,0.965
				C2.61,672.48,2.741,672.902,2.741,673.377z"/>
			<path fill="#FFFFFF" d="M5.39,665.02c-0.361,0-0.669-0.111-0.926-0.332s-0.385-0.535-0.385-0.941
				c0-0.367,0.131-0.668,0.394-0.906s0.569-0.357,0.917-0.357c0.336,0,0.633,0.107,0.893,0.324c0.26,0.215,0.39,0.527,0.39,0.939
				c0,0.4-0.127,0.711-0.381,0.936C6.039,664.906,5.738,665.02,5.39,665.02z M6.672,667.697v7.494c0,0.52-0.124,0.912-0.371,1.178
				c-0.248,0.266-0.56,0.398-0.94,0.398s-0.689-0.135-0.926-0.408c-0.238-0.271-0.356-0.662-0.356-1.168v-7.418
				c0-0.512,0.118-0.898,0.356-1.158c0.237-0.26,0.546-0.391,0.926-0.391s0.693,0.131,0.94,0.391
				C6.549,666.875,6.672,667.236,6.672,667.697z"/>
			<path fill="#FFFFFF" d="M18.031,668.125v7.531c0,0.861-0.093,1.604-0.277,2.225c-0.182,0.619-0.477,1.133-0.883,1.537
				c-0.405,0.404-0.936,0.707-1.59,0.902c-0.655,0.197-1.471,0.295-2.446,0.295c-0.893,0-1.69-0.125-2.394-0.375
				c-0.702-0.252-1.243-0.574-1.624-0.969c-0.379-0.396-0.57-0.803-0.57-1.221c0-0.316,0.108-0.576,0.324-0.773
				c0.215-0.201,0.475-0.301,0.778-0.301c0.38,0,0.712,0.168,0.998,0.504c0.139,0.17,0.283,0.344,0.432,0.518
				c0.149,0.176,0.314,0.324,0.494,0.447c0.181,0.123,0.397,0.215,0.65,0.275c0.253,0.059,0.545,0.09,0.874,0.09
				c0.671,0,1.192-0.094,1.563-0.281c0.371-0.186,0.63-0.447,0.779-0.783c0.149-0.334,0.236-0.693,0.261-1.078
				c0.025-0.383,0.044-0.998,0.057-1.848c-0.399,0.559-0.859,0.982-1.382,1.273c-0.522,0.291-1.145,0.438-1.866,0.438
				c-0.868,0-1.625-0.223-2.275-0.666c-0.648-0.443-1.147-1.062-1.495-1.861c-0.349-0.799-0.522-1.719-0.522-2.764
				c0-0.777,0.105-1.482,0.317-2.107c0.213-0.629,0.515-1.156,0.907-1.588c0.393-0.43,0.845-0.754,1.358-0.973
				s1.076-0.328,1.691-0.328c0.734,0,1.371,0.143,1.909,0.422c0.538,0.283,1.039,0.725,1.5,1.326v-0.352
				c0-0.449,0.11-0.797,0.332-1.045c0.222-0.246,0.507-0.371,0.855-0.371c0.5,0,0.832,0.164,0.997,0.49
				C17.948,667.041,18.031,667.512,18.031,668.125z M10.518,671.412c0,1.051,0.229,1.846,0.688,2.383
				c0.459,0.539,1.053,0.809,1.781,0.809c0.43,0,0.837-0.117,1.22-0.348c0.384-0.23,0.695-0.58,0.937-1.045
				c0.24-0.465,0.361-1.029,0.361-1.695c0-1.057-0.232-1.881-0.698-2.469s-1.078-0.883-1.838-0.883c-0.741,0-1.334,0.281-1.78,0.846
				C10.741,669.572,10.518,670.373,10.518,671.412z"/>
			<path fill="#FFFFFF" d="M22.152,667.66v0.312c0.455-0.602,0.954-1.043,1.496-1.324s1.163-0.424,1.866-0.424
				c0.684,0,1.295,0.15,1.833,0.447c0.538,0.299,0.941,0.719,1.206,1.262c0.172,0.318,0.282,0.66,0.333,1.027
				c0.051,0.367,0.077,0.836,0.077,1.406v4.824c0,0.52-0.119,0.912-0.357,1.178c-0.237,0.266-0.546,0.398-0.926,0.398
				c-0.387,0-0.7-0.135-0.94-0.408c-0.241-0.271-0.361-0.662-0.361-1.168v-4.322c0-0.854-0.119-1.508-0.356-1.961
				c-0.238-0.451-0.71-0.68-1.42-0.68c-0.461,0-0.883,0.139-1.263,0.414s-0.659,0.654-0.836,1.135
				c-0.126,0.387-0.19,1.107-0.19,2.166v3.248c0,0.525-0.123,0.92-0.365,1.184c-0.244,0.262-0.559,0.393-0.945,0.393
				c-0.375,0-0.681-0.135-0.922-0.408c-0.24-0.271-0.361-0.662-0.361-1.168v-7.494c0-0.494,0.107-0.863,0.323-1.107
				c0.215-0.242,0.51-0.365,0.883-0.365c0.229,0,0.435,0.055,0.619,0.162c0.183,0.109,0.331,0.27,0.441,0.484
				S22.152,667.35,22.152,667.66z"/>
			<path fill="#FFFFFF" d="M37.926,672.135h-5.071c0.007,0.588,0.125,1.107,0.356,1.557c0.231,0.449,0.538,0.789,0.921,1.016
				c0.382,0.229,0.805,0.342,1.267,0.342c0.311,0,0.594-0.035,0.851-0.107c0.255-0.074,0.504-0.188,0.746-0.344
				c0.24-0.154,0.461-0.32,0.665-0.498c0.202-0.178,0.464-0.42,0.788-0.723c0.133-0.113,0.323-0.172,0.57-0.172
				c0.266,0,0.481,0.074,0.646,0.221s0.247,0.35,0.247,0.617c0,0.234-0.091,0.506-0.275,0.82s-0.461,0.615-0.832,0.902
				c-0.371,0.289-0.835,0.527-1.396,0.717c-0.561,0.191-1.205,0.285-1.933,0.285c-1.665,0-2.96-0.475-3.885-1.424
				c-0.923-0.949-1.386-2.238-1.386-3.865c0-0.768,0.114-1.479,0.342-2.133c0.228-0.656,0.561-1.217,0.998-1.686
				c0.437-0.469,0.975-0.828,1.614-1.078s1.349-0.375,2.128-0.375c1.013,0,1.881,0.213,2.606,0.641
				c0.726,0.428,1.269,0.98,1.63,1.656c0.36,0.678,0.542,1.369,0.542,2.07c0,0.654-0.187,1.076-0.561,1.27
				C39.13,672.037,38.604,672.135,37.926,672.135z M32.855,670.662h4.701c-0.063-0.887-0.302-1.551-0.717-1.99
				c-0.415-0.441-0.961-0.66-1.638-0.66c-0.646,0-1.177,0.223-1.592,0.668C33.194,669.127,32.944,669.787,32.855,670.662z"/>
			<path fill="#FFFFFF" d="M48.496,675.287v-0.258c-0.348,0.398-0.691,0.725-1.03,0.973c-0.339,0.252-0.706,0.441-1.102,0.57
				c-0.395,0.133-0.828,0.195-1.296,0.195c-0.622,0-1.196-0.131-1.724-0.393c-0.529-0.264-0.986-0.639-1.373-1.127
				c-0.387-0.486-0.679-1.059-0.878-1.719c-0.2-0.658-0.299-1.371-0.299-2.137c0-1.621,0.396-2.885,1.187-3.791
				c0.792-0.904,1.833-1.357,3.125-1.357c0.747,0,1.377,0.129,1.89,0.385s1.013,0.652,1.5,1.182v-3.826
				c0-0.533,0.106-0.934,0.319-1.207c0.211-0.271,0.515-0.408,0.907-0.408c0.392,0,0.694,0.125,0.907,0.375
				c0.212,0.252,0.318,0.619,0.318,1.107v11.436c0,0.494-0.114,0.863-0.342,1.111c-0.228,0.246-0.522,0.369-0.883,0.369
				c-0.354,0-0.647-0.127-0.879-0.383C48.612,676.127,48.496,675.762,48.496,675.287z M43.396,671.479
				c0,0.703,0.108,1.301,0.327,1.795c0.218,0.494,0.518,0.865,0.898,1.115c0.379,0.25,0.794,0.377,1.243,0.377
				c0.457,0,0.873-0.119,1.249-0.357c0.377-0.236,0.678-0.602,0.902-1.092c0.225-0.49,0.337-1.105,0.337-1.838
				c0-0.691-0.112-1.285-0.337-1.783c-0.224-0.496-0.528-0.875-0.912-1.139c-0.384-0.262-0.803-0.393-1.259-0.393
				c-0.474,0-0.899,0.135-1.272,0.402c-0.373,0.27-0.663,0.654-0.869,1.158S43.396,670.812,43.396,671.479z"/>
			<path fill="#FFFFFF" d="M59.094,663.852v3.959c0.487-0.506,0.984-0.895,1.491-1.162c0.506-0.27,1.134-0.404,1.881-0.404
				c0.861,0,1.616,0.205,2.266,0.611c0.648,0.41,1.151,1.002,1.51,1.777c0.357,0.775,0.537,1.695,0.537,2.76
				c0,0.785-0.1,1.504-0.299,2.16c-0.2,0.656-0.49,1.225-0.869,1.705c-0.38,0.48-0.841,0.854-1.382,1.117
				c-0.542,0.262-1.139,0.393-1.791,0.393c-0.399,0-0.775-0.047-1.125-0.143c-0.352-0.094-0.651-0.219-0.898-0.375
				c-0.246-0.154-0.457-0.314-0.631-0.479s-0.404-0.412-0.689-0.742v0.258c0,0.486-0.117,0.855-0.352,1.107
				c-0.233,0.25-0.531,0.373-0.893,0.373c-0.367,0-0.66-0.123-0.878-0.373c-0.219-0.252-0.328-0.621-0.328-1.107v-11.322
				c0-0.525,0.106-0.924,0.317-1.191c0.212-0.27,0.509-0.404,0.889-0.404c0.399,0,0.706,0.129,0.921,0.385
				C58.986,663.012,59.094,663.375,59.094,663.852z M59.218,671.555c0,1.031,0.236,1.824,0.708,2.377
				c0.472,0.555,1.091,0.834,1.857,0.834c0.652,0,1.214-0.283,1.686-0.852c0.472-0.566,0.708-1.379,0.708-2.436
				c0-0.684-0.097-1.273-0.294-1.768s-0.475-0.875-0.835-1.145c-0.361-0.268-0.783-0.402-1.264-0.402
				c-0.494,0-0.935,0.135-1.32,0.402c-0.386,0.27-0.69,0.658-0.912,1.168C59.329,670.244,59.218,670.852,59.218,671.555z"/>
			<path fill="#FFFFFF" d="M70.14,677.092l0.237-0.58l-3.191-8.035c-0.196-0.461-0.295-0.799-0.295-1.008
				c0-0.221,0.058-0.426,0.171-0.615c0.114-0.191,0.271-0.344,0.47-0.457c0.2-0.115,0.407-0.172,0.623-0.172
				c0.373,0,0.655,0.119,0.846,0.357c0.19,0.236,0.357,0.576,0.503,1.02l2.194,6.383l2.08-5.936c0.164-0.48,0.313-0.857,0.446-1.131
				c0.133-0.271,0.273-0.455,0.422-0.549c0.148-0.096,0.359-0.145,0.632-0.145c0.197,0,0.385,0.053,0.565,0.158
				c0.18,0.104,0.319,0.244,0.417,0.422c0.098,0.178,0.148,0.363,0.148,0.561c-0.026,0.119-0.066,0.291-0.124,0.514
				c-0.058,0.221-0.126,0.447-0.208,0.674l-3.381,8.852c-0.292,0.779-0.577,1.389-0.855,1.832s-0.647,0.785-1.106,1.021
				c-0.459,0.238-1.078,0.357-1.857,0.357c-0.759,0-1.33-0.082-1.708-0.246c-0.381-0.166-0.57-0.467-0.57-0.904
				c0-0.297,0.089-0.527,0.271-0.688c0.18-0.162,0.448-0.244,0.801-0.244c0.14,0,0.276,0.02,0.409,0.059
				c0.165,0.037,0.307,0.057,0.427,0.057c0.297,0,0.532-0.043,0.704-0.133c0.17-0.088,0.324-0.242,0.46-0.461
				C69.806,677.838,69.963,677.516,70.14,677.092z"/>
		</g>
		<g>
			<path fill="#FFFFFF" d="M107.703,666.449h0.619v-0.777c0-0.814,0.1-1.457,0.307-1.938c0.203-0.479,0.555-0.826,1.047-1.045
				c0.49-0.217,1.162-0.326,2.016-0.326c1.52,0,2.273,0.367,2.273,1.113c0,0.238-0.08,0.445-0.24,0.615
				c-0.154,0.17-0.344,0.256-0.559,0.256c-0.1,0-0.277-0.018-0.527-0.059c-0.236-0.033-0.451-0.057-0.623-0.057
				c-0.467,0-0.766,0.141-0.904,0.416c-0.127,0.275-0.195,0.668-0.195,1.184v0.617h0.633c0.99,0,1.48,0.297,1.48,0.896
				c0,0.418-0.127,0.689-0.393,0.805c-0.262,0.113-0.623,0.17-1.088,0.17h-0.633v6.871c0,0.512-0.121,0.9-0.369,1.168
				c-0.242,0.273-0.555,0.406-0.943,0.406c-0.367,0-0.67-0.133-0.918-0.406c-0.244-0.268-0.363-0.656-0.363-1.168v-6.871h-0.715
				c-0.389,0-0.682-0.084-0.893-0.262c-0.209-0.17-0.314-0.398-0.314-0.678C106.4,666.758,106.834,666.449,107.703,666.449"/>
			<path fill="#FFFFFF" d="M116.193,673.023v2.168c0,0.523-0.133,0.92-0.375,1.18c-0.246,0.266-0.559,0.395-0.938,0.395
				c-0.381,0-0.688-0.131-0.926-0.4c-0.236-0.264-0.361-0.656-0.361-1.174v-7.223c0-1.166,0.42-1.748,1.262-1.748
				c0.434,0,0.742,0.135,0.934,0.408c0.189,0.273,0.295,0.674,0.316,1.207c0.309-0.533,0.625-0.934,0.949-1.207
				c0.332-0.273,0.762-0.408,1.309-0.408c0.549,0,1.072,0.135,1.586,0.408c0.516,0.273,0.771,0.637,0.771,1.084
				c0,0.314-0.111,0.58-0.326,0.781c-0.221,0.209-0.455,0.312-0.707,0.312c-0.1,0-0.33-0.062-0.691-0.18
				c-0.365-0.113-0.689-0.174-0.963-0.174c-0.381,0-0.693,0.104-0.932,0.299c-0.242,0.205-0.432,0.496-0.564,0.887
				c-0.129,0.395-0.219,0.865-0.273,1.404C116.215,671.584,116.193,672.246,116.193,673.023"/>
			<path fill="#FFFFFF" d="M128.113,672.131h-5.074c0.01,0.588,0.125,1.111,0.355,1.559c0.234,0.447,0.539,0.787,0.924,1.018
				c0.385,0.227,0.805,0.34,1.27,0.34c0.311,0,0.592-0.033,0.85-0.111c0.254-0.07,0.504-0.186,0.744-0.342
				c0.242-0.152,0.461-0.318,0.664-0.5c0.203-0.174,0.467-0.416,0.791-0.719c0.135-0.113,0.324-0.174,0.568-0.174
				c0.268,0,0.48,0.074,0.648,0.223c0.166,0.146,0.244,0.35,0.244,0.617c0,0.234-0.09,0.508-0.268,0.818
				c-0.188,0.318-0.463,0.617-0.836,0.906c-0.375,0.285-0.84,0.527-1.398,0.715c-0.559,0.189-1.205,0.285-1.932,0.285
				c-1.67,0-2.963-0.473-3.887-1.422c-0.924-0.951-1.391-2.242-1.391-3.867c0-0.768,0.117-1.479,0.348-2.135
				c0.225-0.658,0.557-1.217,0.998-1.688c0.436-0.471,0.971-0.828,1.613-1.078c0.637-0.25,1.346-0.375,2.127-0.375
				c1.012,0,1.881,0.215,2.607,0.646c0.723,0.422,1.273,0.977,1.629,1.654c0.361,0.68,0.541,1.367,0.541,2.074
				c0,0.648-0.188,1.07-0.561,1.266C129.316,672.035,128.791,672.131,128.113,672.131 M123.039,670.656h4.701
				c-0.062-0.885-0.297-1.549-0.713-1.986c-0.418-0.441-0.959-0.66-1.641-0.66c-0.646,0-1.178,0.221-1.592,0.67
				C123.381,669.125,123.127,669.783,123.039,670.656"/>
			<path fill="#FFFFFF" d="M138.9,672.131h-5.072c0.006,0.588,0.125,1.111,0.354,1.559c0.232,0.447,0.539,0.787,0.922,1.018
				c0.383,0.227,0.805,0.34,1.271,0.34c0.307,0,0.592-0.033,0.844-0.111c0.26-0.07,0.506-0.186,0.75-0.342
				c0.242-0.152,0.461-0.318,0.664-0.5c0.199-0.174,0.465-0.416,0.789-0.719c0.135-0.113,0.326-0.174,0.568-0.174
				c0.268,0,0.482,0.074,0.65,0.223c0.164,0.146,0.24,0.35,0.24,0.617c0,0.234-0.088,0.508-0.273,0.818
				c-0.178,0.318-0.455,0.617-0.83,0.906c-0.371,0.285-0.84,0.527-1.396,0.715c-0.557,0.189-1.207,0.285-1.934,0.285
				c-1.668,0-2.959-0.473-3.887-1.422c-0.924-0.951-1.389-2.242-1.389-3.867c0-0.768,0.115-1.479,0.348-2.135
				c0.227-0.658,0.559-1.217,0.996-1.688c0.436-0.471,0.973-0.828,1.613-1.078c0.639-0.25,1.352-0.375,2.129-0.375
				c1.01,0,1.879,0.215,2.613,0.646c0.721,0.422,1.266,0.977,1.621,1.654c0.359,0.68,0.545,1.367,0.545,2.074
				c0,0.648-0.191,1.07-0.561,1.266C140.102,672.035,139.576,672.131,138.9,672.131 M133.828,670.656h4.701
				c-0.064-0.885-0.305-1.549-0.715-1.986c-0.422-0.441-0.963-0.66-1.643-0.66c-0.646,0-1.176,0.221-1.594,0.67
				C134.166,669.125,133.912,669.783,133.828,670.656"/>
			<path fill="#FFFFFF" d="M144.58,667.68v0.311c0.486-0.602,0.994-1.043,1.525-1.324c0.518-0.285,1.117-0.428,1.781-0.428
				c0.795,0,1.535,0.209,2.207,0.617c0.672,0.414,1.199,1.016,1.59,1.807c0.389,0.795,0.586,1.73,0.586,2.814
				c0,0.795-0.113,1.531-0.336,2.201c-0.225,0.668-0.537,1.227-0.93,1.68c-0.393,0.449-0.855,0.801-1.389,1.045
				c-0.543,0.242-1.111,0.363-1.729,0.363c-0.738,0-1.363-0.148-1.865-0.447c-0.502-0.291-0.982-0.732-1.441-1.305v3.893
				c0,1.135-0.416,1.709-1.244,1.709c-0.49,0-0.809-0.146-0.971-0.439c-0.152-0.299-0.234-0.723-0.234-1.291v-11.193
				c0-0.494,0.107-0.859,0.32-1.107c0.215-0.238,0.512-0.363,0.885-0.363c0.369,0,0.666,0.125,0.896,0.373
				C144.467,666.848,144.58,667.205,144.58,667.68 M149.664,671.447c0-0.686-0.105-1.273-0.314-1.764
				c-0.209-0.492-0.498-0.867-0.865-1.127c-0.367-0.264-0.783-0.396-1.232-0.396c-0.715,0-1.318,0.283-1.809,0.844
				c-0.492,0.566-0.74,1.395-0.74,2.492c0,1.027,0.244,1.834,0.736,2.406c0.486,0.574,1.086,0.859,1.812,0.859
				c0.428,0,0.83-0.127,1.197-0.373c0.371-0.252,0.664-0.627,0.883-1.127C149.553,672.76,149.664,672.154,149.664,671.447"/>
			<path fill="#FFFFFF" d="M154.881,665.014c-0.363,0-0.67-0.115-0.924-0.336c-0.26-0.223-0.387-0.531-0.387-0.936
				c0-0.369,0.131-0.67,0.396-0.91c0.262-0.234,0.566-0.355,0.914-0.355c0.34,0,0.635,0.105,0.893,0.318
				c0.26,0.219,0.391,0.535,0.391,0.947c0,0.398-0.127,0.711-0.377,0.936C155.533,664.898,155.232,665.014,154.881,665.014
				 M156.164,667.691v7.502c0,0.516-0.123,0.908-0.369,1.172c-0.25,0.27-0.561,0.4-0.941,0.4s-0.686-0.133-0.928-0.406
				c-0.234-0.275-0.355-0.664-0.355-1.166v-7.428c0-0.51,0.121-0.895,0.355-1.154c0.242-0.264,0.547-0.391,0.928-0.391
				s0.691,0.127,0.941,0.391C156.041,666.871,156.164,667.234,156.164,667.691"/>
			<path fill="#FFFFFF" d="M164.523,675.582l-2.283-3.766l-1.408,1.328v2.066c0,0.498-0.133,0.881-0.396,1.148
				c-0.258,0.273-0.566,0.406-0.906,0.406c-0.398,0-0.715-0.131-0.941-0.4c-0.227-0.264-0.344-0.656-0.344-1.174v-11.062
				c0-0.574,0.115-1.012,0.332-1.314c0.223-0.305,0.545-0.451,0.953-0.451c0.398,0,0.713,0.137,0.949,0.41
				c0.234,0.271,0.354,0.674,0.354,1.203v6.293l2.916-3.062c0.361-0.377,0.633-0.641,0.826-0.779
				c0.189-0.139,0.42-0.207,0.689-0.207c0.326,0,0.594,0.104,0.816,0.309c0.211,0.205,0.32,0.465,0.32,0.773
				c0,0.379-0.354,0.889-1.055,1.521l-1.377,1.262l2.658,4.184c0.193,0.312,0.34,0.543,0.424,0.705
				c0.084,0.16,0.131,0.32,0.131,0.463c0,0.412-0.115,0.734-0.342,0.975c-0.225,0.236-0.523,0.354-0.885,0.354
				c-0.316,0-0.564-0.08-0.734-0.256C165.051,676.338,164.814,676.027,164.523,675.582"/>
			<path fill="#FFFFFF" d="M170.16,676.766c-0.393,0-0.729-0.125-1.014-0.381c-0.285-0.248-0.43-0.605-0.43-1.064
				c0-0.385,0.139-0.719,0.41-0.994c0.275-0.279,0.607-0.42,1.008-0.42c0.398,0,0.736,0.141,1.023,0.412
				c0.279,0.275,0.422,0.613,0.422,1.002c0,0.453-0.143,0.809-0.422,1.061C170.871,676.641,170.539,676.766,170.16,676.766"/>
			<path fill="#FFFFFF" d="M183.059,673.557c0,0.32-0.098,0.668-0.291,1.033c-0.191,0.371-0.488,0.719-0.887,1.051
				c-0.395,0.332-0.891,0.602-1.494,0.803c-0.602,0.203-1.281,0.307-2.031,0.307c-1.605,0-2.857-0.469-3.758-1.4
				c-0.895-0.936-1.346-2.189-1.346-3.76c0-1.068,0.205-2.006,0.619-2.824c0.408-0.814,1.004-1.447,1.781-1.895
				c0.779-0.447,1.717-0.67,2.795-0.67c0.674,0,1.287,0.098,1.852,0.295c0.561,0.195,1.033,0.451,1.426,0.76
				c0.387,0.314,0.686,0.643,0.889,0.992c0.207,0.352,0.309,0.68,0.309,0.986c0,0.309-0.113,0.572-0.344,0.787
				c-0.234,0.215-0.516,0.324-0.838,0.324c-0.219,0-0.398-0.057-0.541-0.166c-0.145-0.111-0.305-0.289-0.479-0.541
				c-0.318-0.479-0.646-0.842-0.996-1.08c-0.344-0.242-0.781-0.361-1.314-0.361c-0.762,0-1.383,0.297-1.854,0.896
				c-0.467,0.596-0.703,1.42-0.703,2.455c0,0.488,0.062,0.939,0.184,1.348c0.117,0.406,0.291,0.756,0.52,1.043
				c0.23,0.287,0.504,0.506,0.826,0.654c0.324,0.154,0.682,0.227,1.064,0.227c0.521,0,0.967-0.121,1.336-0.361
				c0.377-0.24,0.703-0.607,0.986-1.102c0.158-0.291,0.328-0.518,0.51-0.684c0.182-0.164,0.408-0.25,0.676-0.25
				c0.316,0,0.58,0.123,0.785,0.363C182.951,673.027,183.059,673.285,183.059,673.557"/>
			<path fill="#FFFFFF" d="M194.248,671.496c0,0.77-0.121,1.484-0.355,2.139c-0.246,0.652-0.592,1.213-1.049,1.678
				c-0.455,0.469-1.002,0.828-1.633,1.08c-0.639,0.248-1.35,0.375-2.139,0.375c-0.785,0-1.492-0.127-2.121-0.383
				c-0.623-0.248-1.17-0.613-1.625-1.082c-0.461-0.477-0.809-1.033-1.053-1.676c-0.229-0.645-0.35-1.355-0.35-2.131
				c0-0.787,0.123-1.506,0.357-2.158c0.242-0.654,0.59-1.213,1.039-1.674c0.451-0.461,0.994-0.816,1.631-1.07
				c0.645-0.248,1.35-0.373,2.121-0.373c0.785,0,1.498,0.125,2.139,0.381c0.639,0.252,1.184,0.615,1.645,1.08
				c0.457,0.475,0.803,1.029,1.039,1.672C194.129,670.004,194.248,670.713,194.248,671.496 M191.645,671.496
				c0-1.059-0.234-1.881-0.697-2.469c-0.463-0.596-1.09-0.889-1.875-0.889c-0.508,0-0.955,0.133-1.342,0.395
				s-0.682,0.648-0.891,1.164c-0.209,0.514-0.314,1.113-0.314,1.799c0,0.678,0.102,1.268,0.309,1.773
				c0.209,0.51,0.502,0.896,0.887,1.166c0.385,0.266,0.834,0.404,1.352,0.404c0.785,0,1.412-0.297,1.875-0.893
				C191.41,673.357,191.645,672.537,191.645,671.496"/>
			<path fill="#FFFFFF" d="M204.141,671.686v3.447c0,0.547-0.121,0.951-0.369,1.227c-0.25,0.273-0.572,0.408-0.979,0.408
				c-0.393,0-0.713-0.135-0.951-0.408c-0.246-0.275-0.371-0.68-0.371-1.227v-4.131c0-0.654-0.021-1.162-0.064-1.525
				c-0.045-0.354-0.168-0.654-0.361-0.883c-0.197-0.234-0.51-0.352-0.932-0.352c-0.85,0-1.406,0.291-1.676,0.881
				c-0.268,0.576-0.406,1.414-0.406,2.508v3.502c0,0.537-0.123,0.945-0.361,1.223c-0.25,0.273-0.568,0.412-0.965,0.412
				s-0.717-0.139-0.967-0.412c-0.252-0.277-0.377-0.686-0.377-1.223v-7.42c0-0.488,0.111-0.859,0.336-1.111
				c0.229-0.256,0.525-0.381,0.889-0.381c0.357,0,0.652,0.123,0.893,0.355c0.236,0.238,0.354,0.566,0.354,0.984v0.244
				c0.453-0.535,0.936-0.932,1.445-1.18c0.516-0.26,1.082-0.387,1.713-0.387c0.65,0,1.211,0.131,1.678,0.391
				c0.469,0.26,0.854,0.654,1.16,1.176c0.439-0.527,0.908-0.922,1.41-1.18c0.5-0.258,1.053-0.387,1.662-0.387
				c0.705,0,1.32,0.143,1.834,0.42c0.51,0.277,0.893,0.68,1.146,1.195c0.221,0.473,0.33,1.209,0.33,2.217v5.062
				c0,0.547-0.121,0.951-0.367,1.227c-0.246,0.273-0.574,0.408-0.979,0.408c-0.395,0-0.715-0.139-0.965-0.412
				c-0.25-0.277-0.377-0.686-0.377-1.223v-4.361c0-0.559-0.023-1.004-0.068-1.338c-0.047-0.338-0.178-0.621-0.383-0.848
				c-0.213-0.227-0.531-0.344-0.953-0.344c-0.342,0-0.666,0.107-0.975,0.309c-0.307,0.197-0.547,0.477-0.721,0.812
				C204.238,669.801,204.141,670.576,204.141,671.686"/>
		</g>
		<g>
			<path fill="#FFFFFF" d="M83.435,670.867c-0.002-0.004-0.002-0.01-0.002-0.018C83.433,670.857,83.433,670.863,83.435,670.867z"/>
			<path fill="#FFFFFF" d="M83.566,671.697c0.002,0,0.002,0,0.003,0c-0.05-0.236-0.088-0.471-0.119-0.703
				C83.48,671.229,83.519,671.463,83.566,671.697z"/>
			<path fill="#FFFFFF" d="M84.424,674.104c-0.006-0.01-0.011-0.021-0.017-0.033C84.414,674.082,84.418,674.094,84.424,674.104z"/>
			<path fill="#FFFFFF" d="M84.342,673.943c-0.022-0.045-0.044-0.09-0.065-0.135C84.298,673.855,84.32,673.898,84.342,673.943z"/>
			<path fill="#FFFFFF" d="M83.807,672.623c0.127,0.4,0.28,0.789,0.457,1.158c-0.18-0.377-0.33-0.766-0.454-1.158
				C83.81,672.623,83.808,672.623,83.807,672.623z"/>
			<path fill="#FFFFFF" d="M93.473,660.932c0.501,0,0.871,0.039,1.295,0.111l0.121-0.764c0,0-1.172-0.359-2.711-0.234l-0.121-0.414
				c0.479-0.102,0.838-0.527,0.838-1.035c0-0.582-0.475-1.053-1.058-1.053s-1.056,0.471-1.056,1.053
				c0,0.508,0.358,0.934,0.836,1.035l0.134,0.463c-1.634,0.225-2.935,0.861-2.935,0.861l0.23,0.705
				c0.989-0.328,1.846-0.529,2.624-0.613C92.432,660.967,93.006,660.932,93.473,660.932z"/>
			<path fill="#FFFFFF" d="M84.405,664.789l0.006-0.008c0.039-0.049,0.076-0.096,0.113-0.143l-0.313-0.225l-0.488-0.357
				c-0.027,0.039-0.795,0.744-1.401,2.049c-0.025-0.041-0.056-0.082-0.09-0.119c-0.182-0.199-0.436-0.301-0.758-0.295
				c-0.004,0-0.009,0-0.015,0c-0.2,0-0.337-0.066-0.427-0.146c0.089-0.113,0.143-0.256,0.143-0.414c0-0.367-0.3-0.668-0.669-0.668
				c-0.369,0-0.668,0.301-0.668,0.668c0,0.371,0.3,0.67,0.668,0.67c0.058,0,0.113-0.01,0.167-0.021
				c0.165,0.184,0.425,0.342,0.808,0.334c0.197-0.002,0.341,0.049,0.438,0.156c0.111,0.121,0.148,0.295,0.16,0.428
				c-0.001,0.002-0.001,0.004-0.003,0.004c-0.436,1.189-0.311,2.67-0.311,2.67l1.057,0.043c0.021-0.539,0.099-1.482,0.372-2.23
				C83.719,665.734,84.378,664.828,84.405,664.789z"/>
			<path fill="#FFFFFF" d="M102.672,661.814c-0.367,0-0.668,0.299-0.668,0.67c0,0.057,0.008,0.111,0.023,0.164
				c-0.184,0.166-0.344,0.428-0.338,0.811c0.004,0.197-0.047,0.34-0.154,0.438c-0.084,0.074-0.191,0.115-0.295,0.141
				c-0.787-1.104-1.756-1.775-1.756-1.775l-0.76,0.812c0.574,0.521,1.16,1.176,1.729,1.99c0.395,0.564,0.799,1.291,1.137,2.016
				l1.023-0.486c0,0-0.467-1.156-1.125-2.191c0.113-0.041,0.229-0.104,0.33-0.193c0.201-0.18,0.299-0.436,0.293-0.758
				c-0.002-0.207,0.066-0.348,0.148-0.441c0.115,0.088,0.258,0.143,0.412,0.143c0.371,0,0.67-0.299,0.67-0.668
				C103.342,662.113,103.043,661.814,102.672,661.814z"/>
			<path fill="#FFFFFF" d="M100.016,671.018c-1.41,0.686-3.729,1.594-6.782,2.02c-1.198,0.166-2.359,0.227-3.428,0.227
				c-1.391,0-2.62-0.104-3.562-0.223c-1.076-0.135-1.917-0.301-2.432-0.418c0.124,0.393,0.273,0.781,0.454,1.158
				c0.003,0.01,0.008,0.021,0.013,0.027c0.021,0.045,0.043,0.09,0.065,0.135c0.021,0.043,0.043,0.086,0.065,0.127
				c0.006,0.012,0.011,0.023,0.017,0.033c0.303,0.57,0.667,1.094,1.081,1.549c1.44,1.574,2.907,1.824,2.921,1.826l0.023,0.002
				l0.021,0.008c0.013,0.006,1.314,0.426,3.292,0.426c1.945,0,3.855-0.393,5.674-1.168c1.348-0.689,2.623-1.736,3.254-2.67
				c0.488-0.723,0.842-1.492,1.051-2.293c0.111-0.426,0.199-1.107,0.146-1.826C101.49,670.225,100.863,670.604,100.016,671.018z"/>
			<path fill="#FFFFFF" d="M84.857,665.123c-0.041,0.061-0.652,0.926-1.135,2.254c-0.362,0.994-0.346,2.443-0.346,2.459v0.004
				c0,0.34,0.019,0.676,0.057,1.01c0,0.008,0,0.014,0.002,0.018c0.004,0.043,0.011,0.084,0.015,0.127
				c0.03,0.232,0.069,0.467,0.119,0.703c0.7,0.178,4.878,1.152,9.548,0.502c2.928-0.408,5.15-1.273,6.5-1.928
				c1.121-0.543,1.842-1.035,2.119-1.238c-0.277-1.027-1.041-2.641-1.742-3.646c-2.006-2.865-4.168-3.6-5.277-3.783
				c-0.425-0.068-0.764-0.109-1.244-0.109c-0.447,0-1.002,0.037-1.743,0.115c-0.743,0.076-1.572,0.271-2.532,0.596
				c-1.348,0.451-2.567,1.158-3.527,2.047l-0.033,0.031C85.496,664.414,85.199,664.689,84.857,665.123z M97.127,664.457
				c0.961,0,1.744,0.781,1.744,1.742c0,0.963-0.783,1.744-1.744,1.744s-1.742-0.781-1.742-1.744
				C95.385,665.238,96.166,664.457,97.127,664.457z M88.885,664.387c1.557,0,2.817,1.262,2.817,2.818
				c0,1.555-1.26,2.814-2.817,2.814c-1.555,0-2.816-1.26-2.816-2.814C86.069,665.648,87.331,664.387,88.885,664.387z"/>
		</g>
	</g>
</g>
<g id="objects">
	<path display="none" fill="#465955" d="M-7.457,364.516c3.124-1.34,4.563-4.945,3.221-8.059c-1.344-3.119-4.958-4.559-8.077-3.209
		c-3.099,1.323-4.501,4.93-3.201,8.05C-14.17,364.399-10.557,365.851-7.457,364.516 M-148.495,333.135
		c2.376-2.414,2.376-6.282,0-8.684c-2.398-2.389-6.278-2.389-8.681,0c-2.394,2.401-2.394,6.27,0,8.684
		C-154.772,335.513-150.893,335.513-148.495,333.135 M-173.474,361.035c3.126,1.251,6.716-0.267,7.97-3.41
		c1.254-3.147-0.287-6.703-3.418-7.977c-3.144-1.254-6.723,0.278-7.977,3.426C-178.154,356.226-176.627,359.78-173.474,361.035
		 M-121.12,315.238c3.125-1.321,4.564-4.947,3.235-8.058c-1.353-3.101-4.935-4.542-8.06-3.21c-3.127,1.356-4.542,4.948-3.204,8.049
		C-127.836,315.142-124.226,316.571-121.12,315.238 M-92.748,310.02c3.375,0,6.131-2.733,6.131-6.121
		c0-3.376-2.755-6.143-6.131-6.143c-3.398,0-6.135,2.766-6.135,6.143C-98.883,307.286-96.146,310.02-92.748,310.02 M-24.801,333.882
		c2.413-2.414,2.413-6.282,0-8.684c-2.369-2.389-6.279-2.389-8.648,0c-2.372,2.401-2.372,6.27,0,8.684
		C-31.08,336.26-27.169,336.26-24.801,333.882 M-173.041,391.45c0-3.388-2.742-6.14-6.128-6.14c-3.396,0-6.139,2.741-6.139,6.14
		c0,3.375,2.742,6.121,6.13,6.121C-175.792,397.571-173.041,394.825-173.041,391.45 M-59.18,316.566
		c3.12,1.263,6.693-0.278,7.958-3.41c1.245-3.149-0.275-6.716-3.419-7.967c-3.155-1.27-6.73,0.275-7.994,3.415
		C-63.881,311.745-62.34,315.318-59.18,316.566 M-33.652,449.2c-2.372,2.392-2.372,6.265,0,8.653c2.369,2.409,6.28,2.409,8.648,0
		c2.413-2.389,2.413-6.262,0-8.653C-27.373,446.796-31.283,446.796-33.652,449.2 M-8.943,419.827
		c-3.139-1.266-6.717,0.265-7.958,3.406c-1.265,3.151,0.276,6.716,3.395,7.968c3.16,1.252,6.716-0.287,8-3.418
		C-4.262,424.635-5.783,421.068-8.943,419.827 M-62.151,467.341c-3.101,1.341-4.543,4.938-3.202,8.047
		c1.344,3.112,4.938,4.553,8.059,3.224c3.121-1.355,4.545-4.94,3.202-8.07C-55.434,467.457-59.033,466.015-62.151,467.341
		 M-93.896,473.284c-3.101,1.341-4.543,4.938-3.202,8.047c1.344,3.112,4.938,4.553,8.059,3.224c3.121-1.355,4.545-4.94,3.202-8.07
		C-87.178,473.4-90.777,471.958-93.896,473.284 M-3.763,384.936c-3.379,0-6.103,2.741-6.103,6.128c0,3.381,2.743,6.113,6.103,6.113
		c3.377,0,6.141-2.732,6.141-6.113C2.378,387.677-0.386,384.936-3.763,384.936 M-150.976,447.653c-2.398-2.404-6.278-2.404-8.681,0
		c-2.394,2.392-2.394,6.265,0,8.653c2.403,2.409,6.282,2.409,8.681,0C-148.591,453.918-148.591,450.045-150.976,447.653
		 M-176.39,416.126c-3.119,1.322-4.558,4.925-3.213,8.018c1.336,3.14,4.936,4.582,8.057,3.237c3.105-1.332,4.542-4.938,3.208-8.048
		C-169.685,416.223-173.294,414.791-176.39,416.126 M-76.623,472.472c16.312-2.98,31.343-10.835,43.293-22.81
		c15.56-15.583,24.152-36.261,24.152-58.313c0-45.463-36.971-82.465-82.457-82.465c-45.449,0-82.444,37.013-82.444,82.465
		c0,22.03,8.575,42.73,24.143,58.313c11.874,11.889,26.756,19.679,42.928,22.729l-1.777,11.226h-14.562v20.028h63.128v-20.628
		h-14.747L-76.623,472.472z M-86.239,395.881c0.194-0.196,0.313-0.414,0.49-0.631l56.841,25.537
		c-3.357,7.109-7.876,13.56-13.333,19.098L-86.239,395.881z M-43.523,441.171c-6.517,6.339-14.338,11.353-22.949,14.749
		l-21.715-57.195l-0.166-1.095c0.246-0.166,0.533-0.308,0.771-0.494L-43.523,441.171z M-84.938,393.61
		c0.118-0.397,0.215-0.808,0.256-1.226h62.313c-0.137,9.501-2.194,18.53-5.768,26.733L-84.938,393.61z M-84.663,390.548
		c-0.02-0.278-0.06-0.554-0.117-0.829l58.225-22.115c2.625,7.166,4.105,14.879,4.186,22.954h-62.293V390.548z M-85.411,388.011
		c-0.215-0.361-0.455-0.72-0.73-1.058l44.022-44.002c6.396,6.541,11.512,14.311,14.932,22.931L-85.411,388.011z M-87.445,385.67
		c-0.24-0.156-0.474-0.296-0.683-0.434l25.508-56.789c7.13,3.307,13.604,7.791,19.178,13.201L-87.445,385.67z M-89.827,384.546
		c-0.394-0.088-0.789-0.16-1.212-0.199v-62.262c9.497,0.08,18.522,2.086,26.74,5.61L-89.827,384.546z M-84.028,460.228
		c-2.333,0.234-4.643,0.374-7.004,0.413v-50.005L-84.028,460.228z M-83.535,463.881l0.829,5.757
		c-2.961,0.324-5.927,0.504-8.927,0.504c-3.151,0-6.28-0.197-9.359-0.553l0.829-5.777c2.784,0.323,5.626,0.504,8.531,0.504
		C-88.879,464.337-86.203,464.17-83.535,463.881 M-99.67,460.17l6.831-48.449v48.901C-95.158,460.582-97.419,460.435-99.67,460.17
		 M-92.839,384.428c-0.256,0.039-0.512,0.098-0.72,0.159l-22.107-58.194c7.127-2.657,14.812-4.16,22.827-4.285V384.428z
		 M-95.246,385.324c-0.319,0.189-0.612,0.394-0.918,0.621l-43.988-43.99c6.491-6.36,14.205-11.465,22.763-14.901L-95.246,385.324z
		 M-97.381,387.312c-0.139,0.169-0.256,0.353-0.363,0.543l-56.778-25.516c3.266-7.081,7.724-13.531,13.075-19.069L-97.381,387.312z
		 M-98.445,389.551c-0.091,0.327-0.148,0.663-0.18,0.997h-62.28c0.122-9.409,2.092-18.368,5.624-26.533L-98.445,389.551z
		 M-98.614,392.369c0.037,0.205,0.078,0.391,0.128,0.611l-58.242,22.116c-2.608-7.089-4.055-14.729-4.177-22.712L-98.614,392.369z
		 M-97.826,394.676c0.168,0.298,0.326,0.574,0.515,0.853l-44.038,44.043c-6.28-6.52-11.317-14.213-14.693-22.756L-97.826,394.676z
		 M-96.026,396.851c0.148,0.138,0.333,0.254,0.502,0.362l-25.551,56.854c-7.044-3.329-13.454-7.804-18.97-13.195L-96.026,396.851z
		 M-96.234,403.267l-8.739,56.074c-5.026-0.991-9.846-2.509-14.431-4.514L-96.234,403.267z M-102.931,483.333l1.443-10.109
		c3.238,0.413,6.536,0.61,9.874,0.61c3.149,0,6.32-0.197,9.421-0.552l1.421,10.051H-102.931z M-86.795,407.554l18.606,49.012
		c-3.358,1.213-6.873,2.17-10.47,2.851L-86.795,407.554z M-78.065,463.072c33.752-6.383,59.388-36.105,59.388-71.702
		c0-40.222-32.743-72.969-72.957-72.969c-40.211,0-72.96,32.726-72.96,72.959c0,35.469,25.443,65.094,59.018,71.622l-0.868,5.765
		c-15.416-2.932-29.576-10.375-40.897-21.693c-14.868-14.88-23.088-34.683-23.088-55.716c0-43.438,35.363-78.791,78.796-78.791
		c43.429,0,78.782,35.354,78.782,78.791c0,21.045-8.194,40.836-23.065,55.716c-11.418,11.415-25.734,18.882-41.241,21.754
		L-78.065,463.072z M-122.224,473.334c1.257-3.14-0.258-6.716-3.416-7.947c-3.146-1.265-6.714,0.268-7.97,3.403
		c-1.253,3.143,0.267,6.709,3.423,7.971C-127.056,478.036-123.486,476.496-122.224,473.334"/>
	<g display="none">
		<g display="inline">
			<rect x="274.747" y="219.954" fill="#FCAD00" width="17.447" height="9.452"/>
			<path fill="#FDCB1A" d="M323.496,163.853c0-22.982-17.922-39.532-40.029-39.532c-22.116,0-40.021,16.55-40.021,39.532
				c0,9.901,3.636,18.788,8.912,26.151c5.939,8.287,22.39,31.548,22.39,31.548h17.431c0,0,16.492-23.285,22.433-31.581
				C319.877,182.615,323.496,173.738,323.496,163.853z"/>
			<path fill="#FFFFFF" d="M313.645,163.853c0-22.982-13.512-39.532-30.178-39.532c-16.674,0-30.17,16.55-30.17,39.532
				c0,9.901,2.779,18.862,6.715,26.151c4.518,8.362,16.883,31.548,16.883,31.548h13.138c0,0,12.388-23.201,16.915-31.581
				C310.883,182.69,313.645,173.738,313.645,163.853z"/>
			<path fill="#FDCB1A" d="M298.71,163.853c0-22.982-6.823-39.532-15.243-39.532s-15.235,16.55-15.235,39.532
				c0,9.901,1.423,18.938,3.395,26.151c2.313,8.445,8.53,31.548,8.53,31.548h6.631c0,0,6.24-23.127,8.545-31.581
				C297.295,182.765,298.71,173.738,298.71,163.853z"/>
		</g>
		<g display="inline">
			<g>
				<path fill="#754C24" d="M311.569,190.154c-7.497,2.984-17.474,4.627-28.098,4.627s-20.603-1.643-28.097-4.627
					c-1.296-0.517-3.19-1.418-4.277-1.986c0,0.127,1.088,1.595,1.389,2.016c0.852,0.414,1.488,0.685,2.449,1.067
					c7.631,3.039,17.767,4.711,28.536,4.711c10.771,0,20.903-1.673,28.536-4.711c0.959-0.382,1.6-0.654,2.451-1.069
					c0.525-0.742,1.388-2.014,1.388-2.014C314.76,188.737,312.865,189.638,311.569,190.154z"/>
			</g>
			<g>
				<g>
					
						<line fill="none" stroke="#754C24" stroke-width="1.1813" stroke-linecap="square" stroke-miterlimit="10" x1="312.312" y1="191.094" x2="290.586" y2="239.16"/>
					
						<line fill="none" stroke="#754C24" stroke-width="1.1813" stroke-miterlimit="10" x1="295.193" y1="194.901" x2="287.396" y2="238.609"/>
				</g>
				<g>
					
						<line fill="none" stroke="#754C24" stroke-width="1.1813" stroke-linecap="square" stroke-miterlimit="10" x1="254.633" y1="191.094" x2="276.359" y2="239.16"/>
					
						<line fill="none" stroke="#754C24" stroke-width="1.1813" stroke-miterlimit="10" x1="271.753" y1="194.901" x2="279.549" y2="238.609"/>
				</g>
			</g>
			<g>
				<path fill="#754C24" d="M292.441,253.952c0,1.137-0.922,2.058-2.059,2.058h-13.689c-1.137,0-2.059-0.921-2.059-2.058v-13.688
					c0-1.137,0.922-2.059,2.059-2.059h13.689c1.137,0,2.059,0.922,2.059,2.059V253.952z"/>
				<path fill="#603813" d="M293.116,240.852c0,0.476-0.384,0.86-0.858,0.86h-17.571c-0.475,0-0.861-0.385-0.861-0.86v-1.788
					c0-0.474,0.387-0.859,0.861-0.859h17.571c0.475,0,0.858,0.385,0.858,0.859V240.852z"/>
			</g>
		</g>
	</g>
	<g display="none">
		<path display="inline" fill="#FFFFFF" d="M305.679,319.368c0,4.762,3.698,8.625,8.265,8.625h94.197
			c4.564,0,8.264-3.863,8.264-8.625c0-4.775-3.699-8.632-8.264-8.632h-1.232c0.23-1.033,0.365-2.093,0.365-3.178
			c0-9.613-9.434-17.403-21.069-17.403c-2.923,0-5.702,0.488-8.228,1.374c-3.7-7.542-12.641-12.873-23.104-12.873
			c-13.767,0-24.929,9.223-24.929,20.593c0,0.686,0.046,1.359,0.127,2.023c-1.624-1.119-3.69-1.826-5.97-1.826
			c-5.158,0-9.342,3.457-9.342,7.723c0,1.291,0.421,2.492,1.106,3.566h-1.922C309.377,310.736,305.679,314.593,305.679,319.368z"/>
		<g display="inline">
			<path fill="#E6E6E6" d="M354.872,278.657c-13.767,0-24.929,9.223-24.929,20.593c0,0.686,0.046,1.359,0.127,2.023
				c-1.624-1.119-3.69-1.826-5.97-1.826c-5.158,0-9.342,3.457-9.342,7.723c0,1.291,0.421,2.492,1.106,3.566h-1.922
				c-4.566,0-8.265,3.856-8.265,8.632c0,4.762,3.698,8.625,8.265,8.625h47.1v-48.688
				C359.067,278.889,357.004,278.657,354.872,278.657z"/>
		</g>
	</g>
	<g display="none">
		<path display="inline" fill="#FFFFFF" d="M326.684,93.956c0,2.576,2,4.666,4.471,4.666h50.953c2.469,0,4.47-2.09,4.47-4.666
			c0-2.583-2.001-4.669-4.47-4.669h-0.667c0.125-0.559,0.197-1.132,0.197-1.719c0-5.2-5.103-9.413-11.396-9.413
			c-1.581,0-3.084,0.264-4.45,0.743c-2.002-4.08-6.838-6.963-12.498-6.963c-7.446,0-13.484,4.989-13.484,11.139
			c0,0.371,0.025,0.735,0.069,1.095c-0.879-0.605-1.997-0.988-3.229-0.988c-2.79,0-5.054,1.87-5.054,4.177
			c0,0.698,0.229,1.349,0.599,1.929h-1.039C328.684,89.287,326.684,91.373,326.684,93.956z"/>
		<g display="inline">
			<path fill="#E6E6E6" d="M353.293,71.934c-7.446,0-13.484,4.989-13.484,11.139c0,0.371,0.025,0.735,0.069,1.095
				c-0.879-0.605-1.997-0.988-3.229-0.988c-2.79,0-5.054,1.87-5.054,4.177c0,0.698,0.229,1.349,0.599,1.929h-1.039
				c-2.471,0-4.471,2.086-4.471,4.669c0,2.576,2,4.666,4.471,4.666h25.477V72.285C355.562,72.06,354.446,71.934,353.293,71.934z"/>
		</g>
	</g>
	<g display="none">
		<path display="inline" fill="#FFFFFF" d="M-117.39,269.112c0,3.073,2.387,5.566,5.333,5.566h60.791
			c2.946,0,5.333-2.493,5.333-5.566c0-3.082-2.387-5.571-5.333-5.571h-0.795c0.149-0.667,0.236-1.351,0.236-2.051
			c0-6.204-6.088-11.231-13.597-11.231c-1.886,0-3.68,0.315-5.31,0.887c-2.388-4.868-8.158-8.308-14.911-8.308
			c-8.884,0-16.088,5.952-16.088,13.29c0,0.442,0.03,0.877,0.082,1.306c-1.048-0.722-2.382-1.178-3.853-1.178
			c-3.329,0-6.029,2.23-6.029,4.983c0,0.833,0.271,1.609,0.714,2.302h-1.24C-115.003,263.541-117.39,266.03-117.39,269.112z"/>
		<g display="inline">
			<path fill="#E6E6E6" d="M-85.643,242.838c-8.884,0-16.088,5.952-16.088,13.29c0,0.442,0.03,0.877,0.082,1.306
				c-1.048-0.722-2.382-1.178-3.853-1.178c-3.329,0-6.029,2.23-6.029,4.983c0,0.833,0.271,1.609,0.714,2.302h-1.24
				c-2.947,0-5.333,2.489-5.333,5.571c0,3.073,2.387,5.566,5.333,5.566h30.396v-31.421
				C-82.936,242.988-84.267,242.838-85.643,242.838z"/>
		</g>
	</g>
	<g display="none">
		<path display="inline" fill="#FFFFFF" d="M-191.624,149.357c0,5.934,4.609,10.749,10.3,10.749h117.391
			c5.688,0,10.298-4.814,10.298-10.749c0-5.951-4.61-10.758-10.298-10.758h-1.536c0.288-1.288,0.456-2.607,0.456-3.96
			c0-11.979-11.757-21.687-26.257-21.687c-3.643,0-7.106,0.608-10.253,1.712c-4.611-9.4-15.753-16.042-28.793-16.042
			c-17.156,0-31.067,11.494-31.067,25.664c0,0.854,0.057,1.694,0.158,2.521c-2.024-1.394-4.599-2.275-7.439-2.275
			c-6.428,0-11.642,4.308-11.642,9.625c0,1.608,0.524,3.106,1.379,4.444h-2.395C-187.015,138.599-191.624,143.406-191.624,149.357z"
			/>
		<g display="inline">
			<path fill="#E6E6E6" d="M-130.317,98.621c-17.156,0-31.067,11.494-31.067,25.664c0,0.854,0.057,1.694,0.158,2.521
				c-2.024-1.394-4.599-2.275-7.439-2.275c-6.428,0-11.642,4.308-11.642,9.625c0,1.608,0.524,3.106,1.379,4.444h-2.395
				c-5.691,0-10.3,4.807-10.3,10.758c0,5.934,4.609,10.749,10.3,10.749h58.697V99.429C-125.089,98.91-127.661,98.621-130.317,98.621
				z"/>
		</g>
	</g>
	<g>
		<path fill="#FFFFFF" d="M27.187,102.333c0,7.586,5.891,13.741,13.166,13.741h150.07c7.272,0,13.165-6.155,13.165-13.741
			c0-7.608-5.893-13.752-13.165-13.752h-1.964c0.367-1.646,0.582-3.333,0.582-5.063c0-15.314-15.028-27.724-33.566-27.724
			c-4.656,0-9.084,0.777-13.106,2.188c-5.896-12.017-20.14-20.508-36.81-20.508c-21.933,0-39.716,14.693-39.716,32.808
			c0,1.092,0.073,2.166,0.202,3.224c-2.587-1.782-5.879-2.909-9.511-2.909c-8.217,0-14.882,5.508-14.882,12.304
			c0,2.056,0.67,3.971,1.763,5.681h-3.062C33.078,88.581,27.187,94.726,27.187,102.333z"/>
		<g>
			<path fill="#E6E6E6" d="M105.559,37.474c-21.933,0-39.716,14.693-39.716,32.808c0,1.092,0.073,2.166,0.202,3.224
				c-2.587-1.782-5.879-2.909-9.511-2.909c-8.217,0-14.882,5.508-14.882,12.304c0,2.056,0.67,3.971,1.763,5.681h-3.062
				c-7.274,0-13.166,6.145-13.166,13.752c0,7.586,5.891,13.741,13.166,13.741h75.037V38.506
				C112.242,37.844,108.955,37.474,105.559,37.474z"/>
		</g>
	</g>
	<g display="none">
		<path display="inline" fill="#FFD84F" d="M-23.414,24.303c0,12.299-9.977,22.277-22.279,22.277
			c-12.306,0-22.282-9.978-22.282-22.277c0-12.305,9.977-22.282,22.282-22.282C-33.391,2.021-23.414,11.998-23.414,24.303z"/>
		<g display="inline">
			<path fill="#FDCB1A" d="M-45.693,2.021V46.58c12.302,0,22.279-9.978,22.279-22.277C-23.414,11.998-33.391,2.021-45.693,2.021z"/>
		</g>
		<circle display="inline" fill="#FFD84F" cx="-45.694" cy="-9.421" r="3.687"/>
		<circle display="inline" fill="#FFD84F" cx="-62.555" cy="-4.903" r="3.687"/>
		<circle display="inline" fill="#FFD84F" cx="-74.899" cy="7.44" r="3.686"/>
		<circle display="inline" fill="#FFD84F" cx="-79.416" cy="24.301" r="3.687"/>
		<circle display="inline" fill="#FFD84F" cx="-74.898" cy="41.161" r="3.686"/>
		<circle display="inline" fill="#FFD84F" cx="-62.555" cy="53.504" r="3.686"/>
		<circle display="inline" fill="#FFD84F" cx="-45.694" cy="58.022" r="3.687"/>
		<circle display="inline" fill="#FFD84F" cx="-28.833" cy="53.504" r="3.687"/>
		<circle display="inline" fill="#FFD84F" cx="-16.49" cy="41.161" r="3.687"/>
		<circle display="inline" fill="#FFD84F" cx="-11.973" cy="24.3" r="3.687"/>
		<circle display="inline" fill="#FFD84F" cx="-16.49" cy="7.439" r="3.687"/>
		<circle display="inline" fill="#FFD84F" cx="-28.833" cy="-4.904" r="3.687"/>
	</g>
</g>
</svg>
