<?xml version="1.0" encoding="utf-8"?>
<!-- Generator: Adobe Illustrator 16.0.0, SVG Export Plug-In . SVG Version: 6.00 Build 0)  -->
<!DOCTYPE svg PUBLIC "-//W3C//DTD SVG 1.1//EN" "http://www.w3.org/Graphics/SVG/1.1/DTD/svg11.dtd">
<svg version="1.1" id="Layer_1" xmlns="http://www.w3.org/2000/svg" xmlns:xlink="http://www.w3.org/1999/xlink" x="0px" y="0px"
	 width="100px" height="27px" viewBox="0 0 100 27" enable-background="new 0 0 100 27" xml:space="preserve">
<g>
	<path fill="#FFFFFF" d="M50.194,23.165h-3.625V10.184c0-0.251-0.05-0.488-0.146-0.709c-0.098-0.22-0.229-0.413-0.394-0.578
		c-0.166-0.162-0.357-0.293-0.578-0.387c-0.218-0.092-0.457-0.139-0.709-0.139c-0.253,0-0.491,0.047-0.711,0.139
		c-0.219,0.094-0.41,0.225-0.575,0.387c-0.167,0.165-0.294,0.358-0.387,0.578c-0.094,0.221-0.14,0.458-0.14,0.709v12.981h-3.638
		V10.184c0-0.251-0.046-0.488-0.14-0.709c-0.094-0.22-0.221-0.413-0.386-0.578C38.6,8.735,38.408,8.604,38.189,8.51
		c-0.221-0.092-0.458-0.139-0.711-0.139c-0.254,0-0.49,0.047-0.709,0.139c-0.221,0.094-0.413,0.225-0.577,0.387
		c-0.165,0.165-0.293,0.358-0.386,0.578c-0.094,0.221-0.14,0.458-0.14,0.709v12.981h-3.639V10.184c0-0.751,0.142-1.458,0.426-2.123
		c0.282-0.664,0.671-1.242,1.166-1.737c0.494-0.493,1.073-0.883,1.736-1.167c0.664-0.284,1.372-0.424,2.124-0.424
		c0.677,0,1.328,0.12,1.953,0.361c0.625,0.24,1.187,0.59,1.686,1.046c0.499-0.457,1.058-0.806,1.68-1.046
		c0.62-0.241,1.271-0.361,1.946-0.361c0.751,0,1.459,0.14,2.123,0.424c0.663,0.283,1.243,0.673,1.737,1.167
		c0.495,0.496,0.883,1.074,1.167,1.737c0.281,0.665,0.425,1.371,0.425,2.123V23.165z"/>
	<polygon fill="#FFFFFF" points="65.903,23.165 53.438,23.165 53.438,4.987 65.903,4.987 65.903,8.625 57.076,8.625 57.076,12.264 
		63.049,12.264 63.049,15.9 57.076,15.9 57.076,19.528 65.903,19.528 	"/>
	<path fill="#FFFFFF" d="M82.521,21.303c-0.845,0.727-1.789,1.285-2.84,1.673c-1.046,0.39-2.133,0.583-3.257,0.583
		c-0.862,0-1.692-0.111-2.492-0.336c-0.799-0.224-1.548-0.542-2.244-0.949c-0.697-0.411-1.332-0.903-1.906-1.479
		c-0.577-0.574-1.067-1.208-1.477-1.907c-0.411-0.697-0.727-1.444-0.952-2.242c-0.223-0.798-0.336-1.629-0.336-2.491
		c0-0.861,0.113-1.694,0.336-2.5c0.226-0.801,0.541-1.552,0.952-2.249c0.409-0.696,0.899-1.333,1.477-1.908
		c0.574-0.576,1.209-1.067,1.906-1.477c0.696-0.409,1.445-0.727,2.244-0.951c0.8-0.222,1.63-0.335,2.492-0.335
		c1.124,0,2.211,0.191,3.257,0.577c1.051,0.384,1.995,0.943,2.84,1.678l-1.928,3.17c-0.532-0.574-1.161-1.017-1.889-1.326
		c-0.726-0.306-1.486-0.462-2.28-0.462c-0.803,0-1.558,0.153-2.256,0.457c-0.702,0.304-1.313,0.717-1.838,1.236
		c-0.525,0.521-0.94,1.134-1.245,1.838c-0.303,0.705-0.455,1.457-0.455,2.251s0.152,1.54,0.455,2.236
		c0.305,0.697,0.72,1.309,1.245,1.831c0.524,0.526,1.136,0.939,1.838,1.243c0.698,0.305,1.453,0.458,2.256,0.458
		c0.794,0,1.555-0.155,2.28-0.463c0.728-0.311,1.356-0.752,1.889-1.326L82.521,21.303z"/>
	<path fill="#FFFFFF" d="M98.966,23.165h-3.641v-3.637h-7.277v3.637h-3.625V12.264c0-1.006,0.19-1.949,0.568-2.833
		c0.383-0.886,0.901-1.656,1.554-2.315c0.657-0.659,1.426-1.178,2.308-1.558c0.883-0.381,1.829-0.571,2.834-0.571
		c1.004,0,1.949,0.189,2.831,0.571c0.885,0.38,1.657,0.899,2.316,1.558c0.66,0.659,1.178,1.429,1.559,2.315
		c0.381,0.884,0.573,1.827,0.573,2.833V23.165z M95.325,15.9v-3.637c0-0.498-0.094-0.97-0.285-1.413
		c-0.189-0.444-0.449-0.832-0.778-1.161c-0.329-0.33-0.719-0.588-1.16-0.778c-0.445-0.19-0.916-0.287-1.415-0.287
		c-0.497,0-0.971,0.097-1.413,0.287s-0.83,0.448-1.161,0.778c-0.328,0.33-0.589,0.717-0.778,1.161
		c-0.191,0.443-0.286,0.915-0.286,1.413V15.9H95.325z"/>
	<path fill="#FFFFFF" d="M5.348,11.463c0.155,0.067,0.215,0.057,0.286-0.115c0.804-1.946,2.182-3.329,4.129-4.133
		c0.162-0.066,0.195-0.117,0.124-0.282c-0.634-1.47-2.246-2.303-3.855-1.981c-1.565,0.311-2.726,1.742-2.73,3.365
		C3.298,9.668,4.123,10.93,5.348,11.463"/>
	<path fill="#FFFFFF" d="M15.137,7.213c1.948,0.803,3.328,2.183,4.132,4.13c0.067,0.165,0.122,0.19,0.283,0.124
		c1.47-0.636,2.301-2.25,1.979-3.86c-0.312-1.562-1.747-2.727-3.366-2.727c-1.356,0-2.614,0.822-3.145,2.048
		C14.951,7.084,14.968,7.144,15.137,7.213"/>
	<path fill="#FFFFFF" d="M9.806,20.866c-1.983-0.81-3.382-2.207-4.187-4.191c-0.054-0.133-0.101-0.141-0.227-0.09
		c-1.244,0.511-2.091,1.783-2.092,3.098c0.022,1.122,0.427,2.003,1.232,2.696c1.723,1.481,4.515,0.809,5.367-1.292
		C9.953,20.958,9.934,20.917,9.806,20.866"/>
	<path fill="#FFFFFF" d="M19.523,16.59c-0.131-0.056-0.183-0.048-0.24,0.094c-0.806,1.976-2.201,3.367-4.173,4.177
		c-0.135,0.055-0.167,0.098-0.103,0.238c0.596,1.267,1.581,1.977,2.984,2.066c1.952,0.127,3.629-1.473,3.611-3.431
		C21.591,18.353,20.764,17.104,19.523,16.59"/>
	<path fill="#FFFFFF" d="M15.452,23.5c-0.745-0.544-1.289-1.239-1.611-2.104c-0.037-0.098-0.071-0.155-0.207-0.133
		c-0.79,0.134-1.581,0.13-2.37-0.001c-0.121-0.021-0.159,0.024-0.193,0.119c-0.324,0.872-0.871,1.579-1.624,2.121
		c-0.086,0.066-0.089,0.109-0.038,0.2c0.667,1.191,1.691,1.789,3.039,1.851c1.363-0.064,2.386-0.666,3.052-1.858
		C15.556,23.596,15.527,23.555,15.452,23.5"/>
	<path fill="#FFFFFF" d="M5.081,15.42c0.112-0.042,0.159-0.089,0.137-0.224c-0.124-0.776-0.138-1.551,0.016-2.381
		c0.066-0.097-0.052-0.127-0.151-0.172c-0.143-0.061-0.291-0.114-0.43-0.185c-0.666-0.336-1.22-0.808-1.657-1.412
		c-0.069-0.097-0.12-0.112-0.229-0.05c-0.242,0.137-0.475,0.288-0.678,0.473c-1.784,1.628-1.439,4.437,0.678,5.594
		c0.106,0.059,0.157,0.053,0.229-0.046C3.532,16.28,4.222,15.742,5.081,15.42"/>
	<path fill="#FFFFFF" d="M22.121,10.989c-0.091-0.052-0.135-0.044-0.195,0.04c-0.547,0.749-1.25,1.299-2.122,1.625
		c-0.098,0.035-0.139,0.074-0.119,0.193c0.131,0.789,0.13,1.58,0,2.368c-0.02,0.117,0.021,0.159,0.117,0.194
		c0.873,0.325,1.576,0.873,2.123,1.625c0.059,0.083,0.102,0.094,0.194,0.041c1.191-0.665,1.791-1.688,1.857-3.051
		C23.911,12.68,23.312,11.653,22.121,10.989"/>
	<path fill="#FFFFFF" d="M9.448,4.558c0.749,0.547,1.299,1.247,1.624,2.121c0.036,0.094,0.073,0.141,0.193,0.12
		c0.789-0.131,1.58-0.131,2.369,0c0.116,0.018,0.158-0.016,0.195-0.116c0.324-0.872,0.875-1.574,1.623-2.121
		c0.08-0.06,0.098-0.101,0.045-0.197c-0.666-1.19-1.688-1.792-3.046-1.857C11.1,2.572,10.077,3.171,9.41,4.361
		C9.36,4.452,9.363,4.495,9.448,4.558"/>
	<path fill="#FFFFFF" d="M12.466,7.905C9.099,7.88,6.33,10.644,6.327,14.029c-0.003,3.378,2.716,6.103,6.113,6.128
		c3.365,0.024,6.135-2.738,6.138-6.123C18.581,10.658,15.861,7.931,12.466,7.905 M12.458,18.668
		c-2.556,0.004-4.639-2.074-4.643-4.631c-0.003-2.555,2.073-4.64,4.629-4.642c2.558-0.005,4.64,2.073,4.643,4.629
		C17.092,16.58,15.016,18.662,12.458,18.668"/>
	<path fill="#FFFFFF" d="M12.445,10.594c-1.894,0.01-3.413,1.526-3.429,3.426C9,15.905,10.548,17.46,12.448,17.468
		c1.89,0.008,3.443-1.544,3.441-3.438C15.887,12.135,14.334,10.585,12.445,10.594"/>
	<path fill="#233A74" d="M15.718,15.809c-0.099,0.194-0.217,0.375-0.353,0.544c-0.141,0.171-0.293,0.331-0.46,0.477
		c-0.57,0.503-1.297,0.819-2.052,0.901c-0.782,0.083-1.595-0.087-2.276-0.487c-0.065-0.037-0.128-0.08-0.19-0.122
		c-0.139-0.094-0.269-0.198-0.397-0.305c-0.104-0.087-0.201-0.184-0.29-0.282c-0.275-0.302-0.494-0.642-0.656-1.017
		c-0.306-0.714-0.394-1.528-0.224-2.288c0.015-0.063,0.031-0.129,0.048-0.189c0.08-0.284,0.185-0.557,0.335-0.813
		c0.011,0,0.014,0.01,0.016,0.019c-0.02,0.092-0.063,0.179-0.088,0.27c-0.105,0.406-0.083,0.803,0.079,1.19
		c0.218,0.521,0.604,0.864,1.136,1.047c0.157,0.053,0.32,0.078,0.486,0.085c0.325,0.014,0.632-0.052,0.92-0.197
		c0.296-0.15,0.526-0.378,0.716-0.648c0.323-0.46,0.77-0.727,1.327-0.793c0.51-0.059,0.973,0.076,1.376,0.396
		c0.397,0.314,0.626,0.73,0.693,1.231c0.035,0.265,0.014,0.523-0.061,0.778C15.781,15.675,15.746,15.742,15.718,15.809"/>
	<path fill="#C62232" d="M15.718,15.809c0.027-0.083,0.057-0.167,0.08-0.252c0.282-1.022-0.341-2.067-1.375-2.31
		c-0.728-0.17-1.503,0.124-1.932,0.737c-0.163,0.235-0.352,0.439-0.597,0.591c-0.231,0.142-0.481,0.231-0.75,0.267
		c-0.409,0.049-0.795-0.022-1.15-0.23c-0.489-0.283-0.792-0.703-0.905-1.256C9.01,12.972,9.059,12.6,9.212,12.24
		c0.008-0.039,0.029-0.073,0.046-0.105c0.077-0.149,0.178-0.283,0.279-0.415c0.116-0.149,0.244-0.289,0.384-0.419
		c0.211-0.193,0.439-0.362,0.689-0.502c0.371-0.211,0.765-0.35,1.182-0.425c0.767-0.145,1.569-0.033,2.275,0.307
		c0.171,0.083,0.336,0.176,0.491,0.284c0.052,0.035,0.104,0.07,0.153,0.109c0.214,0.162,0.406,0.346,0.581,0.55
		c0.159,0.184,0.297,0.388,0.416,0.602c0.159,0.288,0.277,0.591,0.357,0.909c0.038,0.15,0.06,0.303,0.087,0.453
		c0.008,0.021-0.001,0.041,0.008,0.06c0,0.018,0.002,0.035,0.003,0.052c0.009,0.027-0.003,0.056,0.007,0.082
		c0.002,0.028,0.003,0.058,0.004,0.086c0.007,0.113,0.007,0.225,0,0.335c-0.001,0.028-0.001,0.058-0.004,0.086
		c-0.01,0.025,0.002,0.054-0.007,0.082c0,0.014-0.002,0.029-0.002,0.043c-0.011,0.017,0,0.038-0.008,0.057
		c-0.041,0.273-0.096,0.543-0.192,0.804C15.894,15.458,15.819,15.641,15.718,15.809"/>
</g>
</svg>
