<?xml version="1.0" encoding="utf-8"?>
<!-- Generator: Adobe Illustrator 16.0.0, SVG Export Plug-In . SVG Version: 6.00 Build 0)  -->
<!DOCTYPE svg PUBLIC "-//W3C//DTD SVG 1.1//EN" "http://www.w3.org/Graphics/SVG/1.1/DTD/svg11.dtd">
<svg version="1.1" id="Layer_1" xmlns="http://www.w3.org/2000/svg" xmlns:xlink="http://www.w3.org/1999/xlink" x="0px" y="0px"
	 width="367.688px" height="477.805px" viewBox="0 0 367.688 477.805" enable-background="new 0 0 367.688 477.805"
	 xml:space="preserve">
<g id="Layer_9_xA0_Image_1_" display="none" opacity="0.349">
	
		<image display="inline" overflow="visible" enable-background="new    " width="1633" height="1961" id="Layer_9_xA0_Image" xlink:href="56B49E36111BF077.png"  transform="matrix(0.3595 0 0 0.3595 -100.115 -157.9922)">
	</image>
</g>
<g>
	<path fill="#C3CE4C" d="M2.902,12.037h56.455v25.139H33.5v10.628h25.425v23.847H33.5v36.2H2.902V12.037z"/>
	<path fill="#C3CE4C" d="M65.821,12.037h33.04c6.127,0,11.802,0.816,17.022,2.44c5.218,1.63,9.743,4.025,13.577,7.185
		c3.827,3.16,6.822,7.063,8.977,11.707c2.154,4.646,3.233,9.983,3.233,16.017c0,4.79-0.671,8.859-2.013,12.209
		c-1.341,3.353-2.824,6.129-4.453,8.332c-1.917,2.492-4.071,4.598-6.465,6.321l17.958,31.603h-35.912L96.419,83.574v24.277H65.821
		V12.037z M96.419,59.155h1.581c3.638,0,6.726-0.812,9.264-2.443c2.536-1.628,3.808-4.357,3.808-8.188
		c0-3.828-1.272-6.557-3.808-8.188c-2.538-1.627-5.626-2.442-9.264-2.442h-1.581V59.155z"/>
	<path fill="#C3CE4C" d="M148.131,12.037h56.45v25.139h-25.852v10.628h25.424v23.847h-25.424v11.062h26.865v25.139h-57.462V12.037z"
		/>
	<path fill="#C3CE4C" d="M208.751,78.116c2.11,0.67,4.313,1.2,6.609,1.581c1.914,0.479,4.097,0.861,6.536,1.148
		c2.44,0.286,4.907,0.43,7.398,0.43c4.401,0,6.609-1.627,6.609-4.883c0-1.244-0.67-2.516-2.012-3.808
		c-1.341-1.292-3.044-2.729-5.103-4.308c-2.06-1.582-4.262-3.328-6.604-5.244c-2.348-1.915-4.55-4.117-6.609-6.606
		c-2.063-2.489-3.761-5.291-5.097-8.405c-1.347-3.111-2.017-6.679-2.017-10.704c0-4.499,0.814-8.474,2.444-11.92
		c1.626-3.449,3.881-6.323,6.753-8.621c2.87-2.299,6.249-4.042,10.123-5.242c3.881-1.197,8.023-1.795,12.43-1.795
		c2.296,0,4.597,0.121,6.893,0.358c2.302,0.24,4.359,0.457,6.181,0.648c2.105,0.286,4.165,0.572,6.176,0.861v26.862
		c-0.769-0.095-1.63-0.191-2.585-0.286c-0.768-0.096-1.63-0.191-2.589-0.289c-0.955-0.093-1.961-0.145-3.015-0.145
		c-0.577,0-1.294,0.025-2.155,0.072c-0.861,0.049-1.677,0.17-2.44,0.361c-0.77,0.191-1.439,0.526-2.013,1.003
		c-0.572,0.483-0.861,1.151-0.861,2.013c0,0.769,0.646,1.723,1.939,2.874c1.291,1.147,2.874,2.489,4.742,4.021
		c1.867,1.533,3.927,3.305,6.176,5.314c2.249,2.012,4.308,4.311,6.176,6.896c1.866,2.585,3.446,5.508,4.74,8.763
		c1.296,3.256,1.94,6.895,1.94,10.917c0,4.215-0.67,8.165-2.012,11.852c-1.341,3.689-3.426,6.895-6.248,9.625
		c-2.827,2.729-6.444,4.884-10.846,6.464c-4.406,1.58-9.627,2.371-15.658,2.371c-3.643,0-7.017-0.17-10.128-0.503
		c-3.11-0.338-5.866-0.743-8.26-1.223c-2.78-0.48-5.314-1.053-7.615-1.723V78.116z"/>
	<path fill="#C3CE4C" d="M274.543,12.037h30.601v32.607h17.093V12.037h30.745v95.814h-30.745v-35.48h-17.093v35.48h-30.601V12.037z"
		/>
	<path fill="#C3CE4C" d="M4.878,116.579h35.226l34.823,51.238l34.625-51.238h35.226v133.493h-42.63v-48.034l-27.22,40.033
		l-27.419-40.033v48.034H4.878V116.579z"/>
	<path fill="#C3CE4C" d="M156.783,116.579h78.657v35.024h-36.027v14.811h35.424v33.222h-35.424v15.413h37.425v35.023h-80.055
		V116.579z"/>
	<path fill="#C3CE4C" d="M246.847,116.579h35.022l36.827,51.436v-51.436h41.827v133.493h-35.223l-36.628-51.235v51.235h-41.826
		V116.579z"/>
	<path fill="#E08659" d="M94.146,333.758c-3.48,18.366-16.819,33.64-42.335,33.64c-29.386,0-42.726-22.232-42.726-45.625
		c0-23.775,13.34-46.591,42.726-46.591c25.708,0,39.048,16.047,42.528,34.992h17.011v-37.694h15.465
		c10.827,0,13.34,0.965,13.34,3.091c0,1.738-1.933,4.446-1.933,8.12v89.504h-26.872v-39.437H94.146z M31.124,381.12h146.921v70.368
		h-27.838v-4.256H59.154v4.256h-28.03V381.12z M36.152,321.581c0,11.402,4.638,22.423,15.852,22.423
		c11.985,0,17.011-11.021,17.011-22.423c0-11.985-5.025-22.618-17.011-22.618C40.79,298.963,36.152,309.596,36.152,321.581z
		 M59.154,402.19v23.779h91.053V402.19H59.154z M167.799,270.544c10.052,0,12.566,0.774,12.566,2.9s-2.32,5.412-2.32,10.438v89.312
		h-27.45v-102.65H167.799z"/>
	<path fill="#E08659" d="M208.972,284.077h96.465v23.583h-68.435v28.032h66.31v23.393h-66.31v32.473h6.765
		c11.985,0,44.272-0.966,68.435-5.604c1.548,6.765,3.481,16.434,4.446,23.196c-27.839,5.223-63.409,6.77-89.117,6.77h-18.559
		V284.077z M351.252,270.544c11.021,0,13.533,0.578,13.533,2.514c0,1.739-2.321,5.024-2.321,10.246V451.68h-28.03V270.544H351.252z"
		/>
</g>
</svg>
