<svg xmlns="http://www.w3.org/2000/svg" width="40" height="40" viewBox="0 0 40 40"><style>.a{fill:#FFF;}</style><path d="M7.7 15.4c0.3 0.1 0.4 0.1 0.5-0.2 1.4-3.4 3.8-5.8 7.2-7.2 0.3-0.1 0.3-0.2 0.2-0.5 -1.1-2.6-3.9-4-6.7-3.5C6.2 4.6 4.1 7.1 4.1 9.9 4.1 12.3 5.6 14.5 7.7 15.4" class="a"/><path d="M24.8 8c3.4 1.4 5.8 3.8 7.2 7.2 0.1 0.3 0.2 0.3 0.5 0.2 2.6-1.1 4-3.9 3.5-6.7 -0.5-2.7-3.1-4.8-5.9-4.8 -2.4 0-4.6 1.4-5.5 3.6C24.5 7.8 24.5 7.9 24.8 8" class="a"/><path d="M15.5 31.8c-3.5-1.4-5.9-3.9-7.3-7.3 -0.1-0.2-0.2-0.2-0.4-0.2 -2.2 0.9-3.7 3.1-3.7 5.4 0 2 0.7 3.5 2.2 4.7 3 2.6 7.9 1.4 9.4-2.3C15.7 32 15.7 31.9 15.5 31.8" class="a"/><path d="M32.4 24.3c-0.2-0.1-0.3-0.1-0.4 0.2 -1.4 3.4-3.8 5.9-7.3 7.3 -0.2 0.1-0.3 0.2-0.2 0.4 1 2.2 2.8 3.5 5.2 3.6 3.4 0.2 6.3-2.6 6.3-6C36.1 27.4 34.6 25.3 32.4 24.3" class="a"/><path d="M25.3 36.4c-1.3-0.9-2.2-2.2-2.8-3.7 -0.1-0.2-0.1-0.3-0.4-0.2 -1.4 0.2-2.8 0.2-4.1 0 -0.2 0-0.3 0-0.3 0.2 -0.6 1.5-1.5 2.8-2.8 3.7 -0.2 0.1-0.2 0.2-0.1 0.3 1.2 2.1 3 3.1 5.3 3.2 2.4-0.1 4.2-1.2 5.3-3.2C25.5 36.6 25.5 36.5 25.3 36.4" class="a"/><path d="M7.2 22.3c0.2-0.1 0.3-0.2 0.2-0.4 -0.2-1.4-0.2-2.7 0-4.2 0.1-0.2-0.1-0.2-0.3-0.3 -0.2-0.1-0.5-0.2-0.8-0.3 -1.2-0.6-2.1-1.4-2.9-2.5 -0.1-0.2-0.2-0.2-0.4-0.1 -0.4 0.2-0.8 0.5-1.2 0.8 -3.1 2.8-2.5 7.7 1.2 9.8 0.2 0.1 0.3 0.1 0.4-0.1C4.5 23.8 5.7 22.9 7.2 22.3" class="a"/><path d="M37 14.6c-0.2-0.1-0.2-0.1-0.3 0.1 -1 1.3-2.2 2.3-3.7 2.8 -0.2 0.1-0.2 0.1-0.2 0.3 0.2 1.4 0.2 2.8 0 4.1 0 0.2 0 0.3 0.2 0.3 1.5 0.6 2.7 1.5 3.7 2.8 0.1 0.1 0.2 0.2 0.3 0.1 2.1-1.2 3.1-2.9 3.2-5.3C40.1 17.5 39.1 15.7 37 14.6" class="a"/><path d="M14.9 3.3c1.3 1 2.3 2.2 2.8 3.7 0.1 0.2 0.1 0.2 0.3 0.2 1.4-0.2 2.8-0.2 4.1 0 0.2 0 0.3 0 0.3-0.2 0.6-1.5 1.5-2.7 2.8-3.7 0.1-0.1 0.2-0.2 0.1-0.3 -1.2-2.1-2.9-3.1-5.3-3.2C17.7-0.1 16 0.9 14.8 3 14.7 3.2 14.7 3.2 14.9 3.3" class="a"/><path d="M20.1 9.2C14.2 9.1 9.4 14 9.4 19.9c0 5.9 4.7 10.7 10.7 10.7 5.9 0 10.7-4.8 10.7-10.7C30.8 14 26.1 9.2 20.1 9.2M20.1 28c-4.5 0-8.1-3.6-8.1-8.1 0-4.5 3.6-8.1 8.1-8.1 4.5 0 8.1 3.6 8.1 8.1C28.2 24.3 24.6 28 20.1 28" class="a"/><path d="M20.1 13.9c-3.3 0-6 2.7-6 6 0 3.3 2.7 6 6 6 3.3 0 6-2.7 6-6C26.1 16.6 23.4 13.9 20.1 13.9" class="a"/><path d="M25.8 23c-0.2 0.3-0.4 0.7-0.6 0.9 -0.2 0.3-0.5 0.6-0.8 0.8 -1 0.9-2.3 1.4-3.6 1.6 -1.4 0.1-2.8-0.1-4-0.9 -0.1-0.1-0.2-0.1-0.3-0.2 -0.2-0.2-0.5-0.3-0.7-0.5 -0.2-0.2-0.3-0.3-0.5-0.5 -0.5-0.5-0.9-1.1-1.1-1.8 -0.5-1.2-0.7-2.7-0.4-4 0-0.1 0.1-0.2 0.1-0.3 0.1-0.5 0.3-1 0.6-1.4 0 0 0 0 0 0 0 0.2-0.1 0.3-0.2 0.5 -0.2 0.7-0.1 1.4 0.1 2.1 0.4 0.9 1.1 1.5 2 1.8 0.3 0.1 0.6 0.1 0.9 0.1 0.6 0 1.1-0.1 1.6-0.3 0.5-0.3 0.9-0.7 1.3-1.1 0.6-0.8 1.3-1.3 2.3-1.4 0.9-0.1 1.7 0.1 2.4 0.7 0.7 0.6 1.1 1.3 1.2 2.1 0.1 0.5 0 0.9-0.1 1.4C25.9 22.8 25.9 22.9 25.8 23" fill="#233A74"/><path d="M25.8 23c0-0.1 0.1-0.3 0.1-0.4 0.5-1.8-0.6-3.6-2.4-4 -1.3-0.3-2.6 0.2-3.4 1.3 -0.3 0.4-0.6 0.8-1 1 -0.4 0.2-0.8 0.4-1.3 0.5 -0.7 0.1-1.4 0-2-0.4 -0.9-0.5-1.4-1.2-1.6-2.2 -0.1-0.7-0.1-1.3 0.2-1.9 0-0.1 0.1-0.1 0.1-0.2 0.1-0.3 0.3-0.5 0.5-0.7 0.2-0.3 0.4-0.5 0.7-0.7 0.4-0.3 0.8-0.6 1.2-0.9 0.6-0.4 1.3-0.6 2.1-0.7 1.3-0.2 2.7-0.1 4 0.5 0.3 0.1 0.6 0.3 0.9 0.5 0.1 0.1 0.2 0.1 0.3 0.2 0.4 0.3 0.7 0.6 1 1 0.3 0.3 0.5 0.7 0.7 1.1 0.3 0.5 0.5 1 0.6 1.6 0.1 0.3 0.1 0.5 0.2 0.8 0 0 0 0.1 0 0.1 0 0 0 0.1 0 0.1 0 0 0 0.1 0 0.1 0 0.1 0 0.1 0 0.2 0 0.2 0 0.4 0 0.6 0 0.1 0 0.1 0 0.2 0 0 0 0.1 0 0.1 0 0 0 0.1 0 0.1 0 0 0 0.1 0 0.1 -0.1 0.5-0.2 0.9-0.3 1.4C26.1 22.4 26 22.7 25.8 23" fill="#C62232"/></svg>