<?xml version="1.0" encoding="utf-8"?>
<!-- Generator: Adobe Illustrator 16.0.0, SVG Export Plug-In . SVG Version: 6.00 Build 0)  -->
<!DOCTYPE svg PUBLIC "-//W3C//DTD SVG 1.1//EN" "http://www.w3.org/Graphics/SVG/1.1/DTD/svg11.dtd">
<svg version="1.1" id="Layer_1" xmlns="http://www.w3.org/2000/svg" xmlns:xlink="http://www.w3.org/1999/xlink" x="0px" y="0px"
	 width="1000px" height="359.375px" viewBox="0 0 1000 359.375" enable-background="new 0 0 1000 359.375" xml:space="preserve">
<g>
	<polygon fill="#9DD6C6" points="861.098,263.812 904.665,263.812 904.665,211.287 882.883,179.402 861.098,211.287 	"/>
	<polygon fill="#FFFFFF" points="800.909,263.812 844.476,263.812 844.476,211.287 822.69,179.402 800.909,211.287 	"/>
	<rect x="800.909" y="211.287" fill="#81CCB5" width="60.188" height="52.524"/>
	<polygon fill="#736458" points="822.69,179.402 882.883,179.402 861.098,211.287 800.909,211.287 	"/>
	<polygon fill="#544841" points="857.488,211.287 861.098,211.287 882.883,179.402 879.271,179.402 	"/>
	<rect x="804.023" y="207.759" fill="#544841" width="56.781" height="3.528"/>
	<polygon fill="#544841" points="800.909,211.287 804.519,211.287 826.303,179.402 822.69,179.402 	"/>
	<g>
		<path fill="#68857D" d="M819.023,249.916h-11.82v-21.571c0-3.271,2.646-5.915,5.908-5.915l0,0c3.269,0,5.912,2.644,5.912,5.915
			V249.916z"/>
		<path fill="#68857D" d="M854.804,249.916h-11.82v-21.571c0-3.271,2.645-5.915,5.905-5.915l0,0c3.272,0,5.915,2.644,5.915,5.915
			V249.916z"/>
		<path fill="#68857D" d="M836.916,249.916h-11.82v-21.571c0-3.271,2.644-5.915,5.906-5.915l0,0c3.269,0,5.914,2.644,5.914,5.915
			V249.916z"/>
	</g>
</g>
<g>
	<rect x="272.814" y="114.025" fill="#FDC280" width="100.477" height="149.786"/>
	<rect x="278.609" y="67.958" fill="#765039" width="88.897" height="40.283"/>
	<polygon fill="#593D2C" points="272.826,108.242 272.826,63.324 278.609,63.324 278.609,108.242 367.506,108.242 367.506,63.324 
		373.291,63.324 373.291,108.242 373.279,108.242 373.279,114.025 272.805,114.025 272.805,108.242 	"/>
	<rect x="298.825" y="56.121" fill="#FDC280" width="10.896" height="29.659"/>
	<g>
		<path fill="#68857D" d="M348.212,158.029h13.099v-24.938c0-3.623-2.932-6.553-6.545-6.553l0,0c-3.623,0-6.554,2.93-6.554,6.553
			V158.029z"/>
		<path fill="#68857D" d="M327.074,158.029h13.098v-24.938c0-3.623-2.931-6.553-6.544-6.553l0,0c-3.625,0-6.554,2.93-6.554,6.553
			V158.029z"/>
		<path fill="#68857D" d="M305.934,158.029h13.097v-24.938c0-3.623-2.929-6.553-6.541-6.553l0,0c-3.628,0-6.556,2.93-6.556,6.553
			V158.029z"/>
		<path fill="#68857D" d="M284.793,158.029h13.101v-24.938c0-3.623-2.932-6.553-6.546-6.553l0,0c-3.625,0-6.555,2.93-6.555,6.553
			V158.029z"/>
	</g>
	<g>
		<path fill="#68857D" d="M348.212,203.888h13.099V178.95c0-3.623-2.932-6.555-6.545-6.555l0,0c-3.623,0-6.554,2.932-6.554,6.555
			V203.888z"/>
		<path fill="#68857D" d="M327.074,203.888h13.098V178.95c0-3.623-2.931-6.555-6.544-6.555l0,0c-3.625,0-6.554,2.932-6.554,6.555
			V203.888z"/>
		<path fill="#68857D" d="M305.934,203.888h13.097V178.95c0-3.623-2.929-6.555-6.541-6.555l0,0c-3.628,0-6.556,2.932-6.556,6.555
			V203.888z"/>
		<path fill="#68857D" d="M284.793,203.888h13.101V178.95c0-3.623-2.932-6.555-6.546-6.555l0,0c-3.625,0-6.555,2.932-6.555,6.555
			V203.888z"/>
	</g>
	<g>
		<path fill="#68857D" d="M348.212,249.759h13.099v-24.938c0-3.626-2.932-6.556-6.545-6.556l0,0c-3.623,0-6.554,2.93-6.554,6.556
			V249.759z"/>
		<path fill="#68857D" d="M327.074,249.759h13.098v-24.938c0-3.626-2.931-6.556-6.544-6.556l0,0c-3.625,0-6.554,2.93-6.554,6.556
			V249.759z"/>
		<path fill="#68857D" d="M305.934,249.759h13.097v-24.938c0-3.626-2.929-6.556-6.541-6.556l0,0c-3.628,0-6.556,2.93-6.556,6.556
			V249.759z"/>
		<path fill="#68857D" d="M284.793,249.759h13.101v-24.938c0-3.626-2.932-6.556-6.546-6.556l0,0c-3.625,0-6.555,2.93-6.555,6.556
			V249.759z"/>
	</g>
</g>
<g>
	<rect x="730.651" y="159.566" fill="#FFFFFF" width="100.477" height="104.245"/>
	<rect x="730.651" y="211.438" fill="#FDC280" width="100.477" height="52.373"/>
	<rect x="736.447" y="113.504" fill="#765039" width="88.896" height="40.28"/>
	<polygon fill="#593D2C" points="730.665,153.784 730.665,108.87 736.447,108.87 736.447,153.784 825.344,153.784 825.344,108.87 
		831.128,108.87 831.128,153.784 831.118,153.784 831.118,159.566 730.641,159.566 730.641,153.784 	"/>
	<rect x="792.986" y="101.665" fill="#FFFFFF" width="10.896" height="29.659"/>
	<g>
		<path fill="#68857D" d="M806.05,203.573h13.101v-24.937c0-3.627-2.936-6.557-6.547-6.557l0,0c-3.624,0-6.554,2.93-6.554,6.557
			V203.573z"/>
		<path fill="#68857D" d="M784.912,203.573h13.098v-24.937c0-3.627-2.931-6.557-6.545-6.557l0,0c-3.625,0-6.553,2.93-6.553,6.557
			V203.573z"/>
		<path fill="#68857D" d="M763.77,203.573h13.098v-24.937c0-3.627-2.927-6.557-6.539-6.557l0,0c-3.627,0-6.559,2.93-6.559,6.557
			V203.573z"/>
		<path fill="#68857D" d="M742.632,203.573h13.101v-24.937c0-3.627-2.931-6.557-6.545-6.557l0,0c-3.626,0-6.556,2.93-6.556,6.557
			V203.573z"/>
	</g>
	<g>
		<path fill="#68857D" d="M806.05,249.433h13.101v-24.938c0-3.626-2.936-6.555-6.547-6.555l0,0c-3.624,0-6.554,2.929-6.554,6.555
			V249.433z"/>
		<path fill="#68857D" d="M784.912,249.433h13.098v-24.938c0-3.626-2.931-6.555-6.545-6.555l0,0c-3.625,0-6.553,2.929-6.553,6.555
			V249.433z"/>
		<path fill="#68857D" d="M763.77,249.433h13.098v-24.938c0-3.626-2.927-6.555-6.539-6.555l0,0c-3.627,0-6.559,2.929-6.559,6.555
			V249.433z"/>
		<path fill="#68857D" d="M742.632,249.433h13.101v-24.938c0-3.626-2.931-6.555-6.545-6.555l0,0c-3.626,0-6.556,2.929-6.556,6.555
			V249.433z"/>
	</g>
</g>
<g>
	<rect x="102.793" y="191.545" fill="#FED991" width="100.478" height="72.267"/>
	<rect x="108.588" y="145.482" fill="#765039" width="88.897" height="40.281"/>
	<polygon fill="#593D2C" points="102.805,185.764 102.805,140.849 108.588,140.849 108.588,185.764 197.486,185.764 
		197.486,140.849 203.271,140.849 203.271,185.764 203.259,185.764 203.259,191.545 102.783,191.545 102.783,185.764 	"/>
	<rect x="128.805" y="133.641" fill="#FED991" width="10.895" height="29.659"/>
	<g>
		<path fill="#68857D" d="M178.191,236.274h13.1v-24.938c0-3.626-2.932-6.559-6.546-6.559l0,0c-3.623,0-6.554,2.933-6.554,6.559
			V236.274z"/>
		<path fill="#68857D" d="M157.053,236.274h13.098v-24.938c0-3.626-2.93-6.559-6.544-6.559l0,0c-3.625,0-6.554,2.933-6.554,6.559
			V236.274z"/>
		<path fill="#68857D" d="M135.913,236.274h13.098v-24.938c0-3.626-2.93-6.559-6.543-6.559l0,0c-3.625,0-6.555,2.933-6.555,6.559
			V236.274z"/>
		<path fill="#68857D" d="M114.772,236.274h13.101v-24.938c0-3.626-2.931-6.559-6.545-6.559l0,0c-3.624,0-6.556,2.933-6.556,6.559
			V236.274z"/>
	</g>
	<rect x="102.783" y="246.87" fill="#E6C382" width="100.487" height="16.941"/>
</g>
<g>
	<polygon fill="#F58B6D" points="448.699,114.025 448.699,68.93 348.222,68.93 348.222,218.716 348.223,218.716 348.223,263.812 
		448.701,263.812 448.701,114.025 	"/>
	<path fill="#68857D" d="M373.302,203.888h-13.099V178.95c0-3.623,2.933-6.555,6.546-6.555l0,0c3.624,0,6.553,2.932,6.553,6.555
		V203.888z"/>
	<path fill="#68857D" d="M394.439,203.888h-13.098V178.95c0-3.623,2.931-6.555,6.545-6.555l0,0c3.624,0,6.552,2.932,6.552,6.555
		V203.888z"/>
	<path fill="#68857D" d="M415.58,203.888h-13.097V178.95c0-3.623,2.929-6.555,6.542-6.555l0,0c3.626,0,6.555,2.932,6.555,6.555
		V203.888z"/>
	<path fill="#68857D" d="M436.721,203.888H423.62V178.95c0-3.623,2.931-6.555,6.546-6.555l0,0c3.624,0,6.555,2.932,6.555,6.555
		V203.888z"/>
	<rect x="360.203" y="218.266" fill="#68857D" width="13.099" height="24.938"/>
	<rect x="381.342" y="218.266" fill="#68857D" width="13.098" height="24.938"/>
	<rect x="402.482" y="218.266" fill="#68857D" width="13.097" height="24.938"/>
	<rect x="423.62" y="218.266" fill="#68857D" width="13.102" height="24.938"/>
	<rect x="345.327" y="249.455" fill="#544841" width="106.261" height="14.356"/>
	<rect x="354.016" y="22.863" fill="#544841" width="88.898" height="40.283"/>
	<polygon fill="#736458" points="348.233,63.146 348.233,18.229 354.016,18.229 354.016,63.146 442.915,63.146 442.915,18.229 
		448.699,18.229 448.699,63.146 448.687,63.146 448.687,68.93 348.212,68.93 348.212,63.146 	"/>
	<rect x="414.89" y="11.024" fill="#F58B6D" width="5.449" height="29.659"/>
	<rect x="424.722" y="11.024" fill="#F58B6D" width="5.448" height="29.659"/>
	<path fill="#68857D" d="M423.62,112.933h13.1V87.995c0-3.625-2.932-6.551-6.545-6.551l0,0c-3.624,0-6.555,2.926-6.555,6.551
		V112.933z"/>
	<path fill="#68857D" d="M402.482,112.933h13.097V87.995c0-3.625-2.93-6.551-6.544-6.551l0,0c-3.625,0-6.553,2.926-6.553,6.551
		V112.933z"/>
	<path fill="#68857D" d="M381.342,112.933h13.098V87.995c0-3.625-2.929-6.551-6.541-6.551l0,0c-3.627,0-6.557,2.926-6.557,6.551
		V112.933z"/>
	<path fill="#68857D" d="M360.201,112.933h13.101V87.995c0-3.625-2.93-6.551-6.545-6.551l0,0c-3.624,0-6.556,2.926-6.556,6.551
		V112.933z"/>
	<path fill="#68857D" d="M423.62,158.791h13.1v-24.938c0-3.623-2.932-6.552-6.545-6.552l0,0c-3.624,0-6.555,2.929-6.555,6.552
		V158.791z"/>
	<path fill="#68857D" d="M402.482,158.791h13.097v-24.938c0-3.623-2.93-6.552-6.544-6.552l0,0c-3.625,0-6.553,2.929-6.553,6.552
		V158.791z"/>
	<path fill="#68857D" d="M381.342,158.791h13.098v-24.938c0-3.623-2.929-6.552-6.541-6.552l0,0c-3.627,0-6.557,2.929-6.557,6.552
		V158.791z"/>
	<path fill="#68857D" d="M360.201,158.791h13.101v-24.938c0-3.623-2.93-6.552-6.545-6.552l0,0c-3.624,0-6.556,2.929-6.556,6.552
		V158.791z"/>
	<path fill="#68857D" d="M423.62,204.663h13.1v-24.938c0-3.627-2.932-6.555-6.545-6.555l0,0c-3.624,0-6.555,2.928-6.555,6.555
		V204.663z"/>
	<path fill="#68857D" d="M402.482,204.663h13.097v-24.938c0-3.627-2.93-6.555-6.544-6.555l0,0c-3.625,0-6.553,2.928-6.553,6.555
		V204.663z"/>
	<path fill="#68857D" d="M381.342,204.663h13.098v-24.938c0-3.627-2.929-6.555-6.541-6.555l0,0c-3.627,0-6.557,2.928-6.557,6.555
		V204.663z"/>
	<path fill="#68857D" d="M360.201,204.663h13.101v-24.938c0-3.627-2.93-6.555-6.545-6.555l0,0c-3.624,0-6.556,2.928-6.556,6.555
		V204.663z"/>
</g>
<g>
	<path fill="#C6D92D" d="M933.342,221.107c0,10.734-8.708,19.442-19.447,19.442c-10.738,0-19.446-8.708-19.446-19.442
		c0-10.737,8.708-19.443,19.446-19.443C924.634,201.664,933.342,210.37,933.342,221.107z"/>
	<g>
		<path fill="#85BD41" d="M913.893,240.55v-38.886c-10.736,0-19.444,8.71-19.444,19.44
			C894.448,231.845,903.156,240.55,913.893,240.55z"/>
	</g>
	<rect x="911.313" y="229.584" fill="#754D25" width="5.162" height="34.228"/>
</g>
<g>
	<polygon fill="#FFFFFF" points="243.068,263.812 291.343,263.812 291.343,162.15 267.208,126.821 243.068,162.15 	"/>
	<polygon fill="#FFFFFF" points="176.371,263.812 224.647,263.812 224.647,162.15 200.51,126.821 176.371,162.15 	"/>
	<rect x="176.371" y="162.15" fill="#E6E6E5" width="66.697" height="101.661"/>
	<polygon fill="#544841" points="200.51,126.821 267.208,126.821 243.068,162.15 176.371,162.15 	"/>
	<rect x="243.068" y="256.533" fill="#998776" width="48.275" height="7.278"/>
	<rect x="176.371" y="256.533" fill="#736458" width="66.697" height="7.278"/>
	<rect x="206.086" y="119.799" fill="#E6E6E5" width="5.498" height="27.689"/>
	<rect x="216.558" y="119.799" fill="#E6E6E5" width="5.499" height="27.689"/>
	<g>
		<rect x="220.578" y="224.379" fill="#68857D" width="9.745" height="28.029"/>
		<rect x="204.857" y="224.379" fill="#68857D" width="9.725" height="28.029"/>
		<rect x="189.114" y="224.379" fill="#68857D" width="9.748" height="28.029"/>
	</g>
	<g>
		<rect x="220.578" y="173.551" fill="#68857D" width="9.745" height="28.029"/>
		<rect x="204.857" y="173.551" fill="#68857D" width="9.725" height="28.029"/>
		<rect x="189.114" y="173.551" fill="#68857D" width="9.748" height="28.029"/>
	</g>
	<polygon fill="#736458" points="239.067,162.15 243.068,162.15 267.208,126.821 263.206,126.821 	"/>
	<rect x="179.824" y="158.241" fill="#736458" width="62.916" height="3.909"/>
	<polygon fill="#736458" points="176.371,162.15 180.37,162.15 204.509,126.821 200.51,126.821 	"/>
	<circle fill="#68857D" cx="267.208" cy="157.02" r="5.131"/>
</g>
<g>
	<polygon fill="#F8AC9A" points="715.968,263.812 759.533,263.812 759.533,177.113 737.751,145.229 715.968,177.113 	"/>
	<polygon fill="#FFFFFF" points="655.779,263.812 699.342,263.812 699.342,177.113 677.561,145.229 655.779,177.113 	"/>
	<rect x="655.779" y="177.113" fill="#F68B67" width="60.188" height="86.698"/>
	<polygon fill="#736458" points="677.561,145.229 737.751,145.229 715.968,177.113 655.779,177.113 	"/>
	<rect x="682.595" y="138.89" fill="#F8AC9A" width="4.958" height="24.99"/>
	<rect x="692.045" y="138.89" fill="#F8AC9A" width="4.959" height="24.99"/>
	<polygon fill="#544841" points="712.355,177.113 715.968,177.113 737.751,145.229 734.141,145.229 	"/>
	<rect x="658.894" y="173.581" fill="#544841" width="56.777" height="3.532"/>
	<polygon fill="#544841" points="655.779,177.113 659.388,177.113 681.169,145.229 677.561,145.229 	"/>
	<g>
		<path fill="#68857D" d="M678.705,254.778h-11.822v-21.567c0-3.271,2.646-5.919,5.907-5.919l0,0c3.271,0,5.915,2.647,5.915,5.919
			V254.778z"/>
		<path fill="#68857D" d="M704.86,254.778h-11.82v-21.567c0-3.271,2.643-5.919,5.904-5.919l0,0c3.272,0,5.916,2.647,5.916,5.919
			V254.778z"/>
	</g>
	<g>
		<path fill="#68857D" d="M678.705,215.739h-11.822v-21.571c0-3.271,2.646-5.916,5.907-5.916l0,0c3.271,0,5.915,2.645,5.915,5.916
			V215.739z"/>
		<path fill="#68857D" d="M704.86,215.739h-11.82v-21.571c0-3.271,2.643-5.916,5.904-5.916l0,0c3.272,0,5.916,2.645,5.916,5.916
			V215.739z"/>
	</g>
</g>
<g>
	<path fill="#85BD41" d="M209.702,249.407c-3.87,0-7.377,1.534-9.966,4.019c-3.447-5.438-9.502-9.062-16.418-9.062
		c-10.738,0-19.444,8.706-19.446,19.447h60.234C224.102,255.855,217.654,249.407,209.702,249.407z"/>
</g>
<g>
	<rect x="568.89" y="114.025" fill="#9DD6C6" width="100.478" height="149.786"/>
	<rect x="574.675" y="67.958" fill="#765039" width="88.898" height="40.283"/>
	<polygon fill="#593D2C" points="669.354,108.242 669.354,63.324 663.573,63.324 663.573,108.242 574.675,108.242 574.675,63.324 
		568.89,63.324 568.89,108.242 568.904,108.242 568.904,114.025 669.376,114.025 669.376,108.242 	"/>
	<rect x="632.458" y="56.121" fill="#593D2C" width="10.898" height="29.659"/>
	<g>
		<path fill="#68857D" d="M593.969,158.029H580.87v-24.938c0-3.623,2.933-6.553,6.543-6.553l0,0c3.625,0,6.556,2.93,6.556,6.553
			V158.029z"/>
		<path fill="#68857D" d="M615.108,158.029H602.01v-24.938c0-3.623,2.932-6.553,6.544-6.553l0,0c3.627,0,6.555,2.93,6.555,6.553
			V158.029z"/>
		<path fill="#68857D" d="M636.247,158.029h-13.096v-24.938c0-3.623,2.927-6.553,6.539-6.553l0,0c3.628,0,6.557,2.93,6.557,6.553
			V158.029z"/>
		<path fill="#68857D" d="M657.388,158.029h-13.102v-24.938c0-3.623,2.931-6.553,6.547-6.553l0,0c3.624,0,6.555,2.93,6.555,6.553
			V158.029z"/>
	</g>
	<g>
		<path fill="#68857D" d="M593.969,203.888H580.87V178.95c0-3.623,2.933-6.555,6.543-6.555l0,0c3.625,0,6.556,2.932,6.556,6.555
			V203.888z"/>
		<path fill="#68857D" d="M615.108,203.888H602.01V178.95c0-3.623,2.932-6.555,6.544-6.555l0,0c3.627,0,6.555,2.932,6.555,6.555
			V203.888z"/>
		<path fill="#68857D" d="M636.247,203.888h-13.096V178.95c0-3.623,2.927-6.555,6.539-6.555l0,0c3.628,0,6.557,2.932,6.557,6.555
			V203.888z"/>
		<path fill="#68857D" d="M657.388,203.888h-13.102V178.95c0-3.623,2.931-6.555,6.547-6.555l0,0c3.624,0,6.555,2.932,6.555,6.555
			V203.888z"/>
	</g>
	<g>
		<rect x="580.87" y="218.266" fill="#68857D" width="13.099" height="24.938"/>
		<rect x="602.01" y="218.266" fill="#68857D" width="13.099" height="24.938"/>
		<rect x="623.151" y="218.266" fill="#68857D" width="13.096" height="24.938"/>
		<rect x="644.286" y="218.266" fill="#68857D" width="13.102" height="24.938"/>
	</g>
	<rect x="565.995" y="249.455" fill="#81CCB5" width="106.258" height="14.356"/>
</g>
<g>
	<rect x="475.522" y="114.856" fill="#FFEABF" width="99.917" height="148.955"/>
	<rect x="545.083" y="89.075" fill="#544841" width="10.834" height="25.781"/>
	<rect x="534.074" y="80.392" fill="#544841" width="7.084" height="34.465"/>
	<g>
		<path fill="#68857D" d="M500.46,157.228h-13.025V132.43c0-3.604,2.915-6.519,6.508-6.519l0,0c3.604,0,6.517,2.914,6.517,6.519
			V157.228z"/>
		<path fill="#68857D" d="M521.481,157.228h-13.027V132.43c0-3.604,2.915-6.519,6.51-6.519l0,0c3.606,0,6.518,2.914,6.518,6.519
			V157.228z"/>
		<path fill="#68857D" d="M542.502,157.228h-13.023V132.43c0-3.604,2.914-6.519,6.505-6.519l0,0c3.609,0,6.519,2.914,6.519,6.519
			V157.228z"/>
		<path fill="#68857D" d="M563.528,157.228H550.5V132.43c0-3.604,2.915-6.519,6.507-6.519l0,0c3.606,0,6.521,2.914,6.521,6.519
			V157.228z"/>
	</g>
	<g>
		<path fill="#68857D" d="M500.46,205.61h-13.025v-24.796c0-3.606,2.915-6.521,6.508-6.521l0,0c3.604,0,6.517,2.914,6.517,6.521
			V205.61z"/>
		<path fill="#68857D" d="M521.481,205.61h-13.027v-24.796c0-3.606,2.915-6.521,6.51-6.521l0,0c3.606,0,6.518,2.914,6.518,6.521
			V205.61z"/>
		<path fill="#68857D" d="M542.502,205.61h-13.023v-24.796c0-3.606,2.914-6.521,6.505-6.521l0,0c3.609,0,6.519,2.914,6.519,6.521
			V205.61z"/>
		<path fill="#68857D" d="M563.528,205.61H550.5v-24.796c0-3.606,2.915-6.521,6.507-6.521l0,0c3.606,0,6.521,2.914,6.521,6.521
			V205.61z"/>
	</g>
	<g>
		<rect x="487.435" y="218.521" fill="#68857D" width="76.093" height="24.796"/>
	</g>
	<rect x="472.641" y="247.417" fill="#998776" width="105.67" height="16.395"/>
	<rect x="472.641" y="163.266" fill="#998776" width="105.67" height="4.992"/>
	<rect x="472.641" y="112.361" fill="#998776" width="105.67" height="4.991"/>
	<rect x="470.653" y="104.418" fill="#736458" width="109.646" height="9.462"/>
	<g>
		<g>
			<circle fill="#FFFFFF" cx="566.668" cy="232.193" r="2.94"/>
			<circle fill="#FBAD18" cx="560.788" cy="232.193" r="2.94"/>
			<path fill="#FFFFFF" d="M557.848,232.193c0,1.623-1.315,2.942-2.941,2.942c-1.62,0-2.939-1.319-2.939-2.942
				s1.319-2.938,2.939-2.938C556.532,229.255,557.848,230.57,557.848,232.193z"/>
			<path fill="#FBAD18" d="M551.967,232.193c0,1.623-1.314,2.942-2.94,2.942c-1.621,0-2.938-1.319-2.938-2.942
				s1.316-2.938,2.938-2.938C550.652,229.255,551.967,230.57,551.967,232.193z"/>
			<circle fill="#FFFFFF" cx="543.149" cy="232.193" r="2.94"/>
			<circle fill="#FBAD18" cx="537.268" cy="232.193" r="2.941"/>
			<path fill="#FFFFFF" d="M534.327,232.193c0,1.623-1.315,2.942-2.942,2.942c-1.622,0-2.938-1.319-2.938-2.942
				s1.316-2.938,2.938-2.938C533.012,229.255,534.327,230.57,534.327,232.193z"/>
			<circle fill="#FBAD18" cx="525.505" cy="232.193" r="2.941"/>
			<circle fill="#FFFFFF" cx="519.624" cy="232.193" r="2.939"/>
			<circle fill="#FBAD18" cx="513.745" cy="232.193" r="2.94"/>
			<circle fill="#FFFFFF" cx="507.865" cy="232.193" r="2.94"/>
			<path fill="#FBAD18" d="M504.925,232.193c0,1.623-1.316,2.942-2.941,2.942c-1.621,0-2.94-1.319-2.94-2.942
				s1.319-2.938,2.94-2.938C503.608,229.255,504.925,230.57,504.925,232.193z"/>
			<circle fill="#FFFFFF" cx="496.103" cy="232.193" r="2.94"/>
			<circle fill="#FBAD18" cx="490.223" cy="232.193" r="2.94"/>
			<circle fill="#FFFFFF" cx="484.344" cy="232.193" r="2.94"/>
		</g>
		<rect x="481.403" y="213.396" fill="#FECC1C" width="88.205" height="18.797"/>
	</g>
</g>
<g>
	<path fill="none" d="M600.886,251.492l2.649-0.254l-2.326-7.226l-2.896,3.742C599.458,248.757,600.353,250.038,600.886,251.492z"/>
	<path fill="none" d="M594.354,252.866l-0.738,0.959c0.047,0.081,0.087,0.169,0.119,0.26l5.838-0.031
		c-0.046-0.554-0.149-1.093-0.312-1.607L594.354,252.866z"/>
	<path fill="none" d="M597.183,249.215l-2.199,2.835l3.982-0.376C598.546,250.731,597.937,249.897,597.183,249.215z"/>
	<path fill="none" d="M592.758,253.124l0.098-0.129l-0.578,0.051C592.445,253.046,592.605,253.074,592.758,253.124z"/>
	<path fill="none" d="M584.957,254.644c0,4.038,3.285,7.321,7.32,7.321c3.02,0,5.613-1.837,6.734-4.448l-6.768-0.628
		c-1.24-0.019-2.244-1.046-2.244-2.288c0-1.244,1.004-2.271,2.244-2.286l1.231-0.119l2.835-3.657
		c-1.159-0.767-2.544-1.213-4.033-1.213C588.242,247.325,584.957,250.61,584.957,254.644z"/>
	<path fill="none" d="M592.277,256.119l7.017,0.604c0.159-0.524,0.255-1.074,0.291-1.64h-5.855
		C593.523,255.689,592.951,256.119,592.277,256.119z"/>
	<path fill="none" d="M614.856,254.644c0,4.038,3.281,7.321,7.32,7.321c4.036,0,7.319-3.283,7.319-7.321
		c0-4.033-3.283-7.318-7.319-7.318c-1.322,0-2.562,0.353-3.633,0.967c1.042,1.866,2.264,3.733,3.133,4.898
		c0.156-0.054,0.324-0.085,0.5-0.085c0.849,0,1.535,0.688,1.535,1.538c0,0.848-0.687,1.538-1.535,1.538
		c-0.852,0-1.539-0.69-1.539-1.538c0-0.273,0.07-0.527,0.198-0.75c-0.881-1.184-2.123-3.062-3.202-4.982
		C615.941,250.255,614.856,252.323,614.856,254.644z"/>
	<path fill="none" d="M604.785,257.193c-1.103-0.174-1.98-1.021-2.186-2.112h-1.167c-0.027,0.62-0.119,1.224-0.267,1.804
		L604.785,257.193z"/>
	<path fill="none" d="M604.671,251.131l0.494-0.05h0.028c0.716,0,1.379,0.241,1.923,0.636l7.504-7.974h-12.327L604.671,251.131z"/>
	<path fill="none" d="M603.878,252.292l-0.073-0.235l-2.668,0.229c0.146,0.567,0.245,1.155,0.287,1.761l1.184-0.006
		C602.762,253.294,603.234,252.666,603.878,252.292z"/>
	<path fill="#333333" d="M601.637,241.854l-0.492-1.5c0.069-0.032,0.131-0.066,0.192-0.089c0.385-0.163,1.665,0,1.665,0
		c0.65,0,1.148-0.05,1.148-0.7v-0.034c0-0.653-0.578-0.744-1.229-0.798c-0.904-0.072-3.182-0.352-3.556-0.352
		c-0.553,0.004-1.004,0.339-1.285,0.69c-0.183,0.227-0.297,0.493-0.297,0.788c0,0.826,0.544,1.165,1.634,1.165
		c0.241,0,0.507-0.079,0.764-0.186l0.438,1.347C600.603,241.929,601.428,241.678,601.637,241.854z"/>
	<path fill="#333333" d="M622.177,245.479c-1.635,0-3.167,0.43-4.497,1.181c0.164,0.319,0.332,0.652,0.508,0.982
		c1.178-0.672,2.54-1.055,3.989-1.055c4.442,0,8.056,3.61,8.056,8.056c0,4.446-3.613,8.059-8.056,8.059
		c-4.444,0-8.06-3.612-8.06-8.059c0-2.596,1.239-4.913,3.152-6.388c-0.181-0.331-0.352-0.667-0.516-0.996
		c-2.268,1.67-3.746,4.358-3.746,7.384c0,5.055,4.112,9.168,9.169,9.168c5.05,0,9.167-4.113,9.167-9.168
		C631.344,249.593,627.227,245.479,622.177,245.479z"/>
	<path fill="#333333" d="M622.177,256.182c0.849,0,1.535-0.69,1.535-1.538c0-0.851-0.687-1.538-1.535-1.538
		c-0.176,0-0.344,0.031-0.5,0.085c0.329,0.439,0.609,0.782,0.809,0.982c0.218,0.214,0.218,0.565,0,0.781
		c-0.108,0.11-0.248,0.163-0.393,0.163c-0.141,0-0.282-0.053-0.392-0.163c-0.2-0.2-0.504-0.574-0.865-1.061
		c-0.128,0.223-0.198,0.477-0.198,0.75C620.638,255.491,621.325,256.182,622.177,256.182z"/>
	<path fill="#333333" d="M593.41,254.085h0.324c-0.032-0.091-0.072-0.179-0.119-0.26L593.41,254.085z"/>
	<path fill="#333333" d="M605.813,254.889c-0.176,0.229-0.609,0.192-0.62,0.192H602.6c0.205,1.091,1.083,1.938,2.186,2.112
		l-3.619-0.309c0.147-0.58,0.239-1.184,0.267-1.804l-1.107,0.002c-0.033,0.588-0.132,1.155-0.281,1.705l-0.75-0.065l-7.017-0.604
		c0.674,0,1.246-0.43,1.452-1.036l-1.447,0.004c-0.004,0-0.004,0-0.005,0c-0.212,0-0.401-0.066-0.494-0.254
		c-0.096-0.189-0.072-0.359,0.059-0.525l0.916-1.184c-0.152-0.05-0.312-0.078-0.48-0.078l0.578-0.051l0.62-0.8l-1.231,0.119
		c-1.24,0.016-2.244,1.042-2.244,2.286c0,1.242,1.004,2.27,2.244,2.288l6.768,0.628l0.766,0.068c-1.179,2.995-4.094,5.117-7.5,5.117
		c-4.439,0-8.06-3.612-8.06-8.059c0-4.445,3.62-8.056,8.06-8.056c1.658,0,3.201,0.502,4.485,1.365l0.677-0.879
		c-1.472-1.004-3.249-1.595-5.162-1.595c-5.054,0-9.167,4.109-9.167,9.164s4.113,9.168,9.167,9.168c3.987,0,7.382-2.56,8.643-6.119
		l4.245,0.396h0.028c0.006,0,0.011-0.004,0.015-0.004l0.328,2.088l-0.253,0.055c-0.293,0.053-0.483,0.338-0.428,0.63l0.005,0.028
		c0.059,0.293,0.343,0.483,0.633,0.428l2.203-0.438c0.292-0.059,0.483-0.342,0.423-0.634l-0.001-0.028
		c-0.061-0.291-0.346-0.479-0.635-0.423l-0.861,0.17l-0.325-2.073c1.326-0.493,2.284-1.824,2.284-3.303
		c0-0.725-0.232-1.419-0.625-1.987L605.813,254.889z"/>
	<path fill="#333333" d="M602.607,254.041l1.827-0.01l-0.557-1.739C603.234,252.666,602.762,253.294,602.607,254.041z"/>
	<path fill="#C1282D" d="M618.544,248.292c1.07-0.614,2.311-0.967,3.633-0.967c4.036,0,7.319,3.285,7.319,7.318
		c0,4.038-3.283,7.321-7.319,7.321c-4.039,0-7.32-3.283-7.32-7.321c0-2.32,1.085-4.389,2.777-5.732
		c-0.123-0.22-0.244-0.438-0.364-0.655c-1.913,1.475-3.152,3.792-3.152,6.388c0,4.446,3.615,8.059,8.06,8.059
		c4.442,0,8.056-3.612,8.056-8.059c0-4.445-3.613-8.056-8.056-8.056c-1.449,0-2.812,0.383-3.989,1.055
		C618.308,247.859,618.426,248.076,618.544,248.292z"/>
	<path fill="#BF4227" d="M600.044,256.788c0.149-0.55,0.248-1.117,0.281-1.705h-0.74c-0.036,0.565-0.132,1.115-0.291,1.64
		L600.044,256.788z"/>
	<path fill="#BF4227" d="M598.966,251.674l0.772-0.076c-0.471-1.143-1.192-2.156-2.104-2.966l-0.452,0.583
		C597.937,249.897,598.546,250.731,598.966,251.674z"/>
	<path fill="#BF4227" d="M599.26,252.446c0.163,0.515,0.267,1.054,0.312,1.607l0.739-0.003c-0.043-0.571-0.145-1.134-0.302-1.668
		L599.26,252.446z"/>
	<path fill="#C1282D" d="M584.218,254.644c0,4.446,3.62,8.059,8.06,8.059c3.406,0,6.321-2.122,7.5-5.117l-0.766-0.068
		c-1.121,2.611-3.715,4.448-6.734,4.448c-4.035,0-7.32-3.283-7.32-7.321c0-4.033,3.285-7.318,7.32-7.318
		c1.489,0,2.874,0.446,4.033,1.213l0.452-0.585c-1.284-0.863-2.827-1.365-4.485-1.365
		C587.838,246.588,584.218,250.198,584.218,254.644z"/>
	<path fill="#333333" d="M616.445,241.552l0.008-3.676c0.003-0.176-0.081-0.355-0.222-0.458c-0.142-0.104-0.323-0.142-0.49-0.089
		l-2.126,0.218c-0.131-0.102-0.294-0.161-0.475-0.155l-2.866,0.11c-0.406,0.017-0.728,0.358-0.708,0.766
		c0.012,0.333,0.24,0.604,0.545,0.685c0.072,0.022,0.145,0.032,0.221,0.024l2.865-0.105c0.176-0.01,0.33-0.082,0.456-0.189
		l1.691-0.081l-0.01,3.542c0,0.003,0.002,0.009,0.002,0.015c0.003-0.319,0.008-0.58,0.011-0.596
		C615.356,241.269,616.354,241.285,616.445,241.552z"/>
	<path fill="#A62227" d="M617.634,248.911c1.079,1.921,2.321,3.799,3.202,4.982c0.361,0.486,0.665,0.86,0.865,1.061
		c0.109,0.11,0.251,0.163,0.392,0.163c0.145,0,0.284-0.053,0.393-0.163c0.218-0.216,0.218-0.567,0-0.781
		c-0.199-0.2-0.479-0.543-0.809-0.982c-0.869-1.165-2.091-3.032-3.133-4.898c-0.118-0.216-0.236-0.433-0.356-0.649
		c-0.176-0.33-0.344-0.663-0.508-0.982c-0.636-1.288-1.101-2.462-1.205-3.259c0.027-0.107,0.02-0.217-0.024-0.333
		c-0.017-0.518,0.003-1.469,0.003-1.475c0.003-0.014-0.003-0.028-0.008-0.042c-0.091-0.267-1.089-0.283-1.098,0.01
		c-0.003,0.016-0.008,0.276-0.011,0.596c-0.002,0.189-0.002,0.394-0.002,0.585h-13.401l-0.255-0.832
		c-0.007-0.021-0.022-0.041-0.042-0.057c-0.209-0.176-1.034,0.075-1.017,0.332c0,0.01,0,0.02,0.006,0.032l0.184,0.549
		c-0.042,0.028-0.079,0.061-0.11,0.098l-3.26,4.21l-0.677,0.879l-0.452,0.585l-2.835,3.657l-0.62,0.8l-0.098,0.129l-0.916,1.184
		c-0.131,0.166-0.154,0.336-0.059,0.525c0.093,0.188,0.282,0.254,0.494,0.254c0.001,0,0.001,0,0.005,0l1.447-0.004h5.855h0.74
		l1.107-0.002h1.167h2.594c0.011,0,0.444,0.036,0.62-0.192l2.143-2.292l7.624-8.159c0.245,0.829,0.662,1.805,1.174,2.822
		c0.164,0.329,0.335,0.665,0.516,0.996C617.39,248.474,617.511,248.691,617.634,248.911z M602.607,254.041l-1.184,0.006
		l-1.112,0.004l-0.739,0.003l-5.838,0.031h-0.324l0.205-0.26l0.738-0.959l0.63-0.816l2.199-2.835l0.452-0.583l0.679-0.877
		l2.896-3.742l2.326,7.226l0.27,0.818l0.073,0.235l0.557,1.739L602.607,254.041z M607.116,251.717l-1.68,1.791l-0.766-2.377
		l-2.378-7.388h12.327L607.116,251.717z"/>
	<path fill="#333333" d="M603.805,252.057l-0.27-0.818l-2.649,0.254c-0.533-1.454-1.428-2.735-2.572-3.737l-0.679,0.877
		c0.911,0.81,1.633,1.823,2.104,2.966l-0.772,0.076l-3.982,0.376l-0.63,0.816l4.906-0.42l0.75-0.063
		c0.157,0.534,0.259,1.097,0.302,1.668l1.112-0.004c-0.042-0.605-0.142-1.193-0.287-1.761L603.805,252.057z"/>
	<path fill="#333333" d="M605.165,251.081l-0.494,0.05l0.766,2.377l1.68-1.791c-0.544-0.395-1.207-0.636-1.923-0.636H605.165z"/>
</g>
<g>
	<path fill="#C6D92D" d="M691.851,227.829c0,9.045-7.337,16.38-16.389,16.38c-9.048,0-16.387-7.335-16.387-16.38
		c0-9.051,7.339-16.391,16.387-16.391C684.514,211.438,691.851,218.778,691.851,227.829z"/>
	<g>
		<path fill="#85BD41" d="M675.465,244.209v-32.771c-9.051,0-16.39,7.34-16.39,16.385
			C659.075,236.874,666.414,244.209,675.465,244.209z"/>
	</g>
	<rect x="673.286" y="234.968" fill="#754D25" width="4.354" height="28.844"/>
</g>
<g>
	<path fill="#85BD41" d="M709.066,251.739c-3.243,0-6.183,1.284-8.352,3.366c-2.892-4.56-7.972-7.595-13.768-7.595
		c-9.001,0-16.296,7.296-16.298,16.301h50.494C721.144,257.143,715.737,251.739,709.066,251.739z"/>
</g>
<g>
	<path fill="#C6D92D" d="M908.358,227.829c0,9.045-7.339,16.38-16.386,16.38c-9.048,0-16.386-7.335-16.386-16.38
		c0-9.051,7.338-16.391,16.386-16.391C901.02,211.438,908.358,218.778,908.358,227.829z"/>
	<g>
		<path fill="#85BD41" d="M891.974,244.209v-32.771c-9.049,0-16.387,7.34-16.387,16.385
			C875.587,236.874,882.925,244.209,891.974,244.209z"/>
	</g>
	<rect x="889.798" y="234.968" fill="#754D25" width="4.351" height="28.844"/>
</g>
<g>
	<path fill="#85BD41" d="M897.063,251.739c3.243,0,6.185,1.284,8.354,3.366c2.892-4.56,7.968-7.595,13.764-7.595
		c9.004,0,16.302,7.296,16.302,16.301h-50.494C884.99,257.143,890.396,251.739,897.063,251.739z"/>
</g>
<g>
	<path fill="#C6D92D" d="M478.427,227.829c0,9.045-7.338,16.38-16.386,16.38c-9.05,0-16.387-7.335-16.387-16.38
		c0-9.051,7.337-16.391,16.387-16.391C471.089,211.438,478.427,218.778,478.427,227.829z"/>
	<g>
		<path fill="#85BD41" d="M462.041,244.209v-32.771c-9.05,0-16.387,7.34-16.387,16.385
			C445.654,236.874,452.991,244.209,462.041,244.209z"/>
	</g>
	<rect x="459.865" y="234.968" fill="#754D25" width="4.352" height="28.844"/>
</g>
<g>
	<path fill="#C6D92D" d="M455.067,221.107c0,10.734-8.704,19.442-19.444,19.442c-10.737,0-19.445-8.708-19.445-19.442
		c0-10.737,8.708-19.443,19.445-19.443C446.363,201.664,455.067,210.37,455.067,221.107z"/>
	<g>
		<path fill="#85BD41" d="M435.624,240.55v-38.886c-10.74,0-19.445,8.71-19.445,19.44
			C416.179,231.845,424.884,240.55,435.624,240.55z"/>
	</g>
	<rect x="433.043" y="229.584" fill="#754D25" width="5.161" height="34.228"/>
</g>
<g>
	<path fill="#C6D92D" d="M119.628,221.107c0,10.734-8.708,19.442-19.445,19.442c-10.739,0-19.445-8.708-19.445-19.442
		c0-10.737,8.706-19.443,19.445-19.443C110.921,201.664,119.628,210.37,119.628,221.107z"/>
	<g>
		<path fill="#85BD41" d="M100.182,240.55v-38.886c-10.737,0-19.443,8.71-19.443,19.44C80.739,231.845,89.445,240.55,100.182,240.55
			z"/>
	</g>
	<rect x="97.603" y="229.584" fill="#754D25" width="5.163" height="34.228"/>
</g>
<g>
	<path fill="#C6D92D" d="M93.403,227.829c0,9.045-7.338,16.38-16.387,16.38c-9.048,0-16.386-7.335-16.386-16.38
		c0-9.051,7.337-16.391,16.386-16.391C86.065,211.438,93.403,218.778,93.403,227.829z"/>
	<g>
		<path fill="#85BD41" d="M77.018,244.209v-32.771c-9.05,0-16.387,7.34-16.387,16.385C60.63,236.874,67.968,244.209,77.018,244.209z
			"/>
	</g>
	<rect x="74.841" y="234.968" fill="#754D25" width="4.351" height="28.844"/>
</g>
<rect x="35.295" y="263.812" fill="#5B746F" width="925.521" height="13.798"/>
<rect x="35.295" y="326.786" fill="#5B746F" width="925.521" height="13.798"/>
<rect x="60.5" y="340.584" fill="#85BD41" width="875.113" height="13.799"/>
<g>
	<rect x="6.013" y="277.584" fill="#475A56" width="984.087" height="49.202"/>
	<g>
		<path fill="#FFFFFF" d="M881.529,302.186c0,1.193,0.966,2.16,2.159,2.16h13.25c1.192,0,2.156-0.967,2.156-2.16l0,0
			c0-1.193-0.964-2.16-2.156-2.16h-13.25C882.495,300.025,881.529,300.992,881.529,302.186L881.529,302.186z"/>
		<path fill="#FFFFFF" d="M915.638,302.186c0,1.193,0.967,2.16,2.163,2.16h13.248c1.19,0,2.156-0.967,2.156-2.16l0,0
			c0-1.193-0.966-2.16-2.156-2.16h-13.248C916.604,300.025,915.638,300.992,915.638,302.186L915.638,302.186z"/>
		<path fill="#FFFFFF" d="M949.75,302.186c0,1.193,0.967,2.16,2.16,2.16h13.251c1.189,0,2.156-0.967,2.156-2.16l0,0
			c0-1.193-0.967-2.16-2.156-2.16H951.91C950.717,300.025,949.75,300.992,949.75,302.186L949.75,302.186z"/>
		<path fill="#FFFFFF" d="M847.419,302.186c0,1.193,0.967,2.16,2.16,2.16h13.245c1.19,0,2.161-0.967,2.161-2.16l0,0
			c0-1.193-0.971-2.16-2.161-2.16h-13.245C848.386,300.025,847.419,300.992,847.419,302.186L847.419,302.186z"/>
		<path fill="#FFFFFF" d="M813.312,302.186c0,1.193,0.966,2.16,2.159,2.16h13.245c1.192,0,2.159-0.967,2.159-2.16l0,0
			c0-1.193-0.967-2.16-2.159-2.16h-13.245C814.277,300.025,813.312,300.992,813.312,302.186L813.312,302.186z"/>
		<path fill="#FFFFFF" d="M779.199,302.186c0,1.193,0.968,2.16,2.161,2.16h13.245c1.197,0,2.161-0.967,2.161-2.16l0,0
			c0-1.193-0.964-2.16-2.161-2.16H781.36C780.167,300.025,779.199,300.992,779.199,302.186L779.199,302.186z"/>
		<path fill="#FFFFFF" d="M745.09,302.186c0,1.193,0.968,2.16,2.162,2.16h13.245c1.193,0,2.157-0.967,2.157-2.16l0,0
			c0-1.193-0.964-2.16-2.157-2.16h-13.245C746.058,300.025,745.09,300.992,745.09,302.186L745.09,302.186z"/>
		<path fill="#FFFFFF" d="M710.978,302.186c0,1.193,0.967,2.16,2.16,2.16h13.251c1.19,0,2.156-0.967,2.156-2.16l0,0
			c0-1.193-0.966-2.16-2.156-2.16h-13.251C711.944,300.025,710.978,300.992,710.978,302.186L710.978,302.186z"/>
		<path fill="#FFFFFF" d="M676.871,302.186c0,1.193,0.967,2.16,2.16,2.16h13.247c1.192,0,2.156-0.967,2.156-2.16l0,0
			c0-1.193-0.964-2.16-2.156-2.16h-13.247C677.838,300.025,676.871,300.992,676.871,302.186L676.871,302.186z"/>
		<path fill="#FFFFFF" d="M642.763,302.186c0,1.193,0.967,2.16,2.159,2.16h13.248c1.194,0,2.156-0.967,2.156-2.16l0,0
			c0-1.193-0.962-2.16-2.156-2.16h-13.248C643.729,300.025,642.763,300.992,642.763,302.186L642.763,302.186z"/>
		<path fill="#FFFFFF" d="M608.651,302.186c0,1.193,0.968,2.16,2.161,2.16h13.246c1.193,0,2.16-0.967,2.16-2.16l0,0
			c0-1.193-0.967-2.16-2.16-2.16h-13.246C609.619,300.025,608.651,300.992,608.651,302.186L608.651,302.186z"/>
		<path fill="#FFFFFF" d="M574.54,302.186c0,1.193,0.967,2.16,2.16,2.16h13.245c1.193,0,2.161-0.967,2.161-2.16l0,0
			c0-1.193-0.968-2.16-2.161-2.16H576.7C575.507,300.025,574.54,300.992,574.54,302.186L574.54,302.186z"/>
		<path fill="#FFFFFF" d="M540.43,302.186c0,1.193,0.97,2.16,2.163,2.16h13.248c1.191,0,2.158-0.967,2.158-2.16l0,0
			c0-1.193-0.967-2.16-2.158-2.16h-13.248C541.399,300.025,540.43,300.992,540.43,302.186L540.43,302.186z"/>
		<path fill="#FFFFFF" d="M506.323,302.186c0,1.193,0.966,2.16,2.162,2.16h13.245c1.191,0,2.157-0.967,2.157-2.16l0,0
			c0-1.193-0.966-2.16-2.157-2.16h-13.245C507.289,300.025,506.323,300.992,506.323,302.186L506.323,302.186z"/>
		<path fill="#FFFFFF" d="M472.211,302.186c0,1.193,0.969,2.16,2.161,2.16h13.248c1.193,0,2.158-0.967,2.158-2.16l0,0
			c0-1.193-0.965-2.16-2.158-2.16h-13.248C473.18,300.025,472.211,300.992,472.211,302.186L472.211,302.186z"/>
		<path fill="#FFFFFF" d="M438.103,302.186c0,1.193,0.967,2.16,2.16,2.16h13.247c1.193,0,2.158-0.967,2.158-2.16l0,0
			c0-1.193-0.965-2.16-2.158-2.16h-13.247C439.069,300.025,438.103,300.992,438.103,302.186L438.103,302.186z"/>
		<path fill="#FFFFFF" d="M403.994,302.186c0,1.193,0.967,2.16,2.161,2.16H419.4c1.195,0,2.158-0.967,2.158-2.16l0,0
			c0-1.193-0.963-2.16-2.158-2.16h-13.245C404.961,300.025,403.994,300.992,403.994,302.186L403.994,302.186z"/>
		<path fill="#FFFFFF" d="M369.885,302.186c0,1.193,0.966,2.16,2.161,2.16h13.245c1.194,0,2.159-0.967,2.159-2.16l0,0
			c0-1.193-0.964-2.16-2.159-2.16h-13.245C370.851,300.025,369.885,300.992,369.885,302.186L369.885,302.186z"/>
		<path fill="#FFFFFF" d="M335.776,302.186c0,1.193,0.967,2.16,2.161,2.16h13.246c1.194,0,2.158-0.967,2.158-2.16l0,0
			c0-1.193-0.964-2.16-2.158-2.16h-13.246C336.744,300.025,335.776,300.992,335.776,302.186L335.776,302.186z"/>
		<path fill="#FFFFFF" d="M301.667,302.186c0,1.193,0.968,2.16,2.161,2.16h13.246c1.194,0,2.158-0.967,2.158-2.16l0,0
			c0-1.193-0.964-2.16-2.158-2.16h-13.246C302.634,300.025,301.667,300.992,301.667,302.186L301.667,302.186z"/>
		<path fill="#FFFFFF" d="M267.559,302.186c0,1.193,0.967,2.16,2.16,2.16h13.247c1.194,0,2.159-0.967,2.159-2.16l0,0
			c0-1.193-0.965-2.16-2.159-2.16h-13.247C268.526,300.025,267.559,300.992,267.559,302.186L267.559,302.186z"/>
		<path fill="#FFFFFF" d="M233.449,302.186c0,1.193,0.968,2.16,2.161,2.16h13.247c1.193,0,2.158-0.967,2.158-2.16l0,0
			c0-1.193-0.964-2.16-2.158-2.16H235.61C234.417,300.025,233.449,300.992,233.449,302.186L233.449,302.186z"/>
		<path fill="#FFFFFF" d="M199.341,302.186c0,1.193,0.967,2.16,2.16,2.16h13.248c1.193,0,2.157-0.967,2.157-2.16l0,0
			c0-1.193-0.963-2.16-2.157-2.16h-13.248C200.308,300.025,199.341,300.992,199.341,302.186L199.341,302.186z"/>
		<path fill="#FFFFFF" d="M165.231,302.186c0,1.193,0.966,2.16,2.16,2.16h13.247c1.193,0,2.159-0.967,2.159-2.16l0,0
			c0-1.193-0.965-2.16-2.159-2.16h-13.247C166.198,300.025,165.231,300.992,165.231,302.186L165.231,302.186z"/>
		<path fill="#FFFFFF" d="M131.123,302.186c0,1.193,0.967,2.16,2.162,2.16h13.246c1.193,0,2.158-0.967,2.158-2.16l0,0
			c0-1.193-0.964-2.16-2.158-2.16h-13.246C132.09,300.025,131.123,300.992,131.123,302.186L131.123,302.186z"/>
		<path fill="#FFFFFF" d="M97.014,302.186c0,1.193,0.967,2.16,2.161,2.16h13.247c1.194,0,2.157-0.967,2.157-2.16l0,0
			c0-1.193-0.963-2.16-2.157-2.16H99.174C97.98,300.025,97.014,300.992,97.014,302.186L97.014,302.186z"/>
		<path fill="#FFFFFF" d="M62.905,302.186c0,1.193,0.967,2.16,2.161,2.16h13.246c1.194,0,2.159-0.967,2.159-2.16l0,0
			c0-1.193-0.965-2.16-2.159-2.16H65.066C63.872,300.025,62.905,300.992,62.905,302.186L62.905,302.186z"/>
		<path fill="#FFFFFF" d="M28.795,302.186c0,1.193,0.967,2.16,2.161,2.16h13.246c1.194,0,2.159-0.967,2.159-2.16l0,0
			c0-1.193-0.965-2.16-2.159-2.16H30.957C29.763,300.025,28.795,300.992,28.795,302.186L28.795,302.186z"/>
	</g>
</g>
<g>
	<path fill="#C1282D" d="M424.8,305.714c0.513-9.419,7.066-19.926,10.895-19.926h38.943c2.479,0,13.892,10.768,14.885,15.069h8.417
		c3.02,0,5.466,2.449,5.466,5.466v5.466c0,3.018-2.446,5.466-5.466,5.466h-67.711c-3.017,0-5.465-2.448-5.465-5.466v-5.466
		C424.764,306.119,424.778,305.915,424.8,305.714z"/>
	<path fill="#33413E" d="M482.648,315.921c0-3.854,3.127-6.979,6.982-6.979c3.856,0,6.981,3.124,6.981,6.979
		c0,3.857-3.125,6.981-6.981,6.981C485.776,322.902,482.648,319.778,482.648,315.921z"/>
	<circle fill="#475A56" cx="489.632" cy="315.921" r="3.22"/>
	<path fill="#33413E" d="M429.641,315.921c0-3.854,3.126-6.979,6.981-6.979c3.856,0,6.983,3.124,6.983,6.979
		c0,3.857-3.126,6.981-6.983,6.981C432.768,322.902,429.641,319.778,429.641,315.921z"/>
	<circle fill="#475A56" cx="436.623" cy="315.921" r="3.22"/>
	<path fill="#68857D" d="M475.323,289.366h-29.167v10.066h36.629C485.398,299.433,477.784,291.41,475.323,289.366z M429.641,299.433
		c0,0,6.342,0,14.645,0v-10.066h-9.336C433.365,291.113,431.138,295.015,429.641,299.433z"/>
	<path fill="#FFFFFF" d="M424.765,306.305h1.733c0.484,0,0.878,0.393,0.878,0.879v0.879c0,0.486-0.394,0.88-0.878,0.88h-1.734
		v-2.619C424.764,306.317,424.765,306.311,424.765,306.305z"/>
	<path fill="#FFFFFF" d="M502.048,304.05h0.858c0.316,0.694,0.499,1.464,0.499,2.273v1.698h-1.357c-0.729,0-1.321-0.594-1.321-1.324
		v-1.325C500.727,304.644,501.319,304.05,502.048,304.05z"/>
	<path fill="#33413E" d="M424.379,311.902c-0.632,0-1.146,0.512-1.146,1.149v1.143c0,0.631,0.514,1.146,1.146,1.146h1.851
		c0.633,0,1.146-0.515,1.146-1.146v-1.143c0-0.638-0.514-1.149-1.146-1.149H424.379z"/>
	<path fill="#33413E" d="M502.48,311.902c-0.633,0-1.146,0.512-1.146,1.149v1.143c0,0.631,0.513,1.146,1.146,1.146h1.85
		c0.633,0,1.146-0.515,1.146-1.146v-1.143c0-0.638-0.513-1.149-1.146-1.149H502.48z"/>
	<path fill="#A62227" d="M481.284,302.163c1.508,0,2.729-1.224,2.729-2.73c0-1.508-1.222-2.729-2.729-2.729V302.163z"/>
</g>
<g>
	<path fill="#9DD6C6" d="M289.778,280.071c-0.512-9.423-7.068-19.928-10.895-19.928h-15.932c-2.479,0-13.889,10.766-14.885,15.067
		h-8.416c-3.017,0-5.467,2.449-5.467,5.469v5.463c0,3.02,2.45,5.466,5.467,5.466h44.699c3.018,0,5.464-2.446,5.464-5.466v-5.463
		C289.813,280.473,289.801,280.269,289.778,280.071z"/>
	<g>
		<circle fill="#33413E" cx="247.957" cy="290.277" r="6.982"/>
		<circle fill="#475A56" cx="247.958" cy="290.277" r="3.221"/>
	</g>
	<g>
		<circle fill="#33413E" cx="277.955" cy="290.277" r="6.983"/>
		<circle fill="#475A56" cx="277.955" cy="290.277" r="3.221"/>
	</g>
	<path fill="#68857D" d="M279.628,263.72h-17.364c-2.459,2.048-10.075,10.065-7.46,10.065c1.944,0,30.134,0,30.134,0
		C283.44,269.371,281.214,265.465,279.628,263.72z"/>
	<path fill="#FFFFFF" d="M289.813,280.657h-1.731c-0.486,0-0.879,0.394-0.879,0.88v0.879c0,0.484,0.394,0.876,0.879,0.876h1.731
		v-2.612C289.813,280.671,289.813,280.664,289.813,280.657z"/>
	<path fill="#FFFFFF" d="M235.541,278.407h-0.856c-0.317,0.69-0.501,1.456-0.501,2.272v1.695h1.358c0.728,0,1.323-0.59,1.323-1.322
		v-1.324C236.864,278.997,236.269,278.407,235.541,278.407z"/>
	<g>
		<path fill="#33413E" d="M290.199,286.256c0.632,0,1.144,0.512,1.144,1.146v1.146c0,0.634-0.512,1.146-1.144,1.146h-1.853
			c-0.631,0-1.144-0.513-1.144-1.146v-1.146c0-0.634,0.513-1.146,1.144-1.146H290.199z"/>
	</g>
	<g>
		<path fill="#33413E" d="M235.107,286.256c0.637,0,1.149,0.512,1.149,1.146v1.146c0,0.634-0.512,1.146-1.149,1.146h-1.848
			c-0.634,0-1.146-0.513-1.146-1.146v-1.146c0-0.634,0.513-1.146,1.146-1.146H235.107z"/>
	</g>
	<path fill="#81CCB5" d="M255.907,275.723c-1.068,0-1.937-0.867-1.937-1.938c0-1.064,0.869-1.934,1.937-1.934V275.723z"/>
</g>
</svg>
